<?xml version="1.0" encoding="UTF-8"?>
<!DOCTYPE svg PUBLIC "-//W3C//DTD SVG 1.1//EN" "http://www.w3.org/Graphics/SVG/1.1/DTD/svg11.dtd">
<!-- Creator: CorelDRAW 2019 (64-Bit) -->
<svg xmlns="http://www.w3.org/2000/svg" xml:space="preserve" width="42.3332mm" height="42.3332mm" version="1.1" style="shape-rendering:geometricPrecision; text-rendering:geometricPrecision; image-rendering:optimizeQuality; fill-rule:evenodd; clip-rule:evenodd"
viewBox="0 0 4233.32 4233.32"
 xmlns:xlink="http://www.w3.org/1999/xlink">
 <defs>
  <style type="text/css">
   <![CDATA[
    .fil0 {fill:none}
    .fil1 {fill:#030129;fill-rule:nonzero}
    .fil2 {fill:#AE904E;fill-rule:nonzero}
   ]]>
  </style>
 </defs>
 <g id="Layer_x0020_1">
  <metadata id="CorelCorpID_0Corel-Layer"/>
  <rect class="fil0" x="1.2" y="0.09" width="4233.33" height="4233.33"/>
  <path class="fil1" d="M1875.31 1280.31l45.11 -44.71c35.88,-35.19 50.11,-54.27 50.11,-81.39 0,-32.52 -21.96,-57.84 -65.27,-57.84 -43.29,0 -69.69,23.55 -73.85,67.07l-0.29 2.99 32.62 0 0.32 -2.99c2.65,-27.15 14.23,-42.04 37.65,-42.04 22.25,0 33.52,15.8 33.52,35.77 0,19.69 -11.27,34.58 -37.07,60.25l-71.52 72.42 0 16.72 142.69 0 0 -26.25 -94.03 0 0.01 0zm200.82 -183.65c-56.94,0 -76.52,44.71 -76.52,107.02 0,61.73 19.58,107.02 76.52,107.02 57.26,0 76.54,-45.3 76.54,-107.02 0,-62.31 -19.29,-107.02 -76.54,-107.02zm0 189.02c-29.05,0 -41.22,-29.24 -41.22,-81.99 0,-53.37 12.17,-81.99 41.22,-81.99 29.37,0 41.25,28.63 41.25,81.99 0,52.76 -11.88,81.99 -41.25,81.99zm217.43 -184.86l-18.1 0c-9.18,0 -17.78,2.09 -27.28,7.75l-45.09 27.73 0 32.2 57.84 -33.39 0 171.45 32.62 0 0 -205.74 0.01 0zm175.63 96.92c18.68,-6.59 33.81,-21.78 33.81,-45.03 0,-33.97 -25.82,-56.04 -68.24,-56.04 -42.12,0 -68.24,22.07 -68.24,56.04 0,22.97 13.07,38.15 31.17,45.03 -21.67,6.85 -40.35,25.32 -40.35,50.96 0,45.03 33.52,62.34 75.35,62.34 38.84,0 75.62,-17.3 75.62,-62.34 0,-25.64 -17.78,-44.11 -39.13,-50.96l0.01 0zm-34.42 -76.05c22.54,0 34.1,14.02 34.1,32.23 0,19.37 -12.14,33.07 -34.4,33.07 -22.25,0 -33.81,-13.71 -33.81,-33.07 0,-18.2 11.85,-32.23 34.1,-32.23l0.01 0zm-1.48 164.31c-26.99,0 -40.93,-15.21 -40.93,-36.99 0,-20.27 13.04,-36.99 40.64,-36.99 28.18,0 40.03,17.01 40.03,36.99 0,21.78 -12.44,36.99 -39.74,36.99z"/>
  <path class="fil1" d="M1687.64 1700.79c-9.15,-1.16 -16.3,-1.16 -26.86,-1.16l-64.58 0 0 198.17 31.43 0 0 -78.11 33.15 0c10.56,0 17.7,0 26.86,-1.16 28.58,-3.73 52.02,-23.84 52.02,-58.87 0,-35.03 -21.17,-54.85 -52.02,-58.87zm-6.01 92.18c-5.13,0.87 -12.01,1.14 -20,1.14l-34 0 0 -68.92 34 0c7.99,0 14.87,0.29 20,1.16 13.71,2.59 24.87,12.36 24.87,33.31 0,20.98 -11.17,30.72 -24.87,33.31zm149.17 -51.41c-7.73,0 -16.56,3.18 -23.44,8.63l-12.83 20.96 0 -25.85 -31.46 0 0 152.51 31.46 0 0 -79.27c0,-37.62 17.99,-52.55 46.86,-50.54l0 -24.71c-3.18,-1.14 -6.3,-1.72 -10.58,-1.72l-0.01 -0.01zm161.16 76.12c0,-43.1 -23.73,-76.41 -67.73,-76.41 -43.71,0 -74.27,32.46 -74.27,80.7 0,54 30.56,79.88 71.15,79.88 33.13,0 62.02,-17.25 68.58,-53.42l-31.72 0c-3.15,19.24 -17.44,30.43 -35.72,30.43 -20.58,0 -37.15,-12.07 -39.71,-48.55l108.88 0c0.56,-5.45 0.56,-9.74 0.56,-12.62l-0.02 -0.01zm-68.87 -53.42c22.01,0 34.29,15.8 36.59,43.92l-76.86 0c3.41,-29.29 18.84,-43.92 40.27,-43.92zm311.47 14.37c-3.44,-20.98 -19.42,-37.36 -47.44,-37.36 -13.41,0 -24,2.59 -32.28,8.92l-14 20.11c-5.74,-16.93 -20.88,-29.02 -44.87,-29.02 -13.71,0 -24.29,2.59 -32.31,8.92l-10.27 17.81 0 -22.7 -31.43 0 0 152.51 31.43 0 0 -76.68c0,-41.35 11.99,-56.59 30.59,-56.59 16.27,0 25.98,8.63 28.26,25 0.87,7.75 1.16,16.06 1.16,27.57l0 80.7 31.14 0 0 -76.68c0,-41.35 12.3,-56.59 30.59,-56.59 16.27,0 26.27,8.63 28.28,25 0.85,7.75 1.14,16.06 1.14,27.57l0 80.7 31.43 0 0 -92.21c0,-12.33 -0.29,-19.24 -1.43,-26.96l0.01 -0.02zm55.46 -86.47c-10.58,0 -18.31,7.78 -18.31,18.1 0,10.61 7.73,18.39 18.31,18.39 10.56,0 18.55,-7.78 18.55,-18.39 0,-10.32 -7.99,-18.1 -18.55,-18.1zm15.68 205.64l0 -152.51 -31.41 0 0 152.51 31.41 0zm172.62 -152.51l-31.17 0 0 71.81c0,44.24 -16.56,61.17 -38.58,61.17 -19.42,0 -30.27,-10.9 -32.57,-27.57 -0.85,-7.75 -1.14,-16.09 -1.14,-20.96l0 -84.46 -31.14 0 0 90.75c0,12.38 0.29,19.26 1.43,27.01 3.44,20.96 21.72,38.79 53.15,38.79 15.13,0 26.27,-2.59 38.29,-11.22l10.56 -18.94 0 26.11 31.17 0 0 -152.51 0 0.02zm252.89 33.34c-3.44,-20.98 -19.45,-37.36 -47.44,-37.36 -13.44,0 -24.02,2.59 -32.31,8.92l-14 20.11c-5.72,-16.93 -20.85,-29.02 -44.85,-29.02 -13.73,0 -24.29,2.59 -32.31,8.92l-10.27 17.81 0 -22.7 -31.46 0 0 152.51 31.46 0 0 -76.68c0,-41.35 11.99,-56.59 30.56,-56.59 16.3,0 26.01,8.63 28.28,25 0.87,7.75 1.14,16.06 1.14,27.57l0 80.7 31.17 0 0 -76.68c0,-41.35 12.28,-56.59 30.59,-56.59 16.27,0 26.27,8.63 28.28,25 0.85,7.75 1.14,16.06 1.14,27.57l0 80.7 31.43 0 0 -92.21c0,-12.33 -0.29,-19.24 -1.43,-26.96l0.02 -0.02zm-1429.2 320.81l-31.14 0 0 88.16 -101.15 0 0 -88.16 -31.43 0 0 198.17 31.43 0 0 -84.46 101.15 0 0 84.46 31.14 0 0 -198.17zm105.73 41.64c-51.14,0 -76.86,35.61 -76.86,80.14 0,44.5 25.72,80.41 76.86,80.41 50.85,0 76.86,-35.9 76.86,-80.41 0,-44.53 -26.01,-80.14 -76.86,-80.14zm0 137.56c-27.73,0 -43.71,-22.97 -43.71,-57.41 0,-34.48 15.98,-57.18 43.71,-57.18 27.44,0 43.44,22.7 43.44,57.18 0,34.45 -16.01,57.41 -43.44,57.41zm236.88 -133.54l-31.14 0 0 71.81c0,44.21 -16.56,61.17 -38.58,61.17 -19.42,0 -30.29,-10.93 -32.57,-27.57 -0.85,-7.78 -1.14,-16.09 -1.14,-20.98l0 -84.43 -31.17 0 0 90.75c0,12.33 0.32,19.24 1.46,26.99 3.41,20.98 21.72,38.79 53.13,38.79 15.16,0 26.3,-2.59 38.31,-11.22l10.56 -18.94 0 26.14 31.14 0 0 -152.51zm89.16 -4.02c-33.71,0 -56.01,17.22 -56.01,45.67 0,26.7 20.58,38.47 48.29,45.67 25.72,6.88 36.01,14.08 36.01,27.28 0,13.2 -11.69,19.53 -26.27,19.53 -15.72,0 -28.58,-7.75 -32.28,-27.28l-31.72 0c4.29,34.45 29.13,49.69 62.87,49.69 33.13,0 59.13,-14.66 59.13,-44.24 0,-26.99 -17.44,-40.22 -50.59,-48.82 -22.57,-6.03 -33.71,-11.77 -33.71,-25.56 0,-11.51 7.14,-19.82 22.01,-19.82 15.43,0 24.84,9.47 27.99,25.53l32.01 0c-3.44,-27.83 -22.86,-47.65 -57.73,-47.65l0 0zm102.87 -49.11c-10.58,0 -18.28,7.75 -18.28,18.07 0,10.64 7.7,18.39 18.28,18.39 10.56,0 18.57,-7.75 18.57,-18.39 0,-10.32 -8.02,-18.07 -18.57,-18.07zm15.72 205.64l0 -152.51 -31.43 0 0 152.51 31.43 0zm174.31 -112.87c-2.86,-26.72 -21.43,-43.66 -54,-43.66 -15.13,0 -26.27,2.59 -38.29,11.77l-10.29 17.52 0 -25.27 -31.43 0 0 152.51 31.43 0 0 -68.37c0,-47.68 17.73,-64.9 39.45,-64.9 21.4,0 30.56,12.07 31.99,29.29 0.58,7.75 0.58,14.37 0.58,21.56l0 82.42 31.41 0 0 -85.88c0,-12.33 -0.26,-19.24 -0.85,-26.99zm178.62 -39.64l-31.46 0 0 20.66 -10 -15.21c-7.7,-6.03 -23.42,-9.47 -36.01,-9.47 -39.13,0 -73.42,26.43 -73.42,82.13 0,44.82 25.43,76.99 69.14,76.99 15.43,0 30.32,-4.6 38.87,-11.51l11.43 -16.64 0 3.15c0,5.48 0,10.93 -0.29,17.52 -1.14,27.31 -16.85,42.23 -44.26,42.23 -23.44,0 -37.44,-11.22 -39.45,-27.57l-0.29 -2.59 -30.85 0 0.29 2.88c3.12,32.73 26.3,51.12 70.01,51.12 45.72,0 74.3,-23.28 76.01,-69.51 0.29,-8.33 0.29,-20.11 0.29,-29.58l0 -114.59 -0.01 -0.01zm-75.46 132.11c-27.15,0 -42.28,-23.81 -42.28,-56.86 0,-37.91 18.86,-56.3 43.71,-56.3 20.29,0 42.57,13.78 42.57,50.83l0 6.61c0,40.8 -20.27,55.72 -44,55.72l0 0zm273.47 -176.61c-9.15,-1.16 -16.3,-1.16 -26.86,-1.16l-64.61 0 0 198.17 31.43 0 0 -78.11 33.18 0c10.56,0 17.7,0 26.86,-1.16 28.55,-3.73 51.99,-23.84 51.99,-58.87 0,-35.06 -21.14,-54.87 -51.99,-58.87zm-6.01 92.18c-5.13,0.85 -12.01,1.14 -20.03,1.14l-34 0 0 -68.92 34 0c8.02,0 14.9,0.29 20.03,1.14 13.71,2.59 24.87,12.36 24.87,33.34 0,20.96 -11.17,30.72 -24.87,33.31l0 -0.01zm149.15 -51.41c-7.7,0 -16.56,3.15 -23.42,8.6l-12.86 20.98 0 -25.85 -31.43 0 0 152.51 31.43 0 0 -79.27c0,-37.62 17.99,-52.57 46.86,-50.56l0 -24.69c-3.15,-1.16 -6.27,-1.72 -10.58,-1.72zm96.02 -0.29c-51.14,0 -76.86,35.61 -76.86,80.14 0,44.5 25.72,80.41 76.86,80.41 50.88,0 76.86,-35.9 76.86,-80.41 0,-44.53 -25.98,-80.14 -76.86,-80.14zm0 137.56c-27.7,0 -43.71,-22.97 -43.71,-57.41 0,-34.48 16.01,-57.18 43.71,-57.18 27.44,0 43.42,22.7 43.42,57.18 0,34.45 -15.98,57.41 -43.42,57.41zm119.16 -186.67c-11.43,0 -18.57,7.17 -18.57,18.07 0,11.22 7.14,18.39 18.57,18.39 11.14,0 18.28,-7.17 18.28,-18.39 0,-10.9 -7.14,-18.07 -18.28,-18.07zm15.43 53.13l-31.14 0 0 162.27c0,4.31 0,8.92 -0.56,12.91 -1.16,10.35 -8.02,14.66 -24.32,13.23l0 23.81c4,0.58 8.02,0.58 13.15,0.58 28.58,0 40.3,-12.07 42.31,-33.02 0.26,-5.16 0.56,-12.65 0.56,-18.39l0 -161.4 0 0.01zm170.6 72.37c0,-43.07 -23.73,-76.39 -67.73,-76.39 -43.71,0 -74.3,32.44 -74.3,80.7 0,54 30.59,79.85 71.15,79.85 33.15,0 62.02,-17.22 68.58,-53.45l-31.72 0c-3.12,19.26 -17.41,30.45 -35.72,30.45 -20.56,0 -37.12,-12.04 -39.69,-48.52l108.85 0c0.58,-5.45 0.58,-9.76 0.58,-12.65l0 0.01zm-68.87 -53.42c21.99,0 34.29,15.8 36.57,43.95l-76.86 0c3.44,-29.29 18.86,-43.95 40.3,-43.95l-0.01 0zm160.87 -22.97c-39.71,0 -73.42,29 -73.42,80.99 0,54.29 30,79.56 69.72,79.56 35.72,0 62.02,-18.1 69.14,-54.58l-31.99 0c-4.58,20.69 -17.44,31.59 -35.43,31.59 -21.14,0 -38.29,-17.52 -38.29,-58.87 0,-38.21 17.41,-55.72 39.42,-55.72 18.57,0 30.85,10.64 35.43,33.89l31.72 0c-3.73,-33.6 -27.99,-56.86 -66.3,-56.86zm130.89 27.28l29.71 0 0 -22.12 -29.71 0 0 -36.46 -31.14 0 0 36.46 -21.46 0 0 22.12 21.46 0 0 82.71c0,8.63 0,15.24 0.26,20.4 1.43,20.11 11.72,29 35.45,29 7.7,0 15.13,-0.56 23.12,-1.69l0 -21.85c-20.56,2.01 -26.27,-1.14 -27.41,-16.09 -0.29,-4.02 -0.29,-7.43 -0.29,-12.65l0 -79.82 0.01 -0.01zm-1611.79 372.51c-51.14,0 -76.86,35.61 -76.86,80.14 0,44.53 25.72,80.41 76.86,80.41 50.88,0 76.86,-35.88 76.86,-80.41 0,-44.53 -25.98,-80.14 -76.86,-80.14zm0 137.58c-27.7,0 -43.71,-22.99 -43.71,-57.44 0,-34.48 16.01,-57.15 43.71,-57.15 27.44,0 43.42,22.67 43.42,57.15 0,34.45 -15.98,57.44 -43.42,57.44zm139.17 -158.59c1.72,-12.67 14.29,-17.28 32.86,-13.84l0 -23.44c-5.16,-1.16 -11.14,-1.72 -17.44,-1.72 -28.58,0 -44.29,13.73 -46.86,37.28 -0.58,5.16 -0.58,12.67 -0.58,18.15l0 9.76 -16.27 0 0 22.12 16.27 0 0 129.22 31.14 0 0 -129.22 31.17 0 0 -22.12 -31.17 0 0 -11.48c0,-4.31 0.29,-10.69 0.87,-14.71l0.01 0zm150.87 48.31l29.71 0 0 -22.12 -29.71 0 0 -36.49 -31.14 0 0 36.49 -21.43 0 0 22.12 21.43 0 0 82.71c0,8.63 0,15.21 0.29,20.4 1.43,20.08 11.72,29 35.43,29 7.73,0 15.13,-0.58 23.15,-1.72l0 -21.85c-20.58,2.04 -26.3,-1.14 -27.44,-16.06 -0.29,-4.02 -0.29,-7.49 -0.29,-12.65l0 -79.82 0 -0.01zm192.32 16.35c-2.86,-26.7 -21.46,-43.66 -54.03,-43.66 -15.13,0 -26.27,2.59 -38.29,11.77l-10.29 17.52 0 -85.28 -31.43 0 0 212.51 31.43 0 0 -68.34c0,-47.68 17.73,-64.35 39.45,-64.93 21.43,-0.26 30.56,12.07 32.01,29.32 0.56,7.75 0.56,14.34 0.56,21.54l0 82.42 31.43 0 0 -85.86c0,-12.36 -0.26,-19.26 -0.85,-27.01l0.01 0zm169.73 32.76c0,-43.1 -23.73,-76.41 -67.73,-76.41 -43.71,0 -74.3,32.46 -74.3,80.7 0,54 30.59,79.85 71.17,79.85 33.13,0 61.99,-17.22 68.58,-53.42l-31.72 0c-3.15,19.26 -17.44,30.45 -35.72,30.45 -20.58,0 -37.17,-12.07 -39.71,-48.55l108.85 0c0.58,-5.45 0.58,-9.74 0.58,-12.62zm-68.87 -53.42c22.01,0 34.29,15.8 36.59,43.92l-76.89 0c3.44,-29.29 18.86,-43.92 40.3,-43.92zm244.03 55.98l69.74 -120.62 -34.87 0 -49.16 91.63 -50.85 -91.63 -35.72 0 69.72 120.62 0 77.55 31.14 0 0 -77.55zm193.72 -2.56c0,-43.1 -23.71,-76.41 -67.71,-76.41 -43.74,0 -74.3,32.46 -74.3,80.7 0,54 30.56,79.85 71.15,79.85 33.15,0 62.02,-17.22 68.58,-53.42l-31.72 0c-3.12,19.26 -17.44,30.45 -35.72,30.45 -20.58,0 -37.15,-12.07 -39.71,-48.55l108.88 0c0.56,-5.45 0.56,-9.74 0.56,-12.62l-0.01 0zm-68.84 -53.42c21.99,0 34.26,15.8 36.57,43.92l-76.86 0c3.44,-29.29 18.84,-43.92 40.3,-43.92l-0.01 0zm186.29 133.53l31.14 0c-2.28,-16.93 -2.86,-27.28 -2.86,-38.76l0 -53.71c0,-7.17 -0.26,-15.21 -0.85,-21.54 -2.59,-25.85 -17.99,-42.52 -57.15,-42.52 -34.58,0 -59.43,18.94 -61.44,52.28l31.43 0c1.72,-18.97 11.14,-29.29 29.42,-29.29 18.02,0 25.72,8.6 26.59,20.96 0.56,5.74 0.56,10.93 0.56,16.67l0 3.7 -9.71 0c-57.41,0 -84.3,18.42 -84.3,52.28 0,28.44 22.01,43.95 48.87,43.95 14.29,0 27.44,-2.57 37.73,-9.76l7.7 -16.38 2.86 22.12 0.01 0zm-36.85 -18.94c-16.56,0 -27.15,-7.46 -27.15,-23.55 0,-23.26 24,-31.62 60.85,-28.73l0 14.08c0,24.71 -14,38.21 -33.71,38.21l0.01 -0.01zm172.87 -137.29c-7.73,0 -16.56,3.18 -23.44,8.63l-12.86 20.96 0 -25.82 -31.41 0 0 152.48 31.41 0 0 -79.27c0,-37.62 18.02,-52.55 46.86,-50.54l0 -24.71c-3.12,-1.14 -6.27,-1.72 -10.56,-1.72l0 -0.01z"/>
  <g id="_1128814561072">
   <path class="fil2" d="M1588.29 823.85c-49.29,-23.12 -83.56,-65.48 -98.08,-113.98 46.33,-20.03 100.65,-20.93 149.94,2.2 49.29,23.12 83.56,65.46 98.05,114.01 -46.33,20.03 -100.62,20.88 -149.91,-2.22l0 -0.01z"/>
   <path class="fil2" d="M1603.45 610.73c-23.02,49.53 -65.14,83.95 -113.43,98.56 -19.92,-46.57 -20.77,-101.15 2.22,-150.71 22.97,-49.53 65.11,-83.95 113.43,-98.56 19.9,46.57 20.74,101.15 -2.22,150.71z"/>
   <path class="fil2" d="M1392.97 923.57c-52.55,-14.16 -93.58,-49.87 -116.26,-95.17 42.15,-27.78 95.46,-38.13 148.01,-23.97 52.57,14.16 93.58,49.9 116.28,95.17 -42.17,27.78 -95.49,38.1 -148.03,23.97z"/>
   <path class="fil2" d="M1371.06 711.01c-14.08,52.81 -49.64,94.06 -94.67,116.89 -27.68,-42.41 -37.94,-95.99 -23.84,-148.8 14.08,-52.81 49.61,-94.06 94.67,-116.87 27.65,42.39 37.91,95.99 23.84,148.78z"/>
   <path class="fil2" d="M1217.74 1056.1c-54.21,-4.76 -100.78,-32.78 -130.97,-73.42 36.75,-34.74 87.47,-54.19 141.66,-49.42 54.19,4.76 100.78,32.78 130.94,73.4 -36.72,34.74 -87.44,54.21 -141.63,49.45l0 -0.01z"/>
   <path class="fil2" d="M1159.42 850.63c-4.71,54.45 -32.62,101.28 -73.03,131.6 -34.55,-36.91 -53.92,-87.89 -49.19,-142.35 4.74,-54.48 32.62,-101.34 73.03,-131.63 34.58,36.91 53.92,87.89 49.19,142.37l0 0.01z"/>
   <path class="fil2" d="M1067.88 1217.45c-54.19,4.76 -104.91,-14.68 -141.66,-49.42 30.19,-40.61 76.78,-68.63 130.97,-73.42 54.21,-4.76 104.91,14.71 141.63,49.48 -30.16,40.59 -76.76,68.61 -130.94,73.37l0 -0.01z"/>
   <path class="fil2" d="M974.96 1025.28c4.76,54.45 -14.61,105.44 -49.19,142.35 -40.4,-30.32 -68.29,-77.13 -73.03,-131.6 -4.74,-54.48 14.63,-105.46 49.19,-142.37 40.43,30.32 68.29,77.15 73.03,131.63l0 -0.01z"/>
   <path class="fil2" d="M947.97 1402.73c-52.55,14.16 -105.86,3.84 -148.01,-23.97 22.67,-45.27 63.71,-80.99 116.26,-95.14 52.55,-14.16 105.86,-3.84 148.03,23.97 -22.7,45.27 -63.71,80.99 -116.28,95.14z"/>
   <path class="fil2" d="M823.27 1229.67c14.08,52.81 3.81,106.42 -23.84,148.8 -45.03,-22.83 -80.59,-64.06 -94.67,-116.87 -14.08,-52.81 -3.81,-106.42 23.87,-148.8 45.03,22.83 80.57,64.06 94.64,116.87z"/>
   <path class="fil2" d="M861.66 1606.28c-49.29,23.1 -103.58,22.25 -149.91,2.22 14.53,-48.5 48.76,-90.86 98.08,-114.01 49.29,-23.07 103.58,-22.23 149.91,-2.2 -14.53,48.52 -48.79,90.88 -98.08,113.98l0 0.01z"/>
   <path class="fil2" d="M708.97 1457.64c22.97,49.53 22.15,104.11 2.22,150.65 -48.31,-14.55 -90.43,-49 -113.43,-98.53 -22.99,-49.58 -22.12,-104.14 -2.22,-150.68 48.29,14.58 90.43,49 113.43,98.56z"/>
   <path class="fil2" d="M811.58 1821.94c-44.56,31.35 -98.19,39.98 -147.24,28.34 5.9,-50.32 32.31,-98 76.86,-129.35 44.56,-31.38 98.19,-40.01 147.27,-28.39 -5.93,50.35 -32.33,98.03 -76.89,129.41l0 -0.01z"/>
   <path class="fil2" d="M635.52 1702.19c31.19,44.77 39.77,98.66 28.2,148.01 -50.09,-5.95 -97.53,-32.49 -128.72,-77.28 -31.22,-44.79 -39.79,-98.66 -28.23,-148.01 50.09,5.95 97.53,32.49 128.75,77.28z"/>
   <path class="fil2" d="M799.22 2043.11c-38.47,38.66 -89.77,56.52 -140.12,53.63 -2.86,-50.61 14.9,-102.16 53.37,-140.81 38.47,-38.68 89.77,-56.52 140.12,-53.66 2.86,50.61 -14.9,102.18 -53.37,140.84z"/>
   <path class="fil2" d="M605.15 1955.93c38.44,38.66 56.22,90.2 53.37,140.81 -50.35,2.88 -101.65,-14.98 -140.12,-53.63 -35.48,-35.64 -53.34,-82.23 -53.66,-128.98l0 -2.75c0,-3.04 0.11,-6.09 0.26,-9.1 50.38,-2.86 101.68,14.98 140.15,53.66l0 -0.01z"/>
   <path class="fil2" d="M825.15 2261.44c-31.22,44.79 -78.66,71.33 -128.75,77.28 -11.56,-49.34 -2.99,-103.24 28.23,-148.01 31.19,-44.79 78.63,-71.33 128.72,-77.28 11.56,49.34 2.99,103.24 -28.2,148.01z"/>
   <path class="fil2" d="M618.93 2209.42c44.56,31.38 70.96,79.08 76.89,129.41 -49.08,11.64 -102.71,2.99 -147.27,-28.36 -44.56,-31.35 -70.96,-79.06 -76.86,-129.41 49.08,-11.62 102.68,-2.96 147.24,28.36z"/>
   <path class="fil2" d="M888.65 2471.97c-22.99,49.53 -65.11,83.95 -113.43,98.56 -19.92,-46.57 -20.77,-101.15 2.22,-150.68 22.99,-49.56 65.14,-83.98 113.43,-98.56 19.9,46.57 20.77,101.12 -2.22,150.68z"/>
   <path class="fil2" d="M676.59 2456.73c49.32,23.1 83.56,65.46 98.08,114.01 -46.33,20 -100.62,20.88 -149.91,-2.22 -49.32,-23.12 -83.56,-65.46 -98.08,-114.01 46.33,-20 100.62,-20.88 149.91,2.22z"/>
   <path class="fil2" d="M987.87 2668.29c-14.1,52.81 -49.64,94.03 -94.69,116.84 -27.65,-42.39 -37.91,-95.96 -23.84,-148.78 14.08,-52.81 49.64,-94.06 94.67,-116.87 27.68,42.39 37.94,95.96 23.87,148.8l-0.01 0.01z"/>
   <path class="fil2" d="M776.39 2690.3c52.55,14.13 93.58,49.87 116.28,95.14 -42.17,27.81 -95.49,38.1 -148.03,23.97 -52.55,-14.18 -93.58,-49.9 -116.26,-95.14 42.15,-27.83 95.49,-38.13 148.01,-23.97z"/>
   <path class="fil2" d="M1119.74 2844.4c-4.76,54.48 -32.62,101.31 -73.05,131.6 -34.55,-36.88 -53.92,-87.87 -49.19,-142.35 4.74,-54.45 32.62,-101.28 73.03,-131.6 34.58,36.91 53.95,87.89 49.21,142.35z"/>
   <path class="fil2" d="M915.27 2903c54.21,4.76 100.81,32.78 130.97,73.4 -36.72,34.77 -87.44,54.21 -141.63,49.45 -54.21,-4.76 -100.81,-32.81 -130.94,-73.42 36.7,-34.71 87.42,-54.19 141.61,-49.42l-0.01 -0.01z"/>
   <path class="fil2" d="M1280.29 2995.02c4.74,54.45 -14.66,105.44 -49.21,142.35 -40.4,-30.32 -68.29,-77.13 -73.03,-131.6 -4.76,-54.45 14.63,-105.46 49.19,-142.37 40.4,30.32 68.29,77.18 73.05,131.63l0 -0.01z"/>
   <path class="fil2" d="M1089.07 3088.4c54.19,-4.76 104.91,14.71 141.61,49.45 -30.14,40.61 -76.73,68.63 -130.92,73.4 -54.21,4.76 -104.91,-14.68 -141.66,-49.42 30.16,-40.61 76.76,-68.66 130.97,-73.42l0 -0.01z"/>
   <path class="fil2" d="M1464.62 3115.54c14.08,52.81 3.81,106.39 -23.87,148.78 -45.03,-22.81 -80.59,-64.06 -94.67,-116.89 -14.08,-52.78 -3.81,-106.39 23.84,-148.75 45.03,22.78 80.59,64.03 94.69,116.87l0.01 -0.01z"/>
   <path class="fil2" d="M1292.43 3240.87c52.55,-14.18 105.86,-3.84 148.03,23.97 -22.7,45.27 -63.74,80.99 -116.28,95.14 -52.55,14.16 -105.86,3.84 -148.03,-23.97 22.7,-45.27 63.74,-81.02 116.28,-95.14z"/>
   <path class="fil2" d="M1667.13 3202.27c22.97,49.56 22.12,104.11 2.2,150.71 -48.29,-14.61 -90.43,-49.03 -113.4,-98.58 -23.02,-49.56 -22.15,-104.11 -2.22,-150.68 48.29,14.61 90.41,49.03 113.43,98.56l-0.01 -0.01z"/>
   <path class="fil2" d="M1519.23 3355.76c49.29,-23.12 103.56,-22.25 149.89,-2.22 -14.5,48.52 -48.76,90.88 -98.05,114.01 -49.29,23.1 -103.58,22.25 -149.91,2.22 14.53,-48.55 48.76,-90.88 98.08,-114.01l-0.01 0z"/>
   <path class="fil2" d="M1846.26 642.59c-51.12,18.73 -105.12,13.1 -149.54,-10.9 18.65,-47.07 56.44,-86.28 107.58,-104.96 51.09,-18.73 105.12,-13.1 149.54,10.9 -18.68,47.1 -56.46,86.28 -107.58,104.96z"/>
   <path class="fil2" d="M2319.38 3772.18c-249.98,-248.6 -482.36,-346.63 -654.26,-405.21 -16.54,-5.64 -31.94,-10.87 -45.91,-15.77 -584.33,-205.58 -976.95,-749.17 -976.95,-1352.71 0,-679.13 496.6,-1271.56 1180.84,-1408.64l4.34 21.88c-673.89,135.04 -1162.98,718.21 -1162.98,1386.76 0,594.04 386.64,1129.19 962.05,1331.62 13.97,4.89 29.26,10.11 45.75,15.72 173.7,59.19 482.89,158.25 736.52,410.47l-89.4 15.88z"/>
   <path class="fil2" d="M2642.18 823.85c49.29,-23.12 83.56,-65.48 98.05,-113.98 -46.33,-20.03 -100.62,-20.93 -149.91,2.2 -49.29,23.12 -83.56,65.46 -98.05,114.01 46.33,20.03 100.62,20.88 149.91,-2.22l0 -0.01z"/>
   <path class="fil2" d="M2627.01 610.73c23.02,49.53 65.14,83.95 113.43,98.56 19.92,-46.57 20.8,-101.15 -2.22,-150.71 -22.99,-49.53 -65.11,-83.95 -113.43,-98.56 -19.92,46.57 -20.74,101.15 2.22,150.71z"/>
   <path class="fil2" d="M2837.49 923.57c52.52,-14.16 93.58,-49.87 116.28,-95.17 -42.2,-27.78 -95.51,-38.13 -148.06,-23.97 -52.55,14.16 -93.56,49.9 -116.23,95.17 42.15,27.78 95.46,38.1 148.01,23.97z"/>
   <path class="fil2" d="M2859.4 711.01c14.08,52.81 49.64,94.06 94.67,116.89 27.65,-42.41 37.91,-95.99 23.84,-148.8 -14.08,-52.81 -49.61,-94.06 -94.67,-116.87 -27.65,42.39 -37.94,95.99 -23.84,148.78z"/>
   <path class="fil2" d="M3012.72 1056.1c54.21,-4.76 100.81,-32.78 130.97,-73.42 -36.72,-34.74 -87.44,-54.19 -141.66,-49.42 -54.19,4.76 -100.78,32.78 -130.94,73.4 36.72,34.74 87.44,54.21 141.63,49.45l0 -0.01z"/>
   <path class="fil2" d="M3071.01 850.63c4.76,54.45 32.65,101.28 73.05,131.6 34.55,-36.91 53.92,-87.89 49.19,-142.35 -4.74,-54.48 -32.62,-101.34 -73.03,-131.63 -34.58,36.91 -53.92,87.89 -49.21,142.37l0 0.01z"/>
   <path class="fil2" d="M3162.58 1217.45c54.19,4.76 104.91,-14.68 141.63,-49.42 -30.16,-40.61 -76.76,-68.63 -130.94,-73.42 -54.21,-4.76 -104.93,14.71 -141.63,49.48 30.16,40.59 76.76,68.61 130.94,73.37l0 -0.01z"/>
   <path class="fil2" d="M3255.51 1025.28c-4.74,54.45 14.61,105.44 49.19,142.35 40.4,-30.32 68.29,-77.13 73.03,-131.6 4.74,-54.48 -14.63,-105.46 -49.19,-142.37 -40.4,30.32 -68.32,77.15 -73.03,131.63l0 -0.01z"/>
   <path class="fil2" d="M3282.47 1402.73c52.57,14.16 105.86,3.84 148.03,-23.97 -22.67,-45.27 -63.74,-80.99 -116.28,-95.14 -52.55,-14.16 -105.86,-3.84 -148.01,23.97 22.7,45.27 63.71,80.99 116.26,95.14z"/>
   <path class="fil2" d="M3407.19 1229.67c-14.08,52.81 -3.81,106.42 23.84,148.8 45.03,-22.83 80.59,-64.06 94.67,-116.87 14.1,-52.81 3.81,-106.42 -23.84,-148.8 -45.06,22.83 -80.59,64.06 -94.67,116.87z"/>
   <path class="fil2" d="M3368.8 1606.28c49.29,23.1 103.58,22.25 149.89,2.22 -14.5,-48.5 -48.74,-90.86 -98.03,-114.01 -49.29,-23.07 -103.61,-22.23 -149.94,-2.2 14.53,48.52 48.76,90.88 98.08,113.98l0 0.01z"/>
   <path class="fil2" d="M3521.49 1457.64c-22.99,49.53 -22.12,104.11 -2.22,150.65 48.29,-14.55 90.43,-49 113.43,-98.53 22.99,-49.58 22.15,-104.14 2.22,-150.68 -48.29,14.58 -90.43,49 -113.43,98.56z"/>
   <path class="fil2" d="M3418.86 1821.94c44.58,31.35 98.19,39.98 147.27,28.34 -5.9,-50.32 -32.31,-98 -76.89,-129.35 -44.53,-31.38 -98.16,-40.01 -147.24,-28.39 5.93,50.35 32.33,98.03 76.86,129.41l0 -0.01z"/>
   <path class="fil2" d="M3594.94 1702.19c-31.19,44.77 -39.77,98.66 -28.2,148.01 50.09,-5.95 97.53,-32.49 128.72,-77.28 31.22,-44.79 39.79,-98.66 28.23,-148.01 -50.09,5.95 -97.53,32.49 -128.75,77.28z"/>
   <path class="fil2" d="M3431.24 2043.11c38.44,38.66 89.77,56.52 140.12,53.63 2.86,-50.61 -14.9,-102.16 -53.37,-140.81 -38.47,-38.68 -89.77,-56.52 -140.12,-53.66 -2.88,50.61 14.9,102.18 53.37,140.84z"/>
   <path class="fil2" d="M3625.31 1955.93c-38.47,38.66 -56.22,90.2 -53.37,140.81 50.35,2.88 101.65,-14.98 140.12,-53.63 38.47,-38.66 56.25,-90.22 53.37,-140.84 -50.35,-2.86 -101.65,14.98 -140.12,53.66z"/>
   <path class="fil2" d="M3405.31 2261.44c31.22,44.79 78.66,71.33 128.72,77.28 11.62,-49.34 3.02,-103.24 -28.2,-148.01 -31.19,-44.79 -78.63,-71.33 -128.72,-77.28 -11.56,49.34 -2.96,103.24 28.2,148.01z"/>
   <path class="fil2" d="M3611.53 2209.42c-44.56,31.38 -70.96,79.08 -76.89,129.41 49.08,11.64 102.71,2.99 147.27,-28.36 44.56,-31.35 70.96,-79.06 76.89,-129.41 -49.11,-11.62 -102.71,-2.96 -147.27,28.36z"/>
   <path class="fil2" d="M3341.81 2471.97c22.99,49.53 65.14,83.95 113.43,98.56 19.92,-46.57 20.74,-101.15 -2.22,-150.68 -23.02,-49.56 -65.11,-83.98 -113.43,-98.56 -19.9,46.57 -20.77,101.12 2.22,150.68z"/>
   <path class="fil2" d="M3553.85 2456.73c-49.29,23.1 -83.56,65.46 -98.05,114.01 46.33,20 100.62,20.88 149.91,-2.22 49.29,-23.12 83.56,-65.46 98.08,-114.01 -46.33,-20 -100.59,-20.88 -149.94,2.22z"/>
   <path class="fil2" d="M3242.59 2668.29c14.1,52.81 49.64,94.03 94.69,116.84 27.65,-42.39 37.91,-95.96 23.84,-148.78 -14.08,-52.81 -49.64,-94.06 -94.67,-116.87 -27.65,42.39 -37.94,95.96 -23.87,148.8l0.01 0.01z"/>
   <path class="fil2" d="M3454.05 2690.3c-52.52,14.13 -93.56,49.87 -116.23,95.14 42.15,27.81 95.46,38.1 148.01,23.97 52.55,-14.18 93.58,-49.9 116.28,-95.14 -42.17,-27.83 -95.51,-38.13 -148.06,-23.97z"/>
   <path class="fil2" d="M3110.73 2844.4c4.76,54.48 32.65,101.31 73.05,131.6 34.55,-36.88 53.92,-87.87 49.19,-142.35 -4.76,-54.45 -32.65,-101.28 -73.05,-131.6 -34.55,36.91 -53.92,87.89 -49.19,142.35z"/>
   <path class="fil2" d="M3315.17 2903c-54.19,4.76 -100.78,32.78 -130.94,73.4 36.72,34.77 87.44,54.21 141.63,49.45 54.19,-4.76 100.78,-32.81 130.94,-73.42 -36.72,-34.71 -87.42,-54.19 -141.63,-49.42l0 -0.01z"/>
   <path class="fil2" d="M2950.2 2995.02c-4.76,54.45 14.61,105.44 49.19,142.35 40.4,-30.32 68.29,-77.13 73.03,-131.6 4.76,-54.45 -14.63,-105.46 -49.19,-142.37 -40.4,30.32 -68.29,77.18 -73.03,131.63l0 -0.01z"/>
   <path class="fil2" d="M3141.39 3088.4c-54.19,-4.76 -104.91,14.71 -141.61,49.45 30.14,40.61 76.73,68.63 130.92,73.4 54.19,4.76 104.93,-14.68 141.66,-49.42 -30.16,-40.61 -76.78,-68.66 -130.97,-73.42l0 -0.01z"/>
   <path class="fil2" d="M2765.84 3115.54c-14.05,52.81 -3.81,106.39 23.87,148.78 45.03,-22.81 80.59,-64.06 94.67,-116.89 14.08,-52.78 3.81,-106.39 -23.84,-148.75 -45.03,22.78 -80.59,64.03 -94.69,116.87l-0.01 -0.01z"/>
   <path class="fil2" d="M2938.03 3240.87c-52.55,-14.18 -105.86,-3.84 -148.01,23.97 22.67,45.27 63.71,80.99 116.26,95.14 52.55,14.16 105.86,3.84 148.03,-23.97 -22.7,-45.27 -63.74,-81.02 -116.28,-95.14z"/>
   <path class="fil2" d="M2563.33 3202.27c-22.97,49.56 -22.12,104.11 -2.2,150.71 48.29,-14.61 90.41,-49.03 113.43,-98.58 22.97,-49.56 22.12,-104.11 2.2,-150.68 -48.29,14.61 -90.43,49.03 -113.43,98.56l0 -0.01z"/>
   <path class="fil2" d="M2711.23 3355.76c-49.29,-23.12 -103.56,-22.25 -149.89,-2.22 14.53,48.52 48.74,90.88 98.03,114.01 49.32,23.1 103.61,22.25 149.94,2.22 -14.53,-48.55 -48.76,-90.88 -98.08,-114.01z"/>
   <path class="fil2" d="M2384.23 642.59c51.12,18.73 105.12,13.1 149.52,-10.9 -18.65,-47.07 -56.44,-86.28 -107.58,-104.96 -51.12,-18.73 -105.12,-13.1 -149.54,10.9 18.68,47.1 56.46,86.28 107.61,104.96l-0.01 0z"/>
   <path class="fil2" d="M1911.05 3772.18l-89.38 -15.88c253.63,-252.23 562.8,-351.29 736.52,-410.47 16.46,-5.61 31.75,-10.82 45.72,-15.72 575.44,-202.43 962.08,-737.58 962.08,-1331.62 0,-668.52 -489.08,-1251.72 -1162.95,-1386.76l4.31 -21.88c684.24,137.08 1180.84,729.51 1180.84,1408.64 0,603.54 -392.62,1147.13 -976.95,1352.71 -14,4.89 -29.34,10.13 -45.93,15.77 -171.9,58.58 -404.26,156.61 -654.26,405.21z"/>
  </g>
 </g>
</svg>
