<?xml version="1.0" encoding="UTF-8"?>
<!DOCTYPE svg PUBLIC "-//W3C//DTD SVG 1.1//EN" "http://www.w3.org/Graphics/SVG/1.1/DTD/svg11.dtd">
<!-- Creator: CorelDRAW 2018 (64-Bit) -->
<svg xmlns="http://www.w3.org/2000/svg" xml:space="preserve" width="254px" height="244px" version="1.1" style="shape-rendering:geometricPrecision; text-rendering:geometricPrecision; image-rendering:optimizeQuality; fill-rule:evenodd; clip-rule:evenodd"
viewBox="0 0 254 244"
 xmlns:xlink="http://www.w3.org/1999/xlink">
 <defs>
  <style type="text/css">
   <![CDATA[
    .fil0 {fill:none}
    .fil2 {fill:#DEA239;fill-rule:nonzero}
    .fil1 {fill:gray;fill-rule:nonzero}
   ]]>
  </style>
 </defs>
 <g id="Layer_x0020_1">
  <metadata id="CorelCorpID_0Corel-Layer"/>
  <rect class="fil0" x="-0.055" y="-0.022" width="254.001" height="244"/>
  <path class="fil1" d="M111.062 66.925l2.985 -2.946c2.376,-2.318 3.319,-3.575 3.319,-5.362 0,-2.141 -1.453,-3.81 -4.321,-3.81 -2.867,0 -4.615,1.551 -4.89,4.419l-0.019 0.196 2.16 0 0.02 -0.196c0.176,-1.788 0.942,-2.77 2.494,-2.77 1.473,0 2.219,1.041 2.219,2.357 0,1.296 -0.746,2.278 -2.454,3.967l-4.734 4.773 0 1.1 9.447 0 0 -1.728 -6.226 0zm13.296 -12.099c-3.771,0 -5.067,2.947 -5.067,7.051 0,4.066 1.296,7.05 5.067,7.05 3.791,0 5.067,-2.984 5.067,-7.05 0,-4.104 -1.276,-7.051 -5.067,-7.051zm0 12.452c-1.925,0 -2.73,-1.925 -2.73,-5.401 0,-3.516 0.805,-5.401 2.73,-5.401 1.945,0 2.73,1.885 2.73,5.401 0,3.476 -0.785,5.401 -2.73,5.401zm14.396 -12.177l-1.198 0c-0.609,0 -1.179,0.137 -1.807,0.511l-2.985 1.826 0 2.122 3.83 -2.2 0 11.293 2.16 0 0 -13.552zm11.627 6.384c1.237,-0.433 2.238,-1.435 2.238,-2.966 0,-2.239 -1.708,-3.693 -4.517,-3.693 -2.788,0 -4.517,1.454 -4.517,3.693 0,1.512 0.865,2.513 2.062,2.966 -1.434,0.451 -2.671,1.669 -2.671,3.358 0,2.965 2.22,4.104 4.989,4.104 2.573,0 5.007,-1.139 5.007,-4.104 0,-1.689 -1.177,-2.907 -2.591,-3.358zm-2.279 -5.009c1.493,0 2.258,0.923 2.258,2.122 0,1.276 -0.804,2.179 -2.277,2.179 -1.474,0 -2.24,-0.903 -2.24,-2.179 0,-1.199 0.786,-2.122 2.259,-2.122zm-0.098 10.822c-1.787,0 -2.71,-1.002 -2.71,-2.436 0,-1.336 0.864,-2.435 2.691,-2.435 1.865,0 2.651,1.119 2.651,2.435 0,1.434 -0.825,2.436 -2.632,2.436z"/>
  <g id="_601021943104">
   <path class="fil2" d="M92.059 36.856c-3.265,-1.522 -5.531,-4.312 -6.493,-7.509 3.068,-1.318 6.662,-1.376 9.926,0.146 3.264,1.523 5.531,4.312 6.493,7.51 -3.068,1.319 -6.662,1.375 -9.926,-0.147z"/>
   <path class="fil2" d="M93.062 22.817c-1.522,3.264 -4.312,5.531 -7.509,6.493 -1.319,-3.068 -1.376,-6.663 0.147,-9.926 1.522,-3.264 4.311,-5.531 7.509,-6.493 1.318,3.067 1.375,6.662 -0.147,9.926z"/>
   <path class="fil2" d="M79.128 43.424c-3.479,-0.932 -6.196,-3.285 -7.698,-6.267 2.791,-1.831 6.321,-2.512 9.8,-1.58 3.479,0.933 6.196,3.287 7.698,6.268 -2.791,1.831 -6.321,2.511 -9.8,1.579z"/>
   <path class="fil2" d="M77.678 29.424c-0.932,3.479 -3.286,6.196 -6.268,7.699 -1.832,-2.792 -2.511,-6.323 -1.579,-9.802 0.932,-3.478 3.286,-6.195 6.268,-7.698 1.831,2.793 2.511,6.322 1.579,9.801z"/>
   <path class="fil2" d="M67.525 52.155c-3.588,-0.314 -6.672,-2.16 -8.669,-4.835 2.431,-2.289 5.789,-3.571 9.378,-3.257 3.587,0.314 6.672,2.16 8.669,4.835 -2.431,2.289 -5.789,3.571 -9.378,3.257z"/>
   <path class="fil2" d="M63.666 38.62c-0.314,3.587 -2.16,6.672 -4.836,8.669 -2.288,-2.431 -3.57,-5.789 -3.257,-9.377 0.315,-3.588 2.161,-6.673 4.836,-8.67 2.289,2.431 3.571,5.789 3.257,9.378z"/>
   <path class="fil2" d="M57.605 62.784c-3.588,0.314 -6.947,-0.969 -9.378,-3.256 1.997,-2.676 5.082,-4.522 8.669,-4.836 3.589,-0.315 6.947,0.969 9.378,3.257 -1.997,2.675 -5.081,4.521 -8.669,4.835z"/>
   <path class="fil2" d="M51.453 50.124c0.314,3.588 -0.968,6.947 -3.256,9.378 -2.676,-1.998 -4.522,-5.082 -4.836,-8.67 -0.314,-3.588 0.968,-6.946 3.257,-9.377 2.675,1.996 4.521,5.082 4.835,8.669z"/>
   <path class="fil2" d="M49.666 74.988c-3.479,0.932 -7.008,0.253 -9.8,-1.579 1.502,-2.981 4.219,-5.335 7.698,-6.267 3.479,-0.933 7.008,-0.253 9.8,1.579 -1.502,2.981 -4.219,5.334 -7.698,6.267z"/>
   <path class="fil2" d="M41.41 63.589c0.933,3.478 0.253,7.009 -1.578,9.801 -2.983,-1.503 -5.336,-4.22 -6.268,-7.699 -0.932,-3.478 -0.253,-7.008 1.579,-9.8 2.982,1.502 5.335,4.219 6.267,7.698z"/>
   <path class="fil2" d="M43.952 88.396c-3.264,1.522 -6.858,1.466 -9.926,0.147 0.962,-3.197 3.229,-5.987 6.493,-7.509 3.265,-1.522 6.859,-1.465 9.926,-0.147 -0.962,3.198 -3.229,5.987 -6.493,7.509z"/>
   <path class="fil2" d="M33.842 78.604c1.522,3.264 1.466,6.858 0.147,9.926 -3.197,-0.961 -5.987,-3.229 -7.509,-6.493 -1.523,-3.265 -1.466,-6.859 -0.147,-9.926 3.197,0.962 5.987,3.229 7.509,6.493z"/>
   <path class="fil2" d="M40.635 102.601c-2.95,2.066 -6.499,2.635 -9.749,1.868 0.391,-3.315 2.14,-6.457 5.09,-8.522 2.95,-2.066 6.5,-2.635 9.75,-1.869 -0.392,3.316 -2.14,6.456 -5.091,8.523z"/>
   <path class="fil2" d="M28.978 94.713c2.066,2.95 2.635,6.499 1.869,9.75 -3.316,-0.392 -6.457,-2.14 -8.523,-5.091 -2.066,-2.95 -2.634,-6.499 -1.868,-9.75 3.315,0.392 6.457,2.14 8.522,5.091z"/>
   <path class="fil2" d="M39.818 117.17c-2.547,2.547 -5.944,3.723 -9.277,3.532 -0.19,-3.333 0.986,-6.728 3.533,-9.275 2.546,-2.548 5.943,-3.723 9.277,-3.534 0.19,3.335 -0.987,6.73 -3.533,9.277z"/>
   <path class="fil2" d="M26.968 111.427c2.547,2.547 3.723,5.942 3.533,9.275 -3.333,0.191 -6.73,-0.985 -9.277,-3.532 -2.348,-2.348 -3.531,-5.417 -3.553,-8.495l0 -0.183c0.002,-0.2 0.008,-0.4 0.02,-0.599 3.333,-0.189 6.73,0.986 9.277,3.534z"/>
   <path class="fil2" d="M41.533 131.553c-2.066,2.949 -5.206,4.698 -8.522,5.09 -0.766,-3.25 -0.198,-6.8 1.868,-9.75 2.066,-2.95 5.206,-4.698 8.522,-5.09 0.766,3.25 0.198,6.8 -1.868,9.75z"/>
   <path class="fil2" d="M27.881 128.126c2.95,2.067 4.699,5.208 5.091,8.523 -3.251,0.767 -6.801,0.198 -9.75,-1.868 -2.95,-2.066 -4.699,-5.207 -5.09,-8.523 3.25,-0.765 6.799,-0.196 9.749,1.868z"/>
   <path class="fil2" d="M45.738 145.42c-1.522,3.264 -4.311,5.531 -7.509,6.492 -1.319,-3.067 -1.375,-6.662 0.147,-9.926 1.522,-3.264 4.312,-5.531 7.509,-6.492 1.318,3.067 1.375,6.661 -0.147,9.926z"/>
   <path class="fil2" d="M31.699 144.416c3.264,1.522 5.531,4.312 6.493,7.509 -3.068,1.319 -6.662,1.375 -9.926,-0.146 -3.264,-1.522 -5.532,-4.312 -6.493,-7.509 3.067,-1.319 6.662,-1.375 9.926,0.146z"/>
   <path class="fil2" d="M52.306 158.351c-0.932,3.479 -3.285,6.195 -6.268,7.697 -1.83,-2.791 -2.51,-6.321 -1.578,-9.8 0.932,-3.479 3.286,-6.195 6.267,-7.699 1.832,2.793 2.511,6.323 1.579,9.802z"/>
   <path class="fil2" d="M38.306 159.801c3.479,0.932 6.196,3.286 7.698,6.268 -2.792,1.831 -6.321,2.51 -9.8,1.579 -3.479,-0.933 -6.197,-3.286 -7.699,-6.268 2.792,-1.832 6.322,-2.511 9.801,-1.579z"/>
   <path class="fil2" d="M61.037 169.953c-0.313,3.587 -2.16,6.673 -4.835,8.669 -2.289,-2.431 -3.571,-5.789 -3.257,-9.377 0.314,-3.587 2.159,-6.672 4.835,-8.67 2.289,2.432 3.571,5.789 3.257,9.378z"/>
   <path class="fil2" d="M47.502 173.812c3.587,0.314 6.672,2.161 8.67,4.836 -2.432,2.288 -5.79,3.57 -9.378,3.256 -3.589,-0.313 -6.673,-2.16 -8.67,-4.835 2.432,-2.288 5.79,-3.57 9.378,-3.257z"/>
   <path class="fil2" d="M71.666 179.874c0.314,3.587 -0.969,6.946 -3.256,9.377 -2.676,-1.998 -4.522,-5.081 -4.836,-8.669 -0.314,-3.588 0.968,-6.947 3.256,-9.377 2.676,1.996 4.522,5.081 4.836,8.669z"/>
   <path class="fil2" d="M59.007 186.025c3.587,-0.313 6.945,0.969 9.377,3.257 -1.997,2.675 -5.082,4.521 -8.67,4.835 -3.587,0.314 -6.945,-0.968 -9.377,-3.256 1.997,-2.676 5.082,-4.522 8.67,-4.836z"/>
   <path class="fil2" d="M83.871 187.812c0.931,3.478 0.252,7.008 -1.58,9.801 -2.982,-1.503 -5.335,-4.22 -6.267,-7.699 -0.932,-3.478 -0.253,-7.008 1.579,-9.8 2.981,1.503 5.335,4.219 6.268,7.698z"/>
   <path class="fil2" d="M72.471 196.068c3.479,-0.932 7.008,-0.253 9.801,1.579 -1.503,2.982 -4.22,5.336 -7.699,6.268 -3.479,0.932 -7.009,0.252 -9.8,-1.579 1.502,-2.982 4.219,-5.336 7.698,-6.268z"/>
   <path class="fil2" d="M97.279 193.526c1.522,3.264 1.465,6.859 0.146,9.926 -3.197,-0.961 -5.987,-3.229 -7.509,-6.492 -1.522,-3.265 -1.465,-6.859 -0.147,-9.926 3.197,0.961 5.987,3.228 7.51,6.492z"/>
   <path class="fil2" d="M87.486 203.637c3.264,-1.523 6.858,-1.466 9.926,-0.148 -0.962,3.198 -3.229,5.988 -6.493,7.51 -3.265,1.522 -6.858,1.465 -9.926,0.146 0.961,-3.197 3.229,-5.986 6.493,-7.508z"/>
   <path class="fil2" d="M109.138 24.917c-3.385,1.233 -6.961,0.862 -9.901,-0.719 1.236,-3.101 3.738,-5.682 7.122,-6.914 3.384,-1.233 6.96,-0.863 9.901,0.718 -1.236,3.102 -3.738,5.683 -7.122,6.915z"/>
   <path class="fil2" d="M140.463 231.066c-16.551,-16.376 -31.936,-22.833 -43.317,-26.69 -1.095,-0.372 -2.114,-0.716 -3.04,-1.04 -38.686,-13.541 -64.681,-49.35 -64.681,-89.104 0,-44.736 32.88,-83.759 78.18,-92.79l0.287 1.442c-44.614,8.894 -76.995,47.311 -76.995,91.348 0,39.131 25.596,74.381 63.695,87.714 0.923,0.324 1.936,0.667 3.027,1.037 11.5,3.899 31.969,10.422 48.763,27.038l-5.919 1.045z"/>
   <path class="fil2" d="M161.834 36.856c3.264,-1.522 5.531,-4.312 6.492,-7.509 -3.067,-1.318 -6.662,-1.376 -9.926,0.146 -3.263,1.523 -5.531,4.312 -6.492,7.51 3.067,1.319 6.662,1.375 9.926,-0.147z"/>
   <path class="fil2" d="M160.83 22.817c1.523,3.264 4.313,5.531 7.51,6.493 1.319,-3.068 1.375,-6.663 -0.147,-9.926 -1.523,-3.264 -4.311,-5.531 -7.51,-6.493 -1.318,3.067 -1.374,6.662 0.147,9.926z"/>
   <path class="fil2" d="M174.764 43.424c3.479,-0.932 6.196,-3.285 7.699,-6.267 -2.792,-1.831 -6.322,-2.512 -9.801,-1.58 -3.479,0.933 -6.195,3.287 -7.697,6.268 2.791,1.831 6.321,2.511 9.799,1.579z"/>
   <path class="fil2" d="M176.215 29.424c0.932,3.479 3.286,6.196 6.268,7.699 1.831,-2.792 2.51,-6.323 1.579,-9.802 -0.932,-3.478 -3.286,-6.195 -6.268,-7.698 -1.831,2.793 -2.512,6.322 -1.579,9.801z"/>
   <path class="fil2" d="M186.367 52.155c3.589,-0.314 6.673,-2.16 8.669,-4.835 -2.431,-2.289 -5.789,-3.571 -9.377,-3.257 -3.588,0.314 -6.672,2.16 -8.67,4.835 2.431,2.289 5.79,3.571 9.378,3.257z"/>
   <path class="fil2" d="M190.226 38.62c0.314,3.587 2.161,6.672 4.836,8.669 2.288,-2.431 3.57,-5.789 3.257,-9.377 -0.315,-3.588 -2.161,-6.673 -4.836,-8.67 -2.288,2.431 -3.57,5.789 -3.257,9.378z"/>
   <path class="fil2" d="M196.288 62.784c3.588,0.314 6.946,-0.969 9.377,-3.256 -1.997,-2.676 -5.082,-4.522 -8.669,-4.836 -3.588,-0.315 -6.947,0.969 -9.378,3.257 1.998,2.675 5.082,4.521 8.67,4.835z"/>
   <path class="fil2" d="M202.439 50.124c-0.314,3.588 0.968,6.947 3.257,9.378 2.675,-1.998 4.522,-5.082 4.835,-8.67 0.314,-3.588 -0.968,-6.946 -3.256,-9.377 -2.675,1.996 -4.522,5.082 -4.836,8.669z"/>
   <path class="fil2" d="M204.226 74.988c3.479,0.932 7.008,0.253 9.801,-1.579 -1.502,-2.981 -4.22,-5.335 -7.699,-6.267 -3.479,-0.933 -7.008,-0.253 -9.8,1.579 1.502,2.981 4.219,5.334 7.698,6.267z"/>
   <path class="fil2" d="M212.482 63.589c-0.931,3.478 -0.252,7.009 1.579,9.801 2.982,-1.503 5.336,-4.22 6.267,-7.699 0.934,-3.478 0.254,-7.008 -1.578,-9.8 -2.982,1.502 -5.336,4.219 -6.268,7.698z"/>
   <path class="fil2" d="M209.94 88.396c3.264,1.522 6.859,1.466 9.926,0.147 -0.961,-3.197 -3.228,-5.987 -6.492,-7.509 -3.264,-1.522 -6.859,-1.465 -9.926,-0.147 0.961,3.198 3.228,5.987 6.492,7.509z"/>
   <path class="fil2" d="M220.05 78.604c-1.522,3.264 -1.465,6.858 -0.146,9.926 3.197,-0.961 5.986,-3.229 7.509,-6.493 1.522,-3.265 1.466,-6.859 0.147,-9.926 -3.198,0.962 -5.987,3.229 -7.51,6.493z"/>
   <path class="fil2" d="M213.256 102.601c2.952,2.066 6.501,2.635 9.751,1.868 -0.392,-3.315 -2.14,-6.457 -5.092,-8.522 -2.949,-2.066 -6.499,-2.635 -9.748,-1.869 0.392,3.316 2.139,6.456 5.089,8.523z"/>
   <path class="fil2" d="M224.914 94.713c-2.066,2.95 -2.634,6.499 -1.868,9.75 3.316,-0.392 6.457,-2.14 8.522,-5.091 2.066,-2.95 2.634,-6.499 1.868,-9.75 -3.316,0.392 -6.456,2.14 -8.522,5.091z"/>
   <path class="fil2" d="M214.075 117.17c2.547,2.547 5.943,3.723 9.277,3.532 0.189,-3.333 -0.987,-6.728 -3.534,-9.275 -2.546,-2.548 -5.942,-3.723 -9.276,-3.534 -0.19,3.335 0.985,6.73 3.533,9.277z"/>
   <path class="fil2" d="M226.924 111.427c-2.547,2.547 -3.722,5.942 -3.533,9.275 3.334,0.191 6.731,-0.985 9.278,-3.532 2.547,-2.547 3.723,-5.942 3.532,-9.277 -3.333,-0.189 -6.73,0.986 -9.277,3.534z"/>
   <path class="fil2" d="M212.359 131.553c2.066,2.949 5.207,4.698 8.523,5.09 0.766,-3.25 0.198,-6.8 -1.868,-9.75 -2.066,-2.95 -5.207,-4.698 -8.523,-5.09 -0.766,3.25 -0.197,6.8 1.868,9.75z"/>
   <path class="fil2" d="M226.011 128.126c-2.95,2.067 -4.698,5.208 -5.09,8.523 3.25,0.767 6.8,0.198 9.75,-1.868 2.95,-2.066 4.698,-5.207 5.09,-8.523 -3.25,-0.765 -6.799,-0.196 -9.75,1.868z"/>
   <path class="fil2" d="M208.154 145.42c1.522,3.264 4.312,5.531 7.509,6.492 1.319,-3.067 1.375,-6.662 -0.146,-9.926 -1.523,-3.264 -4.312,-5.531 -7.51,-6.492 -1.318,3.067 -1.375,6.661 0.147,9.926z"/>
   <path class="fil2" d="M222.193 144.416c-3.264,1.522 -5.531,4.312 -6.492,7.509 3.067,1.319 6.662,1.375 9.925,-0.146 3.264,-1.522 5.532,-4.312 6.493,-7.509 -3.067,-1.319 -6.66,-1.375 -9.926,0.146z"/>
   <path class="fil2" d="M201.586 158.351c0.933,3.479 3.285,6.195 6.269,7.697 1.83,-2.791 2.51,-6.321 1.578,-9.8 -0.933,-3.479 -3.287,-6.195 -6.268,-7.699 -1.831,2.793 -2.511,6.323 -1.579,9.802z"/>
   <path class="fil2" d="M215.586 159.801c-3.479,0.932 -6.195,3.286 -7.697,6.268 2.791,1.831 6.321,2.51 9.8,1.579 3.479,-0.933 6.195,-3.286 7.698,-6.268 -2.792,-1.832 -6.322,-2.511 -9.801,-1.579z"/>
   <path class="fil2" d="M192.855 169.953c0.314,3.587 2.161,6.673 4.836,8.669 2.288,-2.431 3.57,-5.789 3.256,-9.377 -0.313,-3.587 -2.16,-6.672 -4.835,-8.67 -2.288,2.432 -3.57,5.789 -3.257,9.378z"/>
   <path class="fil2" d="M206.391 173.812c-3.588,0.314 -6.672,2.161 -8.669,4.836 2.43,2.288 5.789,3.57 9.377,3.256 3.587,-0.313 6.673,-2.16 8.669,-4.835 -2.431,-2.288 -5.789,-3.57 -9.377,-3.257z"/>
   <path class="fil2" d="M182.226 179.874c-0.314,3.587 0.969,6.946 3.257,9.377 2.675,-1.998 4.521,-5.081 4.835,-8.669 0.315,-3.588 -0.968,-6.947 -3.256,-9.377 -2.676,1.996 -4.522,5.081 -4.836,8.669z"/>
   <path class="fil2" d="M194.886 186.025c-3.587,-0.313 -6.946,0.969 -9.378,3.257 1.998,2.675 5.082,4.521 8.67,4.835 3.587,0.314 6.946,-0.968 9.377,-3.256 -1.996,-2.676 -5.082,-4.522 -8.669,-4.836z"/>
   <path class="fil2" d="M170.022 187.812c-0.932,3.478 -0.252,7.008 1.579,9.801 2.982,-1.503 5.336,-4.22 6.267,-7.699 0.933,-3.478 0.253,-7.008 -1.578,-9.8 -2.982,1.503 -5.335,4.219 -6.268,7.698z"/>
   <path class="fil2" d="M181.422 196.068c-3.479,-0.932 -7.009,-0.253 -9.8,1.579 1.501,2.982 4.218,5.336 7.697,6.268 3.479,0.932 7.009,0.252 9.801,-1.579 -1.503,-2.982 -4.219,-5.336 -7.698,-6.268z"/>
   <path class="fil2" d="M156.614 193.526c-1.521,3.264 -1.465,6.859 -0.147,9.926 3.198,-0.961 5.987,-3.229 7.51,-6.492 1.521,-3.265 1.465,-6.859 0.146,-9.926 -3.196,0.961 -5.986,3.228 -7.509,6.492z"/>
   <path class="fil2" d="M166.406 203.637c-3.264,-1.523 -6.858,-1.466 -9.925,-0.148 0.962,3.198 3.228,5.988 6.492,7.51 3.265,1.522 6.859,1.465 9.927,0.146 -0.962,-3.197 -3.23,-5.986 -6.494,-7.508z"/>
   <path class="fil2" d="M144.756 24.917c3.384,1.233 6.959,0.862 9.9,-0.719 -1.236,-3.101 -3.738,-5.682 -7.123,-6.914 -3.385,-1.233 -6.96,-0.863 -9.901,0.718 1.237,3.102 3.738,5.683 7.124,6.915z"/>
   <path class="fil2" d="M113.43 231.066l-5.919 -1.045c16.792,-16.616 37.261,-23.139 48.762,-27.038 1.09,-0.37 2.103,-0.713 3.027,-1.037 38.099,-13.333 63.697,-48.583 63.697,-87.714 0,-44.037 -32.382,-82.454 -76.996,-91.348l0.286 -1.442c45.301,9.031 78.179,48.054 78.179,92.79 0,39.754 -25.993,75.563 -64.681,89.104 -0.925,0.324 -1.943,0.668 -3.04,1.04 -11.381,3.857 -26.766,10.314 -43.315,26.69z"/>
  </g>
  <path class="fil1" d="M98.636 94.621c-0.605,-0.076 -1.078,-0.076 -1.778,-0.076l-4.275 0 0 13.054 2.081 0 0 -5.146 2.194 0c0.7,0 1.173,0 1.778,-0.075 1.893,-0.246 3.444,-1.571 3.444,-3.879 0,-2.308 -1.4,-3.614 -3.444,-3.878zm-0.397 6.073c-0.34,0.057 -0.794,0.075 -1.324,0.075l-2.251 0 0 -4.54 2.251 0c0.53,0 0.984,0.019 1.324,0.075 0.908,0.171 1.646,0.814 1.646,2.195 0,1.381 -0.738,2.024 -1.646,2.195zm9.876 -3.387c-0.511,0 -1.097,0.209 -1.552,0.568l-0.851 1.381 0 -1.703 -2.081 0 0 10.046 2.081 0 0 -5.221c0,-2.479 1.192,-3.462 3.103,-3.33l0 -1.628c-0.208,-0.075 -0.416,-0.113 -0.7,-0.113zm10.67 5.014c0,-2.838 -1.57,-5.033 -4.484,-5.033 -2.894,0 -4.918,2.138 -4.918,5.316 0,3.557 2.024,5.26 4.71,5.26 2.194,0 4.106,-1.135 4.541,-3.519l-2.1 0c-0.208,1.268 -1.154,2.005 -2.365,2.005 -1.362,0 -2.46,-0.794 -2.63,-3.197l7.208 0c0.038,-0.36 0.038,-0.643 0.038,-0.832zm-4.559 -3.519c1.457,0 2.27,1.04 2.421,2.894l-5.089 0c0.227,-1.929 1.249,-2.894 2.668,-2.894zm20.621 0.946c-0.228,-1.382 -1.287,-2.46 -3.141,-2.46 -0.889,0 -1.589,0.171 -2.138,0.587l-0.926 1.324c-0.379,-1.116 -1.382,-1.911 -2.971,-1.911 -0.908,0 -1.608,0.171 -2.138,0.587l-0.68 1.173 0 -1.495 -2.082 0 0 10.046 2.082 0 0 -5.051c0,-2.725 0.794,-3.727 2.023,-3.727 1.079,0 1.722,0.567 1.874,1.645 0.056,0.511 0.075,1.06 0.075,1.817l0 5.316 2.062 0 0 -5.051c0,-2.725 0.814,-3.727 2.025,-3.727 1.078,0 1.74,0.567 1.872,1.645 0.057,0.511 0.077,1.06 0.077,1.817l0 5.316 2.08 0 0 -6.073c0,-0.813 -0.019,-1.267 -0.094,-1.778zm3.67 -5.695c-0.7,0 -1.211,0.511 -1.211,1.192 0,0.7 0.511,1.211 1.211,1.211 0.7,0 1.23,-0.511 1.23,-1.211 0,-0.681 -0.53,-1.192 -1.23,-1.192zm1.04 13.546l0 -10.046 -2.081 0 0 10.046 2.081 0zm11.428 -10.046l-2.063 0 0 4.73c0,2.913 -1.097,4.029 -2.554,4.029 -1.286,0 -2.005,-0.718 -2.156,-1.816 -0.057,-0.51 -0.076,-1.059 -0.076,-1.381l0 -5.562 -2.062 0 0 5.978c0,0.814 0.019,1.268 0.094,1.779 0.228,1.381 1.438,2.554 3.519,2.554 1.003,0 1.741,-0.17 2.535,-0.738l0.7 -1.248 0 1.721 2.063 0 0 -10.046zm16.743 2.195c-0.227,-1.382 -1.287,-2.46 -3.141,-2.46 -0.889,0 -1.589,0.171 -2.137,0.587l-0.928 1.324c-0.378,-1.116 -1.381,-1.911 -2.97,-1.911 -0.908,0 -1.607,0.171 -2.138,0.587l-0.681 1.173 0 -1.495 -2.081 0 0 10.046 2.081 0 0 -5.051c0,-2.725 0.795,-3.727 2.025,-3.727 1.078,0 1.722,0.567 1.872,1.645 0.057,0.511 0.076,1.06 0.076,1.817l0 5.316 2.063 0 0 -5.051c0,-2.725 0.813,-3.727 2.024,-3.727 1.079,0 1.74,0.567 1.873,1.645 0.057,0.511 0.075,1.06 0.075,1.817l0 5.316 2.082 0 0 -6.073c0,-0.813 -0.019,-1.267 -0.095,-1.778zm-94.622 21.133l-2.063 0 0 5.808 -6.696 0 0 -5.808 -2.082 0 0 13.053 2.082 0 0 -5.562 6.696 0 0 5.562 2.063 0 0 -13.053zm6.999 2.742c-3.386,0 -5.088,2.346 -5.088,5.279 0,2.932 1.702,5.297 5.088,5.297 3.368,0 5.089,-2.365 5.089,-5.297 0,-2.933 -1.721,-5.279 -5.089,-5.279zm0 9.063c-1.834,0 -2.894,-1.514 -2.894,-3.784 0,-2.27 1.06,-3.765 2.894,-3.765 1.816,0 2.876,1.495 2.876,3.765 0,2.27 -1.06,3.784 -2.876,3.784zm15.684 -8.798l-2.062 0 0 4.73c0,2.913 -1.097,4.029 -2.554,4.029 -1.287,0 -2.006,-0.718 -2.157,-1.815 -0.057,-0.511 -0.076,-1.06 -0.076,-1.382l0 -5.562 -2.062 0 0 5.979c0,0.813 0.019,1.267 0.095,1.778 0.227,1.381 1.438,2.554 3.519,2.554 1.002,0 1.74,-0.17 2.535,-0.738l0.7 -1.248 0 1.721 2.062 0 0 -10.046zm5.903 -0.265c-2.232,0 -3.708,1.135 -3.708,3.009 0,1.759 1.362,2.535 3.196,3.008 1.704,0.453 2.385,0.927 2.385,1.797 0,0.87 -0.776,1.287 -1.741,1.287 -1.04,0 -1.891,-0.511 -2.138,-1.797l-2.1 0c0.284,2.27 1.93,3.272 4.163,3.272 2.194,0 3.916,-0.965 3.916,-2.913 0,-1.779 -1.154,-2.649 -3.349,-3.217 -1.495,-0.396 -2.233,-0.775 -2.233,-1.683 0,-0.757 0.474,-1.306 1.457,-1.306 1.022,0 1.647,0.624 1.854,1.684l2.119 0c-0.226,-1.835 -1.513,-3.141 -3.821,-3.141l0 0zm6.811 -3.235c-0.7,0 -1.211,0.512 -1.211,1.193 0,0.699 0.511,1.21 1.211,1.21 0.7,0 1.229,-0.511 1.229,-1.21 0,-0.681 -0.529,-1.193 -1.229,-1.193zm1.04 13.546l0 -10.046 -2.081 0 0 10.046 2.081 0zm11.541 -7.435c-0.19,-1.76 -1.419,-2.876 -3.576,-2.876 -1.003,0 -1.74,0.171 -2.535,0.776l-0.681 1.155 0 -1.666 -2.081 0 0 10.046 2.081 0 0 -4.503c0,-3.14 1.173,-4.275 2.611,-4.275 1.418,0 2.024,0.795 2.119,1.93 0.037,0.51 0.037,0.946 0.037,1.419l0 5.429 2.082 0 0 -5.657c0,-0.813 -0.019,-1.267 -0.057,-1.778zm11.824 -2.611l-2.081 0 0 1.363 -0.662 -1.003c-0.511,-0.397 -1.552,-0.625 -2.384,-0.625 -2.592,0 -4.862,1.741 -4.862,5.411 0,2.952 1.684,5.07 4.578,5.07 1.021,0 2.006,-0.302 2.573,-0.756l0.757 -1.097 0 0.207c0,0.36 0,0.72 -0.019,1.154 -0.076,1.798 -1.116,2.782 -2.932,2.782 -1.552,0 -2.479,-0.738 -2.612,-1.817l-0.019 -0.17 -2.042 0 0.019 0.189c0.208,2.157 1.741,3.368 4.635,3.368 3.026,0 4.919,-1.532 5.033,-4.579 0.018,-0.548 0.018,-1.323 0.018,-1.948l0 -7.549zm-4.994 8.703c-1.797,0 -2.8,-1.57 -2.8,-3.746 0,-2.497 1.248,-3.708 2.894,-3.708 1.344,0 2.819,0.908 2.819,3.349l0 0.435c0,2.686 -1.343,3.67 -2.913,3.67l0 0zm18.104 -11.635c-0.605,-0.075 -1.078,-0.075 -1.778,-0.075l-4.276 0 0 13.053 2.081 0 0 -5.145 2.195 0c0.7,0 1.173,0 1.778,-0.076 1.892,-0.246 3.444,-1.571 3.444,-3.879 0,-2.308 -1.401,-3.613 -3.444,-3.878zm-0.397 6.073c-0.34,0.057 -0.795,0.076 -1.325,0.076l-2.251 0 0 -4.541 2.251 0c0.53,0 0.985,0.019 1.325,0.076 0.908,0.17 1.646,0.813 1.646,2.194 0,1.381 -0.738,2.024 -1.646,2.195zm9.876 -3.387c-0.511,0 -1.098,0.209 -1.552,0.568l-0.851 1.381 0 -1.703 -2.081 0 0 10.046 2.081 0 0 -5.221c0,-2.478 1.192,-3.462 3.102,-3.33l0 -1.627c-0.208,-0.076 -0.415,-0.114 -0.699,-0.114zm6.356 -0.019c-3.386,0 -5.089,2.346 -5.089,5.279 0,2.932 1.703,5.297 5.089,5.297 3.368,0 5.089,-2.365 5.089,-5.297 0,-2.933 -1.721,-5.279 -5.089,-5.279zm0 9.063c-1.835,0 -2.894,-1.514 -2.894,-3.784 0,-2.27 1.059,-3.765 2.894,-3.765 1.816,0 2.876,1.495 2.876,3.765 0,2.27 -1.06,3.784 -2.876,3.784zm7.889 -12.298c-0.756,0 -1.229,0.474 -1.229,1.193 0,0.737 0.473,1.21 1.229,1.21 0.738,0 1.211,-0.473 1.211,-1.21 0,-0.719 -0.473,-1.193 -1.211,-1.193zm1.022 3.5l-2.062 0 0 10.689c0,0.284 0,0.587 -0.038,0.852 -0.076,0.681 -0.53,0.965 -1.608,0.87l0 1.57c0.265,0.038 0.53,0.038 0.87,0.038 1.892,0 2.668,-0.794 2.8,-2.176 0.019,-0.34 0.038,-0.832 0.038,-1.21l0 -10.633zm11.294 4.768c0,-2.838 -1.57,-5.033 -4.483,-5.033 -2.894,0 -4.919,2.138 -4.919,5.316 0,3.557 2.025,5.26 4.71,5.26 2.195,0 4.107,-1.135 4.541,-3.519l-2.1 0c-0.208,1.268 -1.154,2.006 -2.364,2.006 -1.363,0 -2.46,-0.795 -2.63,-3.197l7.208 0c0.037,-0.36 0.037,-0.644 0.037,-0.833zm-4.559 -3.519c1.457,0 2.27,1.04 2.422,2.895l-5.089 0c0.227,-1.93 1.248,-2.895 2.667,-2.895zm10.651 -1.514c-2.629,0 -4.862,1.912 -4.862,5.335 0,3.576 1.986,5.241 4.616,5.241 2.365,0 4.106,-1.192 4.578,-3.594l-2.118 0c-0.303,1.362 -1.155,2.081 -2.346,2.081 -1.4,0 -2.535,-1.155 -2.535,-3.878 0,-2.517 1.153,-3.671 2.61,-3.671 1.23,0 2.044,0.7 2.346,2.233l2.1 0c-0.246,-2.214 -1.854,-3.747 -4.389,-3.747zm8.665 1.798l1.968 0 0 -1.457 -1.968 0 0 -2.402 -2.062 0 0 2.402 -1.419 0 0 1.457 1.419 0 0 5.448c0,0.568 0,1.003 0.019,1.344 0.094,1.324 0.776,1.91 2.345,1.91 0.512,0 1.003,-0.038 1.534,-0.113l0 -1.438c-1.363,0.133 -1.741,-0.076 -1.817,-1.06 -0.019,-0.264 -0.019,-0.491 -0.019,-0.832l0 -5.259zm-106.71 24.538c-3.387,0 -5.09,2.346 -5.09,5.278 0,2.932 1.703,5.298 5.09,5.298 3.367,0 5.088,-2.366 5.088,-5.298 0,-2.932 -1.721,-5.278 -5.088,-5.278zm0 9.062c-1.836,0 -2.895,-1.514 -2.895,-3.784 0,-2.27 1.059,-3.765 2.895,-3.765 1.816,0 2.875,1.495 2.875,3.765 0,2.27 -1.059,3.784 -2.875,3.784zm9.213 -10.446c0.114,-0.836 0.946,-1.139 2.175,-0.912l0 -1.544c-0.34,-0.076 -0.738,-0.114 -1.153,-0.114 -1.892,0 -2.933,0.904 -3.103,2.456 -0.038,0.341 -0.038,0.836 -0.038,1.196l0 0.642 -1.078 0 0 1.457 1.078 0 0 8.513 2.062 0 0 -8.513 2.062 0 0 -1.457 -2.062 0 0 -0.756c0,-0.284 0.019,-0.703 0.057,-0.968zm9.989 3.181l1.967 0 0 -1.457 -1.967 0 0 -2.402 -2.063 0 0 2.402 -1.418 0 0 1.457 1.418 0 0 5.449c0,0.567 0,1.002 0.019,1.343 0.095,1.324 0.776,1.911 2.346,1.911 0.511,0 1.003,-0.038 1.533,-0.114l0 -1.438c-1.362,0.133 -1.74,-0.076 -1.816,-1.06 -0.019,-0.264 -0.019,-0.491 -0.019,-0.832l0 -5.259zm12.732 1.078c-0.189,-1.759 -1.419,-2.875 -3.576,-2.875 -1.002,0 -1.74,0.17 -2.535,0.776l-0.681 1.154 0 -5.619 -2.081 0 0 13.999 2.081 0 0 -4.502c0,-3.141 1.173,-4.238 2.611,-4.276 1.419,-0.019 2.024,0.795 2.119,1.93 0.038,0.511 0.038,0.946 0.038,1.419l0 5.429 2.081 0 0 -5.657c0,-0.813 -0.019,-1.267 -0.057,-1.778zm11.238 2.157c0,-2.838 -1.571,-5.032 -4.484,-5.032 -2.894,0 -4.919,2.137 -4.919,5.315 0,3.557 2.025,5.261 4.711,5.261 2.195,0 4.106,-1.136 4.54,-3.52l-2.1 0c-0.208,1.268 -1.154,2.006 -2.364,2.006 -1.363,0 -2.46,-0.795 -2.63,-3.197l7.208 0c0.038,-0.36 0.038,-0.643 0.038,-0.833zm-4.56 -3.519c1.457,0 2.27,1.041 2.422,2.895l-5.089 0c0.227,-1.93 1.248,-2.895 2.667,-2.895zm16.157 3.69l4.616 -7.946 -2.308 0 -3.254 6.035 -3.368 -6.035 -2.365 0 4.616 7.946 0 5.107 2.063 0 0 -5.107zm12.826 -0.171c0,-2.838 -1.57,-5.032 -4.484,-5.032 -2.894,0 -4.918,2.137 -4.918,5.315 0,3.557 2.024,5.261 4.711,5.261 2.194,0 4.105,-1.136 4.54,-3.52l-2.1 0c-0.208,1.268 -1.154,2.006 -2.365,2.006 -1.362,0 -2.46,-0.795 -2.63,-3.197l7.209 0c0.037,-0.36 0.037,-0.643 0.037,-0.833zm-4.559 -3.519c1.457,0 2.27,1.041 2.422,2.895l-5.089 0c0.226,-1.93 1.248,-2.895 2.667,-2.895zm12.335 8.797l2.062 0c-0.151,-1.116 -0.189,-1.797 -0.189,-2.554l0 -3.538c0,-0.472 -0.02,-1.003 -0.057,-1.418 -0.17,-1.703 -1.192,-2.8 -3.784,-2.8 -2.289,0 -3.935,1.248 -4.067,3.443l2.08 0c0.114,-1.249 0.739,-1.93 1.949,-1.93 1.192,0 1.703,0.567 1.76,1.382 0.038,0.378 0.038,0.718 0.038,1.097l0 0.245 -0.644 0c-3.802,0 -5.581,1.211 -5.581,3.444 0,1.873 1.457,2.895 3.235,2.895 0.946,0 1.816,-0.171 2.497,-0.644l0.512 -1.079 0.189 1.457zm-2.441 -1.248c-1.097,0 -1.797,-0.492 -1.797,-1.551 0,-1.533 1.589,-2.082 4.03,-1.893l0 0.928c0,1.627 -0.927,2.516 -2.233,2.516zm11.446 -9.043c-0.511,0 -1.097,0.208 -1.551,0.567l-0.851 1.381 0 -1.703 -2.081 0 0 10.046 2.081 0 0 -5.221c0,-2.478 1.191,-3.462 3.102,-3.33l0 -1.627c-0.208,-0.075 -0.416,-0.113 -0.7,-0.113z"/>
 </g>
</svg>
