<?xml version="1.0" encoding="UTF-8"?>
<!DOCTYPE svg PUBLIC "-//W3C//DTD SVG 1.1//EN" "http://www.w3.org/Graphics/SVG/1.1/DTD/svg11.dtd">
<!-- Creator: CorelDRAW 2019 (64-Bit) -->
<svg xmlns="http://www.w3.org/2000/svg" xml:space="preserve" width="42.3332mm" height="42.3332mm" version="1.1" style="shape-rendering:geometricPrecision; text-rendering:geometricPrecision; image-rendering:optimizeQuality; fill-rule:evenodd; clip-rule:evenodd"
viewBox="0 0 4233.32 4233.32"
 xmlns:xlink="http://www.w3.org/1999/xlink">
 <defs>
  <style type="text/css">
   <![CDATA[
    .fil0 {fill:none}
    .fil1 {fill:#030129;fill-rule:nonzero}
    .fil2 {fill:#AE904E;fill-rule:nonzero}
   ]]>
  </style>
 </defs>
 <g id="Layer_x0020_1">
  <metadata id="CorelCorpID_0Corel-Layer"/>
  <rect class="fil0" x="1.2" y="0.09" width="4233.33" height="4233.33"/>
  <path class="fil1" d="M1996.64 1801.28c21.06,-7.14 33.52,-20.56 33.52,-43.82 0,-28.63 -18.39,-46.22 -51.01,-50.69 -10.11,-1.19 -16.62,-1.19 -26.72,-1.19l-66.15 0 0 205.74 69.72 0c10.37,0 17.2,0 27.28,-1.51 27.01,-3.89 54.29,-21.78 54.29,-59.35 0,-27.41 -14.23,-42.62 -40.93,-49.19l0 0.01zm-77.7 -69.77l33.5 0c4.76,0 10.69,0.32 15.43,0.9 16.32,1.8 27.89,10.45 27.89,28.63 0,16.7 -7.7,27.12 -25.8,30.11 -5.34,0.9 -10.37,1.19 -15.43,1.19l-35.59 0 0 -60.83zm54.26 153.24c-3.86,0.32 -9.21,0.32 -13.94,0.32l-40.32 0 0 -67.39 38.55 0c4.76,0 9.47,0 15.43,0.9 17.49,2.09 30.27,11.03 30.27,33.39 0,19.98 -13.07,31.3 -29.98,32.78l-0.01 0zm231.09 -56.64c0,-44.71 -24.63,-79.3 -70.3,-79.3 -45.4,0 -77.13,33.71 -77.13,83.79 0,56.04 31.72,82.87 73.85,82.87 34.42,0 64.4,-17.89 71.2,-55.46l-32.91 0c-3.28,19.98 -18.1,31.62 -37.09,31.62 -21.35,0 -38.55,-12.54 -41.22,-50.4l113 0c0.61,-5.66 0.61,-10.13 0.61,-13.12l-0.01 0zm-71.49 -55.43c22.83,0 35.59,16.38 37.97,45.59l-79.8 0c3.57,-30.4 19.58,-45.59 41.83,-45.59zm153.35 -23.87c-35,0 -58.13,17.89 -58.13,47.41 0,27.73 21.35,39.95 50.11,47.39 26.72,7.17 37.39,14.63 37.39,28.34 0,13.71 -12.14,20.27 -27.28,20.27 -16.32,0 -29.69,-8.04 -33.52,-28.31l-32.94 0c4.47,35.77 30.27,51.57 65.27,51.57 34.4,0 61.41,-15.19 61.41,-45.91 0,-28.02 -18.1,-41.75 -52.52,-50.69 -23.42,-6.24 -35,-12.22 -35,-26.54 0,-11.93 7.43,-20.56 22.86,-20.56 16.01,0 25.8,9.82 29.08,26.54l33.21 0c-3.57,-28.92 -23.73,-49.5 -59.93,-49.5l0 0 -0.01 -0.01zm129.33 28.31l30.88 0 0 -22.94 -30.88 0 0 -37.89 -32.33 0 0 37.89 -22.23 0 0 22.94 22.23 0 0 85.88c0,8.94 0,15.8 0.32,21.17 1.48,20.88 12.14,30.11 36.78,30.11 8.02,0 15.72,-0.61 24.02,-1.8l0 -22.65c-21.35,2.09 -27.31,-1.19 -28.47,-16.7 -0.32,-4.15 -0.32,-7.75 -0.32,-13.12l0 -82.89zm-848.09 438.92c-2.06,-21.48 -9.76,-39.37 -28.18,-47.44 21.67,-6.54 37.99,-22.36 37.99,-49.19 0,-35.16 -22.25,-50.99 -51.91,-54.85 -9.82,-1.19 -17.22,-1.19 -28.2,-1.19l-70.59 0 0 205.71 32.62 0 0 -85.88 31.75 0c5.03,0 10.08,0 15.13,0.32 18.68,1.19 26.7,14.92 29.37,36.67 2.35,22.67 5.03,35.48 10.37,48.9l35.9 0c-8.31,-11.32 -11.85,-27.12 -14.26,-53.05l0.01 0zm-108.27 -58.18l0 -68.55 36.2 0c8.31,0 13.65,0.29 19,1.19 17.49,2.38 28.47,11.32 28.47,33.1 0,21.75 -13.34,31.91 -31.14,33.68 -5.05,0.58 -10.08,0.58 -18.42,0.58l-34.1 0 -0.01 0zm283.6 28.04c0,-44.71 -24.63,-79.32 -70.33,-79.32 -45.38,0 -77.13,33.71 -77.13,83.79 0,56.07 31.75,82.89 73.9,82.89 34.4,0 64.37,-17.89 71.17,-55.46l-32.91 0c-3.28,19.98 -18.1,31.62 -37.09,31.62 -21.35,0 -38.58,-12.54 -41.22,-50.4l113 0c0.61,-5.66 0.61,-10.13 0.61,-13.12zm-71.51 -55.46c22.86,0 35.61,16.4 37.99,45.61l-79.8 0c3.55,-30.4 19.58,-45.61 41.8,-45.61l0.01 0zm153.38 -23.86c-35,0 -58.13,17.89 -58.13,47.44 0,27.7 21.35,39.93 50.11,47.39 26.72,7.17 37.39,14.63 37.39,28.31 0,13.73 -12.14,20.29 -27.28,20.29 -16.32,0 -29.69,-8.04 -33.52,-28.34l-32.94 0c4.47,35.8 30.27,51.59 65.27,51.59 34.4,0 61.38,-15.21 61.38,-45.93 0,-28.02 -18.1,-41.72 -52.49,-50.67 -23.44,-6.27 -35,-12.22 -35,-26.54 0,-11.93 7.43,-20.58 22.86,-20.58 16.01,0 25.8,9.84 29.05,26.54l33.23 0c-3.57,-28.92 -23.73,-49.5 -59.93,-49.5l0 0zm106.78 -50.96c-10.95,0 -18.97,8.02 -18.97,18.76 0,11.06 8.02,19.1 18.97,19.1 10.98,0 19.29,-8.04 19.29,-19.1 0,-10.74 -8.31,-18.76 -19.29,-18.76zm16.33 213.47l0 -158.33 -32.62 0 0 158.33 32.62 0zm186.58 -219.13l-32.65 0 0 82.26 -10.37 -15.8c-8.02,-6.24 -24.32,-9.84 -37.36,-9.84 -40.64,0 -76.25,28.05 -76.25,85.88 0,46.51 25.8,80.8 70.91,80.8 16.03,0 32.33,-4.79 41.22,-11.93l11.85 -17.3 0 25.06 32.65 0 0 -219.13zm-78.32 199.47c-28.18,0 -43.89,-25.35 -43.89,-59.66 0,-39.34 19.58,-59.32 45.38,-59.32 21.06,0 44.19,14.31 44.19,52.76l0 8.36c0,42.33 -21.03,57.86 -45.67,57.86l-0.01 0zm255.72 -63.53c0,-44.71 -24.63,-79.32 -70.33,-79.32 -45.38,0 -77.13,33.71 -77.13,83.79 0,56.07 31.75,82.89 73.87,82.89 34.42,0 64.37,-17.89 71.2,-55.46l-32.91 0c-3.28,19.98 -18.1,31.62 -37.09,31.62 -21.38,0 -38.58,-12.54 -41.22,-50.4l113 0c0.61,-5.66 0.61,-10.13 0.61,-13.12zm-71.51 -55.46c22.86,0 35.61,16.4 37.99,45.61l-79.8 0c3.55,-30.4 19.55,-45.61 41.8,-45.61l0.01 0zm241.77 21.46c-2.96,-27.73 -22.25,-45.32 -56.07,-45.32 -15.72,0 -27.31,2.7 -39.74,12.25l-10.69 18.18 0 -26.25 -32.62 0 0 158.33 32.62 0 0 -70.96c0,-49.5 18.39,-67.39 40.93,-67.39 22.25,0 31.75,12.54 33.23,30.4 0.61,8.07 0.61,14.92 0.61,22.38l0 85.57 32.62 0 0 -89.14c0,-12.83 -0.32,-19.98 -0.9,-28.05l0.01 0zm79.51 -16.98l30.85 0 0 -22.97 -30.85 0 0 -37.86 -32.36 0 0 37.86 -22.25 0 0 22.97 22.25 0 0 85.88c0,8.92 0,15.8 0.32,21.17 1.48,20.85 12.17,30.11 36.78,30.11 8.02,0 15.72,-0.61 24.05,-1.8l0 -22.65c-21.38,2.09 -27.31,-1.19 -28.5,-16.72 -0.29,-4.15 -0.29,-7.75 -0.29,-13.1l0 -82.89zm76.81 -79.3c-10.98,0 -18.97,8.02 -18.97,18.76 0,11.06 7.99,19.1 18.97,19.1 10.98,0 19.29,-8.04 19.29,-19.1 0,-10.74 -8.31,-18.76 -19.29,-18.76zm16.32 213.47l0 -158.33 -32.62 0 0 158.33 32.62 0zm132.59 0l32.36 0c-2.38,-17.59 -2.96,-28.34 -2.96,-40.24l0 -55.77c0,-7.43 -0.32,-15.8 -0.9,-22.33 -2.67,-26.86 -18.68,-44.16 -59.32,-44.16 -35.9,0 -61.7,19.69 -63.79,54.27l32.65 0c1.77,-19.66 11.56,-30.4 30.53,-30.4 18.71,0 26.72,8.94 27.6,21.78 0.58,5.95 0.58,11.32 0.58,17.28l0 3.89 -10.08 0c-59.61,0 -87.5,19.08 -87.5,54.24 0,29.53 22.83,45.64 50.72,45.64 14.82,0 28.5,-2.7 39.16,-10.16l7.99 -16.96 2.96 22.94 0 -0.02zm-38.26 -19.66c-17.2,0 -28.18,-7.78 -28.18,-24.47 0,-24.16 24.92,-32.78 63.18,-29.79l0 14.61c0,25.64 -14.53,39.66 -35,39.66l0 -0.01zm140.62 -199.47l-32.62 0 0 171.71c0,9.55 0,16.7 0.29,22.67 1.19,20.27 12.75,26.54 29.95,26.54 7.41,0 14.84,-0.61 21.35,-1.51l0 -22.94c-13.94,1.19 -18.1,-1.8 -18.68,-10.74 -0.29,-4.79 -0.29,-9.55 -0.29,-14.9l0 -170.84 0 0.01zm-1089.42 372.37c-9.5,-1.19 -16.88,-1.19 -27.89,-1.19l-67.05 0 0 205.74 32.65 0 0 -81.09 34.4 0c11.01,0 18.39,0 27.89,-1.22 29.66,-3.86 54,-24.74 54,-61.12 0,-36.35 -21.96,-56.94 -54,-61.12zm-6.22 95.7c-5.34,0.9 -12.46,1.22 -20.77,1.22l-35.3 0 0 -71.57 35.3 0c8.31,0 15.43,0.29 20.77,1.19 14.23,2.7 25.82,12.83 25.82,34.58 0,21.78 -11.59,31.91 -25.82,34.58zm154.84 -53.34c-7.99,0 -17.2,3.28 -24.32,8.92l-13.36 21.78 0 -26.86 -32.62 0 0 158.35 32.62 0 0 -82.31c0,-39.05 18.71,-54.56 48.66,-52.47l0 -25.64c-3.25,-1.19 -6.51,-1.77 -10.98,-1.77zm99.67 -0.31c-53.1,0 -79.8,36.99 -79.8,83.19 0,46.22 26.7,83.48 79.8,83.48 52.81,0 79.8,-37.25 79.8,-83.48 0,-46.2 -26.99,-83.19 -79.8,-83.19zm0 142.82c-28.76,0 -45.38,-23.87 -45.38,-59.64 0,-35.77 16.62,-59.32 45.38,-59.32 28.5,0 45.09,23.55 45.09,59.32 0,35.77 -16.59,59.64 -45.09,59.64zm123.69 -193.81c-11.85,0 -19.26,7.46 -19.26,18.79 0,11.64 7.41,19.08 19.26,19.08 11.59,0 19,-7.43 19,-19.08 0,-11.32 -7.41,-18.79 -19,-18.79zm16.03 55.14l-32.33 0 0 168.46c0,4.5 0,9.26 -0.61,13.44 -1.19,10.72 -8.28,15.19 -25.21,13.71l0 24.74c4.15,0.61 8.31,0.61 13.65,0.61 29.66,0 41.83,-12.51 43.92,-34.29 0.26,-5.37 0.58,-13.12 0.58,-19.08l0 -167.59zm177.09 75.14c0,-44.71 -24.61,-79.3 -70.3,-79.3 -45.4,0 -77.13,33.71 -77.13,83.79 0,56.04 31.72,82.87 73.87,82.87 34.42,0 64.37,-17.89 71.17,-55.46l-32.91 0c-3.28,20 -18.1,31.62 -37.07,31.62 -21.38,0 -38.58,-12.54 -41.25,-50.38l113.03 0c0.58,-5.69 0.58,-10.16 0.58,-13.15l0.01 0.01zm-71.49 -55.43c22.86,0 35.59,16.4 37.97,45.59l-79.8 0c3.57,-30.4 19.58,-45.59 41.83,-45.59zm167.03 -23.86c-41.25,0 -76.25,30.11 -76.25,84.08 0,56.36 31.14,82.58 72.39,82.58 37.07,0 64.35,-18.79 71.78,-56.65l-33.23 0c-4.74,21.46 -18.1,32.81 -36.78,32.81 -21.96,0 -39.77,-18.18 -39.77,-61.12 0,-39.66 18.1,-57.84 40.96,-57.84 19.29,0 32.04,11.01 36.78,35.16l32.91 0c-3.84,-34.87 -29.08,-59.03 -68.79,-59.03l0 0.01zm135.84 28.31l30.85 0 0 -22.94 -30.85 0 0 -37.86 -32.33 0 0 37.86 -22.25 0 0 22.94 22.25 0 0 85.88c0,8.94 0,15.8 0.29,21.17 1.48,20.88 12.17,30.11 36.78,30.11 8.02,0 15.74,-0.61 24.05,-1.8l0 -22.65c-21.38,2.09 -27.31,-1.19 -28.5,-16.7 -0.29,-4.15 -0.29,-7.75 -0.29,-13.12l0 -82.89z"/>
  <path class="fil1" d="M1875.31 1280.31l45.11 -44.71c35.88,-35.19 50.11,-54.27 50.11,-81.39 0,-32.52 -21.96,-57.84 -65.27,-57.84 -43.31,0 -69.69,23.55 -73.85,67.07l-0.29 2.99 32.62 0 0.29 -2.99c2.67,-27.12 14.23,-42.04 37.68,-42.04 22.25,0 33.5,15.8 33.5,35.8 0,19.66 -11.24,34.55 -37.04,60.22l-71.52 72.44 0 16.7 142.69 0 0 -26.25 -94.03 0zm200.82 -183.65c-56.94,0 -76.52,44.71 -76.52,107.02 0,61.73 19.58,107.05 76.52,107.05 57.26,0 76.54,-45.32 76.54,-107.05 0,-62.31 -19.29,-107.02 -76.54,-107.02zm0 189.02c-29.05,0 -41.22,-29.21 -41.22,-81.99 0,-53.37 12.17,-81.99 41.22,-81.99 29.37,0 41.25,28.63 41.25,81.99 0,52.78 -11.88,81.99 -41.25,81.99zm217.43 -184.86l-18.1 0c-9.18,0 -17.78,2.12 -27.28,7.75l-45.09 27.75 0 32.17 57.84 -33.39 0 171.45 32.62 0 0 -205.74 0.01 0.01zm146.55 68.9c-12.17,0 -22.54,2.67 -32.04,8.33l-11.56 14.02 8.28 -65.3 94.96 0 0 -25.96 -121.34 0 -14.53 120.46 30.53 0c8.92,-19.08 21.06,-26.54 38.58,-26.54 25.21,0 40.03,18.2 40.03,45.93 0,28.02 -15.72,45.01 -40.93,45.01 -22.83,0 -34.4,-13.41 -38.55,-34.58l-0.32 -2.96 -32.62 0 0.32 2.96c4.15,39.95 29.05,59.64 72.07,59.64 39.16,0 75.33,-25.64 75.33,-71.57 0,-40.53 -23.73,-69.45 -68.21,-69.45l0 0.01z"/>
  <g id="_1128814561072">
   <path class="fil2" d="M1588.29 823.85c-49.29,-23.12 -83.56,-65.48 -98.08,-113.98 46.33,-20.03 100.65,-20.93 149.94,2.2 49.29,23.12 83.56,65.46 98.05,114.01 -46.33,20.03 -100.62,20.88 -149.91,-2.22l0 -0.01z"/>
   <path class="fil2" d="M1603.45 610.73c-23.02,49.53 -65.14,83.95 -113.43,98.56 -19.92,-46.57 -20.77,-101.15 2.22,-150.71 22.97,-49.53 65.11,-83.95 113.43,-98.56 19.9,46.57 20.74,101.15 -2.22,150.71z"/>
   <path class="fil2" d="M1392.97 923.57c-52.55,-14.16 -93.58,-49.87 -116.26,-95.17 42.15,-27.78 95.46,-38.13 148.01,-23.97 52.57,14.16 93.58,49.9 116.28,95.17 -42.17,27.78 -95.49,38.1 -148.03,23.97z"/>
   <path class="fil2" d="M1371.06 711.01c-14.08,52.81 -49.64,94.06 -94.67,116.89 -27.68,-42.41 -37.94,-95.99 -23.84,-148.8 14.08,-52.81 49.61,-94.06 94.67,-116.87 27.65,42.39 37.91,95.99 23.84,148.78z"/>
   <path class="fil2" d="M1217.74 1056.1c-54.21,-4.76 -100.78,-32.78 -130.97,-73.42 36.75,-34.74 87.47,-54.19 141.66,-49.42 54.19,4.76 100.78,32.78 130.94,73.4 -36.72,34.74 -87.44,54.21 -141.63,49.45l0 -0.01z"/>
   <path class="fil2" d="M1159.42 850.63c-4.71,54.45 -32.62,101.28 -73.03,131.6 -34.55,-36.91 -53.92,-87.89 -49.19,-142.35 4.74,-54.48 32.62,-101.34 73.03,-131.63 34.58,36.91 53.92,87.89 49.19,142.37l0 0.01z"/>
   <path class="fil2" d="M1067.88 1217.45c-54.19,4.76 -104.91,-14.68 -141.66,-49.42 30.19,-40.61 76.78,-68.63 130.97,-73.42 54.21,-4.76 104.91,14.71 141.63,49.48 -30.16,40.59 -76.76,68.61 -130.94,73.37l0 -0.01z"/>
   <path class="fil2" d="M974.96 1025.28c4.76,54.45 -14.61,105.44 -49.19,142.35 -40.4,-30.32 -68.29,-77.13 -73.03,-131.6 -4.74,-54.48 14.63,-105.46 49.19,-142.37 40.43,30.32 68.29,77.15 73.03,131.63l0 -0.01z"/>
   <path class="fil2" d="M947.97 1402.73c-52.55,14.16 -105.86,3.84 -148.01,-23.97 22.67,-45.27 63.71,-80.99 116.26,-95.14 52.55,-14.16 105.86,-3.84 148.03,23.97 -22.7,45.27 -63.71,80.99 -116.28,95.14z"/>
   <path class="fil2" d="M823.27 1229.67c14.08,52.81 3.81,106.42 -23.84,148.8 -45.03,-22.83 -80.59,-64.06 -94.67,-116.87 -14.08,-52.81 -3.81,-106.42 23.87,-148.8 45.03,22.83 80.57,64.06 94.64,116.87z"/>
   <path class="fil2" d="M861.66 1606.28c-49.29,23.1 -103.58,22.25 -149.91,2.22 14.53,-48.5 48.76,-90.86 98.08,-114.01 49.29,-23.07 103.58,-22.23 149.91,-2.2 -14.53,48.52 -48.79,90.88 -98.08,113.98l0 0.01z"/>
   <path class="fil2" d="M708.97 1457.64c22.97,49.53 22.15,104.11 2.22,150.65 -48.31,-14.55 -90.43,-49 -113.43,-98.53 -22.99,-49.58 -22.12,-104.14 -2.22,-150.68 48.29,14.58 90.43,49 113.43,98.56z"/>
   <path class="fil2" d="M811.58 1821.94c-44.56,31.35 -98.19,39.98 -147.24,28.34 5.9,-50.32 32.31,-98 76.86,-129.35 44.56,-31.38 98.19,-40.01 147.27,-28.39 -5.93,50.35 -32.33,98.03 -76.89,129.41l0 -0.01z"/>
   <path class="fil2" d="M635.52 1702.19c31.19,44.77 39.77,98.66 28.2,148.01 -50.09,-5.95 -97.53,-32.49 -128.72,-77.28 -31.22,-44.79 -39.79,-98.66 -28.23,-148.01 50.09,5.95 97.53,32.49 128.75,77.28z"/>
   <path class="fil2" d="M799.22 2043.11c-38.47,38.66 -89.77,56.52 -140.12,53.63 -2.86,-50.61 14.9,-102.16 53.37,-140.81 38.47,-38.68 89.77,-56.52 140.12,-53.66 2.86,50.61 -14.9,102.18 -53.37,140.84z"/>
   <path class="fil2" d="M605.15 1955.93c38.44,38.66 56.22,90.2 53.37,140.81 -50.35,2.88 -101.65,-14.98 -140.12,-53.63 -35.48,-35.64 -53.34,-82.23 -53.66,-128.98l0 -2.75c0,-3.04 0.11,-6.09 0.26,-9.1 50.38,-2.86 101.68,14.98 140.15,53.66l0 -0.01z"/>
   <path class="fil2" d="M825.15 2261.44c-31.22,44.79 -78.66,71.33 -128.75,77.28 -11.56,-49.34 -2.99,-103.24 28.23,-148.01 31.19,-44.79 78.63,-71.33 128.72,-77.28 11.56,49.34 2.99,103.24 -28.2,148.01z"/>
   <path class="fil2" d="M618.93 2209.42c44.56,31.38 70.96,79.08 76.89,129.41 -49.08,11.64 -102.71,2.99 -147.27,-28.36 -44.56,-31.35 -70.96,-79.06 -76.86,-129.41 49.08,-11.62 102.68,-2.96 147.24,28.36z"/>
   <path class="fil2" d="M888.65 2471.97c-22.99,49.53 -65.11,83.95 -113.43,98.56 -19.92,-46.57 -20.77,-101.15 2.22,-150.68 22.99,-49.56 65.14,-83.98 113.43,-98.56 19.9,46.57 20.77,101.12 -2.22,150.68z"/>
   <path class="fil2" d="M676.59 2456.73c49.32,23.1 83.56,65.46 98.08,114.01 -46.33,20 -100.62,20.88 -149.91,-2.22 -49.32,-23.12 -83.56,-65.46 -98.08,-114.01 46.33,-20 100.62,-20.88 149.91,2.22z"/>
   <path class="fil2" d="M987.87 2668.29c-14.1,52.81 -49.64,94.03 -94.69,116.84 -27.65,-42.39 -37.91,-95.96 -23.84,-148.78 14.08,-52.81 49.64,-94.06 94.67,-116.87 27.68,42.39 37.94,95.96 23.87,148.8l-0.01 0.01z"/>
   <path class="fil2" d="M776.39 2690.3c52.55,14.13 93.58,49.87 116.28,95.14 -42.17,27.81 -95.49,38.1 -148.03,23.97 -52.55,-14.18 -93.58,-49.9 -116.26,-95.14 42.15,-27.83 95.49,-38.13 148.01,-23.97z"/>
   <path class="fil2" d="M1119.74 2844.4c-4.76,54.48 -32.62,101.31 -73.05,131.6 -34.55,-36.88 -53.92,-87.87 -49.19,-142.35 4.74,-54.45 32.62,-101.28 73.03,-131.6 34.58,36.91 53.95,87.89 49.21,142.35z"/>
   <path class="fil2" d="M915.27 2903c54.21,4.76 100.81,32.78 130.97,73.4 -36.72,34.77 -87.44,54.21 -141.63,49.45 -54.21,-4.76 -100.81,-32.81 -130.94,-73.42 36.7,-34.71 87.42,-54.19 141.61,-49.42l-0.01 -0.01z"/>
   <path class="fil2" d="M1280.29 2995.02c4.74,54.45 -14.66,105.44 -49.21,142.35 -40.4,-30.32 -68.29,-77.13 -73.03,-131.6 -4.76,-54.45 14.63,-105.46 49.19,-142.37 40.4,30.32 68.29,77.18 73.05,131.63l0 -0.01z"/>
   <path class="fil2" d="M1089.07 3088.4c54.19,-4.76 104.91,14.71 141.61,49.45 -30.14,40.61 -76.73,68.63 -130.92,73.4 -54.21,4.76 -104.91,-14.68 -141.66,-49.42 30.16,-40.61 76.76,-68.66 130.97,-73.42l0 -0.01z"/>
   <path class="fil2" d="M1464.62 3115.54c14.08,52.81 3.81,106.39 -23.87,148.78 -45.03,-22.81 -80.59,-64.06 -94.67,-116.89 -14.08,-52.78 -3.81,-106.39 23.84,-148.75 45.03,22.78 80.59,64.03 94.69,116.87l0.01 -0.01z"/>
   <path class="fil2" d="M1292.43 3240.87c52.55,-14.18 105.86,-3.84 148.03,23.97 -22.7,45.27 -63.74,80.99 -116.28,95.14 -52.55,14.16 -105.86,3.84 -148.03,-23.97 22.7,-45.27 63.74,-81.02 116.28,-95.14z"/>
   <path class="fil2" d="M1667.13 3202.27c22.97,49.56 22.12,104.11 2.2,150.71 -48.29,-14.61 -90.43,-49.03 -113.4,-98.58 -23.02,-49.56 -22.15,-104.11 -2.22,-150.68 48.29,14.61 90.41,49.03 113.43,98.56l-0.01 -0.01z"/>
   <path class="fil2" d="M1519.23 3355.76c49.29,-23.12 103.56,-22.25 149.89,-2.22 -14.5,48.52 -48.76,90.88 -98.05,114.01 -49.29,23.1 -103.58,22.25 -149.91,2.22 14.53,-48.55 48.76,-90.88 98.08,-114.01l-0.01 0z"/>
   <path class="fil2" d="M1846.26 642.59c-51.12,18.73 -105.12,13.1 -149.54,-10.9 18.65,-47.07 56.44,-86.28 107.58,-104.96 51.09,-18.73 105.12,-13.1 149.54,10.9 -18.68,47.1 -56.46,86.28 -107.58,104.96z"/>
   <path class="fil2" d="M2319.38 3772.18c-249.98,-248.6 -482.36,-346.63 -654.26,-405.21 -16.54,-5.64 -31.94,-10.87 -45.91,-15.77 -584.33,-205.58 -976.95,-749.17 -976.95,-1352.71 0,-679.13 496.6,-1271.56 1180.84,-1408.64l4.34 21.88c-673.89,135.04 -1162.98,718.21 -1162.98,1386.76 0,594.04 386.64,1129.19 962.05,1331.62 13.97,4.89 29.26,10.11 45.75,15.72 173.7,59.19 482.89,158.25 736.52,410.47l-89.4 15.88z"/>
   <path class="fil2" d="M2642.18 823.85c49.29,-23.12 83.56,-65.48 98.05,-113.98 -46.33,-20.03 -100.62,-20.93 -149.91,2.2 -49.29,23.12 -83.56,65.46 -98.05,114.01 46.33,20.03 100.62,20.88 149.91,-2.22l0 -0.01z"/>
   <path class="fil2" d="M2627.01 610.73c23.02,49.53 65.14,83.95 113.43,98.56 19.92,-46.57 20.8,-101.15 -2.22,-150.71 -22.99,-49.53 -65.11,-83.95 -113.43,-98.56 -19.92,46.57 -20.74,101.15 2.22,150.71z"/>
   <path class="fil2" d="M2837.49 923.57c52.52,-14.16 93.58,-49.87 116.28,-95.17 -42.2,-27.78 -95.51,-38.13 -148.06,-23.97 -52.55,14.16 -93.56,49.9 -116.23,95.17 42.15,27.78 95.46,38.1 148.01,23.97z"/>
   <path class="fil2" d="M2859.4 711.01c14.08,52.81 49.64,94.06 94.67,116.89 27.65,-42.41 37.91,-95.99 23.84,-148.8 -14.08,-52.81 -49.61,-94.06 -94.67,-116.87 -27.65,42.39 -37.94,95.99 -23.84,148.78z"/>
   <path class="fil2" d="M3012.72 1056.1c54.21,-4.76 100.81,-32.78 130.97,-73.42 -36.72,-34.74 -87.44,-54.19 -141.66,-49.42 -54.19,4.76 -100.78,32.78 -130.94,73.4 36.72,34.74 87.44,54.21 141.63,49.45l0 -0.01z"/>
   <path class="fil2" d="M3071.01 850.63c4.76,54.45 32.65,101.28 73.05,131.6 34.55,-36.91 53.92,-87.89 49.19,-142.35 -4.74,-54.48 -32.62,-101.34 -73.03,-131.63 -34.58,36.91 -53.92,87.89 -49.21,142.37l0 0.01z"/>
   <path class="fil2" d="M3162.58 1217.45c54.19,4.76 104.91,-14.68 141.63,-49.42 -30.16,-40.61 -76.76,-68.63 -130.94,-73.42 -54.21,-4.76 -104.93,14.71 -141.63,49.48 30.16,40.59 76.76,68.61 130.94,73.37l0 -0.01z"/>
   <path class="fil2" d="M3255.51 1025.28c-4.74,54.45 14.61,105.44 49.19,142.35 40.4,-30.32 68.29,-77.13 73.03,-131.6 4.74,-54.48 -14.63,-105.46 -49.19,-142.37 -40.4,30.32 -68.32,77.15 -73.03,131.63l0 -0.01z"/>
   <path class="fil2" d="M3282.47 1402.73c52.57,14.16 105.86,3.84 148.03,-23.97 -22.67,-45.27 -63.74,-80.99 -116.28,-95.14 -52.55,-14.16 -105.86,-3.84 -148.01,23.97 22.7,45.27 63.71,80.99 116.26,95.14z"/>
   <path class="fil2" d="M3407.19 1229.67c-14.08,52.81 -3.81,106.42 23.84,148.8 45.03,-22.83 80.59,-64.06 94.67,-116.87 14.1,-52.81 3.81,-106.42 -23.84,-148.8 -45.06,22.83 -80.59,64.06 -94.67,116.87z"/>
   <path class="fil2" d="M3368.8 1606.28c49.29,23.1 103.58,22.25 149.89,2.22 -14.5,-48.5 -48.74,-90.86 -98.03,-114.01 -49.29,-23.07 -103.61,-22.23 -149.94,-2.2 14.53,48.52 48.76,90.88 98.08,113.98l0 0.01z"/>
   <path class="fil2" d="M3521.49 1457.64c-22.99,49.53 -22.12,104.11 -2.22,150.65 48.29,-14.55 90.43,-49 113.43,-98.53 22.99,-49.58 22.15,-104.14 2.22,-150.68 -48.29,14.58 -90.43,49 -113.43,98.56z"/>
   <path class="fil2" d="M3418.86 1821.94c44.58,31.35 98.19,39.98 147.27,28.34 -5.9,-50.32 -32.31,-98 -76.89,-129.35 -44.53,-31.38 -98.16,-40.01 -147.24,-28.39 5.93,50.35 32.33,98.03 76.86,129.41l0 -0.01z"/>
   <path class="fil2" d="M3594.94 1702.19c-31.19,44.77 -39.77,98.66 -28.2,148.01 50.09,-5.95 97.53,-32.49 128.72,-77.28 31.22,-44.79 39.79,-98.66 28.23,-148.01 -50.09,5.95 -97.53,32.49 -128.75,77.28z"/>
   <path class="fil2" d="M3431.24 2043.11c38.44,38.66 89.77,56.52 140.12,53.63 2.86,-50.61 -14.9,-102.16 -53.37,-140.81 -38.47,-38.68 -89.77,-56.52 -140.12,-53.66 -2.88,50.61 14.9,102.18 53.37,140.84z"/>
   <path class="fil2" d="M3625.31 1955.93c-38.47,38.66 -56.22,90.2 -53.37,140.81 50.35,2.88 101.65,-14.98 140.12,-53.63 38.47,-38.66 56.25,-90.22 53.37,-140.84 -50.35,-2.86 -101.65,14.98 -140.12,53.66z"/>
   <path class="fil2" d="M3405.31 2261.44c31.22,44.79 78.66,71.33 128.72,77.28 11.62,-49.34 3.02,-103.24 -28.2,-148.01 -31.19,-44.79 -78.63,-71.33 -128.72,-77.28 -11.56,49.34 -2.96,103.24 28.2,148.01z"/>
   <path class="fil2" d="M3611.53 2209.42c-44.56,31.38 -70.96,79.08 -76.89,129.41 49.08,11.64 102.71,2.99 147.27,-28.36 44.56,-31.35 70.96,-79.06 76.89,-129.41 -49.11,-11.62 -102.71,-2.96 -147.27,28.36z"/>
   <path class="fil2" d="M3341.81 2471.97c22.99,49.53 65.14,83.95 113.43,98.56 19.92,-46.57 20.74,-101.15 -2.22,-150.68 -23.02,-49.56 -65.11,-83.98 -113.43,-98.56 -19.9,46.57 -20.77,101.12 2.22,150.68z"/>
   <path class="fil2" d="M3553.85 2456.73c-49.29,23.1 -83.56,65.46 -98.05,114.01 46.33,20 100.62,20.88 149.91,-2.22 49.29,-23.12 83.56,-65.46 98.08,-114.01 -46.33,-20 -100.59,-20.88 -149.94,2.22z"/>
   <path class="fil2" d="M3242.59 2668.29c14.1,52.81 49.64,94.03 94.69,116.84 27.65,-42.39 37.91,-95.96 23.84,-148.78 -14.08,-52.81 -49.64,-94.06 -94.67,-116.87 -27.65,42.39 -37.94,95.96 -23.87,148.8l0.01 0.01z"/>
   <path class="fil2" d="M3454.05 2690.3c-52.52,14.13 -93.56,49.87 -116.23,95.14 42.15,27.81 95.46,38.1 148.01,23.97 52.55,-14.18 93.58,-49.9 116.28,-95.14 -42.17,-27.83 -95.51,-38.13 -148.06,-23.97z"/>
   <path class="fil2" d="M3110.73 2844.4c4.76,54.48 32.65,101.31 73.05,131.6 34.55,-36.88 53.92,-87.87 49.19,-142.35 -4.76,-54.45 -32.65,-101.28 -73.05,-131.6 -34.55,36.91 -53.92,87.89 -49.19,142.35z"/>
   <path class="fil2" d="M3315.17 2903c-54.19,4.76 -100.78,32.78 -130.94,73.4 36.72,34.77 87.44,54.21 141.63,49.45 54.19,-4.76 100.78,-32.81 130.94,-73.42 -36.72,-34.71 -87.42,-54.19 -141.63,-49.42l0 -0.01z"/>
   <path class="fil2" d="M2950.2 2995.02c-4.76,54.45 14.61,105.44 49.19,142.35 40.4,-30.32 68.29,-77.13 73.03,-131.6 4.76,-54.45 -14.63,-105.46 -49.19,-142.37 -40.4,30.32 -68.29,77.18 -73.03,131.63l0 -0.01z"/>
   <path class="fil2" d="M3141.39 3088.4c-54.19,-4.76 -104.91,14.71 -141.61,49.45 30.14,40.61 76.73,68.63 130.92,73.4 54.19,4.76 104.93,-14.68 141.66,-49.42 -30.16,-40.61 -76.78,-68.66 -130.97,-73.42l0 -0.01z"/>
   <path class="fil2" d="M2765.84 3115.54c-14.05,52.81 -3.81,106.39 23.87,148.78 45.03,-22.81 80.59,-64.06 94.67,-116.89 14.08,-52.78 3.81,-106.39 -23.84,-148.75 -45.03,22.78 -80.59,64.03 -94.69,116.87l-0.01 -0.01z"/>
   <path class="fil2" d="M2938.03 3240.87c-52.55,-14.18 -105.86,-3.84 -148.01,23.97 22.67,45.27 63.71,80.99 116.26,95.14 52.55,14.16 105.86,3.84 148.03,-23.97 -22.7,-45.27 -63.74,-81.02 -116.28,-95.14z"/>
   <path class="fil2" d="M2563.33 3202.27c-22.97,49.56 -22.12,104.11 -2.2,150.71 48.29,-14.61 90.41,-49.03 113.43,-98.58 22.97,-49.56 22.12,-104.11 2.2,-150.68 -48.29,14.61 -90.43,49.03 -113.43,98.56l0 -0.01z"/>
   <path class="fil2" d="M2711.23 3355.76c-49.29,-23.12 -103.56,-22.25 -149.89,-2.22 14.53,48.52 48.74,90.88 98.03,114.01 49.32,23.1 103.61,22.25 149.94,2.22 -14.53,-48.55 -48.76,-90.88 -98.08,-114.01z"/>
   <path class="fil2" d="M2384.23 642.59c51.12,18.73 105.12,13.1 149.52,-10.9 -18.65,-47.07 -56.44,-86.28 -107.58,-104.96 -51.12,-18.73 -105.12,-13.1 -149.54,10.9 18.68,47.1 56.46,86.28 107.61,104.96l-0.01 0z"/>
   <path class="fil2" d="M1911.05 3772.18l-89.38 -15.88c253.63,-252.23 562.8,-351.29 736.52,-410.47 16.46,-5.61 31.75,-10.82 45.72,-15.72 575.44,-202.43 962.08,-737.58 962.08,-1331.62 0,-668.52 -489.08,-1251.72 -1162.95,-1386.76l4.31 -21.88c684.24,137.08 1180.84,729.51 1180.84,1408.64 0,603.54 -392.62,1147.13 -976.95,1352.71 -14,4.89 -29.34,10.13 -45.93,15.77 -171.9,58.58 -404.26,156.61 -654.26,405.21z"/>
  </g>
 </g>
</svg>
