<?xml version="1.0" encoding="UTF-8"?>
<!DOCTYPE svg PUBLIC "-//W3C//DTD SVG 1.1//EN" "http://www.w3.org/Graphics/SVG/1.1/DTD/svg11.dtd">
<!-- Creator: CorelDRAW 2019 (64-Bit) -->
<svg xmlns="http://www.w3.org/2000/svg" xml:space="preserve" width="42.3332mm" height="42.3332mm" version="1.1" style="shape-rendering:geometricPrecision; text-rendering:geometricPrecision; image-rendering:optimizeQuality; fill-rule:evenodd; clip-rule:evenodd"
viewBox="0 0 4233.32 4233.32"
 xmlns:xlink="http://www.w3.org/1999/xlink">
 <defs>
  <style type="text/css">
   <![CDATA[
    .fil0 {fill:none}
    .fil2 {fill:#AE904E;fill-rule:nonzero}
    .fil1 {fill:#030129;fill-rule:nonzero}
   ]]>
  </style>
 </defs>
 <g id="Layer_x0020_1">
  <metadata id="CorelCorpID_0Corel-Layer"/>
  <rect class="fil0" x="1.2" y="0.09" width="4233.33" height="4233.33"/>
  <path class="fil1" d="M1875.31 1280.31l45.11 -44.71c35.88,-35.19 50.11,-54.27 50.11,-81.39 0,-32.52 -21.96,-57.84 -65.27,-57.84 -43.29,0 -69.69,23.55 -73.85,67.07l-0.29 2.99 32.62 0 0.32 -2.99c2.65,-27.15 14.23,-42.04 37.65,-42.04 22.25,0 33.52,15.8 33.52,35.77 0,19.69 -11.27,34.58 -37.07,60.25l-71.52 72.42 0 16.72 142.69 0 0 -26.25 -94.03 0 0.01 0zm200.82 -183.65c-56.94,0 -76.52,44.71 -76.52,107.02 0,61.73 19.58,107.02 76.52,107.02 57.26,0 76.54,-45.3 76.54,-107.02 0,-62.31 -19.29,-107.02 -76.54,-107.02zm0 189.02c-29.05,0 -41.22,-29.24 -41.22,-81.99 0,-53.37 12.17,-81.99 41.22,-81.99 29.37,0 41.25,28.63 41.25,81.99 0,52.76 -11.88,81.99 -41.25,81.99zm217.43 -184.86l-18.1 0c-9.18,0 -17.78,2.09 -27.28,7.75l-45.09 27.73 0 32.2 57.84 -33.39 0 171.45 32.62 0 0 -205.74 0.01 0z"/>
  <g id="_1128814561072">
   <path class="fil2" d="M1588.29 823.85c-49.29,-23.12 -83.56,-65.48 -98.08,-113.98 46.33,-20.03 100.65,-20.93 149.94,2.2 49.29,23.12 83.56,65.46 98.05,114.01 -46.33,20.03 -100.62,20.88 -149.91,-2.22l0 -0.01z"/>
   <path class="fil2" d="M1603.45 610.73c-23.02,49.53 -65.14,83.95 -113.43,98.56 -19.92,-46.57 -20.77,-101.15 2.22,-150.71 22.97,-49.53 65.11,-83.95 113.43,-98.56 19.9,46.57 20.74,101.15 -2.22,150.71z"/>
   <path class="fil2" d="M1392.97 923.57c-52.55,-14.16 -93.58,-49.87 -116.26,-95.17 42.15,-27.78 95.46,-38.13 148.01,-23.97 52.57,14.16 93.58,49.9 116.28,95.17 -42.17,27.78 -95.49,38.1 -148.03,23.97z"/>
   <path class="fil2" d="M1371.06 711.01c-14.08,52.81 -49.64,94.06 -94.67,116.89 -27.68,-42.41 -37.94,-95.99 -23.84,-148.8 14.08,-52.81 49.61,-94.06 94.67,-116.87 27.65,42.39 37.91,95.99 23.84,148.78z"/>
   <path class="fil2" d="M1217.74 1056.1c-54.21,-4.76 -100.78,-32.78 -130.97,-73.42 36.75,-34.74 87.47,-54.19 141.66,-49.42 54.19,4.76 100.78,32.78 130.94,73.4 -36.72,34.74 -87.44,54.21 -141.63,49.45l0 -0.01z"/>
   <path class="fil2" d="M1159.42 850.63c-4.71,54.45 -32.62,101.28 -73.03,131.6 -34.55,-36.91 -53.92,-87.89 -49.19,-142.35 4.74,-54.48 32.62,-101.34 73.03,-131.63 34.58,36.91 53.92,87.89 49.19,142.37l0 0.01z"/>
   <path class="fil2" d="M1067.88 1217.45c-54.19,4.76 -104.91,-14.68 -141.66,-49.42 30.19,-40.61 76.78,-68.63 130.97,-73.42 54.21,-4.76 104.91,14.71 141.63,49.48 -30.16,40.59 -76.76,68.61 -130.94,73.37l0 -0.01z"/>
   <path class="fil2" d="M974.96 1025.28c4.76,54.45 -14.61,105.44 -49.19,142.35 -40.4,-30.32 -68.29,-77.13 -73.03,-131.6 -4.74,-54.48 14.63,-105.46 49.19,-142.37 40.43,30.32 68.29,77.15 73.03,131.63l0 -0.01z"/>
   <path class="fil2" d="M947.97 1402.73c-52.55,14.16 -105.86,3.84 -148.01,-23.97 22.67,-45.27 63.71,-80.99 116.26,-95.14 52.55,-14.16 105.86,-3.84 148.03,23.97 -22.7,45.27 -63.71,80.99 -116.28,95.14z"/>
   <path class="fil2" d="M823.27 1229.67c14.08,52.81 3.81,106.42 -23.84,148.8 -45.03,-22.83 -80.59,-64.06 -94.67,-116.87 -14.08,-52.81 -3.81,-106.42 23.87,-148.8 45.03,22.83 80.57,64.06 94.64,116.87z"/>
   <path class="fil2" d="M861.66 1606.28c-49.29,23.1 -103.58,22.25 -149.91,2.22 14.53,-48.5 48.76,-90.86 98.08,-114.01 49.29,-23.07 103.58,-22.23 149.91,-2.2 -14.53,48.52 -48.79,90.88 -98.08,113.98l0 0.01z"/>
   <path class="fil2" d="M708.97 1457.64c22.97,49.53 22.15,104.11 2.22,150.65 -48.31,-14.55 -90.43,-49 -113.43,-98.53 -22.99,-49.58 -22.12,-104.14 -2.22,-150.68 48.29,14.58 90.43,49 113.43,98.56z"/>
   <path class="fil2" d="M811.58 1821.94c-44.56,31.35 -98.19,39.98 -147.24,28.34 5.9,-50.32 32.31,-98 76.86,-129.35 44.56,-31.38 98.19,-40.01 147.27,-28.39 -5.93,50.35 -32.33,98.03 -76.89,129.41l0 -0.01z"/>
   <path class="fil2" d="M635.52 1702.19c31.19,44.77 39.77,98.66 28.2,148.01 -50.09,-5.95 -97.53,-32.49 -128.72,-77.28 -31.22,-44.79 -39.79,-98.66 -28.23,-148.01 50.09,5.95 97.53,32.49 128.75,77.28z"/>
   <path class="fil2" d="M799.22 2043.11c-38.47,38.66 -89.77,56.52 -140.12,53.63 -2.86,-50.61 14.9,-102.16 53.37,-140.81 38.47,-38.68 89.77,-56.52 140.12,-53.66 2.86,50.61 -14.9,102.18 -53.37,140.84z"/>
   <path class="fil2" d="M605.15 1955.93c38.44,38.66 56.22,90.2 53.37,140.81 -50.35,2.88 -101.65,-14.98 -140.12,-53.63 -35.48,-35.64 -53.34,-82.23 -53.66,-128.98l0 -2.75c0,-3.04 0.11,-6.09 0.26,-9.1 50.38,-2.86 101.68,14.98 140.15,53.66l0 -0.01z"/>
   <path class="fil2" d="M825.15 2261.44c-31.22,44.79 -78.66,71.33 -128.75,77.28 -11.56,-49.34 -2.99,-103.24 28.23,-148.01 31.19,-44.79 78.63,-71.33 128.72,-77.28 11.56,49.34 2.99,103.24 -28.2,148.01z"/>
   <path class="fil2" d="M618.93 2209.42c44.56,31.38 70.96,79.08 76.89,129.41 -49.08,11.64 -102.71,2.99 -147.27,-28.36 -44.56,-31.35 -70.96,-79.06 -76.86,-129.41 49.08,-11.62 102.68,-2.96 147.24,28.36z"/>
   <path class="fil2" d="M888.65 2471.97c-22.99,49.53 -65.11,83.95 -113.43,98.56 -19.92,-46.57 -20.77,-101.15 2.22,-150.68 22.99,-49.56 65.14,-83.98 113.43,-98.56 19.9,46.57 20.77,101.12 -2.22,150.68z"/>
   <path class="fil2" d="M676.59 2456.73c49.32,23.1 83.56,65.46 98.08,114.01 -46.33,20 -100.62,20.88 -149.91,-2.22 -49.32,-23.12 -83.56,-65.46 -98.08,-114.01 46.33,-20 100.62,-20.88 149.91,2.22z"/>
   <path class="fil2" d="M987.87 2668.29c-14.1,52.81 -49.64,94.03 -94.69,116.84 -27.65,-42.39 -37.91,-95.96 -23.84,-148.78 14.08,-52.81 49.64,-94.06 94.67,-116.87 27.68,42.39 37.94,95.96 23.87,148.8l-0.01 0.01z"/>
   <path class="fil2" d="M776.39 2690.3c52.55,14.13 93.58,49.87 116.28,95.14 -42.17,27.81 -95.49,38.1 -148.03,23.97 -52.55,-14.18 -93.58,-49.9 -116.26,-95.14 42.15,-27.83 95.49,-38.13 148.01,-23.97z"/>
   <path class="fil2" d="M1119.74 2844.4c-4.76,54.48 -32.62,101.31 -73.05,131.6 -34.55,-36.88 -53.92,-87.87 -49.19,-142.35 4.74,-54.45 32.62,-101.28 73.03,-131.6 34.58,36.91 53.95,87.89 49.21,142.35z"/>
   <path class="fil2" d="M915.27 2903c54.21,4.76 100.81,32.78 130.97,73.4 -36.72,34.77 -87.44,54.21 -141.63,49.45 -54.21,-4.76 -100.81,-32.81 -130.94,-73.42 36.7,-34.71 87.42,-54.19 141.61,-49.42l-0.01 -0.01z"/>
   <path class="fil2" d="M1280.29 2995.02c4.74,54.45 -14.66,105.44 -49.21,142.35 -40.4,-30.32 -68.29,-77.13 -73.03,-131.6 -4.76,-54.45 14.63,-105.46 49.19,-142.37 40.4,30.32 68.29,77.18 73.05,131.63l0 -0.01z"/>
   <path class="fil2" d="M1089.07 3088.4c54.19,-4.76 104.91,14.71 141.61,49.45 -30.14,40.61 -76.73,68.63 -130.92,73.4 -54.21,4.76 -104.91,-14.68 -141.66,-49.42 30.16,-40.61 76.76,-68.66 130.97,-73.42l0 -0.01z"/>
   <path class="fil2" d="M1464.62 3115.54c14.08,52.81 3.81,106.39 -23.87,148.78 -45.03,-22.81 -80.59,-64.06 -94.67,-116.89 -14.08,-52.78 -3.81,-106.39 23.84,-148.75 45.03,22.78 80.59,64.03 94.69,116.87l0.01 -0.01z"/>
   <path class="fil2" d="M1292.43 3240.87c52.55,-14.18 105.86,-3.84 148.03,23.97 -22.7,45.27 -63.74,80.99 -116.28,95.14 -52.55,14.16 -105.86,3.84 -148.03,-23.97 22.7,-45.27 63.74,-81.02 116.28,-95.14z"/>
   <path class="fil2" d="M1667.13 3202.27c22.97,49.56 22.12,104.11 2.2,150.71 -48.29,-14.61 -90.43,-49.03 -113.4,-98.58 -23.02,-49.56 -22.15,-104.11 -2.22,-150.68 48.29,14.61 90.41,49.03 113.43,98.56l-0.01 -0.01z"/>
   <path class="fil2" d="M1519.23 3355.76c49.29,-23.12 103.56,-22.25 149.89,-2.22 -14.5,48.52 -48.76,90.88 -98.05,114.01 -49.29,23.1 -103.58,22.25 -149.91,2.22 14.53,-48.55 48.76,-90.88 98.08,-114.01l-0.01 0z"/>
   <path class="fil2" d="M1846.26 642.59c-51.12,18.73 -105.12,13.1 -149.54,-10.9 18.65,-47.07 56.44,-86.28 107.58,-104.96 51.09,-18.73 105.12,-13.1 149.54,10.9 -18.68,47.1 -56.46,86.28 -107.58,104.96z"/>
   <path class="fil2" d="M2319.38 3772.18c-249.98,-248.6 -482.36,-346.63 -654.26,-405.21 -16.54,-5.64 -31.94,-10.87 -45.91,-15.77 -584.33,-205.58 -976.95,-749.17 -976.95,-1352.71 0,-679.13 496.6,-1271.56 1180.84,-1408.64l4.34 21.88c-673.89,135.04 -1162.98,718.21 -1162.98,1386.76 0,594.04 386.64,1129.19 962.05,1331.62 13.97,4.89 29.26,10.11 45.75,15.72 173.7,59.19 482.89,158.25 736.52,410.47l-89.4 15.88z"/>
   <path class="fil2" d="M2642.18 823.85c49.29,-23.12 83.56,-65.48 98.05,-113.98 -46.33,-20.03 -100.62,-20.93 -149.91,2.2 -49.29,23.12 -83.56,65.46 -98.05,114.01 46.33,20.03 100.62,20.88 149.91,-2.22l0 -0.01z"/>
   <path class="fil2" d="M2627.01 610.73c23.02,49.53 65.14,83.95 113.43,98.56 19.92,-46.57 20.8,-101.15 -2.22,-150.71 -22.99,-49.53 -65.11,-83.95 -113.43,-98.56 -19.92,46.57 -20.74,101.15 2.22,150.71z"/>
   <path class="fil2" d="M2837.49 923.57c52.52,-14.16 93.58,-49.87 116.28,-95.17 -42.2,-27.78 -95.51,-38.13 -148.06,-23.97 -52.55,14.16 -93.56,49.9 -116.23,95.17 42.15,27.78 95.46,38.1 148.01,23.97z"/>
   <path class="fil2" d="M2859.4 711.01c14.08,52.81 49.64,94.06 94.67,116.89 27.65,-42.41 37.91,-95.99 23.84,-148.8 -14.08,-52.81 -49.61,-94.06 -94.67,-116.87 -27.65,42.39 -37.94,95.99 -23.84,148.78z"/>
   <path class="fil2" d="M3012.72 1056.1c54.21,-4.76 100.81,-32.78 130.97,-73.42 -36.72,-34.74 -87.44,-54.19 -141.66,-49.42 -54.19,4.76 -100.78,32.78 -130.94,73.4 36.72,34.74 87.44,54.21 141.63,49.45l0 -0.01z"/>
   <path class="fil2" d="M3071.01 850.63c4.76,54.45 32.65,101.28 73.05,131.6 34.55,-36.91 53.92,-87.89 49.19,-142.35 -4.74,-54.48 -32.62,-101.34 -73.03,-131.63 -34.58,36.91 -53.92,87.89 -49.21,142.37l0 0.01z"/>
   <path class="fil2" d="M3162.58 1217.45c54.19,4.76 104.91,-14.68 141.63,-49.42 -30.16,-40.61 -76.76,-68.63 -130.94,-73.42 -54.21,-4.76 -104.93,14.71 -141.63,49.48 30.16,40.59 76.76,68.61 130.94,73.37l0 -0.01z"/>
   <path class="fil2" d="M3255.51 1025.28c-4.74,54.45 14.61,105.44 49.19,142.35 40.4,-30.32 68.29,-77.13 73.03,-131.6 4.74,-54.48 -14.63,-105.46 -49.19,-142.37 -40.4,30.32 -68.32,77.15 -73.03,131.63l0 -0.01z"/>
   <path class="fil2" d="M3282.47 1402.73c52.57,14.16 105.86,3.84 148.03,-23.97 -22.67,-45.27 -63.74,-80.99 -116.28,-95.14 -52.55,-14.16 -105.86,-3.84 -148.01,23.97 22.7,45.27 63.71,80.99 116.26,95.14z"/>
   <path class="fil2" d="M3407.19 1229.67c-14.08,52.81 -3.81,106.42 23.84,148.8 45.03,-22.83 80.59,-64.06 94.67,-116.87 14.1,-52.81 3.81,-106.42 -23.84,-148.8 -45.06,22.83 -80.59,64.06 -94.67,116.87z"/>
   <path class="fil2" d="M3368.8 1606.28c49.29,23.1 103.58,22.25 149.89,2.22 -14.5,-48.5 -48.74,-90.86 -98.03,-114.01 -49.29,-23.07 -103.61,-22.23 -149.94,-2.2 14.53,48.52 48.76,90.88 98.08,113.98l0 0.01z"/>
   <path class="fil2" d="M3521.49 1457.64c-22.99,49.53 -22.12,104.11 -2.22,150.65 48.29,-14.55 90.43,-49 113.43,-98.53 22.99,-49.58 22.15,-104.14 2.22,-150.68 -48.29,14.58 -90.43,49 -113.43,98.56z"/>
   <path class="fil2" d="M3418.86 1821.94c44.58,31.35 98.19,39.98 147.27,28.34 -5.9,-50.32 -32.31,-98 -76.89,-129.35 -44.53,-31.38 -98.16,-40.01 -147.24,-28.39 5.93,50.35 32.33,98.03 76.86,129.41l0 -0.01z"/>
   <path class="fil2" d="M3594.94 1702.19c-31.19,44.77 -39.77,98.66 -28.2,148.01 50.09,-5.95 97.53,-32.49 128.72,-77.28 31.22,-44.79 39.79,-98.66 28.23,-148.01 -50.09,5.95 -97.53,32.49 -128.75,77.28z"/>
   <path class="fil2" d="M3431.24 2043.11c38.44,38.66 89.77,56.52 140.12,53.63 2.86,-50.61 -14.9,-102.16 -53.37,-140.81 -38.47,-38.68 -89.77,-56.52 -140.12,-53.66 -2.88,50.61 14.9,102.18 53.37,140.84z"/>
   <path class="fil2" d="M3625.31 1955.93c-38.47,38.66 -56.22,90.2 -53.37,140.81 50.35,2.88 101.65,-14.98 140.12,-53.63 38.47,-38.66 56.25,-90.22 53.37,-140.84 -50.35,-2.86 -101.65,14.98 -140.12,53.66z"/>
   <path class="fil2" d="M3405.31 2261.44c31.22,44.79 78.66,71.33 128.72,77.28 11.62,-49.34 3.02,-103.24 -28.2,-148.01 -31.19,-44.79 -78.63,-71.33 -128.72,-77.28 -11.56,49.34 -2.96,103.24 28.2,148.01z"/>
   <path class="fil2" d="M3611.53 2209.42c-44.56,31.38 -70.96,79.08 -76.89,129.41 49.08,11.64 102.71,2.99 147.27,-28.36 44.56,-31.35 70.96,-79.06 76.89,-129.41 -49.11,-11.62 -102.71,-2.96 -147.27,28.36z"/>
   <path class="fil2" d="M3341.81 2471.97c22.99,49.53 65.14,83.95 113.43,98.56 19.92,-46.57 20.74,-101.15 -2.22,-150.68 -23.02,-49.56 -65.11,-83.98 -113.43,-98.56 -19.9,46.57 -20.77,101.12 2.22,150.68z"/>
   <path class="fil2" d="M3553.85 2456.73c-49.29,23.1 -83.56,65.46 -98.05,114.01 46.33,20 100.62,20.88 149.91,-2.22 49.29,-23.12 83.56,-65.46 98.08,-114.01 -46.33,-20 -100.59,-20.88 -149.94,2.22z"/>
   <path class="fil2" d="M3242.59 2668.29c14.1,52.81 49.64,94.03 94.69,116.84 27.65,-42.39 37.91,-95.96 23.84,-148.78 -14.08,-52.81 -49.64,-94.06 -94.67,-116.87 -27.65,42.39 -37.94,95.96 -23.87,148.8l0.01 0.01z"/>
   <path class="fil2" d="M3454.05 2690.3c-52.52,14.13 -93.56,49.87 -116.23,95.14 42.15,27.81 95.46,38.1 148.01,23.97 52.55,-14.18 93.58,-49.9 116.28,-95.14 -42.17,-27.83 -95.51,-38.13 -148.06,-23.97z"/>
   <path class="fil2" d="M3110.73 2844.4c4.76,54.48 32.65,101.31 73.05,131.6 34.55,-36.88 53.92,-87.87 49.19,-142.35 -4.76,-54.45 -32.65,-101.28 -73.05,-131.6 -34.55,36.91 -53.92,87.89 -49.19,142.35z"/>
   <path class="fil2" d="M3315.17 2903c-54.19,4.76 -100.78,32.78 -130.94,73.4 36.72,34.77 87.44,54.21 141.63,49.45 54.19,-4.76 100.78,-32.81 130.94,-73.42 -36.72,-34.71 -87.42,-54.19 -141.63,-49.42l0 -0.01z"/>
   <path class="fil2" d="M2950.2 2995.02c-4.76,54.45 14.61,105.44 49.19,142.35 40.4,-30.32 68.29,-77.13 73.03,-131.6 4.76,-54.45 -14.63,-105.46 -49.19,-142.37 -40.4,30.32 -68.29,77.18 -73.03,131.63l0 -0.01z"/>
   <path class="fil2" d="M3141.39 3088.4c-54.19,-4.76 -104.91,14.71 -141.61,49.45 30.14,40.61 76.73,68.63 130.92,73.4 54.19,4.76 104.93,-14.68 141.66,-49.42 -30.16,-40.61 -76.78,-68.66 -130.97,-73.42l0 -0.01z"/>
   <path class="fil2" d="M2765.84 3115.54c-14.05,52.81 -3.81,106.39 23.87,148.78 45.03,-22.81 80.59,-64.06 94.67,-116.89 14.08,-52.78 3.81,-106.39 -23.84,-148.75 -45.03,22.78 -80.59,64.03 -94.69,116.87l-0.01 -0.01z"/>
   <path class="fil2" d="M2938.03 3240.87c-52.55,-14.18 -105.86,-3.84 -148.01,23.97 22.67,45.27 63.71,80.99 116.26,95.14 52.55,14.16 105.86,3.84 148.03,-23.97 -22.7,-45.27 -63.74,-81.02 -116.28,-95.14z"/>
   <path class="fil2" d="M2563.33 3202.27c-22.97,49.56 -22.12,104.11 -2.2,150.71 48.29,-14.61 90.41,-49.03 113.43,-98.58 22.97,-49.56 22.12,-104.11 2.2,-150.68 -48.29,14.61 -90.43,49.03 -113.43,98.56l0 -0.01z"/>
   <path class="fil2" d="M2711.23 3355.76c-49.29,-23.12 -103.56,-22.25 -149.89,-2.22 14.53,48.52 48.74,90.88 98.03,114.01 49.32,23.1 103.61,22.25 149.94,2.22 -14.53,-48.55 -48.76,-90.88 -98.08,-114.01z"/>
   <path class="fil2" d="M2384.23 642.59c51.12,18.73 105.12,13.1 149.52,-10.9 -18.65,-47.07 -56.44,-86.28 -107.58,-104.96 -51.12,-18.73 -105.12,-13.1 -149.54,10.9 18.68,47.1 56.46,86.28 107.61,104.96l-0.01 0z"/>
   <path class="fil2" d="M1911.05 3772.18l-89.38 -15.88c253.63,-252.23 562.8,-351.29 736.52,-410.47 16.46,-5.61 31.75,-10.82 45.72,-15.72 575.44,-202.43 962.08,-737.58 962.08,-1331.62 0,-668.52 -489.08,-1251.72 -1162.95,-1386.76l4.31 -21.88c684.24,137.08 1180.84,729.51 1180.84,1408.64 0,603.54 -392.62,1147.13 -976.95,1352.71 -14,4.89 -29.34,10.13 -45.93,15.77 -171.9,58.58 -404.26,156.61 -654.26,405.21z"/>
  </g>
  <path class="fil1" d="M2454.96 1211.94c-4.23,26.43 -19.71,65.22 -65.54,71.41 -8.7,1.11 -14.61,1.69 -20.8,1.11l0 26.17c5.9,0.26 14.34,0 23.05,-1.4 62.71,-6.75 96.18,-59.9 96.18,-127.74 0,-52.15 -24.21,-89.03 -67.5,-89.03 -41.88,0 -68.61,35.14 -68.61,74.64 0,38.1 24.18,64.53 58.5,64.53 18.84,0 33.73,-7.59 43.87,-19.69l0.85 0zm-36.3 -95.59c23.92,0 36.01,24.79 36.01,59.8 0,5.9 -0.85,9.6 -2.25,12.41 -6.19,11.01 -18.28,20 -33.76,20 -21.35,0 -34.29,-18.31 -34.29,-43.42 0,-28.5 14.05,-48.79 34.29,-48.79z"/>
  <path class="fil1" d="M1854.85 1898.56l0 -203.54 76.36 0c15.56,0 28.02,2.04 37.44,6.16 9.39,4.13 16.72,10.45 22.04,19.05 5.37,8.52 7.99,17.46 7.99,26.86 0,8.68 -2.35,16.88 -7.04,24.55 -4.71,7.67 -11.8,13.89 -21.33,18.63 12.3,3.6 21.8,9.76 28.36,18.47 6.64,8.68 9.95,18.94 9.95,30.8 0,9.58 -2.01,18.42 -6.06,26.62 -4.02,8.2 -9,14.5 -14.92,18.97 -5.9,4.39 -13.36,7.75 -22.25,10.03 -8.97,2.28 -19.92,3.41 -32.89,3.41l-77.66 0 0.01 -0.01zm27.02 -117.97l44 0c11.96,0 20.53,-0.79 25.69,-2.35 6.85,-2.06 12.01,-5.45 15.48,-10.19 3.47,-4.74 5.21,-10.66 5.21,-17.81 0,-6.8 -1.61,-12.75 -4.87,-17.89 -3.23,-5.16 -7.86,-8.7 -13.89,-10.61 -6.03,-1.91 -16.35,-2.86 -30.93,-2.86l-40.69 0 0 61.7 0 0.01zm0 94.11l50.67 0c8.73,0 14.84,-0.34 18.42,-1.01 6.14,-1.08 11.35,-2.94 15.53,-5.56 4.15,-2.59 7.59,-6.38 10.27,-11.38 2.7,-4.95 4.05,-10.69 4.05,-17.17 0,-7.62 -1.96,-14.23 -5.9,-19.87 -3.89,-5.64 -9.26,-9.55 -16.19,-11.83 -6.88,-2.28 -16.8,-3.41 -29.74,-3.41l-47.1 0 0 70.22 -0.01 0.01zm261.22 -23.89l25.88 3.41c-4.02,15.03 -11.56,26.72 -22.54,35.03 -11.01,8.28 -25,12.44 -42.12,12.44 -21.51,0 -38.58,-6.61 -51.17,-19.87 -12.62,-13.23 -18.92,-31.86 -18.92,-55.8 0,-24.71 6.38,-43.97 19.1,-57.6 12.75,-13.68 29.29,-20.51 49.61,-20.51 19.66,0 35.72,6.67 48.18,20.08 12.46,13.41 18.73,32.25 18.73,56.57 0,1.46 -0.05,3.7 -0.16,6.64l-109.86 0c0.93,16.14 5.48,28.58 13.73,37.15 8.2,8.57 18.47,12.89 30.74,12.89 9.13,0 16.96,-2.41 23.42,-7.25 6.48,-4.84 11.59,-12.57 15.37,-23.18l0.01 0zm-81.86 -40.09l82.15 0c-1.08,-12.41 -4.26,-21.7 -9.42,-27.91 -7.91,-9.6 -18.23,-14.45 -30.9,-14.45 -11.46,0 -21.06,3.84 -28.89,11.51 -7.78,7.67 -12.09,17.97 -12.94,30.85zm129.41 43.79l24.74 -4c1.38,9.92 5.24,17.49 11.59,22.81 6.35,5.24 15.27,7.91 26.64,7.91 11.51,0 20.03,-2.33 25.61,-7.01 5.56,-4.66 8.33,-10.16 8.33,-16.46 0,-5.64 -2.51,-10.08 -7.46,-13.31 -3.52,-2.22 -12.04,-5 -25.59,-8.49 -18.31,-4.58 -30.96,-8.57 -38.05,-11.93 -7.06,-3.39 -12.44,-8.04 -16.06,-14 -3.65,-5.93 -5.5,-12.51 -5.5,-19.74 0,-6.56 1.51,-12.65 4.5,-18.23 3.04,-5.58 7.12,-10.24 12.28,-13.94 3.89,-2.83 9.18,-5.24 15.88,-7.25 6.72,-1.98 13.89,-2.96 21.56,-2.96 11.56,0 21.7,1.64 30.4,5.03 8.78,3.31 15.21,7.86 19.39,13.55 4.13,5.72 7.01,13.36 8.57,22.94l-24.45 3.39c-1.11,-7.67 -4.31,-13.71 -9.63,-17.99 -5.29,-4.31 -12.78,-6.46 -22.52,-6.46 -11.4,0 -19.61,1.91 -24.5,5.69 -4.87,3.81 -7.33,8.26 -7.33,13.31 0,3.23 1.01,6.16 3.02,8.78 2.06,2.65 5.24,4.87 9.58,6.64 2.54,0.93 9.82,3.07 22.04,6.38 17.62,4.68 29.95,8.57 36.96,11.56 7.01,2.99 12.51,7.38 16.48,13.07 4.02,5.74 6.03,12.86 6.03,21.38 0,8.28 -2.43,16.11 -7.3,23.44 -4.89,7.36 -11.88,13.04 -21.03,17.07 -9.21,4.02 -19.58,6.01 -31.14,6.01 -19.13,0 -33.79,-3.97 -43.82,-11.88 -10.05,-7.96 -16.46,-19.71 -19.24,-35.3l0.02 -0.01zm206.37 21.75l3.41 22.07c-7.01,1.48 -13.31,2.22 -18.81,2.22 -9.05,0 -16.06,-1.43 -21.09,-4.31 -4.95,-2.88 -8.47,-6.61 -10.5,-11.3 -2.04,-4.71 -3.04,-14.55 -3.04,-29.58l0 -84.98 -18.47 0 0 -19.34 18.47 0 0 -36.49 25.03 -15.03 0 51.51 25 0 0 19.34 -25 0 0 86.39c0,7.17 0.42,11.77 1.32,13.81 0.85,2.04 2.28,3.65 4.26,4.87 1.98,1.19 4.84,1.8 8.52,1.8 2.75,0 6.4,-0.32 10.9,-0.98zm-767.32 268.5l27.01 6.83c-5.64,22.12 -15.77,38.95 -30.4,50.56 -14.66,11.59 -32.57,17.44 -53.74,17.44 -21.91,0 -39.71,-4.47 -53.47,-13.41 -13.73,-8.92 -24.16,-21.85 -31.3,-38.76 -7.17,-16.96 -10.74,-35.11 -10.74,-54.53 0,-21.19 4,-39.66 12.12,-55.43 8.1,-15.77 19.61,-27.75 34.55,-35.96 14.92,-8.2 31.35,-12.28 49.27,-12.28 20.37,0 37.47,5.16 51.3,15.53 13.89,10.37 23.55,24.92 29,43.68l-26.43 6.24c-4.68,-14.76 -11.56,-25.56 -20.53,-32.31 -8.94,-6.77 -20.21,-10.13 -33.81,-10.13 -15.58,0 -28.68,3.76 -39.13,11.22 -10.48,7.49 -17.86,17.59 -22.09,30.19 -4.26,12.65 -6.38,25.69 -6.38,39.08 0,17.3 2.49,32.44 7.51,45.3 5.03,12.94 12.86,22.57 23.47,28.97 10.61,6.38 22.07,9.58 34.42,9.58 15.08,0 27.78,-4.37 38.21,-13.04 10.42,-8.7 17.46,-21.62 21.17,-38.76l-0.01 -0.01zm47.81 -2.36c0,-27.25 7.59,-47.44 22.78,-60.56 12.67,-10.9 28.15,-16.35 46.41,-16.35 20.21,0 36.8,6.64 49.69,19.9 12.83,13.23 19.29,31.56 19.29,54.93 0,18.94 -2.83,33.81 -8.52,44.69 -5.69,10.85 -14,19.26 -24.87,25.29 -10.87,6.01 -22.75,9 -35.59,9 -20.66,0 -37.36,-6.59 -50.09,-19.79 -12.75,-13.23 -19.1,-32.28 -19.1,-57.1l0 -0.01zm25.59 0.06c0,18.84 4.13,32.97 12.36,42.31 8.31,9.37 18.68,14.05 31.25,14.05 12.41,0 22.73,-4.68 31.04,-14.1 8.23,-9.45 12.36,-23.79 12.36,-43.07 0,-18.2 -4.18,-31.99 -12.46,-41.33 -8.28,-9.37 -18.63,-14.08 -30.93,-14.08 -12.57,0 -22.94,4.66 -31.25,14 -8.23,9.31 -12.36,23.42 -12.36,42.23l-0.01 -0.01zm141.92 73.71l0 -147.56 22.44 0 0 20.96c10.82,-16.06 26.43,-24.08 46.86,-24.08 8.92,0 17.07,1.61 24.5,4.79 7.43,3.18 13.04,7.38 16.72,12.57 3.7,5.16 6.32,11.32 7.78,18.42 0.9,4.66 1.38,12.75 1.38,24.32l0 90.59 -25.03 0 0 -89.64c0,-10.19 -0.93,-17.81 -2.88,-22.86 -1.93,-5 -5.4,-9.02 -10.32,-12.07 -4.92,-2.99 -10.77,-4.5 -17.38,-4.5 -10.64,0 -19.76,3.36 -27.49,10.13 -7.73,6.72 -11.56,19.55 -11.56,38.42l0 80.51 -25 0 -0.02 0zm148.14 -44.08l24.74 -3.97c1.38,9.9 5.27,17.49 11.62,22.78 6.35,5.27 15.24,7.91 26.62,7.91 11.51,0 20.06,-2.3 25.64,-7.01 5.53,-4.63 8.33,-10.13 8.33,-16.43 0,-5.64 -2.51,-10.11 -7.49,-13.31 -3.49,-2.22 -12.04,-5.03 -25.59,-8.49 -18.28,-4.6 -30.93,-8.57 -38.05,-11.93 -7.04,-3.41 -12.41,-8.04 -16.06,-14.02 -3.65,-5.93 -5.5,-12.51 -5.5,-19.71 0,-6.59 1.53,-12.65 4.52,-18.23 3.02,-5.61 7.09,-10.24 12.25,-13.94 3.89,-2.86 9.21,-5.24 15.88,-7.25 6.75,-1.98 13.89,-2.99 21.56,-2.99 11.56,0 21.7,1.67 30.43,5.03 8.76,3.31 15.21,7.86 19.37,13.55 4.13,5.74 7.01,13.36 8.57,22.94l-24.45 3.41c-1.08,-7.67 -4.31,-13.71 -9.6,-17.99 -5.32,-4.31 -12.81,-6.46 -22.52,-6.46 -11.43,0 -19.61,1.88 -24.5,5.69 -4.87,3.78 -7.36,8.26 -7.36,13.31 0,3.23 1.01,6.16 3.04,8.76 2.04,2.67 5.21,4.87 9.58,6.64 2.51,0.95 9.82,3.07 22.04,6.4 17.62,4.68 29.92,8.57 36.94,11.56 7.04,2.96 12.51,7.38 16.51,13.07 4.02,5.74 6.01,12.83 6.01,21.35 0,8.31 -2.41,16.11 -7.28,23.47 -4.89,7.33 -11.91,13.02 -21.06,17.07 -9.18,4.02 -19.55,6.01 -31.12,6.01 -19.16,0 -33.79,-4 -43.84,-11.88 -10.03,-7.96 -16.43,-19.71 -19.24,-35.32l0.01 -0.02zm248.47 44.08l0 -21.93c-11.46,16.72 -27.01,25.06 -46.67,25.06 -8.65,0 -16.77,-1.67 -24.32,-4.97 -7.51,-3.36 -13.12,-7.51 -16.75,-12.57 -3.65,-5.05 -6.22,-11.22 -7.7,-18.49 -0.98,-4.95 -1.51,-12.73 -1.51,-23.34l0 -91.31 25 0 0 81.65c0,13.02 0.53,21.83 1.53,26.35 1.56,6.56 4.87,11.69 10,15.45 5.08,3.73 11.32,5.61 18.81,5.61 7.46,0 14.5,-1.88 21.03,-5.74 6.54,-3.81 11.17,-9.08 13.92,-15.66 2.7,-6.59 4.07,-16.19 4.07,-28.76l0 -78.9 25.03 0 0 147.56 -22.46 0 0.02 -0.01zm61.76 0l0 -147.56 22.44 0 0 20.88c4.6,-7.22 10.74,-13.04 18.44,-17.41 7.67,-4.39 16.4,-6.59 26.19,-6.59 10.9,0 19.84,2.28 26.83,6.77 6.96,4.55 11.88,10.85 14.74,19.02 11.75,-17.22 26.93,-25.8 45.72,-25.8 14.68,0 26.01,4.02 33.87,12.12 7.91,8.12 11.88,20.58 11.88,37.41l0 101.15 -25 0 0 -92.87c0,-9.95 -0.85,-17.15 -2.46,-21.56 -1.61,-4.39 -4.55,-7.91 -8.86,-10.61 -4.26,-2.7 -9.29,-4.02 -15.03,-4.02 -10.42,0 -19.05,3.44 -25.9,10.32 -6.88,6.93 -10.29,17.97 -10.29,33.13l0 85.62 -25 0 0 -95.75c0,-11.09 -2.04,-19.45 -6.11,-24.98 -4.07,-5.53 -10.77,-8.33 -20,-8.33 -7.01,0 -13.49,1.85 -19.47,5.56 -5.98,3.68 -10.29,9.08 -12.96,16.25 -2.67,7.09 -4,17.38 -4,30.8l0 76.46 -25 0 -0.03 -0.01zm337.42 -47.76l25.88 3.41c-4.02,15 -11.56,26.72 -22.54,35 -11.01,8.28 -25.03,12.46 -42.12,12.46 -21.51,0 -38.58,-6.61 -51.17,-19.9 -12.62,-13.2 -18.92,-31.83 -18.92,-55.77 0,-24.71 6.38,-43.97 19.1,-57.6 12.75,-13.71 29.29,-20.53 49.61,-20.53 19.66,0 35.72,6.69 48.18,20.11 12.46,13.39 18.73,32.25 18.73,56.54 0,1.48 -0.05,3.7 -0.16,6.64l-109.88 0c0.95,16.17 5.5,28.58 13.76,37.15 8.2,8.57 18.47,12.89 30.74,12.89 9.13,0 16.96,-2.41 23.39,-7.25 6.51,-4.82 11.62,-12.54 15.4,-23.15zm-81.86 -40.08l82.15 0c-1.08,-12.41 -4.26,-21.72 -9.42,-27.91 -7.91,-9.63 -18.26,-14.45 -30.9,-14.45 -11.46,0 -21.09,3.84 -28.89,11.51 -7.78,7.67 -12.09,17.97 -12.94,30.85zm139.06 87.84l0 -147.56 22.46 0 0 22.62c5.74,-10.48 11.03,-17.41 15.93,-20.72 4.87,-3.36 10.21,-5.03 16.06,-5.03 8.44,0 16.99,2.67 25.72,7.94l-8.92 23.05c-6.06,-3.41 -12.12,-5.11 -18.18,-5.11 -5.45,0 -10.35,1.67 -14.66,4.92 -4.31,3.28 -7.38,7.83 -9.23,13.65 -2.78,8.86 -4.15,18.57 -4.15,29.13l0 77.1 -25.03 0 0 0.01zm-1301.19 252.2l25.29 -2.28c1.19,10.24 3.97,18.63 8.39,25.21 4.39,6.54 11.22,11.85 20.45,15.93 9.23,4.02 19.66,6.06 31.22,6.06 10.29,0 19.34,-1.51 27.23,-4.6 7.86,-3.07 13.68,-7.3 17.52,-12.65 3.84,-5.34 5.79,-11.17 5.79,-17.44 0,-6.35 -1.88,-11.91 -5.56,-16.67 -3.7,-4.74 -9.82,-8.73 -18.34,-11.99 -5.45,-2.09 -17.54,-5.42 -36.25,-9.92 -18.71,-4.5 -31.8,-8.7 -39.26,-12.7 -9.74,-5.11 -16.93,-11.46 -21.67,-19 -4.79,-7.54 -7.14,-16.01 -7.14,-25.35 0,-10.32 2.94,-19.92 8.76,-28.87 5.82,-8.94 14.31,-15.72 25.53,-20.35 11.19,-4.66 23.65,-6.96 37.33,-6.96 15.08,0 28.39,2.38 39.9,7.28 11.51,4.84 20.37,11.99 26.56,21.46 6.22,9.45 9.55,20.13 10,32.09l-25.85 1.98c-1.38,-12.83 -6.09,-22.57 -14.08,-29.08 -7.99,-6.61 -19.87,-9.87 -35.48,-9.87 -16.3,0 -28.2,2.99 -35.64,8.94 -7.43,5.98 -11.19,13.18 -11.19,21.62 0,7.3 2.67,13.31 7.91,18.04 5.24,4.68 18.73,9.58 40.61,14.5 21.91,5 36.91,9.29 45.06,12.99 11.8,5.45 20.56,12.3 26.22,20.69 5.61,8.36 8.41,17.97 8.41,28.87 0,10.85 -3.07,20.98 -9.29,30.56 -6.19,9.58 -15.05,17.01 -26.67,22.33 -11.62,5.29 -24.63,7.94 -39.18,7.94 -18.39,0 -33.79,-2.7 -46.2,-8.04 -12.46,-5.37 -22.17,-13.41 -29.24,-24.21 -7.09,-10.77 -10.8,-22.94 -11.17,-36.54l0.03 0.03zm291.65 46.91c-9.29,7.91 -18.23,13.47 -26.83,16.72 -8.57,3.28 -17.75,4.89 -27.62,4.89 -16.19,0 -28.65,-3.94 -37.36,-11.85 -8.73,-7.86 -13.1,-17.97 -13.1,-30.24 0,-7.17 1.67,-13.78 4.92,-19.74 3.33,-5.98 7.65,-10.72 12.94,-14.31 5.37,-3.6 11.35,-6.35 18.02,-8.2 4.92,-1.27 12.38,-2.51 22.28,-3.73 20.16,-2.38 35.11,-5.27 44.64,-8.6 0.08,-3.39 0.13,-5.58 0.13,-6.48 0,-10.13 -2.35,-17.28 -7.12,-21.46 -6.38,-5.64 -15.93,-8.44 -28.52,-8.44 -11.77,0 -20.51,2.09 -26.09,6.22 -5.66,4.1 -9.79,11.4 -12.46,21.93l-24.45 -3.41c2.22,-10.48 5.87,-18.97 10.98,-25.4 5.13,-6.46 12.51,-11.38 22.17,-14.87 9.63,-3.47 20.85,-5.21 33.55,-5.21 12.59,0 22.89,1.46 30.8,4.45 7.86,2.99 13.71,6.69 17.38,11.19 3.7,4.5 6.32,10.19 7.83,17.04 0.79,4.26 1.22,11.96 1.22,22.99l0 33.18c0,23.15 0.53,37.81 1.59,44 0.98,6.22 3.07,12.12 6.11,17.81l-26.17 0c-2.51,-5.27 -4.13,-11.4 -4.84,-18.47l0 -0.01zm-1.99 -55.43c-9.1,3.68 -22.73,6.83 -40.93,9.37 -10.35,1.48 -17.65,3.15 -21.91,4.97 -4.26,1.88 -7.51,4.55 -9.84,8.07 -2.33,3.55 -3.52,7.49 -3.52,11.85 0,6.56 2.51,12.12 7.59,16.51 5.08,4.42 12.46,6.64 22.17,6.64 9.63,0 18.2,-2.09 25.72,-6.3 7.49,-4.15 13.04,-9.9 16.54,-17.15 2.7,-5.64 4.05,-13.94 4.05,-24.87l0.13 -9.1 0 0.01zm118.03 51.59l3.41 22.09c-7.04,1.46 -13.34,2.2 -18.81,2.2 -9.05,0 -16.06,-1.4 -21.09,-4.31 -4.97,-2.88 -8.49,-6.61 -10.5,-11.3 -2.06,-4.71 -3.04,-14.55 -3.04,-29.55l0 -85.01 -18.49 0 0 -19.34 18.49 0 0 -36.49 25 -15.03 0 51.51 25.03 0 0 19.34 -25.03 0 0 86.41c0,7.14 0.42,11.75 1.35,13.78 0.85,2.04 2.25,3.65 4.26,4.87 1.98,1.19 4.82,1.8 8.52,1.8 2.75,0 6.4,-0.32 10.9,-0.98l0 0.01zm24.69 -152.79l0 -28.44 25 0 0 28.44 -25 0zm0 175.1l0 -147.53 25 0 0 147.53 -25 0zm53.21 -44.05l24.74 -4c1.38,9.92 5.24,17.49 11.59,22.81 6.35,5.27 15.27,7.91 26.64,7.91 11.51,0 20.03,-2.3 25.61,-7.01 5.56,-4.66 8.36,-10.16 8.36,-16.43 0,-5.66 -2.51,-10.11 -7.49,-13.34 -3.52,-2.22 -12.04,-5 -25.59,-8.47 -18.31,-4.6 -30.96,-8.6 -38.05,-11.96 -7.06,-3.39 -12.41,-8.04 -16.06,-14 -3.65,-5.93 -5.5,-12.51 -5.5,-19.74 0,-6.56 1.51,-12.65 4.5,-18.23 3.04,-5.58 7.12,-10.21 12.28,-13.92 3.89,-2.86 9.21,-5.27 15.88,-7.25 6.72,-1.98 13.89,-2.99 21.56,-2.99 11.56,0 21.7,1.64 30.4,5.03 8.78,3.31 15.21,7.86 19.39,13.55 4.13,5.74 7.01,13.36 8.57,22.94l-24.45 3.41c-1.11,-7.67 -4.31,-13.71 -9.6,-18.02 -5.32,-4.31 -12.81,-6.46 -22.52,-6.46 -11.43,0 -19.63,1.91 -24.5,5.69 -4.89,3.81 -7.36,8.26 -7.36,13.31 0,3.23 1.01,6.16 3.04,8.78 2.04,2.65 5.21,4.87 9.58,6.64 2.51,0.93 9.79,3.07 22.01,6.38 17.62,4.68 29.95,8.6 36.96,11.56 7.01,2.99 12.51,7.41 16.51,13.1 4,5.72 6.01,12.83 6.01,21.35 0,8.28 -2.43,16.11 -7.3,23.44 -4.89,7.36 -11.88,13.04 -21.03,17.07 -9.21,4.05 -19.58,6.03 -31.14,6.03 -19.13,0 -33.76,-4 -43.82,-11.91 -10.05,-7.94 -16.43,-19.71 -19.24,-35.3l0.02 0.03zm158.06 44.05l0 -128.19 -22.17 0 0 -19.34 22.17 0 0 -15.64c0,-9.9 0.85,-17.25 2.59,-22.01 2.41,-6.46 6.59,-11.72 12.65,-15.74 6.03,-4.02 14.5,-6.01 25.4,-6.01 7.06,0 14.84,0.82 23.36,2.49l-3.73 21.88c-5.24,-0.87 -10.11,-1.38 -14.74,-1.38 -7.59,0 -12.94,1.64 -16.11,4.87 -3.12,3.2 -4.68,9.23 -4.68,18.04l0 13.49 28.71 0 0 19.34 -28.44 0 0 128.19 -25 0 -0.01 0.01zm169.39 -18.47c-9.29,7.91 -18.26,13.47 -26.83,16.72 -8.57,3.28 -17.75,4.89 -27.62,4.89 -16.19,0 -28.65,-3.94 -37.39,-11.85 -8.7,-7.86 -13.07,-17.97 -13.07,-30.24 0,-7.17 1.67,-13.78 4.92,-19.74 3.33,-5.98 7.65,-10.72 12.94,-14.31 5.37,-3.6 11.32,-6.35 17.99,-8.2 4.95,-1.27 12.38,-2.51 22.3,-3.73 20.16,-2.38 35.11,-5.27 44.61,-8.6 0.11,-3.39 0.13,-5.58 0.13,-6.48 0,-10.13 -2.35,-17.28 -7.09,-21.46 -6.4,-5.64 -15.93,-8.44 -28.52,-8.44 -11.8,0 -20.51,2.09 -26.11,6.22 -5.64,4.1 -9.76,11.4 -12.44,21.93l-24.47 -3.41c2.22,-10.48 5.87,-18.97 10.98,-25.4 5.13,-6.46 12.51,-11.38 22.2,-14.87 9.6,-3.47 20.85,-5.21 33.52,-5.21 12.62,0 22.91,1.46 30.8,4.45 7.88,2.99 13.71,6.69 17.41,11.19 3.7,4.5 6.3,10.19 7.83,17.04 0.79,4.26 1.22,11.96 1.22,22.99l0 33.18c0,23.15 0.53,37.81 1.56,44 0.98,6.22 3.1,12.12 6.11,17.81l-26.14 0c-2.54,-5.27 -4.13,-11.4 -4.84,-18.47l0 -0.01zm-2.01 -55.43c-9.08,3.68 -22.73,6.83 -40.93,9.37 -10.32,1.48 -17.62,3.15 -21.88,4.97 -4.26,1.88 -7.54,4.55 -9.84,8.07 -2.33,3.55 -3.52,7.49 -3.52,11.85 0,6.56 2.51,12.12 7.57,16.51 5.08,4.42 12.49,6.64 22.2,6.64 9.6,0 18.18,-2.09 25.72,-6.3 7.49,-4.15 13.04,-9.9 16.54,-17.15 2.7,-5.64 4.02,-13.94 4.02,-24.87l0.13 -9.1 -0.01 0.01zm160.12 19.9l24.45 3.41c-2.73,16.83 -9.53,29.95 -20.58,39.45 -11.03,9.55 -24.63,14.29 -40.69,14.29 -20.13,0 -36.33,-6.59 -48.55,-19.76 -12.28,-13.18 -18.39,-32.04 -18.39,-56.57 0,-15.93 2.65,-29.79 7.91,-41.75 5.27,-11.91 13.26,-20.85 24.08,-26.78 10.74,-5.95 22.46,-8.94 35.16,-8.94 15.95,0 29.08,4.02 39.21,12.12 10.19,8.1 16.72,19.63 19.58,34.5l-24.18 3.7c-2.3,-9.92 -6.38,-17.36 -12.3,-22.38 -5.87,-4.97 -12.99,-7.49 -21.33,-7.49 -12.59,0 -22.83,4.5 -30.74,13.52 -7.86,9.05 -11.8,23.26 -11.8,42.78 0,19.79 3.78,34.16 11.38,43.1 7.62,8.97 17.52,13.47 29.69,13.47 9.87,0 18.07,-2.99 24.61,-9 6.59,-5.98 10.74,-15.21 12.51,-27.68l-0.02 0.01zm100.07 31.69l3.41 22.09c-7.04,1.46 -13.34,2.2 -18.81,2.2 -9.05,0 -16.09,-1.4 -21.09,-4.31 -4.97,-2.88 -8.49,-6.61 -10.53,-11.3 -2.04,-4.71 -3.02,-14.55 -3.02,-29.55l0 -85.01 -18.49 0 0 -19.34 18.49 0 0 -36.49 25 -15.03 0 51.51 25.03 0 0 19.34 -25.03 0 0 86.41c0,7.14 0.42,11.75 1.35,13.78 0.82,2.04 2.25,3.65 4.26,4.87 1.98,1.19 4.82,1.8 8.52,1.8 2.75,0 6.4,-0.32 10.9,-0.98l0.01 0.01zm24.68 -152.79l0 -28.44 25 0 0 28.44 -25 0zm0 175.1l0 -147.53 25 0 0 147.53 -25 0zm53.77 -73.77c0,-27.23 7.59,-47.41 22.81,-60.56 12.65,-10.87 28.13,-16.32 46.38,-16.32 20.21,0 36.8,6.64 49.69,19.9 12.83,13.23 19.29,31.54 19.29,54.9 0,18.97 -2.83,33.84 -8.52,44.69 -5.69,10.85 -14,19.29 -24.87,25.29 -10.87,6.03 -22.75,9.02 -35.59,9.02 -20.66,0 -37.33,-6.59 -50.09,-19.82 -12.75,-13.2 -19.1,-32.25 -19.1,-57.1zm25.58 0.06c0,18.86 4.13,32.97 12.36,42.31 8.31,9.39 18.68,14.08 31.25,14.08 12.41,0 22.73,-4.68 31.04,-14.1 8.23,-9.45 12.36,-23.81 12.36,-43.1 0,-18.18 -4.18,-31.96 -12.46,-41.3 -8.28,-9.37 -18.63,-14.08 -30.93,-14.08 -12.57,0 -22.94,4.66 -31.25,14 -8.23,9.31 -12.36,23.39 -12.36,42.2l-0.01 -0.01zm141.92 73.71l0 -147.53 22.44 0 0 20.96c10.82,-16.06 26.46,-24.08 46.86,-24.08 8.92,0 17.07,1.61 24.5,4.76 7.46,3.2 13.04,7.41 16.72,12.57 3.7,5.19 6.32,11.32 7.78,18.44 0.9,4.63 1.38,12.73 1.38,24.29l0 90.59 -25.03 0 0 -89.64c0,-10.19 -0.93,-17.81 -2.88,-22.83 -1.93,-5.03 -5.4,-9.05 -10.32,-12.07 -4.92,-2.99 -10.77,-4.52 -17.38,-4.52 -10.64,0 -19.76,3.36 -27.49,10.16 -7.73,6.72 -11.56,19.55 -11.56,38.42l0 80.49 -25 0 -0.02 -0.01z"/>
 </g>
</svg>
