<?xml version="1.0" encoding="UTF-8"?>
<!DOCTYPE svg PUBLIC "-//W3C//DTD SVG 1.1//EN" "http://www.w3.org/Graphics/SVG/1.1/DTD/svg11.dtd">
<!-- Creator: CorelDRAW 2019 (64-Bit) -->
<svg xmlns="http://www.w3.org/2000/svg" xml:space="preserve" width="500px" height="500px" version="1.1" style="shape-rendering:geometricPrecision; text-rendering:geometricPrecision; image-rendering:optimizeQuality; fill-rule:evenodd; clip-rule:evenodd"
viewBox="0 0 500 500"
 xmlns:xlink="http://www.w3.org/1999/xlink"
 xmlns:xodm="http://www.corel.com/coreldraw/odm/2003">
 <defs>
  <style type="text/css">
   <![CDATA[
    .fil0 {fill:none}
    .fil1 {fill:white;fill-rule:nonzero}
   ]]>
  </style>
 </defs>
 <g id="Layer_x0020_1">
  <metadata id="CorelCorpID_0Corel-Layer"/>
  <rect class="fil0" x="0.14" y="0.01" width="500" height="500"/>
  <path class="fil1" d="M201.43 224.82l-12.62 0 0 -21.09 -3.78 0 0 24.3 16.4 0 0 -3.21 0 0zm4.81 -22c-1.27,0 -2.2,0.95 -2.2,2.22 0,1.3 0.93,2.25 2.2,2.25 1.28,0 2.24,-0.95 2.24,-2.25 0,-1.27 -0.97,-2.22 -2.24,-2.22zm1.89 25.21l0 -18.7 -3.78 0 0 18.7 3.78 0zm9.01 -21.76c0.21,-1.56 1.72,-2.12 3.95,-1.7l0 -2.88c-0.62,-0.14 -1.34,-0.21 -2.09,-0.21 -3.44,0 -5.33,1.69 -5.64,4.57 -0.07,0.64 -0.07,1.56 -0.07,2.23l0 1.2 -1.96 0 0 2.7 1.96 0 0 15.85 3.75 0 0 -15.85 3.74 0 0 -2.7 -3.74 0 0 -1.41c0,-0.53 0.03,-1.31 0.1,-1.8zm22.28 11.94c0,-5.28 -2.86,-9.37 -8.15,-9.37 -5.26,0 -8.94,3.98 -8.94,9.89 0,6.62 3.68,9.79 8.56,9.79 3.99,0 7.46,-2.11 8.25,-6.55l-3.82 0c-0.37,2.36 -2.09,3.74 -4.29,3.74 -2.48,0 -4.47,-1.48 -4.78,-5.95l13.1 0c0.07,-0.68 0.07,-1.2 0.07,-1.55zm-8.29 -6.55c2.65,0 4.13,1.93 4.4,5.38l-9.25 0c0.41,-3.59 2.27,-5.38 4.85,-5.38zm16.4 0.52l3.58 0 0 -2.7 -3.58 0 0 -4.48 -3.75 0 0 4.48 -2.58 0 0 2.7 2.58 0 0 10.15c0,1.05 0,1.86 0.04,2.5 0.17,2.46 1.4,3.55 4.26,3.55 0.93,0 1.82,-0.07 2.78,-0.21l0 -2.67c-2.47,0.24 -3.16,-0.14 -3.3,-1.98 -0.03,-0.49 -0.03,-0.91 -0.03,-1.55l0 -9.78 0 -0.01zm8.9 -9.36c-1.27,0 -2.2,0.95 -2.2,2.22 0,1.3 0.93,2.25 2.2,2.25 1.28,0 2.24,-0.95 2.24,-2.25 0,-1.27 -0.96,-2.22 -2.24,-2.22zm1.89 25.21l0 -18.7 -3.78 0 0 18.7 3.78 0zm30.43 -14.61c-0.41,-2.57 -2.34,-4.58 -5.71,-4.58 -1.61,0 -2.89,0.32 -3.88,1.09l-1.69 2.47c-0.68,-2.08 -2.51,-3.56 -5.39,-3.56 -1.65,0 -2.93,0.32 -3.89,1.09l-1.24 2.18 0 -2.78 -3.78 0 0 18.7 3.78 0 0 -9.4c0,-5.07 1.45,-6.94 3.68,-6.94 1.96,0 3.13,1.05 3.4,3.06 0.11,0.95 0.14,1.97 0.14,3.38l0 9.9 3.75 0 0 -9.4c0,-5.07 1.48,-6.94 3.68,-6.94 1.96,0 3.16,1.05 3.4,3.06 0.1,0.95 0.14,1.97 0.14,3.38l0 9.9 3.78 0 0 -11.31c0,-1.51 -0.04,-2.35 -0.17,-3.3l0 0zm20.48 4.79c0,-5.28 -2.85,-9.37 -8.14,-9.37 -5.26,0 -8.94,3.98 -8.94,9.89 0,6.62 3.68,9.79 8.56,9.79 3.99,0 7.46,-2.11 8.25,-6.55l-3.82 0c-0.37,2.36 -2.09,3.74 -4.29,3.74 -2.48,0 -4.47,-1.48 -4.78,-5.95l13.1 0c0.06,-0.68 0.06,-1.2 0.06,-1.55zm-8.28 -6.55c2.65,0 4.13,1.93 4.4,5.38l-9.25 0c0.42,-3.59 2.27,-5.38 4.85,-5.38zm-140.14 50.59l2.58 8.03 4.09 0 -8.28 -24.3 -4.88 0 -8.53 24.3 4.02 0 2.58 -8.03 8.42 0 0 0zm-7.42 -3.06l3.3 -10 3.12 10 -6.42 0zm23.89 -8.1c-4.78,0 -8.83,3.56 -8.83,9.93 0,6.65 3.6,9.75 8.38,9.75 4.3,0 7.46,-2.22 8.32,-6.69l-3.85 0c-0.55,2.54 -2.1,3.88 -4.26,3.88 -2.55,0 -4.61,-2.15 -4.61,-7.22 0,-4.68 2.09,-6.83 4.75,-6.83 2.23,0 3.71,1.3 4.26,4.15l3.81 0c-0.44,-4.12 -3.36,-6.97 -7.97,-6.97l0 0zm27.36 5.35c-0.34,-3.27 -2.57,-5.35 -6.49,-5.35 -1.83,0 -3.17,0.32 -4.61,1.44l-1.24 2.15 0 -10.45 -3.78 0 0 26.05 3.78 0 0 -8.38c0,-5.84 2.13,-7.89 4.75,-7.96 2.57,-0.03 3.67,1.48 3.85,3.6 0.06,0.95 0.06,1.76 0.06,2.64l0 10.1 3.78 0 0 -10.53c0,-1.51 -0.03,-2.36 -0.1,-3.3l0 -0.01zm6.6 -11.37c-1.27,0 -2.2,0.95 -2.2,2.22 0,1.3 0.93,2.25 2.2,2.25 1.28,0 2.24,-0.95 2.24,-2.25 0,-1.27 -0.97,-2.22 -2.24,-2.22zm1.89 25.21l0 -18.69 -3.78 0 0 18.69 3.78 0zm20.56 -9.82c0,-5.28 -2.85,-9.37 -8.14,-9.37 -5.27,0 -8.94,3.98 -8.94,9.89 0,6.62 3.67,9.79 8.56,9.79 3.99,0 7.46,-2.11 8.24,-6.54l-3.81 0c-0.38,2.35 -2.1,3.73 -4.3,3.73 -2.47,0 -4.47,-1.48 -4.78,-5.95l13.1 0c0.07,-0.68 0.07,-1.2 0.07,-1.55zm-8.28 -6.55c2.65,0 4.12,1.93 4.4,5.38l-9.25 0c0.41,-3.59 2.27,-5.38 4.85,-5.38zm27.91 -2.33l-4.02 0 -5.05 15.85 -5.12 -15.85 -4.17 0 6.98 18.7 4.4 0 6.98 -18.7zm17.74 8.88c0,-5.28 -2.85,-9.37 -8.15,-9.37 -5.26,0 -8.94,3.98 -8.94,9.89 0,6.62 3.68,9.79 8.56,9.79 3.99,0 7.46,-2.11 8.25,-6.54l-3.81 0c-0.38,2.35 -2.1,3.73 -4.3,3.73 -2.47,0 -4.47,-1.48 -4.78,-5.95l13.1 0c0.07,-0.68 0.07,-1.2 0.07,-1.55zm-8.29 -6.55c2.65,0 4.13,1.93 4.4,5.38l-9.24 0c0.41,-3.59 2.27,-5.38 4.84,-5.38zm37.47 1.76c-0.41,-2.57 -2.33,-4.58 -5.7,-4.58 -1.61,0 -2.89,0.32 -3.89,1.09l-1.68 2.47c-0.69,-2.08 -2.51,-3.56 -5.4,-3.56 -1.65,0 -2.92,0.32 -3.88,1.09l-1.24 2.19 0 -2.79 -3.78 0 0 18.7 3.78 0 0 -9.4c0,-5.07 1.44,-6.94 3.68,-6.94 1.96,0 3.13,1.06 3.4,3.07 0.11,0.94 0.14,1.97 0.14,3.37l0 9.9 3.75 0 0 -9.4c0,-5.07 1.48,-6.94 3.67,-6.94 1.96,0 3.17,1.06 3.41,3.07 0.1,0.94 0.13,1.97 0.13,3.37l0 9.9 3.79 0 0 -11.3c0,-1.52 -0.04,-2.36 -0.18,-3.31l0 0zm20.49 4.79c0,-5.28 -2.85,-9.37 -8.15,-9.37 -5.26,0 -8.93,3.98 -8.93,9.89 0,6.62 3.67,9.79 8.56,9.79 3.99,0 7.46,-2.11 8.25,-6.54l-3.82 0c-0.38,2.35 -2.09,3.73 -4.29,3.73 -2.48,0 -4.47,-1.48 -4.78,-5.95l13.1 0c0.07,-0.68 0.07,-1.2 0.07,-1.55l-0.01 0zm-8.28 -6.55c2.65,0 4.13,1.93 4.4,5.38l-9.25 0c0.41,-3.59 2.27,-5.38 4.85,-5.38l0 0zm28.02 2.53c-0.35,-3.27 -2.58,-5.35 -6.5,-5.35 -1.82,0 -3.16,0.32 -4.61,1.44l-1.24 2.15 0 -3.09 -3.78 0 0 18.69 3.78 0 0 -8.38c0,-5.84 2.13,-7.96 4.75,-7.96 2.58,0 3.68,1.48 3.85,3.6 0.07,0.95 0.07,1.76 0.07,2.64l0 10.1 3.78 0 0 -10.53c0,-1.51 -0.04,-2.36 -0.11,-3.3l0.01 -0.01zm9.21 -2.01l3.58 0 0 -2.71 -3.58 0 0 -4.47 -3.75 0 0 4.47 -2.58 0 0 2.71 2.58 0 0 10.14c0,1.06 0,1.87 0.04,2.51 0.17,2.46 1.41,3.55 4.26,3.55 0.93,0 1.82,-0.07 2.78,-0.21l0 -2.68c-2.47,0.25 -3.16,-0.14 -3.3,-1.97 -0.03,-0.49 -0.03,-0.91 -0.03,-1.54l0 -9.79 0 -0.01zm-138.66 50.07l2.58 8.03 4.09 0 -8.28 -24.3 -4.88 0 -8.53 24.3 4.02 0 2.58 -8.03 8.42 0zm-7.42 -3.06l3.29 -10 3.13 10 -6.42 0 0 0zm41.14 -7.61l-4.02 0 -3.74 15.29 -3.65 -15.25 -4.6 0 -3.55 15.21 -3.75 -15.25 -4.25 0 5.8 18.7 4.37 0 3.64 -15.11 3.61 15.11 4.34 0 5.81 -18.7 -0.01 0zm13 18.7l3.74 0c-0.27,-2.08 -0.34,-3.35 -0.34,-4.76l0 -6.58c0,-0.88 -0.03,-1.86 -0.1,-2.64 -0.31,-3.16 -2.17,-5.21 -6.88,-5.21 -4.16,0 -7.15,2.33 -7.39,6.41l3.78 0c0.21,-2.33 1.34,-3.59 3.54,-3.59 2.17,0 3.1,1.05 3.2,2.57 0.07,0.7 0.07,1.34 0.07,2.04l0 0.46 -1.17 0c-6.91,0 -10.14,2.25 -10.14,6.41 0,3.48 2.65,5.38 5.88,5.38 1.72,0 3.3,-0.32 4.54,-1.19l0.92 -2.01 0.35 2.71 0 0zm-4.44 -2.32c-1.99,0 -3.26,-0.92 -3.26,-2.89 0,-2.85 2.89,-3.87 7.32,-3.52l0 1.72c0,3.03 -1.68,4.69 -4.06,4.69l0 0zm20.8 -16.83c-0.93,0 -1.99,0.39 -2.82,1.05l-1.55 2.57 0 -3.16 -3.78 0 0 18.69 3.78 0 0 -9.72c0,-4.61 2.17,-6.44 5.64,-6.19l0 -3.03c-0.38,-0.14 -0.75,-0.21 -1.27,-0.21zm20.46 -6.73l-3.78 0 0 9.72 -1.21 -1.87c-0.93,-0.73 -2.82,-1.16 -4.33,-1.16 -4.71,0 -8.83,3.31 -8.83,10.14 0,5.49 2.99,9.54 8.21,9.54 1.86,0 3.75,-0.56 4.78,-1.41l1.37 -2.04 0 2.96 3.78 0 0 -25.88 0.01 0zm-9.08 23.56c-3.26,0 -5.09,-3 -5.09,-7.05 0,-4.64 2.27,-7 5.26,-7 2.44,0 5.13,1.69 5.13,6.23l0 0.99c0,4.99 -2.44,6.83 -5.3,6.83l0 0z"/>
  <path class="fil1" d="M210.4 151.26l5.33 -5.28c4.25,-4.15 5.94,-6.41 5.94,-9.61 0,-3.84 -2.6,-6.83 -7.73,-6.83 -5.12,0 -8.25,2.78 -8.74,7.92l-0.04 0.35 3.87 0 0.03 -0.35c0.32,-3.2 1.68,-4.96 4.46,-4.96 2.63,0 3.97,1.86 3.97,4.22 0,2.33 -1.33,4.09 -4.39,7.11l-8.46 8.56 0 1.97 16.88 0 0 -3.1 -11.12 0 0 0zm23.77 -21.69c-6.74,0 -9.06,5.29 -9.06,12.64 0,7.29 2.32,12.64 9.06,12.64 6.77,0 9.06,-5.35 9.06,-12.64 0,-7.35 -2.29,-12.64 -9.06,-12.64zm0 22.33c-3.44,0 -4.88,-3.45 -4.88,-9.69 0,-6.3 1.44,-9.68 4.88,-9.68 3.47,0 4.88,3.38 4.88,9.68 0,6.24 -1.41,9.69 -4.88,9.69zm25.73 -21.83l-2.14 0c-1.09,0 -2.11,0.24 -3.23,0.91l-5.34 3.28 0 3.8 6.85 -3.94 0 20.24 3.86 0 0 -24.29zm17.35 8.13c-1.44,0 -2.67,0.32 -3.79,0.99l-1.38 1.65 0.99 -7.71 11.23 0 0 -3.06 -14.36 0 -1.72 14.22 3.62 0c1.05,-2.25 2.49,-3.13 4.57,-3.13 2.98,0 4.73,2.15 4.73,5.42 0,3.31 -1.86,5.32 -4.84,5.32 -2.7,0 -4.07,-1.59 -4.56,-4.09l-0.04 -0.35 -3.86 0 0.03 0.35c0.5,4.72 3.44,7.05 8.54,7.05 4.63,0 8.91,-3.03 8.91,-8.46 0,-4.78 -2.81,-8.2 -8.07,-8.2l0 0z"/>
  <g id="_1128814561072">
   <path class="fil1" d="M187.59 97.31c-5.82,-2.74 -9.87,-7.74 -11.58,-13.47 5.47,-2.36 11.89,-2.47 17.71,0.26 5.82,2.73 9.87,7.73 11.58,13.47 -5.47,2.36 -11.88,2.46 -17.71,-0.26l0 0z"/>
   <path class="fil1" d="M189.38 72.13c-2.71,5.85 -7.69,9.92 -13.39,11.64 -2.36,-5.5 -2.46,-11.94 0.26,-17.8 2.71,-5.85 7.69,-9.91 13.4,-11.64 2.35,5.5 2.45,11.95 -0.27,17.8z"/>
   <path class="fil1" d="M164.52 109.08c-6.2,-1.67 -11.05,-5.89 -13.73,-11.24 4.98,-3.28 11.28,-4.5 17.48,-2.83 6.21,1.67 11.06,5.9 13.74,11.24 -4.98,3.28 -11.28,4.5 -17.49,2.83z"/>
   <path class="fil1" d="M161.94 83.98c-1.67,6.24 -5.87,11.11 -11.18,13.8 -3.27,-5.01 -4.49,-11.33 -2.82,-17.57 1.66,-6.24 5.86,-11.11 11.18,-13.8 3.27,5 4.48,11.33 2.82,17.57z"/>
   <path class="fil1" d="M143.83 124.74c-6.4,-0.57 -11.91,-3.88 -15.47,-8.68 4.34,-4.1 10.33,-6.4 16.73,-5.83 6.4,0.56 11.9,3.87 15.47,8.67 -4.34,4.1 -10.33,6.4 -16.73,5.84l0 0z"/>
   <path class="fil1" d="M136.94 100.47c-0.56,6.43 -3.85,11.96 -8.63,15.54 -4.08,-4.36 -6.36,-10.38 -5.81,-16.81 0.56,-6.44 3.86,-11.97 8.63,-15.55 4.08,4.36 6.37,10.38 5.81,16.82l0 0z"/>
   <path class="fil1" d="M126.13 143.79c-6.4,0.57 -12.39,-1.73 -16.73,-5.83 3.56,-4.8 9.06,-8.11 15.47,-8.67 6.4,-0.57 12.39,1.73 16.72,5.84 -3.56,4.79 -9.06,8.1 -15.46,8.66l0 0z"/>
   <path class="fil1" d="M115.15 121.1c0.57,6.43 -1.72,12.45 -5.81,16.81 -4.77,-3.58 -8.06,-9.11 -8.62,-15.54 -0.56,-6.44 1.73,-12.46 5.81,-16.82 4.77,3.58 8.06,9.11 8.62,15.55l0 0z"/>
   <path class="fil1" d="M111.97 165.68c-6.21,1.67 -12.51,0.45 -17.49,-2.83 2.68,-5.35 7.53,-9.57 13.74,-11.24 6.2,-1.67 12.5,-0.45 17.48,2.83 -2.68,5.35 -7.53,9.57 -13.73,11.24z"/>
   <path class="fil1" d="M97.24 145.24c1.66,6.23 0.45,12.57 -2.82,17.57 -5.32,-2.69 -9.52,-7.56 -11.18,-13.8 -1.66,-6.24 -0.45,-12.57 2.82,-17.58 5.32,2.7 9.52,7.57 11.18,13.81z"/>
   <path class="fil1" d="M101.77 189.72c-5.82,2.73 -12.23,2.63 -17.7,0.26 1.71,-5.73 5.75,-10.73 11.58,-13.46 5.82,-2.73 12.23,-2.63 17.71,-0.26 -1.72,5.73 -5.77,10.73 -11.59,13.46l0 0z"/>
   <path class="fil1" d="M83.74 172.16c2.71,5.85 2.61,12.3 0.26,17.8 -5.71,-1.72 -10.68,-5.79 -13.4,-11.64 -2.71,-5.86 -2.61,-12.3 -0.26,-17.8 5.7,1.72 10.68,5.79 13.4,11.64z"/>
   <path class="fil1" d="M95.86 215.19c-5.27,3.7 -11.6,4.72 -17.39,3.35 0.69,-5.95 3.81,-11.58 9.07,-15.28 5.27,-3.71 11.6,-4.73 17.4,-3.35 -0.7,5.94 -3.82,11.58 -9.08,15.28l0 0z"/>
   <path class="fil1" d="M75.06 201.05c3.69,5.28 4.7,11.65 3.33,17.48 -5.91,-0.7 -11.52,-3.84 -15.2,-9.13 -3.69,-5.29 -4.7,-11.65 -3.34,-17.48 5.92,0.7 11.52,3.84 15.21,9.13z"/>
   <path class="fil1" d="M94.4 241.31c-4.55,4.57 -10.61,6.68 -16.55,6.34 -0.34,-5.98 1.76,-12.07 6.3,-16.63 4.54,-4.57 10.6,-6.68 16.55,-6.34 0.34,5.98 -1.76,12.07 -6.3,16.63z"/>
   <path class="fil1" d="M71.47 231.02c4.54,4.56 6.64,10.65 6.31,16.63 -5.95,0.34 -12.01,-1.77 -16.55,-6.34 -4.19,-4.21 -6.3,-9.71 -6.34,-15.23l0 -0.33c0,-0.35 0.01,-0.72 0.03,-1.07 5.95,-0.34 12.01,1.77 16.55,6.34l0 0z"/>
   <path class="fil1" d="M97.46 267.1c-3.69,5.29 -9.29,8.42 -15.21,9.13 -1.36,-5.83 -0.35,-12.2 3.34,-17.48 3.68,-5.29 9.28,-8.43 15.2,-9.13 1.37,5.83 0.35,12.19 -3.33,17.48z"/>
   <path class="fil1" d="M73.1 260.96c5.27,3.7 8.38,9.34 9.08,15.28 -5.79,1.38 -12.13,0.35 -17.39,-3.35 -5.26,-3.7 -8.38,-9.34 -9.08,-15.28 5.8,-1.38 12.13,-0.35 17.39,3.35z"/>
   <path class="fil1" d="M104.96 291.97c-2.72,5.85 -7.69,9.91 -13.4,11.64 -2.35,-5.5 -2.45,-11.95 0.26,-17.8 2.72,-5.85 7.7,-9.92 13.4,-11.64 2.35,5.5 2.45,11.94 -0.26,17.8z"/>
   <path class="fil1" d="M79.91 290.17c5.83,2.72 9.87,7.73 11.59,13.46 -5.48,2.36 -11.89,2.47 -17.71,-0.26 -5.82,-2.73 -9.87,-7.73 -11.58,-13.47 5.47,-2.36 11.88,-2.46 17.7,0.27z"/>
   <path class="fil1" d="M116.68 315.15c-1.67,6.24 -5.87,11.11 -11.19,13.8 -3.26,-5 -4.47,-11.33 -2.81,-17.57 1.66,-6.24 5.86,-11.11 11.18,-13.8 3.27,5 4.48,11.33 2.82,17.57l0 0z"/>
   <path class="fil1" d="M91.7 317.75c6.21,1.67 11.05,5.89 13.73,11.24 -4.98,3.28 -11.27,4.5 -17.48,2.83 -6.21,-1.67 -11.05,-5.89 -13.73,-11.24 4.98,-3.28 11.28,-4.5 17.48,-2.83z"/>
   <path class="fil1" d="M132.25 335.95c-0.56,6.44 -3.85,11.97 -8.62,15.55 -4.09,-4.36 -6.37,-10.38 -5.81,-16.82 0.56,-6.43 3.85,-11.96 8.62,-15.54 4.09,4.36 6.37,10.38 5.81,16.81z"/>
   <path class="fil1" d="M108.1 342.88c6.41,0.56 11.91,3.87 15.47,8.66 -4.33,4.11 -10.33,6.41 -16.73,5.84 -6.4,-0.56 -11.9,-3.87 -15.46,-8.67 4.33,-4.1 10.32,-6.4 16.72,-5.83l0 0z"/>
   <path class="fil1" d="M151.22 353.74c0.56,6.43 -1.74,12.46 -5.82,16.82 -4.77,-3.58 -8.06,-9.11 -8.62,-15.55 -0.56,-6.43 1.73,-12.45 5.81,-16.81 4.77,3.58 8.06,9.11 8.63,15.54l0 0z"/>
   <path class="fil1" d="M128.63 364.77c6.4,-0.56 12.39,1.74 16.73,5.84 -3.56,4.8 -9.07,8.11 -15.47,8.67 -6.4,0.56 -12.39,-1.73 -16.73,-5.83 3.56,-4.8 9.07,-8.11 15.47,-8.68l0 0z"/>
   <path class="fil1" d="M172.99 367.98c1.66,6.24 0.45,12.56 -2.82,17.57 -5.32,-2.69 -9.52,-7.57 -11.18,-13.81 -1.67,-6.23 -0.45,-12.56 2.81,-17.56 5.32,2.69 9.52,7.56 11.19,13.8l0 0z"/>
   <path class="fil1" d="M152.65 382.78c6.21,-1.67 12.5,-0.45 17.48,2.83 -2.68,5.35 -7.52,9.57 -13.73,11.24 -6.21,1.67 -12.5,0.45 -17.48,-2.83 2.68,-5.35 7.52,-9.57 13.73,-11.24z"/>
   <path class="fil1" d="M196.91 378.22c2.71,5.86 2.61,12.3 0.26,17.8 -5.71,-1.72 -10.69,-5.79 -13.4,-11.64 -2.72,-5.85 -2.61,-12.3 -0.26,-17.8 5.7,1.73 10.68,5.79 13.4,11.64l0 0z"/>
   <path class="fil1" d="M179.44 396.35c5.82,-2.73 12.23,-2.63 17.7,-0.26 -1.71,5.73 -5.76,10.73 -11.58,13.46 -5.82,2.73 -12.23,2.63 -17.71,0.27 1.72,-5.74 5.76,-10.74 11.59,-13.47l0 0z"/>
   <path class="fil1" d="M218.06 75.9c-6.03,2.21 -12.41,1.54 -17.66,-1.29 2.2,-5.56 6.67,-10.19 12.71,-12.4 6.03,-2.21 12.41,-1.54 17.66,1.29 -2.21,5.56 -6.67,10.19 -12.71,12.4z"/>
   <path class="fil1" d="M273.94 445.53c-29.52,-29.36 -56.97,-40.94 -77.27,-47.86 -1.96,-0.66 -3.77,-1.28 -5.42,-1.86 -69.02,-24.28 -115.39,-88.48 -115.39,-159.77 0,-80.21 58.65,-150.18 139.47,-166.37l0.51 2.58c-79.59,15.95 -137.36,84.83 -137.36,163.79 0,70.17 45.67,133.37 113.63,157.28 1.65,0.58 3.45,1.2 5.4,1.86 20.52,6.99 57.04,18.69 86.99,48.48l-10.56 1.87z"/>
   <path class="fil1" d="M312.07 97.31c5.82,-2.74 9.87,-7.74 11.58,-13.47 -5.47,-2.36 -11.88,-2.47 -17.71,0.26 -5.82,2.73 -9.87,7.73 -11.58,13.47 5.48,2.36 11.89,2.46 17.71,-0.26l0 0z"/>
   <path class="fil1" d="M310.28 72.13c2.72,5.85 7.69,9.92 13.4,11.64 2.35,-5.5 2.45,-11.94 -0.27,-17.8 -2.71,-5.85 -7.69,-9.91 -13.39,-11.64 -2.36,5.5 -2.45,11.95 0.26,17.8z"/>
   <path class="fil1" d="M335.14 109.08c6.2,-1.67 11.05,-5.89 13.73,-11.24 -4.98,-3.28 -11.28,-4.5 -17.49,-2.83 -6.2,1.67 -11.05,5.9 -13.72,11.24 4.97,3.28 11.27,4.5 17.48,2.83z"/>
   <path class="fil1" d="M337.73 83.98c1.66,6.24 5.86,11.11 11.18,13.8 3.26,-5.01 4.47,-11.33 2.81,-17.57 -1.66,-6.24 -5.86,-11.11 -11.18,-13.8 -3.26,5 -4.48,11.33 -2.81,17.57z"/>
   <path class="fil1" d="M355.83 124.74c6.41,-0.57 11.91,-3.88 15.47,-8.68 -4.33,-4.1 -10.32,-6.4 -16.73,-5.83 -6.4,0.56 -11.9,3.87 -15.46,8.67 4.33,4.1 10.32,6.4 16.72,5.84l0 0z"/>
   <path class="fil1" d="M362.72 100.47c0.56,6.43 3.86,11.96 8.63,15.54 4.08,-4.36 6.37,-10.38 5.81,-16.81 -0.56,-6.44 -3.86,-11.97 -8.63,-15.55 -4.08,4.36 -6.37,10.38 -5.81,16.82l0 0z"/>
   <path class="fil1" d="M373.53 143.79c6.4,0.57 12.4,-1.73 16.73,-5.83 -3.56,-4.8 -9.06,-8.11 -15.46,-8.67 -6.41,-0.57 -12.4,1.73 -16.73,5.84 3.56,4.79 9.07,8.1 15.46,8.66l0 0z"/>
   <path class="fil1" d="M384.51 121.1c-0.56,6.43 1.73,12.45 5.81,16.81 4.77,-3.58 8.07,-9.11 8.63,-15.54 0.56,-6.44 -1.73,-12.46 -5.81,-16.82 -4.78,3.58 -8.07,9.11 -8.63,15.55l0 0z"/>
   <path class="fil1" d="M387.69 165.68c6.21,1.67 12.51,0.45 17.49,-2.83 -2.68,-5.35 -7.53,-9.57 -13.74,-11.24 -6.2,-1.67 -12.5,-0.45 -17.48,2.83 2.68,5.35 7.53,9.57 13.73,11.24z"/>
   <path class="fil1" d="M402.43 145.24c-1.67,6.23 -0.45,12.57 2.81,17.57 5.32,-2.69 9.52,-7.56 11.18,-13.8 1.67,-6.24 0.45,-12.57 -2.81,-17.58 -5.33,2.7 -9.52,7.57 -11.18,13.81z"/>
   <path class="fil1" d="M397.89 189.72c5.82,2.73 12.23,2.63 17.7,0.26 -1.71,-5.73 -5.75,-10.73 -11.57,-13.46 -5.83,-2.73 -12.24,-2.63 -17.71,-0.26 1.71,5.73 5.76,10.73 11.58,13.46l0 0z"/>
   <path class="fil1" d="M415.93 172.16c-2.72,5.85 -2.62,12.3 -0.27,17.8 5.71,-1.72 10.68,-5.79 13.4,-11.64 2.72,-5.86 2.62,-12.3 0.26,-17.8 -5.7,1.72 -10.68,5.79 -13.39,11.64z"/>
   <path class="fil1" d="M403.8 215.19c5.27,3.7 11.6,4.72 17.4,3.35 -0.7,-5.95 -3.82,-11.58 -9.08,-15.28 -5.26,-3.71 -11.6,-4.73 -17.39,-3.35 0.7,5.94 3.81,11.58 9.07,15.28l0 0z"/>
   <path class="fil1" d="M424.6 201.05c-3.68,5.28 -4.7,11.65 -3.33,17.48 5.92,-0.7 11.52,-3.84 15.2,-9.13 3.69,-5.29 4.7,-11.65 3.34,-17.48 -5.92,0.7 -11.52,3.84 -15.21,9.13z"/>
   <path class="fil1" d="M405.27 241.31c4.54,4.57 10.6,6.68 16.55,6.34 0.33,-5.98 -1.76,-12.07 -6.31,-16.63 -4.54,-4.57 -10.6,-6.68 -16.55,-6.34 -0.34,5.98 1.76,12.07 6.31,16.63z"/>
   <path class="fil1" d="M428.19 231.02c-4.55,4.56 -6.64,10.65 -6.31,16.63 5.95,0.34 12.01,-1.77 16.55,-6.34 4.55,-4.56 6.65,-10.65 6.31,-16.63 -5.95,-0.34 -12.01,1.77 -16.55,6.34z"/>
   <path class="fil1" d="M402.2 267.1c3.69,5.29 9.29,8.42 15.21,9.13 1.37,-5.83 0.35,-12.2 -3.33,-17.48 -3.69,-5.29 -9.29,-8.43 -15.21,-9.13 -1.36,5.83 -0.35,12.19 3.33,17.48z"/>
   <path class="fil1" d="M426.56 260.96c-5.26,3.7 -8.38,9.34 -9.08,15.28 5.8,1.38 12.13,0.35 17.39,-3.35 5.27,-3.7 8.38,-9.34 9.08,-15.28 -5.8,-1.38 -12.13,-0.35 -17.39,3.35z"/>
   <path class="fil1" d="M394.7 291.97c2.72,5.85 7.7,9.91 13.4,11.64 2.35,-5.5 2.45,-11.95 -0.26,-17.8 -2.72,-5.85 -7.69,-9.92 -13.4,-11.64 -2.35,5.5 -2.45,11.94 0.26,17.8z"/>
   <path class="fil1" d="M419.75 290.17c-5.82,2.72 -9.87,7.73 -11.58,13.46 5.47,2.36 11.88,2.47 17.7,-0.26 5.82,-2.73 9.87,-7.73 11.59,-13.47 -5.48,-2.36 -11.88,-2.46 -17.71,0.27z"/>
   <path class="fil1" d="M382.98 315.15c1.67,6.24 5.87,11.11 11.19,13.8 3.26,-5 4.48,-11.33 2.81,-17.57 -1.66,-6.24 -5.86,-11.11 -11.18,-13.8 -3.26,5 -4.48,11.33 -2.82,17.57l0 0z"/>
   <path class="fil1" d="M407.96 317.75c-6.2,1.67 -11.05,5.89 -13.73,11.24 4.98,3.28 11.28,4.5 17.48,2.83 6.21,-1.67 11.06,-5.89 13.74,-11.24 -4.98,-3.28 -11.28,-4.5 -17.49,-2.83z"/>
   <path class="fil1" d="M367.41 335.95c0.56,6.44 3.86,11.97 8.63,15.55 4.08,-4.36 6.37,-10.38 5.81,-16.82 -0.56,-6.43 -3.86,-11.96 -8.63,-15.54 -4.08,4.36 -6.37,10.38 -5.81,16.81z"/>
   <path class="fil1" d="M391.56 342.88c-6.4,0.56 -11.91,3.87 -15.47,8.66 4.34,4.11 10.33,6.41 16.73,5.84 6.4,-0.56 11.9,-3.87 15.46,-8.67 -4.33,-4.1 -10.32,-6.4 -16.72,-5.83l0 0z"/>
   <path class="fil1" d="M348.45 353.74c-0.56,6.43 1.73,12.46 5.81,16.82 4.77,-3.58 8.07,-9.11 8.63,-15.55 0.56,-6.43 -1.73,-12.45 -5.81,-16.81 -4.78,3.58 -8.07,9.11 -8.63,15.54l0 0z"/>
   <path class="fil1" d="M371.03 364.77c-6.4,-0.56 -12.39,1.74 -16.72,5.84 3.56,4.8 9.06,8.11 15.46,8.67 6.4,0.56 12.39,-1.73 16.73,-5.83 -3.56,-4.8 -9.07,-8.11 -15.47,-8.68l0 0z"/>
   <path class="fil1" d="M326.68 367.98c-1.66,6.24 -0.45,12.56 2.81,17.57 5.32,-2.69 9.52,-7.57 11.19,-13.81 1.66,-6.23 0.45,-12.56 -2.82,-17.56 -5.32,2.69 -9.52,7.56 -11.18,13.8l0 0z"/>
   <path class="fil1" d="M347.01 382.78c-6.2,-1.67 -12.5,-0.45 -17.48,2.83 2.68,5.35 7.53,9.57 13.73,11.24 6.21,1.67 12.51,0.45 17.49,-2.83 -2.68,-5.35 -7.53,-9.57 -13.74,-11.24z"/>
   <path class="fil1" d="M302.76 378.22c-2.72,5.86 -2.62,12.3 -0.26,17.8 5.7,-1.72 10.68,-5.79 13.39,-11.64 2.72,-5.85 2.62,-12.3 0.26,-17.8 -5.7,1.73 -10.68,5.79 -13.39,11.64l0 0z"/>
   <path class="fil1" d="M320.23 396.35c-5.83,-2.73 -12.24,-2.63 -17.71,-0.26 1.72,5.73 5.76,10.73 11.58,13.46 5.83,2.73 12.24,2.63 17.71,0.27 -1.72,-5.74 -5.76,-10.74 -11.58,-13.47z"/>
   <path class="fil1" d="M281.6 75.9c6.04,2.21 12.42,1.54 17.66,-1.29 -2.2,-5.56 -6.66,-10.19 -12.7,-12.4 -6.04,-2.21 -12.42,-1.54 -17.67,1.29 2.21,5.56 6.67,10.19 12.71,12.4l0 0z"/>
   <path class="fil1" d="M225.72 445.53l-10.56 -1.87c29.95,-29.79 66.47,-41.49 86.99,-48.48 1.94,-0.66 3.75,-1.28 5.4,-1.86 67.96,-23.91 113.63,-87.11 113.63,-157.28 0,-78.96 -57.76,-147.84 -137.36,-163.79l0.51 -2.58c80.82,16.19 139.47,86.16 139.47,166.37 0,71.29 -46.37,135.49 -115.38,159.77 -1.66,0.58 -3.47,1.2 -5.43,1.86 -20.3,6.92 -47.75,18.5 -77.27,47.86z"/>
  </g>
 </g>
 <g id="Layer_x0020_1_0">
  <metadata id="CorelCorpID_1Corel-Layer"/>
 </g>
</svg>
