<?xml version="1.0" encoding="UTF-8"?>
<!DOCTYPE svg PUBLIC "-//W3C//DTD SVG 1.1//EN" "http://www.w3.org/Graphics/SVG/1.1/DTD/svg11.dtd">
<!-- Creator: CorelDRAW 2019 (64-Bit) -->
<svg xmlns="http://www.w3.org/2000/svg" xml:space="preserve" width="500px" height="500px" version="1.1" style="shape-rendering:geometricPrecision; text-rendering:geometricPrecision; image-rendering:optimizeQuality; fill-rule:evenodd; clip-rule:evenodd"
viewBox="0 0 500 500"
 xmlns:xlink="http://www.w3.org/1999/xlink"
 xmlns:xodm="http://www.corel.com/coreldraw/odm/2003">
 <defs>
  <style type="text/css">
   <![CDATA[
    .fil0 {fill:none}
    .fil1 {fill:white;fill-rule:nonzero}
   ]]>
  </style>
 </defs>
 <g id="Layer_x0020_1">
  <metadata id="CorelCorpID_0Corel-Layer"/>
  <rect class="fil0" x="0.14" y="0.01" width="500" height="500"/>
  <path class="fil1" d="M224.09 217.72l2.63 8.03 4.16 0 -8.44 -24.3 -4.97 0 -8.69 24.3 4.1 0 2.62 -8.03 8.59 0 0 0zm-7.57 -3.07l3.37 -10 3.18 10 -6.55 0 0 0zm22.85 -8.1c-4.14,0 -6.87,2.12 -6.87,5.6 0,3.28 2.52,4.72 5.92,5.6 3.15,0.85 4.41,1.73 4.41,3.35 0,1.62 -1.43,2.39 -3.22,2.39 -1.93,0 -3.5,-0.95 -3.96,-3.34l-3.89 0c0.53,4.22 3.57,6.09 7.71,6.09 4.06,0 7.25,-1.8 7.25,-5.42 0,-3.31 -2.14,-4.94 -6.2,-5.99 -2.77,-0.74 -4.14,-1.44 -4.14,-3.14 0,-1.4 0.88,-2.42 2.7,-2.42 1.89,0 3.05,1.16 3.44,3.13l3.92 0c-0.42,-3.42 -2.8,-5.85 -7.07,-5.85l0 0 0 0zm12.6 -6.02c-1.29,0 -2.24,0.95 -2.24,2.22 0,1.3 0.95,2.25 2.24,2.25 1.3,0 2.28,-0.95 2.28,-2.25 0,-1.27 -0.98,-2.22 -2.28,-2.22zm1.93 25.22l0 -18.71 -3.85 0 0 18.71 3.85 0zm15.66 0l3.82 0c-0.28,-2.08 -0.34,-3.35 -0.34,-4.76l0 -6.58c0,-0.88 -0.04,-1.87 -0.11,-2.64 -0.32,-3.17 -2.21,-5.22 -7.01,-5.22 -4.24,0 -7.28,2.33 -7.53,6.41l3.85 0c0.21,-2.32 1.37,-3.59 3.61,-3.59 2.21,0 3.16,1.06 3.26,2.57 0.07,0.71 0.07,1.34 0.07,2.04l0 0.46 -1.19 0c-7.04,0 -10.34,2.25 -10.34,6.41 0,3.49 2.7,5.39 5.99,5.39 1.75,0 3.37,-0.32 4.63,-1.2l0.94 -2.01 0.35 2.72zm-4.52 -2.33c-2.03,0 -3.32,-0.91 -3.32,-2.89 0,-2.85 2.94,-3.87 7.46,-3.52l0 1.73c0,3.03 -1.72,4.68 -4.14,4.68zm17.88 -23.21l0 -0.35 -3.93 0 -2.73 9.19 3.22 0 3.44 -8.84 0 0zm10.33 6.34c-4.13,0 -6.87,2.12 -6.87,5.6 0,3.28 2.52,4.72 5.92,5.6 3.16,0.85 4.42,1.73 4.42,3.35 0,1.62 -1.44,2.39 -3.23,2.39 -1.92,0 -3.5,-0.95 -3.96,-3.34l-3.88 0c0.52,4.22 3.57,6.09 7.71,6.09 4.06,0 7.25,-1.8 7.25,-5.42 0,-3.31 -2.14,-4.94 -6.2,-5.99 -2.77,-0.74 -4.14,-1.44 -4.14,-3.14 0,-1.4 0.88,-2.42 2.7,-2.42 1.89,0 3.05,1.16 3.43,3.13l3.93 0c-0.42,-3.42 -2.8,-5.85 -7.08,-5.85l0 0 0 0zm-57.43 48.46c2.49,-0.85 3.96,-2.43 3.96,-5.18 0,-3.38 -2.17,-5.46 -6.02,-5.98 -1.2,-0.14 -1.96,-0.14 -3.16,-0.14l-7.81 0 0 24.29 8.23 0c1.23,0 2.04,0 3.23,-0.17 3.19,-0.46 6.41,-2.57 6.41,-7.01 0,-3.24 -1.68,-5.04 -4.84,-5.81l0 0zm-9.17 -8.24l3.95 0c0.57,0 1.27,0.03 1.83,0.1 1.92,0.22 3.29,1.24 3.29,3.39 0,1.97 -0.91,3.2 -3.05,3.55 -0.63,0.11 -1.22,0.14 -1.82,0.14l-4.2 0 0 -7.18 0 0zm6.41 18.1c-0.46,0.04 -1.09,0.04 -1.65,0.04l-4.76 0 0 -7.96 4.55 0c0.56,0 1.12,0 1.82,0.1 2.07,0.25 3.58,1.31 3.58,3.95 0,2.35 -1.55,3.69 -3.54,3.87l0 0zm27.29 -6.69c0,-5.28 -2.91,-9.37 -8.3,-9.37 -5.37,0 -9.11,3.98 -9.11,9.9 0,6.62 3.74,9.79 8.72,9.79 4.06,0 7.61,-2.12 8.41,-6.55l-3.89 0c-0.39,2.36 -2.14,3.73 -4.38,3.73 -2.52,0 -4.55,-1.48 -4.87,-5.95l13.35 0c0.07,-0.67 0.07,-1.2 0.07,-1.55l0 0zm-8.44 -6.55c2.69,0 4.2,1.93 4.48,5.38l-9.42 0c0.42,-3.59 2.31,-5.38 4.94,-5.38zm18.11 -2.82c-4.14,0 -6.87,2.11 -6.87,5.6 0,3.27 2.52,4.72 5.92,5.6 3.16,0.85 4.42,1.73 4.42,3.34 0,1.63 -1.44,2.4 -3.22,2.4 -1.93,0 -3.51,-0.95 -3.96,-3.35l-3.89 0c0.52,4.23 3.57,6.1 7.7,6.1 4.07,0 7.26,-1.8 7.26,-5.43 0,-3.31 -2.14,-4.93 -6.2,-5.98 -2.77,-0.74 -4.14,-1.45 -4.14,-3.14 0,-1.41 0.88,-2.43 2.7,-2.43 1.89,0 3.05,1.16 3.44,3.14l3.92 0c-0.42,-3.42 -2.8,-5.85 -7.08,-5.85l0 0 0 0zm15.27 3.35l3.65 0 0 -2.72 -3.65 0 0 -4.47 -3.81 0 0 4.47 -2.63 0 0 2.72 2.63 0 0 10.14c0,1.05 0,1.87 0.03,2.5 0.18,2.46 1.44,3.56 4.35,3.56 0.94,0 1.85,-0.08 2.83,-0.22l0 -2.67c-2.52,0.25 -3.22,-0.14 -3.36,-1.98 -0.04,-0.49 -0.04,-0.91 -0.04,-1.54l0 -9.79zm-71.12 45.11c2.49,-0.85 3.96,-2.43 3.96,-5.18 0,-3.38 -2.17,-5.46 -6.02,-5.99 -1.19,-0.14 -1.97,-0.14 -3.16,-0.14l-7.81 0 0 24.3 8.23 0c1.23,0 2.03,0 3.23,-0.18 3.19,-0.45 6.41,-2.56 6.41,-7 0,-3.24 -1.68,-5.04 -4.84,-5.81l0 0zm-9.18 -8.24l3.96 0c0.56,0 1.26,0.03 1.83,0.1 1.92,0.21 3.29,1.24 3.29,3.38 0,1.98 -0.91,3.21 -3.05,3.56 -0.63,0.11 -1.23,0.14 -1.82,0.14l-4.21 0 0 -7.18 0 0zm6.41 18.1c-0.45,0.03 -1.08,0.03 -1.64,0.03l-4.77 0 0 -7.95 4.56 0c0.56,0 1.12,0 1.82,0.1 2.07,0.25 3.57,1.3 3.57,3.94 0,2.36 -1.54,3.7 -3.54,3.88zm19.59 -16.02c-0.95,0 -2.03,0.38 -2.87,1.05l-1.58 2.57 0 -3.17 -3.86 0 0 18.7 3.86 0 0 -9.72c0,-4.61 2.21,-6.44 5.74,-6.2l0 -3.02c-0.38,-0.14 -0.77,-0.21 -1.29,-0.21l0 0zm14.79 19.15l3.81 0c-0.28,-2.08 -0.35,-3.34 -0.35,-4.75l0 -6.59c0,-0.88 -0.03,-1.86 -0.1,-2.64 -0.32,-3.17 -2.21,-5.21 -7.01,-5.21 -4.24,0 -7.29,2.32 -7.53,6.41l3.85 0c0.21,-2.33 1.37,-3.59 3.61,-3.59 2.21,0 3.16,1.05 3.26,2.57 0.07,0.7 0.07,1.34 0.07,2.04l0 0.46 -1.19 0c-7.04,0 -10.34,2.25 -10.34,6.41 0,3.48 2.7,5.38 5.99,5.38 1.76,0 3.37,-0.31 4.63,-1.19l0.94 -2.01 0.36 2.71zm-4.53 -2.32c-2.03,0 -3.32,-0.92 -3.32,-2.89 0,-2.85 2.94,-3.88 7.46,-3.52l0 1.72c0,3.03 -1.71,4.69 -4.14,4.69l0 0zm29.33 -11.52c-0.35,-3.27 -2.63,-5.35 -6.62,-5.35 -1.86,0 -3.23,0.31 -4.7,1.44l-1.26 2.15 0 -3.1 -3.85 0 0 18.7 3.85 0 0 -8.38c0,-5.85 2.17,-7.96 4.84,-7.96 2.62,0 3.75,1.48 3.92,3.59 0.07,0.96 0.07,1.76 0.07,2.65l0 10.1 3.86 0 0 -10.53c0,-1.51 -0.04,-2.36 -0.11,-3.31l0 0zm21.9 -12.04l-3.85 0 0 9.72 -1.23 -1.87c-0.95,-0.74 -2.87,-1.16 -4.42,-1.16 -4.8,0 -9,3.31 -9,10.14 0,5.5 3.05,9.54 8.37,9.54 1.89,0 3.82,-0.56 4.87,-1.4l1.41 -2.05 0 2.96 3.85 0 0 -25.88 0 0zm-9.25 23.56c-3.33,0 -5.19,-3 -5.19,-7.05 0,-4.64 2.32,-7 5.36,-7 2.49,0 5.22,1.69 5.22,6.23l0 0.99c0,5 -2.48,6.83 -5.39,6.83zm20.18 -16.87c-4.13,0 -6.87,2.11 -6.87,5.6 0,3.27 2.52,4.72 5.92,5.6 3.16,0.84 4.42,1.72 4.42,3.34 0,1.62 -1.44,2.4 -3.22,2.4 -1.93,0 -3.51,-0.95 -3.97,-3.35l-3.88 0c0.52,4.23 3.57,6.09 7.71,6.09 4.06,0 7.25,-1.79 7.25,-5.42 0,-3.31 -2.14,-4.93 -6.2,-5.99 -2.77,-0.73 -4.14,-1.44 -4.14,-3.13 0,-1.41 0.88,-2.43 2.7,-2.43 1.89,0 3.05,1.16 3.43,3.14l3.93 0c-0.42,-3.42 -2.8,-5.85 -7.08,-5.85l0 0 0 0z"/>
  <path class="fil1" d="M221.49 151.22l5.33 -5.28c4.24,-4.16 5.92,-6.41 5.92,-9.62 0,-3.84 -2.59,-6.83 -7.71,-6.83 -5.11,0 -8.23,2.78 -8.72,7.92l-0.04 0.36 3.86 0 0.03 -0.36c0.32,-3.2 1.69,-4.96 4.45,-4.96 2.63,0 3.96,1.87 3.96,4.22 0,2.33 -1.33,4.09 -4.38,7.12l-8.44 8.55 0 1.98 16.85 0 0 -3.1 -11.11 0zm23.72 -21.69c-6.72,0 -9.03,5.28 -9.03,12.64 0,7.29 2.31,12.64 9.03,12.64 6.77,0 9.04,-5.35 9.04,-12.64 0,-7.36 -2.28,-12.64 -9.04,-12.64zm0 22.32c-3.43,0 -4.87,-3.45 -4.87,-9.68 0,-6.31 1.44,-9.69 4.87,-9.69 3.47,0 4.88,3.39 4.88,9.69 0,6.23 -1.41,9.68 -4.88,9.68zm25.68 -21.83l-2.13 0c-1.09,0 -2.1,0.25 -3.23,0.91l-5.32 3.28 0 3.8 6.83 -3.94 0 20.25 3.85 0 0 -24.3 0 0zm20.75 11.45c2.2,-0.78 3.99,-2.58 3.99,-5.32 0,-4.01 -3.05,-6.62 -8.06,-6.62 -4.97,0 -8.06,2.61 -8.06,6.62 0,2.71 1.54,4.5 3.68,5.32 -2.56,0.8 -4.76,2.99 -4.76,6.01 0,5.32 3.96,7.37 8.9,7.37 4.58,0 8.93,-2.05 8.93,-7.37 0,-3.02 -2.1,-5.21 -4.62,-6.01l0 0zm-4.07 -8.99c2.66,0 4.03,1.66 4.03,3.81 0,2.29 -1.43,3.91 -4.06,3.91 -2.63,0 -4,-1.62 -4,-3.91 0,-2.15 1.4,-3.81 4.03,-3.81l0 0zm-0.17 19.41c-3.19,0 -4.84,-1.8 -4.84,-4.37 0,-2.39 1.54,-4.37 4.8,-4.37 3.33,0 4.73,2.01 4.73,4.37 0,2.57 -1.47,4.37 -4.69,4.37z"/>
  <g id="_1128814561072">
   <path class="fil1" d="M187.59 97.31c-5.82,-2.74 -9.87,-7.74 -11.58,-13.47 5.47,-2.36 11.89,-2.47 17.71,0.26 5.82,2.73 9.87,7.73 11.58,13.47 -5.47,2.36 -11.88,2.46 -17.71,-0.26l0 0z"/>
   <path class="fil1" d="M189.38 72.13c-2.71,5.85 -7.69,9.92 -13.39,11.64 -2.36,-5.5 -2.46,-11.94 0.26,-17.8 2.71,-5.85 7.69,-9.91 13.4,-11.64 2.35,5.5 2.45,11.95 -0.27,17.8z"/>
   <path class="fil1" d="M164.52 109.08c-6.2,-1.67 -11.05,-5.89 -13.73,-11.24 4.98,-3.28 11.28,-4.5 17.48,-2.83 6.21,1.67 11.06,5.9 13.74,11.24 -4.98,3.28 -11.28,4.5 -17.49,2.83z"/>
   <path class="fil1" d="M161.94 83.98c-1.67,6.24 -5.87,11.11 -11.18,13.8 -3.27,-5.01 -4.49,-11.33 -2.82,-17.57 1.66,-6.24 5.86,-11.11 11.18,-13.8 3.27,5 4.48,11.33 2.82,17.57z"/>
   <path class="fil1" d="M143.83 124.74c-6.4,-0.57 -11.91,-3.88 -15.47,-8.68 4.34,-4.1 10.33,-6.4 16.73,-5.83 6.4,0.56 11.9,3.87 15.47,8.67 -4.34,4.1 -10.33,6.4 -16.73,5.84l0 0z"/>
   <path class="fil1" d="M136.94 100.47c-0.56,6.43 -3.85,11.96 -8.63,15.54 -4.08,-4.36 -6.36,-10.38 -5.81,-16.81 0.56,-6.44 3.86,-11.97 8.63,-15.55 4.08,4.36 6.37,10.38 5.81,16.82l0 0z"/>
   <path class="fil1" d="M126.13 143.79c-6.4,0.57 -12.39,-1.73 -16.73,-5.83 3.56,-4.8 9.06,-8.11 15.47,-8.67 6.4,-0.57 12.39,1.73 16.72,5.84 -3.56,4.79 -9.06,8.1 -15.46,8.66l0 0z"/>
   <path class="fil1" d="M115.15 121.1c0.57,6.43 -1.72,12.45 -5.81,16.81 -4.77,-3.58 -8.06,-9.11 -8.62,-15.54 -0.56,-6.44 1.73,-12.46 5.81,-16.82 4.77,3.58 8.06,9.11 8.62,15.55l0 0z"/>
   <path class="fil1" d="M111.97 165.68c-6.21,1.67 -12.51,0.45 -17.49,-2.83 2.68,-5.35 7.53,-9.57 13.74,-11.24 6.2,-1.67 12.5,-0.45 17.48,2.83 -2.68,5.35 -7.53,9.57 -13.73,11.24z"/>
   <path class="fil1" d="M97.24 145.24c1.66,6.23 0.45,12.57 -2.82,17.57 -5.32,-2.69 -9.52,-7.56 -11.18,-13.8 -1.66,-6.24 -0.45,-12.57 2.82,-17.58 5.32,2.7 9.52,7.57 11.18,13.81z"/>
   <path class="fil1" d="M101.77 189.72c-5.82,2.73 -12.23,2.63 -17.7,0.26 1.71,-5.73 5.75,-10.73 11.58,-13.46 5.82,-2.73 12.23,-2.63 17.71,-0.26 -1.72,5.73 -5.77,10.73 -11.59,13.46l0 0z"/>
   <path class="fil1" d="M83.74 172.16c2.71,5.85 2.61,12.3 0.26,17.8 -5.71,-1.72 -10.68,-5.79 -13.4,-11.64 -2.71,-5.86 -2.61,-12.3 -0.26,-17.8 5.7,1.72 10.68,5.79 13.4,11.64z"/>
   <path class="fil1" d="M95.86 215.19c-5.27,3.7 -11.6,4.72 -17.39,3.35 0.69,-5.95 3.81,-11.58 9.07,-15.28 5.27,-3.71 11.6,-4.73 17.4,-3.35 -0.7,5.94 -3.82,11.58 -9.08,15.28l0 0z"/>
   <path class="fil1" d="M75.06 201.05c3.69,5.28 4.7,11.65 3.33,17.48 -5.91,-0.7 -11.52,-3.84 -15.2,-9.13 -3.69,-5.29 -4.7,-11.65 -3.34,-17.48 5.92,0.7 11.52,3.84 15.21,9.13z"/>
   <path class="fil1" d="M94.4 241.31c-4.55,4.57 -10.61,6.68 -16.55,6.34 -0.34,-5.98 1.76,-12.07 6.3,-16.63 4.54,-4.57 10.6,-6.68 16.55,-6.34 0.34,5.98 -1.76,12.07 -6.3,16.63z"/>
   <path class="fil1" d="M71.47 231.02c4.54,4.56 6.64,10.65 6.31,16.63 -5.95,0.34 -12.01,-1.77 -16.55,-6.34 -4.19,-4.21 -6.3,-9.71 -6.34,-15.23l0 -0.33c0,-0.35 0.01,-0.72 0.03,-1.07 5.95,-0.34 12.01,1.77 16.55,6.34l0 0z"/>
   <path class="fil1" d="M97.46 267.1c-3.69,5.29 -9.29,8.42 -15.21,9.13 -1.36,-5.83 -0.35,-12.2 3.34,-17.48 3.68,-5.29 9.28,-8.43 15.2,-9.13 1.37,5.83 0.35,12.19 -3.33,17.48z"/>
   <path class="fil1" d="M73.1 260.96c5.27,3.7 8.38,9.34 9.08,15.28 -5.79,1.38 -12.13,0.35 -17.39,-3.35 -5.26,-3.7 -8.38,-9.34 -9.08,-15.28 5.8,-1.38 12.13,-0.35 17.39,3.35z"/>
   <path class="fil1" d="M104.96 291.97c-2.72,5.85 -7.69,9.91 -13.4,11.64 -2.35,-5.5 -2.45,-11.95 0.26,-17.8 2.72,-5.85 7.7,-9.92 13.4,-11.64 2.35,5.5 2.45,11.94 -0.26,17.8z"/>
   <path class="fil1" d="M79.91 290.17c5.83,2.72 9.87,7.73 11.59,13.46 -5.48,2.36 -11.89,2.47 -17.71,-0.26 -5.82,-2.73 -9.87,-7.73 -11.58,-13.47 5.47,-2.36 11.88,-2.46 17.7,0.27z"/>
   <path class="fil1" d="M116.68 315.15c-1.67,6.24 -5.87,11.11 -11.19,13.8 -3.26,-5 -4.47,-11.33 -2.81,-17.57 1.66,-6.24 5.86,-11.11 11.18,-13.8 3.27,5 4.48,11.33 2.82,17.57l0 0z"/>
   <path class="fil1" d="M91.7 317.75c6.21,1.67 11.05,5.89 13.73,11.24 -4.98,3.28 -11.27,4.5 -17.48,2.83 -6.21,-1.67 -11.05,-5.89 -13.73,-11.24 4.98,-3.28 11.28,-4.5 17.48,-2.83z"/>
   <path class="fil1" d="M132.25 335.95c-0.56,6.44 -3.85,11.97 -8.62,15.55 -4.09,-4.36 -6.37,-10.38 -5.81,-16.82 0.56,-6.43 3.85,-11.96 8.62,-15.54 4.09,4.36 6.37,10.38 5.81,16.81z"/>
   <path class="fil1" d="M108.1 342.88c6.41,0.56 11.91,3.87 15.47,8.66 -4.33,4.11 -10.33,6.41 -16.73,5.84 -6.4,-0.56 -11.9,-3.87 -15.46,-8.67 4.33,-4.1 10.32,-6.4 16.72,-5.83l0 0z"/>
   <path class="fil1" d="M151.22 353.74c0.56,6.43 -1.74,12.46 -5.82,16.82 -4.77,-3.58 -8.06,-9.11 -8.62,-15.55 -0.56,-6.43 1.73,-12.45 5.81,-16.81 4.77,3.58 8.06,9.11 8.63,15.54l0 0z"/>
   <path class="fil1" d="M128.63 364.77c6.4,-0.56 12.39,1.74 16.73,5.84 -3.56,4.8 -9.07,8.11 -15.47,8.67 -6.4,0.56 -12.39,-1.73 -16.73,-5.83 3.56,-4.8 9.07,-8.11 15.47,-8.68l0 0z"/>
   <path class="fil1" d="M172.99 367.98c1.66,6.24 0.45,12.56 -2.82,17.57 -5.32,-2.69 -9.52,-7.57 -11.18,-13.81 -1.67,-6.23 -0.45,-12.56 2.81,-17.56 5.32,2.69 9.52,7.56 11.19,13.8l0 0z"/>
   <path class="fil1" d="M152.65 382.78c6.21,-1.67 12.5,-0.45 17.48,2.83 -2.68,5.35 -7.52,9.57 -13.73,11.24 -6.21,1.67 -12.5,0.45 -17.48,-2.83 2.68,-5.35 7.52,-9.57 13.73,-11.24z"/>
   <path class="fil1" d="M196.91 378.22c2.71,5.86 2.61,12.3 0.26,17.8 -5.71,-1.72 -10.69,-5.79 -13.4,-11.64 -2.72,-5.85 -2.61,-12.3 -0.26,-17.8 5.7,1.73 10.68,5.79 13.4,11.64l0 0z"/>
   <path class="fil1" d="M179.44 396.35c5.82,-2.73 12.23,-2.63 17.7,-0.26 -1.71,5.73 -5.76,10.73 -11.58,13.46 -5.82,2.73 -12.23,2.63 -17.71,0.27 1.72,-5.74 5.76,-10.74 11.59,-13.47l0 0z"/>
   <path class="fil1" d="M218.06 75.9c-6.03,2.21 -12.41,1.54 -17.66,-1.29 2.2,-5.56 6.67,-10.19 12.71,-12.4 6.03,-2.21 12.41,-1.54 17.66,1.29 -2.21,5.56 -6.67,10.19 -12.71,12.4z"/>
   <path class="fil1" d="M273.94 445.53c-29.52,-29.36 -56.97,-40.94 -77.27,-47.86 -1.96,-0.66 -3.77,-1.28 -5.42,-1.86 -69.02,-24.28 -115.39,-88.48 -115.39,-159.77 0,-80.21 58.65,-150.18 139.47,-166.37l0.51 2.58c-79.59,15.95 -137.36,84.83 -137.36,163.79 0,70.17 45.67,133.37 113.63,157.28 1.65,0.58 3.45,1.2 5.4,1.86 20.52,6.99 57.04,18.69 86.99,48.48l-10.56 1.87z"/>
   <path class="fil1" d="M312.07 97.31c5.82,-2.74 9.87,-7.74 11.58,-13.47 -5.47,-2.36 -11.88,-2.47 -17.71,0.26 -5.82,2.73 -9.87,7.73 -11.58,13.47 5.48,2.36 11.89,2.46 17.71,-0.26l0 0z"/>
   <path class="fil1" d="M310.28 72.13c2.72,5.85 7.69,9.92 13.4,11.64 2.35,-5.5 2.45,-11.94 -0.27,-17.8 -2.71,-5.85 -7.69,-9.91 -13.39,-11.64 -2.36,5.5 -2.45,11.95 0.26,17.8z"/>
   <path class="fil1" d="M335.14 109.08c6.2,-1.67 11.05,-5.89 13.73,-11.24 -4.98,-3.28 -11.28,-4.5 -17.49,-2.83 -6.2,1.67 -11.05,5.9 -13.72,11.24 4.97,3.28 11.27,4.5 17.48,2.83z"/>
   <path class="fil1" d="M337.73 83.98c1.66,6.24 5.86,11.11 11.18,13.8 3.26,-5.01 4.47,-11.33 2.81,-17.57 -1.66,-6.24 -5.86,-11.11 -11.18,-13.8 -3.26,5 -4.48,11.33 -2.81,17.57z"/>
   <path class="fil1" d="M355.83 124.74c6.41,-0.57 11.91,-3.88 15.47,-8.68 -4.33,-4.1 -10.32,-6.4 -16.73,-5.83 -6.4,0.56 -11.9,3.87 -15.46,8.67 4.33,4.1 10.32,6.4 16.72,5.84l0 0z"/>
   <path class="fil1" d="M362.72 100.47c0.56,6.43 3.86,11.96 8.63,15.54 4.08,-4.36 6.37,-10.38 5.81,-16.81 -0.56,-6.44 -3.86,-11.97 -8.63,-15.55 -4.08,4.36 -6.37,10.38 -5.81,16.82l0 0z"/>
   <path class="fil1" d="M373.53 143.79c6.4,0.57 12.4,-1.73 16.73,-5.83 -3.56,-4.8 -9.06,-8.11 -15.46,-8.67 -6.41,-0.57 -12.4,1.73 -16.73,5.84 3.56,4.79 9.07,8.1 15.46,8.66l0 0z"/>
   <path class="fil1" d="M384.51 121.1c-0.56,6.43 1.73,12.45 5.81,16.81 4.77,-3.58 8.07,-9.11 8.63,-15.54 0.56,-6.44 -1.73,-12.46 -5.81,-16.82 -4.78,3.58 -8.07,9.11 -8.63,15.55l0 0z"/>
   <path class="fil1" d="M387.69 165.68c6.21,1.67 12.51,0.45 17.49,-2.83 -2.68,-5.35 -7.53,-9.57 -13.74,-11.24 -6.2,-1.67 -12.5,-0.45 -17.48,2.83 2.68,5.35 7.53,9.57 13.73,11.24z"/>
   <path class="fil1" d="M402.43 145.24c-1.67,6.23 -0.45,12.57 2.81,17.57 5.32,-2.69 9.52,-7.56 11.18,-13.8 1.67,-6.24 0.45,-12.57 -2.81,-17.58 -5.33,2.7 -9.52,7.57 -11.18,13.81z"/>
   <path class="fil1" d="M397.89 189.72c5.82,2.73 12.23,2.63 17.7,0.26 -1.71,-5.73 -5.75,-10.73 -11.57,-13.46 -5.83,-2.73 -12.24,-2.63 -17.71,-0.26 1.71,5.73 5.76,10.73 11.58,13.46l0 0z"/>
   <path class="fil1" d="M415.93 172.16c-2.72,5.85 -2.62,12.3 -0.27,17.8 5.71,-1.72 10.68,-5.79 13.4,-11.64 2.72,-5.86 2.62,-12.3 0.26,-17.8 -5.7,1.72 -10.68,5.79 -13.39,11.64z"/>
   <path class="fil1" d="M403.8 215.19c5.27,3.7 11.6,4.72 17.4,3.35 -0.7,-5.95 -3.82,-11.58 -9.08,-15.28 -5.26,-3.71 -11.6,-4.73 -17.39,-3.35 0.7,5.94 3.81,11.58 9.07,15.28l0 0z"/>
   <path class="fil1" d="M424.6 201.05c-3.68,5.28 -4.7,11.65 -3.33,17.48 5.92,-0.7 11.52,-3.84 15.2,-9.13 3.69,-5.29 4.7,-11.65 3.34,-17.48 -5.92,0.7 -11.52,3.84 -15.21,9.13z"/>
   <path class="fil1" d="M405.27 241.31c4.54,4.57 10.6,6.68 16.55,6.34 0.33,-5.98 -1.76,-12.07 -6.31,-16.63 -4.54,-4.57 -10.6,-6.68 -16.55,-6.34 -0.34,5.98 1.76,12.07 6.31,16.63z"/>
   <path class="fil1" d="M428.19 231.02c-4.55,4.56 -6.64,10.65 -6.31,16.63 5.95,0.34 12.01,-1.77 16.55,-6.34 4.55,-4.56 6.65,-10.65 6.31,-16.63 -5.95,-0.34 -12.01,1.77 -16.55,6.34z"/>
   <path class="fil1" d="M402.2 267.1c3.69,5.29 9.29,8.42 15.21,9.13 1.37,-5.83 0.35,-12.2 -3.33,-17.48 -3.69,-5.29 -9.29,-8.43 -15.21,-9.13 -1.36,5.83 -0.35,12.19 3.33,17.48z"/>
   <path class="fil1" d="M426.56 260.96c-5.26,3.7 -8.38,9.34 -9.08,15.28 5.8,1.38 12.13,0.35 17.39,-3.35 5.27,-3.7 8.38,-9.34 9.08,-15.28 -5.8,-1.38 -12.13,-0.35 -17.39,3.35z"/>
   <path class="fil1" d="M394.7 291.97c2.72,5.85 7.7,9.91 13.4,11.64 2.35,-5.5 2.45,-11.95 -0.26,-17.8 -2.72,-5.85 -7.69,-9.92 -13.4,-11.64 -2.35,5.5 -2.45,11.94 0.26,17.8z"/>
   <path class="fil1" d="M419.75 290.17c-5.82,2.72 -9.87,7.73 -11.58,13.46 5.47,2.36 11.88,2.47 17.7,-0.26 5.82,-2.73 9.87,-7.73 11.59,-13.47 -5.48,-2.36 -11.88,-2.46 -17.71,0.27z"/>
   <path class="fil1" d="M382.98 315.15c1.67,6.24 5.87,11.11 11.19,13.8 3.26,-5 4.48,-11.33 2.81,-17.57 -1.66,-6.24 -5.86,-11.11 -11.18,-13.8 -3.26,5 -4.48,11.33 -2.82,17.57l0 0z"/>
   <path class="fil1" d="M407.96 317.75c-6.2,1.67 -11.05,5.89 -13.73,11.24 4.98,3.28 11.28,4.5 17.48,2.83 6.21,-1.67 11.06,-5.89 13.74,-11.24 -4.98,-3.28 -11.28,-4.5 -17.49,-2.83z"/>
   <path class="fil1" d="M367.41 335.95c0.56,6.44 3.86,11.97 8.63,15.55 4.08,-4.36 6.37,-10.38 5.81,-16.82 -0.56,-6.43 -3.86,-11.96 -8.63,-15.54 -4.08,4.36 -6.37,10.38 -5.81,16.81z"/>
   <path class="fil1" d="M391.56 342.88c-6.4,0.56 -11.91,3.87 -15.47,8.66 4.34,4.11 10.33,6.41 16.73,5.84 6.4,-0.56 11.9,-3.87 15.46,-8.67 -4.33,-4.1 -10.32,-6.4 -16.72,-5.83l0 0z"/>
   <path class="fil1" d="M348.45 353.74c-0.56,6.43 1.73,12.46 5.81,16.82 4.77,-3.58 8.07,-9.11 8.63,-15.55 0.56,-6.43 -1.73,-12.45 -5.81,-16.81 -4.78,3.58 -8.07,9.11 -8.63,15.54l0 0z"/>
   <path class="fil1" d="M371.03 364.77c-6.4,-0.56 -12.39,1.74 -16.72,5.84 3.56,4.8 9.06,8.11 15.46,8.67 6.4,0.56 12.39,-1.73 16.73,-5.83 -3.56,-4.8 -9.07,-8.11 -15.47,-8.68l0 0z"/>
   <path class="fil1" d="M326.68 367.98c-1.66,6.24 -0.45,12.56 2.81,17.57 5.32,-2.69 9.52,-7.57 11.19,-13.81 1.66,-6.23 0.45,-12.56 -2.82,-17.56 -5.32,2.69 -9.52,7.56 -11.18,13.8l0 0z"/>
   <path class="fil1" d="M347.01 382.78c-6.2,-1.67 -12.5,-0.45 -17.48,2.83 2.68,5.35 7.53,9.57 13.73,11.24 6.21,1.67 12.51,0.45 17.49,-2.83 -2.68,-5.35 -7.53,-9.57 -13.74,-11.24z"/>
   <path class="fil1" d="M302.76 378.22c-2.72,5.86 -2.62,12.3 -0.26,17.8 5.7,-1.72 10.68,-5.79 13.39,-11.64 2.72,-5.85 2.62,-12.3 0.26,-17.8 -5.7,1.73 -10.68,5.79 -13.39,11.64l0 0z"/>
   <path class="fil1" d="M320.23 396.35c-5.83,-2.73 -12.24,-2.63 -17.71,-0.26 1.72,5.73 5.76,10.73 11.58,13.46 5.83,2.73 12.24,2.63 17.71,0.27 -1.72,-5.74 -5.76,-10.74 -11.58,-13.47z"/>
   <path class="fil1" d="M281.6 75.9c6.04,2.21 12.42,1.54 17.66,-1.29 -2.2,-5.56 -6.66,-10.19 -12.7,-12.4 -6.04,-2.21 -12.42,-1.54 -17.67,1.29 2.21,5.56 6.67,10.19 12.71,12.4l0 0z"/>
   <path class="fil1" d="M225.72 445.53l-10.56 -1.87c29.95,-29.79 66.47,-41.49 86.99,-48.48 1.94,-0.66 3.75,-1.28 5.4,-1.86 67.96,-23.91 113.63,-87.11 113.63,-157.28 0,-78.96 -57.76,-147.84 -137.36,-163.79l0.51 -2.58c80.82,16.19 139.47,86.16 139.47,166.37 0,71.29 -46.37,135.49 -115.38,159.77 -1.66,0.58 -3.47,1.2 -5.43,1.86 -20.3,6.92 -47.75,18.5 -77.27,47.86z"/>
  </g>
 </g>
 <g id="Layer_x0020_1_0">
  <metadata id="CorelCorpID_1Corel-Layer"/>
 </g>
</svg>
