<?xml version="1.0" encoding="UTF-8"?>
<!DOCTYPE svg PUBLIC "-//W3C//DTD SVG 1.1//EN" "http://www.w3.org/Graphics/SVG/1.1/DTD/svg11.dtd">
<!-- Creator: CorelDRAW 2019 (64-Bit) -->
<svg xmlns="http://www.w3.org/2000/svg" xml:space="preserve" width="2480px" height="3508px" version="1.1" style="shape-rendering:geometricPrecision; text-rendering:geometricPrecision; image-rendering:optimizeQuality; fill-rule:evenodd; clip-rule:evenodd"
viewBox="0 0 2480 3507.43"
 xmlns:xlink="http://www.w3.org/1999/xlink"
 xmlns:xodm="http://www.corel.com/coreldraw/odm/2003">
 <defs>
  <style type="text/css">
   <![CDATA[
    .str0 {stroke:#2B2A29;stroke-width:2.36;stroke-miterlimit:22.9256}
    .fil1 {fill:none}
    .fil0 {fill:#E95821}
    .fil2 {fill:white;fill-rule:nonzero}
   ]]>
  </style>
 </defs>
 <g id="Layer_x0020_1">
  <metadata id="CorelCorpID_0Corel-Layer"/>
  <rect class="fil0 str0" x="1.96" y="-7.47" width="2478.6" height="3502.46"/>
  <rect class="fil1" x="809.65" y="63.7" width="499.94" height="499.94"/>
  <path class="fil2" d="M815.33 307.58c2.49,-0.84 3.96,-2.43 3.96,-5.17 0,-3.39 -2.17,-5.46 -6.02,-5.99 -1.19,-0.14 -1.97,-0.14 -3.16,-0.14l-7.81 0 0 24.3 8.23 0c1.23,0 2.03,0 3.23,-0.18 3.19,-0.46 6.41,-2.58 6.41,-7.01 0,-3.24 -1.68,-5.04 -4.84,-5.81l0 0zm-9.17 -8.24l3.95 0c0.56,0 1.26,0.04 1.83,0.11 1.92,0.21 3.29,1.23 3.29,3.38 0,1.97 -0.91,3.2 -3.05,3.55 -0.63,0.11 -1.22,0.14 -1.82,0.14l-4.21 0 0 -7.18 0.01 0zm6.4 18.1c-0.45,0.04 -1.08,0.04 -1.64,0.04l-4.76 0 0 -7.96 4.55 0c0.56,0 1.12,0 1.82,0.1 2.07,0.25 3.58,1.31 3.58,3.95 0,2.36 -1.54,3.69 -3.55,3.87l0 0zm27.29 -6.69c0,-5.28 -2.9,-9.37 -8.3,-9.37 -5.36,0 -9.11,3.98 -9.11,9.9 0,6.62 3.75,9.79 8.72,9.79 4.07,0 7.61,-2.12 8.42,-6.55l-3.89 0c-0.39,2.36 -2.14,3.73 -4.38,3.73 -2.52,0 -4.56,-1.48 -4.87,-5.95l13.35 0c0.07,-0.67 0.07,-1.2 0.07,-1.55l-0.01 0zm-8.44 -6.55c2.7,0 4.21,1.94 4.49,5.39l-9.43 0c0.42,-3.59 2.31,-5.39 4.94,-5.39zm18.11 -2.82c-4.13,0 -6.86,2.12 -6.86,5.6 0,3.28 2.52,4.72 5.91,5.6 3.16,0.85 4.42,1.72 4.42,3.35 0,1.62 -1.43,2.39 -3.22,2.39 -1.93,0 -3.51,-0.95 -3.96,-3.34l-3.89 0c0.53,4.22 3.57,6.09 7.71,6.09 4.06,0 7.25,-1.8 7.25,-5.43 0,-3.3 -2.14,-4.93 -6.2,-5.98 -2.77,-0.74 -4.14,-1.44 -4.14,-3.14 0,-1.4 0.88,-2.42 2.7,-2.42 1.89,0 3.05,1.16 3.44,3.13l3.92 0c-0.42,-3.41 -2.8,-5.85 -7.08,-5.85l0 0 0 0zm15.28 3.35l3.64 0 0 -2.72 -3.64 0 0 -4.47 -3.82 0 0 4.47 -2.63 0 0 2.72 2.63 0 0 10.14c0,1.05 0,1.86 0.03,2.5 0.18,2.46 1.44,3.55 4.35,3.55 0.95,0 1.86,-0.07 2.83,-0.21l0 -2.67c-2.52,0.24 -3.22,-0.14 -3.36,-1.97 -0.03,-0.5 -0.03,-0.92 -0.03,-1.55l0 -9.79zm-72.67 76.19c-1.13,-0.14 -2,-0.14 -3.3,-0.14l-7.92 0 0 24.3 3.86 0 0 -9.58 4.06 0c1.3,0 2.17,0 3.3,-0.14 3.5,-0.46 6.37,-2.92 6.37,-7.22 0,-4.29 -2.59,-6.72 -6.37,-7.22zm-0.74 11.31c-0.63,0.1 -1.47,0.14 -2.45,0.14l-4.17 0 0 -8.45 4.17 0c0.98,0 1.82,0.03 2.45,0.14 1.68,0.32 3.05,1.51 3.05,4.08 0,2.57 -1.37,3.77 -3.05,4.09zm18.28 -6.3c-0.94,0 -2.03,0.38 -2.87,1.05l-1.58 2.57 0 -3.17 -3.85 0 0 18.7 3.85 0 0 -9.72c0,-4.61 2.21,-6.44 5.75,-6.2l0 -3.02c-0.38,-0.14 -0.77,-0.21 -1.3,-0.21l0 0zm11.78 -0.04c-6.27,0 -9.43,4.37 -9.43,9.82 0,5.46 3.16,9.86 9.43,9.86 6.23,0 9.42,-4.4 9.42,-9.86 0,-5.45 -3.19,-9.82 -9.42,-9.82zm0 16.87c-3.4,0 -5.36,-2.82 -5.36,-7.05 0,-4.22 1.96,-7 5.36,-7 3.36,0 5.32,2.78 5.32,7 0,4.23 -1.96,7.05 -5.32,7.05zm14.61 -22.89c-1.4,0 -2.28,0.88 -2.28,2.22 0,1.37 0.87,2.25 2.28,2.25 1.36,0 2.24,-0.88 2.24,-2.25 0,-1.34 -0.88,-2.22 -2.24,-2.22zm1.88 6.51l-3.81 0 0 19.9c0,0.53 0,1.09 -0.07,1.58 -0.14,1.27 -0.98,1.8 -2.98,1.62l0 2.92c0.49,0.07 0.98,0.07 1.61,0.07 3.51,0 4.94,-1.47 5.19,-4.05 0.03,-0.63 0.06,-1.55 0.06,-2.25l0 -19.79zm20.92 8.87c0,-5.28 -2.91,-9.36 -8.3,-9.36 -5.36,0 -9.11,3.98 -9.11,9.89 0,6.62 3.75,9.79 8.72,9.79 4.07,0 7.6,-2.11 8.41,-6.55l-3.89 0c-0.38,2.36 -2.13,3.73 -4.38,3.73 -2.52,0 -4.55,-1.48 -4.87,-5.95l13.35 0c0.07,-0.67 0.07,-1.2 0.07,-1.55l0 0zm-8.44 -6.54c2.7,0 4.2,1.93 4.48,5.38l-9.42 0c0.42,-3.59 2.31,-5.38 4.94,-5.38zm19.72 -2.82c-4.87,0 -9,3.56 -9,9.93 0,6.65 3.67,9.75 8.55,9.75 4.38,0 7.6,-2.22 8.47,-6.69l-3.92 0c-0.56,2.54 -2.14,3.88 -4.34,3.88 -2.6,0 -4.7,-2.15 -4.7,-7.22 0,-4.69 2.14,-6.83 4.83,-6.83 2.28,0 3.79,1.3 4.35,4.15l3.89 0c-0.46,-4.12 -3.44,-6.97 -8.13,-6.97l0 0zm16.04 3.34l3.65 0 0 -2.71 -3.65 0 0 -4.47 -3.81 0 0 4.47 -2.63 0 0 2.71 2.63 0 0 10.14c0,1.06 0,1.87 0.03,2.5 0.18,2.47 1.44,3.56 4.35,3.56 0.94,0 1.85,-0.07 2.83,-0.21l0 -2.68c-2.52,0.25 -3.22,-0.14 -3.36,-1.97 -0.04,-0.49 -0.04,-0.91 -0.04,-1.55l0 -9.79 0 0zm-136.34 -51.19c-6.8,0 -11.56,5.1 -11.56,12.74 0,7.4 4.24,12.54 11.14,12.54 6.3,0 9.84,-3.63 10.33,-8.38l0.04 -0.35 -3.82 0 -0.07 0.35c-0.67,3.27 -2.66,5.42 -6.31,5.42 -4.27,0 -7.14,-3.73 -7.14,-9.75 0,-5.74 2.84,-9.61 7.32,-9.61 3.64,0 5.64,2.07 6.31,5.35l0.07 0.35 3.82 0 -0.04 -0.35c-0.49,-4.79 -3.78,-8.31 -10.09,-8.31l0 0zm21.96 5.59c-6.27,0 -9.42,4.37 -9.42,9.83 0,5.46 3.15,9.86 9.42,9.86 6.24,0 9.43,-4.4 9.43,-9.86 0,-5.46 -3.19,-9.83 -9.43,-9.83zm0 16.87c-3.39,0 -5.36,-2.81 -5.36,-7.04 0,-4.22 1.97,-7.01 5.36,-7.01 3.37,0 5.33,2.79 5.33,7.01 0,4.23 -1.96,7.04 -5.33,7.04zm38.89 -12.29c-0.42,-2.57 -2.38,-4.58 -5.82,-4.58 -1.64,0 -2.94,0.32 -3.95,1.1l-1.72 2.46c-0.7,-2.07 -2.56,-3.56 -5.5,-3.56 -1.68,0 -2.98,0.32 -3.96,1.1l-1.26 2.18 0 -2.78 -3.85 0 0 18.7 3.85 0 0 -9.41c0,-5.06 1.47,-6.93 3.75,-6.93 2,0 3.19,1.05 3.47,3.06 0.1,0.95 0.14,1.98 0.14,3.38l0 9.9 3.82 0 0 -9.41c0,-5.06 1.5,-6.93 3.74,-6.93 2,0 3.23,1.05 3.47,3.06 0.11,0.95 0.14,1.98 0.14,3.38l0 9.9 3.85 0 0 -11.31c0,-1.51 -0.03,-2.35 -0.17,-3.31l0 0zm30.93 0c-0.42,-2.57 -2.38,-4.58 -5.81,-4.58 -1.65,0 -2.94,0.32 -3.96,1.1l-1.72 2.46c-0.7,-2.07 -2.56,-3.56 -5.5,-3.56 -1.68,0 -2.97,0.32 -3.95,1.1l-1.27 2.18 0 -2.78 -3.85 0 0 18.7 3.85 0 0 -9.41c0,-5.06 1.47,-6.93 3.75,-6.93 2,0 3.19,1.05 3.47,3.06 0.1,0.95 0.14,1.98 0.14,3.38l0 9.9 3.82 0 0 -9.41c0,-5.06 1.51,-6.93 3.75,-6.93 1.99,0 3.22,1.05 3.46,3.06 0.11,0.95 0.14,1.98 0.14,3.38l0 9.9 3.86 0 0 -11.31c0,-1.51 -0.04,-2.35 -0.18,-3.31l0 0zm20.88 4.79c0,-5.28 -2.9,-9.37 -8.3,-9.37 -5.36,0 -9.11,3.99 -9.11,9.9 0,6.62 3.75,9.79 8.72,9.79 4.07,0 7.6,-2.11 8.41,-6.55l-3.89 0c-0.38,2.36 -2.13,3.73 -4.38,3.73 -2.52,0 -4.55,-1.48 -4.86,-5.95l13.34 0c0.07,-0.67 0.07,-1.19 0.07,-1.55l0 0zm-8.44 -6.55c2.69,0 4.2,1.94 4.48,5.39l-9.42 0c0.42,-3.59 2.31,-5.39 4.94,-5.39zm20.42 -2.78c-0.94,0 -2.03,0.39 -2.87,1.06l-1.58 2.57 0 -3.17 -3.85 0 0 18.7 3.85 0 0 -9.72c0,-4.61 2.21,-6.45 5.75,-6.2l0 -3.03c-0.39,-0.14 -0.77,-0.21 -1.3,-0.21zm11.35 -0.04c-4.87,0 -9,3.56 -9,9.94 0,6.65 3.68,9.75 8.55,9.75 4.38,0 7.6,-2.22 8.47,-6.69l-3.92 0c-0.56,2.53 -2.14,3.87 -4.34,3.87 -2.6,0 -4.7,-2.14 -4.7,-7.22 0,-4.68 2.14,-6.83 4.84,-6.83 2.27,0 3.78,1.31 4.34,4.16l3.89 0c-0.46,-4.12 -3.43,-6.98 -8.13,-6.98l0 0zm13.38 -6.01c-1.29,0 -2.24,0.94 -2.24,2.21 0,1.31 0.95,2.26 2.24,2.26 1.3,0 2.28,-0.95 2.28,-2.26 0,-1.27 -0.98,-2.21 -2.28,-2.21zm1.93 25.21l0 -18.7 -3.85 0 0 18.7 3.85 0zm15.66 0l3.82 0c-0.28,-2.08 -0.35,-3.35 -0.35,-4.76l0 -6.58c0,-0.88 -0.04,-1.87 -0.1,-2.64 -0.32,-3.17 -2.21,-5.21 -7.01,-5.21 -4.24,0 -7.29,2.32 -7.53,6.4l3.85 0c0.21,-2.32 1.36,-3.59 3.61,-3.59 2.2,0 3.15,1.06 3.26,2.58 0.07,0.7 0.07,1.33 0.07,2.04l0 0.46 -1.19 0c-7.05,0 -10.34,2.25 -10.34,6.4 0,3.49 2.7,5.39 5.99,5.39 1.75,0 3.36,-0.32 4.62,-1.2l0.95 -2 0.35 2.71 0 0zm-4.52 -2.33c-2.03,0 -3.33,-0.91 -3.33,-2.89 0,-2.85 2.94,-3.87 7.47,-3.51l0 1.72c0,3.03 -1.72,4.69 -4.14,4.69l0 -0.01zm16.61 -23.55l-3.86 0 0 20.28c0,1.12 0,1.97 0.04,2.67 0.14,2.4 1.5,3.14 3.54,3.14 0.87,0 1.75,-0.07 2.52,-0.18l0 -2.71c-1.65,0.14 -2.14,-0.21 -2.21,-1.27 -0.03,-0.56 -0.03,-1.13 -0.03,-1.76l0 -20.17 0 0z"/>
  <path class="fil2" d="M801 246.06l5.33 -5.28c4.24,-4.16 5.92,-6.41 5.92,-9.62 0,-3.83 -2.59,-6.83 -7.71,-6.83 -5.11,0 -8.23,2.79 -8.72,7.93l-0.04 0.35 3.86 0 0.03 -0.35c0.32,-3.21 1.69,-4.97 4.45,-4.97 2.63,0 3.96,1.87 3.96,4.23 0,2.32 -1.33,4.08 -4.38,7.11l-8.44 8.55 0 1.98 16.85 0 0 -3.1 -11.11 0 0 0zm23.72 -21.69c-6.73,0 -9.04,5.28 -9.04,12.64 0,7.29 2.31,12.64 9.04,12.64 6.76,0 9.04,-5.35 9.04,-12.64 0,-7.36 -2.28,-12.64 -9.04,-12.64zm0 22.32c-3.43,0 -4.87,-3.45 -4.87,-9.68 0,-6.31 1.44,-9.68 4.87,-9.68 3.47,0 4.87,3.38 4.87,9.68 0,6.23 -1.4,9.68 -4.87,9.68zm25.68 -21.83l-2.14 0c-1.08,0 -2.1,0.25 -3.22,0.91l-5.33 3.28 0 3.8 6.83 -3.94 0 20.25 3.86 0 0 -24.3 0 0zm25.47 0l-17.73 0 0 3.06 13.14 0 -11.39 21.24 4.14 0 11.84 -22.36 0 -1.94z"/>
  <g id="_1128814561072">
   <path class="fil2" d="M767.11 192.15c-5.82,-2.73 -9.87,-7.73 -11.59,-13.46 5.48,-2.37 11.89,-2.47 17.71,0.26 5.82,2.73 9.87,7.73 11.58,13.46 -5.47,2.37 -11.88,2.47 -17.7,-0.26l0 0z"/>
   <path class="fil2" d="M768.9 166.98c-2.72,5.85 -7.69,9.92 -13.4,11.64 -2.35,-5.5 -2.45,-11.94 0.26,-17.8 2.72,-5.85 7.69,-9.91 13.4,-11.64 2.35,5.5 2.45,11.95 -0.26,17.8z"/>
   <path class="fil2" d="M744.04 203.93c-6.2,-1.68 -11.05,-5.89 -13.73,-11.24 4.98,-3.28 11.27,-4.51 17.48,-2.83 6.21,1.67 11.05,5.89 13.73,11.24 -4.98,3.28 -11.27,4.5 -17.48,2.83z"/>
   <path class="fil2" d="M741.45 178.82c-1.66,6.24 -5.86,11.11 -11.18,13.81 -3.27,-5.01 -4.48,-11.34 -2.81,-17.57 1.66,-6.24 5.86,-11.11 11.18,-13.81 3.26,5.01 4.48,11.34 2.81,17.57z"/>
   <path class="fil2" d="M723.35 219.58c-6.4,-0.56 -11.9,-3.87 -15.47,-8.67 4.34,-4.11 10.33,-6.4 16.73,-5.84 6.4,0.56 11.9,3.87 15.46,8.67 -4.33,4.1 -10.32,6.4 -16.72,5.84l0 0z"/>
   <path class="fil2" d="M716.46 195.31c-0.56,6.43 -3.85,11.96 -8.62,15.54 -4.08,-4.35 -6.37,-10.38 -5.81,-16.81 0.56,-6.43 3.85,-11.96 8.62,-15.54 4.08,4.36 6.37,10.38 5.81,16.81l0 0z"/>
   <path class="fil2" d="M705.65 238.63c-6.4,0.56 -12.39,-1.73 -16.73,-5.83 3.57,-4.8 9.07,-8.11 15.47,-8.67 6.4,-0.57 12.39,1.73 16.72,5.84 -3.56,4.79 -9.06,8.1 -15.46,8.66l0 0z"/>
   <path class="fil2" d="M694.68 215.94c0.56,6.43 -1.73,12.45 -5.81,16.81 -4.77,-3.58 -8.07,-9.11 -8.63,-15.54 -0.56,-6.44 1.73,-12.46 5.81,-16.82 4.78,3.59 8.07,9.12 8.63,15.55l0 0z"/>
   <path class="fil2" d="M691.49 260.51c-6.21,1.68 -12.5,0.46 -17.48,-2.83 2.68,-5.34 7.52,-9.56 13.73,-11.23 6.21,-1.68 12.5,-0.46 17.48,2.83 -2.68,5.34 -7.52,9.56 -13.73,11.23z"/>
   <path class="fil2" d="M676.76 240.08c1.67,6.23 0.45,12.56 -2.81,17.57 -5.32,-2.7 -9.52,-7.57 -11.18,-13.8 -1.67,-6.24 -0.45,-12.57 2.82,-17.58 5.31,2.7 9.51,7.57 11.17,13.81z"/>
   <path class="fil2" d="M681.3 284.55c-5.82,2.73 -12.24,2.63 -17.71,0.26 1.72,-5.72 5.76,-10.73 11.59,-13.46 5.82,-2.72 12.23,-2.63 17.7,-0.26 -1.72,5.73 -5.76,10.73 -11.58,13.46l0 0z"/>
   <path class="fil2" d="M663.26 267c2.72,5.85 2.62,12.29 0.27,17.79 -5.71,-1.72 -10.68,-5.79 -13.4,-11.64 -2.71,-5.85 -2.61,-12.3 -0.26,-17.79 5.7,1.72 10.68,5.79 13.39,11.64z"/>
   <path class="fil2" d="M675.38 310.02c-5.26,3.7 -11.59,4.72 -17.39,3.35 0.7,-5.95 3.82,-11.58 9.08,-15.28 5.26,-3.7 11.6,-4.72 17.39,-3.35 -0.7,5.94 -3.82,11.58 -9.08,15.28l0 0z"/>
   <path class="fil2" d="M654.59 295.88c3.68,5.29 4.7,11.65 3.33,17.48 -5.92,-0.71 -11.52,-3.84 -15.2,-9.13 -3.69,-5.29 -4.7,-11.65 -3.33,-17.48 5.91,0.7 11.51,3.84 15.2,9.13z"/>
   <path class="fil2" d="M673.92 336.14c-4.54,4.56 -10.6,6.67 -16.55,6.33 -0.33,-5.97 1.76,-12.06 6.31,-16.63 4.54,-4.56 10.6,-6.67 16.55,-6.33 0.33,5.97 -1.76,12.06 -6.31,16.63z"/>
   <path class="fil2" d="M651 325.84c4.54,4.57 6.64,10.66 6.31,16.63 -5.95,0.34 -12.01,-1.77 -16.55,-6.33 -4.19,-4.21 -6.3,-9.71 -6.34,-15.23l0 -0.33c0,-0.36 0.01,-0.72 0.03,-1.07 5.95,-0.34 12.01,1.77 16.55,6.33l0 0z"/>
   <path class="fil2" d="M676.98 361.92c-3.68,5.29 -9.28,8.43 -15.2,9.13 -1.37,-5.83 -0.35,-12.19 3.33,-17.48 3.69,-5.29 9.29,-8.42 15.2,-9.13 1.37,5.83 0.36,12.2 -3.33,17.48z"/>
   <path class="fil2" d="M652.63 355.78c5.26,3.71 8.38,9.34 9.08,15.28 -5.79,1.38 -12.13,0.36 -17.39,-3.35 -5.26,-3.7 -8.38,-9.33 -9.08,-15.28 5.8,-1.37 12.13,-0.35 17.39,3.35z"/>
   <path class="fil2" d="M684.48 386.79c-2.71,5.84 -7.69,9.91 -13.39,11.63 -2.35,-5.49 -2.45,-11.94 0.26,-17.79 2.72,-5.85 7.69,-9.92 13.4,-11.64 2.35,5.5 2.45,11.94 -0.27,17.8z"/>
   <path class="fil2" d="M659.44 384.99c5.82,2.72 9.87,7.73 11.58,13.46 -5.47,2.36 -11.88,2.47 -17.7,-0.26 -5.83,-2.73 -9.87,-7.73 -11.58,-13.47 5.47,-2.36 11.88,-2.46 17.7,0.27z"/>
   <path class="fil2" d="M696.2 409.97c-1.66,6.24 -5.86,11.1 -11.18,13.8 -3.27,-5.01 -4.48,-11.33 -2.82,-17.57 1.67,-6.24 5.87,-11.11 11.18,-13.8 3.27,5 4.48,11.33 2.82,17.57l0 0z"/>
   <path class="fil2" d="M671.23 412.57c6.2,1.67 11.05,5.89 13.73,11.23 -4.98,3.29 -11.28,4.5 -17.48,2.84 -6.21,-1.68 -11.05,-5.9 -13.73,-11.24 4.97,-3.29 11.27,-4.5 17.48,-2.83z"/>
   <path class="fil2" d="M711.77 430.77c-0.56,6.43 -3.85,11.96 -8.62,15.54 -4.08,-4.36 -6.37,-10.38 -5.81,-16.81 0.56,-6.43 3.85,-11.96 8.62,-15.54 4.09,4.36 6.37,10.38 5.81,16.81z"/>
   <path class="fil2" d="M687.63 437.69c6.4,0.56 11.9,3.87 15.46,8.67 -4.33,4.1 -10.32,6.4 -16.72,5.84 -6.4,-0.57 -11.91,-3.88 -15.47,-8.67 4.34,-4.1 10.33,-6.4 16.73,-5.84l0 0z"/>
   <path class="fil2" d="M730.73 448.56c0.56,6.43 -1.73,12.45 -5.81,16.81 -4.77,-3.58 -8.06,-9.11 -8.62,-15.55 -0.56,-6.43 1.73,-12.45 5.81,-16.81 4.77,3.58 8.06,9.12 8.62,15.55l0 0z"/>
   <path class="fil2" d="M708.15 459.58c6.4,-0.56 12.39,1.74 16.73,5.84 -3.56,4.8 -9.07,8.11 -15.47,8.67 -6.4,0.56 -12.38,-1.73 -16.72,-5.84 3.56,-4.79 9.06,-8.1 15.46,-8.67l0 0z"/>
   <path class="fil2" d="M752.5 462.79c1.67,6.23 0.45,12.56 -2.82,17.57 -5.31,-2.7 -9.51,-7.57 -11.18,-13.81 -1.66,-6.23 -0.45,-12.56 2.82,-17.56 5.32,2.69 9.52,7.56 11.18,13.8l0 0z"/>
   <path class="fil2" d="M732.17 477.59c6.2,-1.68 12.5,-0.45 17.48,2.83 -2.68,5.35 -7.53,9.56 -13.73,11.24 -6.21,1.67 -12.5,0.45 -17.48,-2.84 2.68,-5.34 7.52,-9.56 13.73,-11.23z"/>
   <path class="fil2" d="M776.42 473.03c2.71,5.85 2.61,12.3 0.26,17.8 -5.7,-1.73 -10.68,-5.79 -13.39,-11.64 -2.72,-5.86 -2.62,-12.3 -0.27,-17.8 5.71,1.73 10.68,5.79 13.4,11.64l0 0z"/>
   <path class="fil2" d="M758.95 491.16c5.82,-2.73 12.23,-2.63 17.7,-0.27 -1.71,5.73 -5.75,10.74 -11.58,13.47 -5.82,2.73 -12.23,2.63 -17.7,0.26 1.72,-5.73 5.76,-10.73 11.58,-13.46l0 0z"/>
   <path class="fil2" d="M797.57 170.74c-6.03,2.22 -12.41,1.55 -17.66,-1.28 2.21,-5.56 6.67,-10.19 12.71,-12.4 6.03,-2.21 12.41,-1.55 17.66,1.29 -2.21,5.56 -6.67,10.19 -12.71,12.39z"/>
   <path class="fil2" d="M853.45 540.33c-29.53,-29.35 -56.97,-40.93 -77.27,-47.85 -1.95,-0.67 -3.77,-1.28 -5.42,-1.86 -69.01,-24.28 -115.37,-88.48 -115.37,-159.75 0,-80.2 58.64,-150.17 139.45,-166.35l0.51 2.58c-79.58,15.95 -137.34,84.82 -137.34,163.77 0,70.15 45.66,133.35 113.61,157.26 1.65,0.58 3.46,1.19 5.4,1.85 20.52,6.99 57.03,18.69 86.98,48.48l-10.55 1.87z"/>
   <path class="fil2" d="M891.57 192.15c5.82,-2.73 9.87,-7.73 11.58,-13.46 -5.48,-2.37 -11.89,-2.47 -17.71,0.26 -5.82,2.73 -9.87,7.73 -11.58,13.46 5.47,2.37 11.89,2.47 17.71,-0.26l0 0z"/>
   <path class="fil2" d="M889.78 166.98c2.71,5.85 7.69,9.92 13.39,11.64 2.35,-5.5 2.46,-11.94 -0.26,-17.8 -2.72,-5.85 -7.69,-9.91 -13.4,-11.64 -2.35,5.5 -2.45,11.95 0.27,17.8z"/>
   <path class="fil2" d="M914.63 203.93c6.2,-1.68 11.05,-5.89 13.73,-11.24 -4.98,-3.28 -11.27,-4.51 -17.48,-2.83 -6.21,1.67 -11.05,5.89 -13.73,11.24 4.98,3.28 11.28,4.5 17.48,2.83z"/>
   <path class="fil2" d="M917.22 178.82c1.66,6.24 5.86,11.11 11.18,13.81 3.27,-5.01 4.48,-11.34 2.82,-17.57 -1.67,-6.24 -5.86,-11.11 -11.18,-13.81 -3.27,5.01 -4.49,11.34 -2.82,17.57z"/>
   <path class="fil2" d="M935.33 219.58c6.4,-0.56 11.9,-3.87 15.46,-8.67 -4.33,-4.11 -10.32,-6.4 -16.73,-5.84 -6.4,0.56 -11.9,3.87 -15.46,8.67 4.34,4.1 10.33,6.4 16.73,5.84l0 0z"/>
   <path class="fil2" d="M942.21 195.31c0.56,6.43 3.86,11.96 8.63,15.54 4.08,-4.35 6.36,-10.38 5.81,-16.81 -0.56,-6.43 -3.86,-11.96 -8.63,-15.54 -4.08,4.36 -6.37,10.38 -5.81,16.81l0 0z"/>
   <path class="fil2" d="M953.02 238.63c6.4,0.56 12.39,-1.73 16.73,-5.83 -3.56,-4.8 -9.07,-8.11 -15.46,-8.67 -6.41,-0.57 -12.4,1.73 -16.73,5.84 3.56,4.79 9.07,8.1 15.46,8.66l0 0z"/>
   <path class="fil2" d="M964 215.94c-0.56,6.43 1.72,12.45 5.81,16.81 4.77,-3.58 8.06,-9.11 8.62,-15.54 0.56,-6.44 -1.73,-12.46 -5.81,-16.82 -4.77,3.59 -8.07,9.12 -8.62,15.55l0 0z"/>
   <path class="fil2" d="M967.18 260.51c6.21,1.68 12.5,0.46 17.48,-2.83 -2.67,-5.34 -7.52,-9.56 -13.73,-11.23 -6.2,-1.68 -12.5,-0.46 -17.48,2.83 2.68,5.34 7.53,9.56 13.73,11.23z"/>
   <path class="fil2" d="M981.91 240.08c-1.66,6.23 -0.45,12.56 2.82,17.57 5.31,-2.7 9.51,-7.57 11.18,-13.8 1.66,-6.24 0.45,-12.57 -2.82,-17.58 -5.32,2.7 -9.52,7.57 -11.18,13.81z"/>
   <path class="fil2" d="M977.38 284.55c5.82,2.73 12.23,2.63 17.7,0.26 -1.71,-5.72 -5.76,-10.73 -11.58,-13.46 -5.82,-2.72 -12.23,-2.63 -17.71,-0.26 1.72,5.73 5.76,10.73 11.59,13.46l0 0z"/>
   <path class="fil2" d="M995.41 267c-2.72,5.85 -2.61,12.29 -0.26,17.79 5.7,-1.72 10.68,-5.79 13.39,-11.64 2.72,-5.85 2.62,-12.3 0.26,-17.79 -5.7,1.72 -10.67,5.79 -13.39,11.64z"/>
   <path class="fil2" d="M983.29 310.02c5.26,3.7 11.6,4.72 17.39,3.35 -0.7,-5.95 -3.81,-11.58 -9.08,-15.28 -5.26,-3.7 -11.59,-4.72 -17.39,-3.35 0.7,5.94 3.82,11.58 9.08,15.28l0 0z"/>
   <path class="fil2" d="M1004.08 295.88c-3.68,5.29 -4.69,11.65 -3.33,17.48 5.92,-0.71 11.52,-3.84 15.2,-9.13 3.69,-5.29 4.7,-11.65 3.34,-17.48 -5.92,0.7 -11.52,3.84 -15.21,9.13z"/>
   <path class="fil2" d="M984.75 336.14c4.54,4.56 10.6,6.67 16.55,6.33 0.34,-5.97 -1.76,-12.06 -6.3,-16.63 -4.55,-4.56 -10.61,-6.67 -16.55,-6.33 -0.34,5.97 1.76,12.06 6.3,16.63z"/>
   <path class="fil2" d="M1007.67 325.84c-4.54,4.57 -6.64,10.66 -6.3,16.63 5.94,0.34 12,-1.77 16.54,-6.33 4.55,-4.57 6.65,-10.66 6.31,-16.63 -5.95,-0.34 -12.01,1.77 -16.55,6.33z"/>
   <path class="fil2" d="M981.69 361.92c3.69,5.29 9.29,8.43 15.2,9.13 1.37,-5.83 0.36,-12.19 -3.33,-17.48 -3.68,-5.29 -9.29,-8.42 -15.2,-9.13 -1.37,5.83 -0.35,12.2 3.33,17.48z"/>
   <path class="fil2" d="M1006.04 355.78c-5.26,3.71 -8.38,9.34 -9.08,15.28 5.8,1.38 12.13,0.36 17.39,-3.35 5.27,-3.7 8.38,-9.33 9.08,-15.28 -5.8,-1.37 -12.12,-0.35 -17.39,3.35z"/>
   <path class="fil2" d="M974.19 386.79c2.72,5.84 7.69,9.91 13.4,11.63 2.35,-5.49 2.44,-11.94 -0.27,-17.79 -2.72,-5.85 -7.69,-9.92 -13.39,-11.64 -2.35,5.5 -2.45,11.94 0.26,17.8z"/>
   <path class="fil2" d="M999.23 384.99c-5.82,2.72 -9.87,7.73 -11.58,13.46 5.47,2.36 11.88,2.47 17.71,-0.26 5.82,-2.73 9.86,-7.73 11.58,-13.47 -5.47,-2.36 -11.88,-2.46 -17.71,0.27z"/>
   <path class="fil2" d="M962.47 409.97c1.67,6.24 5.86,11.1 11.19,13.8 3.26,-5.01 4.47,-11.33 2.81,-17.57 -1.66,-6.24 -5.86,-11.11 -11.18,-13.8 -3.26,5 -4.48,11.33 -2.82,17.57l0 0z"/>
   <path class="fil2" d="M987.45 412.57c-6.21,1.67 -11.05,5.89 -13.73,11.23 4.98,3.29 11.27,4.5 17.48,2.84 6.2,-1.68 11.05,-5.9 13.73,-11.24 -4.98,-3.29 -11.28,-4.5 -17.48,-2.83z"/>
   <path class="fil2" d="M946.9 430.77c0.56,6.43 3.86,11.96 8.63,15.54 4.08,-4.36 6.37,-10.38 5.81,-16.81 -0.57,-6.43 -3.86,-11.96 -8.63,-15.54 -4.08,4.36 -6.37,10.38 -5.81,16.81z"/>
   <path class="fil2" d="M971.04 437.69c-6.4,0.56 -11.9,3.87 -15.46,8.67 4.34,4.1 10.33,6.4 16.73,5.84 6.4,-0.57 11.9,-3.88 15.46,-8.67 -4.34,-4.1 -10.32,-6.4 -16.73,-5.84l0 0z"/>
   <path class="fil2" d="M927.94 448.56c-0.56,6.43 1.73,12.45 5.81,16.81 4.77,-3.58 8.07,-9.11 8.63,-15.55 0.56,-6.43 -1.73,-12.45 -5.81,-16.81 -4.77,3.58 -8.07,9.12 -8.63,15.55l0 0z"/>
   <path class="fil2" d="M950.52 459.58c-6.4,-0.56 -12.39,1.74 -16.72,5.84 3.56,4.8 9.06,8.11 15.46,8.67 6.4,0.56 12.39,-1.73 16.73,-5.84 -3.56,-4.79 -9.07,-8.1 -15.47,-8.67l0 0z"/>
   <path class="fil2" d="M906.17 462.79c-1.66,6.23 -0.45,12.56 2.82,17.57 5.32,-2.7 9.52,-7.57 11.18,-13.81 1.66,-6.23 0.45,-12.56 -2.82,-17.56 -5.31,2.69 -9.51,7.56 -11.18,13.8l0 0z"/>
   <path class="fil2" d="M926.51 477.59c-6.21,-1.68 -12.51,-0.45 -17.48,2.83 2.67,5.35 7.52,9.56 13.73,11.24 6.2,1.67 12.5,0.45 17.48,-2.84 -2.68,-5.34 -7.53,-9.56 -13.73,-11.23z"/>
   <path class="fil2" d="M882.26 473.03c-2.72,5.85 -2.62,12.3 -0.26,17.8 5.7,-1.73 10.67,-5.79 13.39,-11.64 2.71,-5.86 2.61,-12.3 0.26,-17.8 -5.7,1.73 -10.68,5.79 -13.39,11.64l0 0z"/>
   <path class="fil2" d="M899.72 491.16c-5.82,-2.73 -12.23,-2.63 -17.7,-0.27 1.72,5.73 5.76,10.74 11.58,13.47 5.82,2.73 12.23,2.63 17.7,0.26 -1.71,-5.73 -5.75,-10.73 -11.58,-13.46z"/>
   <path class="fil2" d="M861.1 170.74c6.04,2.22 12.42,1.55 17.66,-1.28 -2.2,-5.56 -6.66,-10.19 -12.7,-12.4 -6.04,-2.21 -12.42,-1.55 -17.66,1.29 2.2,5.56 6.67,10.19 12.71,12.39l-0.01 0z"/>
   <path class="fil2" d="M805.22 540.33l-10.55 -1.87c29.95,-29.79 66.46,-41.49 86.98,-48.48 1.94,-0.66 3.75,-1.27 5.4,-1.85 67.95,-23.91 113.61,-87.11 113.61,-157.26 0,-78.95 -57.75,-147.82 -137.33,-163.77l0.5 -2.58c80.81,16.18 139.46,86.15 139.46,166.35 0,71.27 -46.37,135.47 -115.38,159.75 -1.65,0.58 -3.46,1.19 -5.42,1.86 -20.3,6.92 -47.74,18.5 -77.27,47.85z"/>
  </g>
  <rect class="fil1" x="112.34" y="92.97" width="499.94" height="499.94"/>
  <path class="fil2" d="M313.6 317.75l-12.61 0 0 -21.08 -3.78 0 0 24.29 16.39 0 0 -3.21 0 0zm4.81 -22c-1.27,0 -2.2,0.95 -2.2,2.22 0,1.3 0.93,2.25 2.2,2.25 1.28,0 2.24,-0.95 2.24,-2.25 0,-1.27 -0.97,-2.22 -2.24,-2.22zm1.89 25.21l0 -18.69 -3.78 0 0 18.69 3.78 0zm9.01 -21.76c0.21,-1.56 1.72,-2.12 3.95,-1.7l0 -2.87c-0.62,-0.14 -1.34,-0.22 -2.09,-0.22 -3.44,0 -5.33,1.69 -5.64,4.58 -0.07,0.63 -0.07,1.55 -0.07,2.22l0 1.2 -1.96 0 0 2.71 1.96 0 0 15.84 3.75 0 0 -15.84 3.74 0 0 -2.71 -3.74 0 0 -1.41c0,-0.53 0.03,-1.31 0.1,-1.8zm22.27 11.94c0,-5.28 -2.85,-9.37 -8.14,-9.37 -5.26,0 -8.94,3.98 -8.94,9.89 0,6.62 3.68,9.79 8.56,9.79 3.99,0 7.46,-2.11 8.25,-6.55l-3.82 0c-0.38,2.36 -2.09,3.74 -4.29,3.74 -2.48,0 -4.47,-1.48 -4.78,-5.95l13.09 0c0.07,-0.68 0.07,-1.2 0.07,-1.55zm-8.28 -6.55c2.64,0 4.12,1.93 4.4,5.38l-9.25 0c0.41,-3.59 2.27,-5.38 4.85,-5.38zm16.4 0.53l3.57 0 0 -2.71 -3.57 0 0 -4.47 -3.75 0 0 4.47 -2.58 0 0 2.71 2.58 0 0 10.14c0,1.05 0,1.86 0.03,2.5 0.18,2.46 1.41,3.55 4.26,3.55 0.93,0 1.83,-0.07 2.79,-0.21l0 -2.68c-2.48,0.25 -3.17,-0.14 -3.3,-1.97 -0.03,-0.49 -0.03,-0.91 -0.03,-1.55l0 -9.78 0 0zm8.9 -9.37c-1.28,0 -2.2,0.95 -2.2,2.22 0,1.3 0.92,2.25 2.2,2.25 1.27,0 2.23,-0.95 2.23,-2.25 0,-1.27 -0.96,-2.22 -2.23,-2.22zm1.89 25.21l0 -18.69 -3.78 0 0 18.69 3.78 0zm30.42 -14.61c-0.41,-2.57 -2.34,-4.58 -5.71,-4.58 -1.61,0 -2.89,0.32 -3.88,1.09l-1.69 2.47c-0.68,-2.08 -2.51,-3.56 -5.39,-3.56 -1.65,0 -2.92,0.32 -3.89,1.09l-1.23 2.19 0 -2.79 -3.79 0 0 18.7 3.79 0 0 -9.4c0,-5.07 1.44,-6.94 3.67,-6.94 1.96,0 3.13,1.06 3.41,3.07 0.1,0.94 0.13,1.96 0.13,3.37l0 9.9 3.75 0 0 -9.4c0,-5.07 1.48,-6.94 3.68,-6.94 1.96,0 3.16,1.06 3.4,3.07 0.1,0.94 0.14,1.96 0.14,3.37l0 9.9 3.78 0 0 -11.31c0,-1.51 -0.04,-2.35 -0.18,-3.3l0.01 0zm20.48 4.79c0,-5.28 -2.85,-9.37 -8.14,-9.37 -5.26,0 -8.94,3.98 -8.94,9.89 0,6.62 3.68,9.79 8.56,9.79 3.98,0 7.46,-2.11 8.25,-6.55l-3.82 0c-0.38,2.36 -2.09,3.74 -4.29,3.74 -2.48,0 -4.47,-1.48 -4.78,-5.95l13.09 0c0.07,-0.68 0.07,-1.2 0.07,-1.55zm-8.28 -6.55c2.65,0 4.12,1.93 4.4,5.38l-9.25 0c0.41,-3.59 2.27,-5.38 4.85,-5.38zm-140.12 50.59l2.58 8.02 4.09 0 -8.28 -24.29 -4.89 0 -8.52 24.29 4.02 0 2.58 -8.02 8.42 0 0 0zm-7.43 -3.07l3.3 -10 3.13 10 -6.43 0zm23.89 -8.09c-4.77,0 -8.83,3.55 -8.83,9.92 0,6.66 3.61,9.76 8.39,9.76 4.29,0 7.46,-2.22 8.31,-6.69l-3.85 0c-0.55,2.53 -2.09,3.87 -4.26,3.87 -2.54,0 -4.61,-2.15 -4.61,-7.22 0,-4.68 2.1,-6.83 4.75,-6.83 2.23,0 3.71,1.3 4.26,4.16l3.82 0c-0.45,-4.12 -3.37,-6.97 -7.98,-6.97l0 0zm27.36 5.35c-0.34,-3.28 -2.57,-5.35 -6.49,-5.35 -1.82,0 -3.17,0.31 -4.61,1.44l-1.24 2.15 0 -10.46 -3.78 0 0 26.05 3.78 0 0 -8.37c0,-5.85 2.13,-7.89 4.75,-7.96 2.58,-0.04 3.67,1.48 3.85,3.59 0.07,0.95 0.07,1.76 0.07,2.64l0 10.1 3.78 0 0 -10.52c0,-1.52 -0.04,-2.36 -0.11,-3.31l0 0zm6.6 -11.37c-1.27,0 -2.2,0.95 -2.2,2.21 0,1.31 0.93,2.26 2.2,2.26 1.28,0 2.24,-0.95 2.24,-2.26 0,-1.26 -0.97,-2.21 -2.24,-2.21zm1.89 25.2l0 -18.69 -3.78 0 0 18.69 3.78 0zm20.56 -9.82c0,-5.28 -2.85,-9.36 -8.15,-9.36 -5.26,0 -8.93,3.97 -8.93,9.89 0,6.62 3.67,9.79 8.56,9.79 3.98,0 7.46,-2.12 8.24,-6.55l-3.81 0c-0.38,2.36 -2.1,3.73 -4.3,3.73 -2.48,0 -4.47,-1.48 -4.78,-5.95l13.1 0c0.07,-0.67 0.07,-1.2 0.07,-1.55zm-8.29 -6.55c2.65,0 4.13,1.94 4.41,5.39l-9.25 0c0.41,-3.59 2.27,-5.39 4.84,-5.39zm27.92 -2.32l-4.02 0 -5.06 15.84 -5.12 -15.84 -4.16 0 6.98 18.69 4.4 0 6.98 -18.69zm17.73 8.87c0,-5.28 -2.85,-9.36 -8.14,-9.36 -5.26,0 -8.94,3.97 -8.94,9.89 0,6.62 3.68,9.79 8.56,9.79 3.98,0 7.46,-2.12 8.25,-6.55l-3.82 0c-0.38,2.36 -2.1,3.73 -4.3,3.73 -2.47,0 -4.46,-1.48 -4.77,-5.95l13.09 0c0.07,-0.67 0.07,-1.2 0.07,-1.55zm-8.28 -6.55c2.64,0 4.12,1.94 4.4,5.39l-9.25 0c0.41,-3.59 2.27,-5.39 4.85,-5.39zm37.46 1.76c-0.41,-2.57 -2.33,-4.57 -5.7,-4.57 -1.61,0 -2.89,0.31 -3.89,1.09l-1.68 2.46c-0.69,-2.07 -2.51,-3.55 -5.4,-3.55 -1.65,0 -2.91,0.31 -3.88,1.09l-1.24 2.18 0 -2.78 -3.78 0 0 18.69 3.78 0 0 -9.39c0,-5.08 1.44,-6.94 3.68,-6.94 1.96,0 3.13,1.05 3.41,3.06 0.1,0.95 0.13,1.97 0.13,3.38l0 9.89 3.75 0 0 -9.39c0,-5.08 1.48,-6.94 3.67,-6.94 1.96,0 3.17,1.05 3.41,3.06 0.1,0.95 0.13,1.97 0.13,3.38l0 9.89 3.78 0 0 -11.3c0,-1.51 -0.03,-2.36 -0.17,-3.31l0 0zm20.49 4.79c0,-5.28 -2.85,-9.36 -8.15,-9.36 -5.26,0 -8.93,3.97 -8.93,9.89 0,6.62 3.67,9.79 8.55,9.79 3.99,0 7.46,-2.12 8.26,-6.55l-3.82 0c-0.38,2.36 -2.1,3.73 -4.3,3.73 -2.47,0 -4.47,-1.48 -4.77,-5.95l13.09 0c0.07,-0.67 0.07,-1.2 0.07,-1.55l0 0zm-8.28 -6.55c2.64,0 4.12,1.94 4.4,5.39l-9.25 0c0.41,-3.59 2.27,-5.39 4.85,-5.39l0 0zm28.01 2.54c-0.34,-3.28 -2.58,-5.35 -6.5,-5.35 -1.82,0 -3.16,0.31 -4.6,1.44l-1.24 2.15 0 -3.1 -3.78 0 0 18.69 3.78 0 0 -8.37c0,-5.85 2.13,-7.96 4.74,-7.96 2.58,0 3.68,1.48 3.85,3.59 0.07,0.95 0.07,1.76 0.07,2.64l0 10.1 3.78 0 0 -10.52c0,-1.52 -0.03,-2.36 -0.1,-3.31l0 0zm9.21 -2.01l3.58 0 0 -2.71 -3.58 0 0 -4.47 -3.75 0 0 4.47 -2.57 0 0 2.71 2.57 0 0 10.14c0,1.05 0,1.86 0.04,2.5 0.17,2.46 1.41,3.56 4.26,3.56 0.93,0 1.82,-0.07 2.78,-0.21l0 -2.68c-2.47,0.25 -3.16,-0.14 -3.3,-1.97 -0.03,-0.5 -0.03,-0.92 -0.03,-1.55l0 -9.79 0 0zm-138.64 50.06l2.58 8.03 4.09 0 -8.28 -24.29 -4.88 0 -8.53 24.29 4.02 0 2.58 -8.03 8.42 0zm-7.42 -3.06l3.29 -10 3.13 10 -6.42 0 0 0zm41.14 -7.61l-4.02 0 -3.75 15.28 -3.64 -15.24 -4.61 0 -3.54 15.21 -3.75 -15.25 -4.25 0 5.8 18.7 4.37 0 3.64 -15.11 3.61 15.11 4.33 0 5.81 -18.7 0 0zm12.99 18.7l3.75 0c-0.28,-2.08 -0.35,-3.35 -0.35,-4.76l0 -6.58c0,-0.88 -0.03,-1.86 -0.1,-2.64 -0.31,-3.16 -2.16,-5.21 -6.87,-5.21 -4.16,0 -7.15,2.33 -7.39,6.41l3.78 0c0.2,-2.33 1.34,-3.59 3.54,-3.59 2.16,0 3.09,1.05 3.2,2.57 0.06,0.7 0.06,1.34 0.06,2.04l0 0.46 -1.17 0c-6.9,0 -10.14,2.25 -10.14,6.4 0,3.49 2.65,5.39 5.88,5.39 1.72,0 3.3,-0.32 4.54,-1.2l0.93 -2 0.34 2.71 0 0zm-4.43 -2.32c-2,0 -3.27,-0.92 -3.27,-2.89 0,-2.86 2.89,-3.87 7.32,-3.52l0 1.72c0,3.03 -1.68,4.68 -4.05,4.68l0 0.01zm20.79 -16.83c-0.92,0 -1.99,0.39 -2.82,1.05l-1.54 2.57 0 -3.16 -3.78 0 0 18.69 3.78 0 0 -9.72c0,-4.61 2.16,-6.44 5.64,-6.19l0 -3.03c-0.38,-0.14 -0.76,-0.21 -1.28,-0.21zm20.46 -6.73l-3.78 0 0 9.72 -1.21 -1.87c-0.93,-0.73 -2.82,-1.16 -4.33,-1.16 -4.71,0 -8.83,3.31 -8.83,10.14 0,5.49 2.99,9.54 8.21,9.54 1.86,0 3.75,-0.56 4.78,-1.41l1.37 -2.04 0 2.96 3.78 0 0 -25.88 0.01 0zm-9.08 23.56c-3.26,0 -5.08,-3 -5.08,-7.05 0,-4.64 2.26,-7 5.25,-7 2.44,0 5.13,1.69 5.13,6.23l0 0.98c0,5 -2.44,6.84 -5.3,6.84l0 0z"/>
  <path class="fil2" d="M322.57 244.2l5.33 -5.28c4.25,-4.15 5.94,-6.4 5.94,-9.61 0,-3.84 -2.6,-6.83 -7.73,-6.83 -5.12,0 -8.25,2.78 -8.74,7.92l-0.04 0.35 3.87 0 0.03 -0.35c0.32,-3.2 1.68,-4.96 4.46,-4.96 2.63,0 3.97,1.86 3.97,4.22 0,2.33 -1.34,4.09 -4.39,7.11l-8.46 8.56 0 1.97 16.88 0 0 -3.1 -11.12 0 0 0zm23.76 -21.68c-6.74,0 -9.05,5.28 -9.05,12.63 0,7.29 2.31,12.64 9.05,12.64 6.78,0 9.06,-5.35 9.06,-12.64 0,-7.35 -2.28,-12.63 -9.06,-12.63zm0 22.32c-3.44,0 -4.87,-3.45 -4.87,-9.69 0,-6.3 1.43,-9.68 4.87,-9.68 3.48,0 4.88,3.38 4.88,9.68 0,6.24 -1.4,9.69 -4.88,9.69zm25.74 -21.83l-2.15 0c-1.08,0 -2.1,0.24 -3.22,0.92l-5.34 3.27 0 3.8 6.85 -3.94 0 20.24 3.86 0 0 -24.29zm17.34 8.13c-1.44,0 -2.67,0.32 -3.79,0.99l-1.37 1.65 0.98 -7.71 11.23 0 0 -3.06 -14.35 0 -1.72 14.22 3.61 0c1.06,-2.25 2.49,-3.13 4.57,-3.13 2.98,0 4.73,2.15 4.73,5.42 0,3.31 -1.85,5.32 -4.84,5.32 -2.7,0 -4.07,-1.59 -4.56,-4.09l-0.04 -0.35 -3.86 0 0.04 0.35c0.49,4.72 3.43,7.05 8.53,7.05 4.63,0 8.91,-3.03 8.91,-8.46 0,-4.78 -2.81,-8.2 -8.07,-8.2l0 0z"/>
  <g id="_1128814561072_0">
   <path class="fil2" d="M299.77 190.25c-5.82,-2.73 -9.87,-7.73 -11.59,-13.46 5.48,-2.36 11.89,-2.47 17.71,0.26 5.82,2.73 9.87,7.73 11.58,13.46 -5.47,2.37 -11.88,2.47 -17.7,-0.26l0 0z"/>
   <path class="fil2" d="M301.56 165.08c-2.72,5.85 -7.7,9.92 -13.4,11.64 -2.35,-5.5 -2.45,-11.94 0.26,-17.8 2.72,-5.84 7.69,-9.91 13.4,-11.64 2.35,5.5 2.45,11.95 -0.26,17.8z"/>
   <path class="fil2" d="M276.7 202.03c-6.21,-1.67 -11.05,-5.89 -13.73,-11.24 4.98,-3.28 11.27,-4.5 17.48,-2.83 6.21,1.67 11.05,5.89 13.73,11.24 -4.98,3.28 -11.27,4.5 -17.48,2.83z"/>
   <path class="fil2" d="M274.11 176.93c-1.66,6.23 -5.86,11.1 -11.18,13.8 -3.27,-5.01 -4.48,-11.34 -2.81,-17.57 1.66,-6.24 5.86,-11.11 11.18,-13.8 3.26,5 4.47,11.33 2.81,17.57z"/>
   <path class="fil2" d="M256.01 217.68c-6.41,-0.56 -11.9,-3.87 -15.47,-8.67 4.34,-4.1 10.33,-6.4 16.73,-5.84 6.4,0.56 11.9,3.87 15.46,8.67 -4.33,4.1 -10.32,6.4 -16.72,5.84l0 0z"/>
   <path class="fil2" d="M249.12 193.41c-0.56,6.43 -3.85,11.96 -8.62,15.55 -4.09,-4.36 -6.37,-10.38 -5.81,-16.82 0.56,-6.43 3.85,-11.96 8.62,-15.54 4.08,4.36 6.37,10.38 5.81,16.81l0 0z"/>
   <path class="fil2" d="M238.31 236.73c-6.4,0.57 -12.39,-1.73 -16.73,-5.83 3.57,-4.8 9.07,-8.11 15.47,-8.67 6.4,-0.57 12.39,1.73 16.72,5.84 -3.56,4.79 -9.06,8.1 -15.46,8.66l0 0z"/>
   <path class="fil2" d="M227.34 214.04c0.56,6.43 -1.73,12.45 -5.81,16.81 -4.77,-3.58 -8.07,-9.11 -8.63,-15.54 -0.56,-6.43 1.73,-12.46 5.81,-16.81 4.78,3.58 8.07,9.11 8.63,15.54l0 0z"/>
   <path class="fil2" d="M224.15 258.61c-6.21,1.68 -12.5,0.46 -17.48,-2.83 2.68,-5.34 7.52,-9.56 13.73,-11.23 6.2,-1.67 12.5,-0.46 17.48,2.83 -2.68,5.34 -7.52,9.56 -13.73,11.23z"/>
   <path class="fil2" d="M209.42 238.18c1.66,6.23 0.45,12.56 -2.81,17.57 -5.32,-2.7 -9.52,-7.57 -11.18,-13.8 -1.67,-6.24 -0.45,-12.57 2.82,-17.57 5.31,2.69 9.51,7.56 11.17,13.8z"/>
   <path class="fil2" d="M213.96 282.65c-5.83,2.73 -12.24,2.63 -17.71,0.26 1.72,-5.72 5.76,-10.73 11.58,-13.46 5.83,-2.72 12.24,-2.62 17.71,-0.26 -1.72,5.73 -5.76,10.73 -11.58,13.46l0 0z"/>
   <path class="fil2" d="M195.92 265.1c2.72,5.85 2.62,12.29 0.27,17.79 -5.71,-1.72 -10.68,-5.79 -13.4,-11.64 -2.71,-5.85 -2.61,-12.29 -0.26,-17.79 5.7,1.72 10.68,5.79 13.39,11.64z"/>
   <path class="fil2" d="M208.04 308.12c-5.26,3.7 -11.59,4.72 -17.39,3.35 0.7,-5.94 3.82,-11.58 9.08,-15.28 5.26,-3.7 11.6,-4.72 17.39,-3.35 -0.7,5.95 -3.82,11.58 -9.08,15.28l0 0z"/>
   <path class="fil2" d="M187.25 293.98c3.68,5.29 4.7,11.65 3.33,17.48 -5.92,-0.7 -11.52,-3.84 -15.2,-9.13 -3.69,-5.29 -4.7,-11.65 -3.34,-17.48 5.92,0.71 11.52,3.84 15.21,9.13z"/>
   <path class="fil2" d="M206.58 334.24c-4.54,4.57 -10.6,6.67 -16.55,6.33 -0.33,-5.97 1.76,-12.06 6.31,-16.63 4.54,-4.56 10.6,-6.67 16.54,-6.33 0.34,5.97 -1.76,12.06 -6.3,16.63z"/>
   <path class="fil2" d="M183.66 323.94c4.54,4.57 6.64,10.66 6.31,16.63 -5.95,0.34 -12.01,-1.77 -16.55,-6.33 -4.19,-4.21 -6.3,-9.71 -6.34,-15.23l0 -0.33c0,-0.36 0.01,-0.72 0.03,-1.07 5.95,-0.34 12.01,1.77 16.55,6.34l0 -0.01z"/>
   <path class="fil2" d="M209.64 360.02c-3.68,5.29 -9.29,8.43 -15.2,9.13 -1.37,-5.83 -0.35,-12.19 3.33,-17.48 3.69,-5.29 9.29,-8.42 15.2,-9.13 1.37,5.83 0.36,12.2 -3.33,17.48z"/>
   <path class="fil2" d="M185.29 353.88c5.26,3.71 8.38,9.34 9.08,15.28 -5.8,1.38 -12.13,0.36 -17.39,-3.35 -5.26,-3.7 -8.38,-9.33 -9.08,-15.28 5.8,-1.37 12.13,-0.35 17.39,3.35z"/>
   <path class="fil2" d="M217.14 384.89c-2.71,5.85 -7.69,9.91 -13.39,11.64 -2.36,-5.5 -2.46,-11.95 0.26,-17.8 2.71,-5.85 7.69,-9.92 13.4,-11.64 2.35,5.5 2.45,11.94 -0.27,17.8z"/>
   <path class="fil2" d="M192.1 383.09c5.82,2.72 9.87,7.73 11.58,13.46 -5.47,2.36 -11.88,2.47 -17.7,-0.26 -5.83,-2.73 -9.87,-7.73 -11.58,-13.47 5.47,-2.36 11.88,-2.46 17.7,0.27z"/>
   <path class="fil2" d="M228.86 408.07c-1.66,6.24 -5.86,11.11 -11.18,13.8 -3.27,-5.01 -4.48,-11.33 -2.82,-17.57 1.67,-6.24 5.86,-11.11 11.18,-13.8 3.27,5 4.48,11.33 2.82,17.57l0 0z"/>
   <path class="fil2" d="M203.89 410.67c6.2,1.67 11.05,5.89 13.73,11.24 -4.98,3.28 -11.28,4.5 -17.48,2.83 -6.21,-1.68 -11.06,-5.9 -13.73,-11.24 4.97,-3.29 11.27,-4.5 17.48,-2.83z"/>
   <path class="fil2" d="M244.43 428.87c-0.56,6.43 -3.85,11.96 -8.62,15.54 -4.08,-4.36 -6.37,-10.38 -5.81,-16.81 0.56,-6.43 3.85,-11.96 8.62,-15.54 4.09,4.36 6.37,10.38 5.81,16.81z"/>
   <path class="fil2" d="M220.29 435.79c6.4,0.56 11.9,3.87 15.46,8.67 -4.33,4.1 -10.32,6.4 -16.72,5.84 -6.4,-0.56 -11.91,-3.88 -15.47,-8.67 4.34,-4.1 10.33,-6.4 16.73,-5.84l0 0z"/>
   <path class="fil2" d="M263.39 446.66c0.56,6.43 -1.73,12.45 -5.81,16.81 -4.77,-3.58 -8.06,-9.11 -8.62,-15.54 -0.56,-6.43 1.73,-12.46 5.81,-16.82 4.77,3.58 8.06,9.12 8.62,15.55l0 0z"/>
   <path class="fil2" d="M240.81 457.68c6.4,-0.56 12.39,1.74 16.73,5.84 -3.56,4.8 -9.07,8.11 -15.47,8.67 -6.4,0.56 -12.39,-1.73 -16.73,-5.83 3.57,-4.8 9.07,-8.11 15.47,-8.67l0 -0.01z"/>
   <path class="fil2" d="M285.16 460.89c1.66,6.24 0.45,12.56 -2.82,17.57 -5.31,-2.69 -9.51,-7.57 -11.18,-13.8 -1.66,-6.24 -0.45,-12.57 2.82,-17.57 5.32,2.69 9.52,7.56 11.18,13.8l0 0z"/>
   <path class="fil2" d="M264.83 475.69c6.2,-1.67 12.5,-0.45 17.48,2.83 -2.68,5.35 -7.53,9.57 -13.73,11.24 -6.21,1.67 -12.5,0.45 -17.48,-2.83 2.68,-5.35 7.52,-9.57 13.73,-11.24z"/>
   <path class="fil2" d="M309.08 471.13c2.71,5.85 2.61,12.3 0.26,17.8 -5.71,-1.73 -10.68,-5.79 -13.39,-11.64 -2.72,-5.85 -2.62,-12.3 -0.27,-17.8 5.71,1.73 10.68,5.79 13.4,11.64l0 0z"/>
   <path class="fil2" d="M291.61 489.26c5.82,-2.73 12.23,-2.63 17.7,-0.26 -1.71,5.73 -5.76,10.73 -11.58,13.46 -5.82,2.73 -12.23,2.63 -17.7,0.26 1.72,-5.73 5.76,-10.73 11.58,-13.46l0 0z"/>
   <path class="fil2" d="M330.23 168.85c-6.03,2.21 -12.41,1.54 -17.66,-1.29 2.2,-5.56 6.67,-10.19 12.71,-12.4 6.03,-2.21 12.41,-1.54 17.66,1.29 -2.21,5.56 -6.67,10.19 -12.71,12.4z"/>
   <path class="fil2" d="M386.11 538.44c-29.53,-29.36 -56.97,-40.94 -77.27,-47.86 -1.95,-0.66 -3.77,-1.28 -5.42,-1.86 -69.01,-24.28 -115.37,-88.47 -115.37,-159.75 0,-80.2 58.64,-150.16 139.45,-166.35l0.51 2.58c-79.58,15.95 -137.34,84.82 -137.34,163.77 0,70.15 45.66,133.35 113.61,157.26 1.65,0.58 3.46,1.19 5.4,1.86 20.52,6.99 57.03,18.68 86.98,48.47l-10.55 1.88z"/>
   <path class="fil2" d="M424.23 190.25c5.82,-2.73 9.86,-7.73 11.58,-13.46 -5.48,-2.36 -11.89,-2.47 -17.71,0.26 -5.82,2.73 -9.87,7.73 -11.58,13.46 5.47,2.37 11.89,2.47 17.71,-0.26l0 0z"/>
   <path class="fil2" d="M422.43 165.08c2.72,5.85 7.7,9.92 13.4,11.64 2.35,-5.5 2.46,-11.94 -0.26,-17.8 -2.72,-5.84 -7.69,-9.91 -13.4,-11.64 -2.35,5.5 -2.45,11.95 0.26,17.8z"/>
   <path class="fil2" d="M447.29 202.03c6.2,-1.67 11.05,-5.89 13.73,-11.24 -4.98,-3.28 -11.28,-4.5 -17.48,-2.83 -6.21,1.67 -11.05,5.89 -13.73,11.24 4.98,3.28 11.28,4.5 17.48,2.83z"/>
   <path class="fil2" d="M449.88 176.93c1.66,6.23 5.86,11.1 11.18,13.8 3.26,-5.01 4.48,-11.34 2.81,-17.57 -1.66,-6.24 -5.85,-11.11 -11.18,-13.8 -3.26,5 -4.48,11.33 -2.81,17.57z"/>
   <path class="fil2" d="M467.99 217.68c6.4,-0.56 11.9,-3.87 15.46,-8.67 -4.33,-4.1 -10.32,-6.4 -16.73,-5.84 -6.4,0.56 -11.9,3.87 -15.46,8.67 4.34,4.1 10.33,6.4 16.73,5.84l0 0z"/>
   <path class="fil2" d="M474.87 193.41c0.56,6.43 3.86,11.96 8.63,15.55 4.08,-4.36 6.36,-10.38 5.81,-16.82 -0.56,-6.43 -3.86,-11.96 -8.63,-15.54 -4.08,4.36 -6.37,10.38 -5.81,16.81l0 0z"/>
   <path class="fil2" d="M485.68 236.73c6.4,0.57 12.39,-1.73 16.73,-5.83 -3.56,-4.8 -9.07,-8.11 -15.46,-8.67 -6.41,-0.57 -12.4,1.73 -16.73,5.84 3.56,4.79 9.06,8.1 15.46,8.66l0 0z"/>
   <path class="fil2" d="M496.66 214.04c-0.56,6.43 1.72,12.45 5.81,16.81 4.77,-3.58 8.06,-9.11 8.62,-15.54 0.56,-6.43 -1.73,-12.46 -5.81,-16.81 -4.77,3.58 -8.07,9.11 -8.62,15.54l0 0z"/>
   <path class="fil2" d="M499.84 258.61c6.21,1.68 12.5,0.46 17.48,-2.83 -2.67,-5.34 -7.52,-9.56 -13.73,-11.23 -6.2,-1.67 -12.5,-0.46 -17.48,2.83 2.68,5.34 7.53,9.56 13.73,11.23z"/>
   <path class="fil2" d="M514.57 238.18c-1.66,6.23 -0.45,12.56 2.82,17.57 5.31,-2.7 9.51,-7.57 11.18,-13.8 1.66,-6.24 0.45,-12.57 -2.82,-17.57 -5.32,2.69 -9.52,7.56 -11.18,13.8z"/>
   <path class="fil2" d="M510.04 282.65c5.82,2.73 12.23,2.63 17.7,0.26 -1.71,-5.72 -5.76,-10.73 -11.58,-13.46 -5.82,-2.72 -12.23,-2.62 -17.71,-0.26 1.72,5.73 5.76,10.73 11.59,13.46l0 0z"/>
   <path class="fil2" d="M528.07 265.1c-2.72,5.85 -2.61,12.29 -0.26,17.79 5.7,-1.72 10.68,-5.79 13.39,-11.64 2.72,-5.85 2.62,-12.29 0.26,-17.79 -5.7,1.72 -10.68,5.79 -13.39,11.64z"/>
   <path class="fil2" d="M515.95 308.12c5.26,3.7 11.59,4.72 17.39,3.35 -0.7,-5.94 -3.82,-11.58 -9.08,-15.28 -5.26,-3.7 -11.59,-4.72 -17.39,-3.35 0.7,5.95 3.82,11.58 9.08,15.28l0 0z"/>
   <path class="fil2" d="M536.74 293.98c-3.68,5.29 -4.69,11.65 -3.33,17.48 5.92,-0.7 11.52,-3.84 15.2,-9.13 3.69,-5.29 4.7,-11.65 3.34,-17.48 -5.92,0.71 -11.52,3.84 -15.21,9.13z"/>
   <path class="fil2" d="M517.41 334.24c4.54,4.57 10.6,6.67 16.55,6.33 0.34,-5.97 -1.76,-12.06 -6.3,-16.63 -4.55,-4.56 -10.61,-6.67 -16.55,-6.33 -0.34,5.97 1.76,12.06 6.3,16.63z"/>
   <path class="fil2" d="M540.33 323.94c-4.54,4.57 -6.64,10.66 -6.3,16.63 5.94,0.34 12,-1.77 16.54,-6.33 4.55,-4.57 6.65,-10.65 6.31,-16.63 -5.95,-0.34 -12.01,1.77 -16.55,6.33z"/>
   <path class="fil2" d="M514.35 360.02c3.69,5.29 9.29,8.43 15.2,9.13 1.37,-5.83 0.36,-12.19 -3.33,-17.48 -3.68,-5.29 -9.29,-8.42 -15.2,-9.13 -1.37,5.83 -0.35,12.2 3.33,17.48z"/>
   <path class="fil2" d="M538.7 353.88c-5.26,3.71 -8.38,9.34 -9.08,15.28 5.8,1.38 12.13,0.36 17.39,-3.35 5.27,-3.7 8.38,-9.33 9.08,-15.28 -5.8,-1.37 -12.13,-0.35 -17.39,3.35z"/>
   <path class="fil2" d="M506.85 384.89c2.71,5.85 7.69,9.91 13.39,11.64 2.36,-5.5 2.45,-11.95 -0.26,-17.8 -2.72,-5.85 -7.69,-9.92 -13.39,-11.64 -2.35,5.5 -2.46,11.94 0.26,17.8z"/>
   <path class="fil2" d="M531.89 383.09c-5.82,2.72 -9.87,7.73 -11.58,13.46 5.47,2.36 11.88,2.47 17.7,-0.26 5.83,-2.73 9.87,-7.73 11.59,-13.47 -5.47,-2.36 -11.88,-2.46 -17.71,0.27z"/>
   <path class="fil2" d="M495.13 408.07c1.67,6.24 5.86,11.11 11.18,13.8 3.27,-5.01 4.48,-11.33 2.82,-17.57 -1.66,-6.24 -5.86,-11.11 -11.18,-13.8 -3.27,5 -4.48,11.33 -2.82,17.57l0 0z"/>
   <path class="fil2" d="M520.1 410.67c-6.2,1.67 -11.04,5.89 -13.72,11.24 4.98,3.28 11.27,4.5 17.48,2.83 6.2,-1.68 11.05,-5.9 13.73,-11.24 -4.98,-3.29 -11.28,-4.5 -17.49,-2.83z"/>
   <path class="fil2" d="M479.56 428.87c0.56,6.43 3.86,11.96 8.63,15.54 4.08,-4.36 6.36,-10.38 5.81,-16.81 -0.57,-6.43 -3.86,-11.96 -8.63,-15.54 -4.08,4.36 -6.37,10.38 -5.81,16.81z"/>
   <path class="fil2" d="M503.7 435.79c-6.4,0.56 -11.9,3.87 -15.46,8.67 4.34,4.1 10.33,6.4 16.73,5.84 6.4,-0.56 11.9,-3.88 15.46,-8.67 -4.34,-4.1 -10.32,-6.4 -16.73,-5.84l0 0z"/>
   <path class="fil2" d="M460.6 446.66c-0.56,6.43 1.73,12.45 5.81,16.81 4.77,-3.58 8.07,-9.11 8.63,-15.54 0.56,-6.43 -1.73,-12.46 -5.81,-16.82 -4.77,3.58 -8.07,9.12 -8.63,15.55l0 0z"/>
   <path class="fil2" d="M483.18 457.68c-6.4,-0.56 -12.39,1.74 -16.72,5.84 3.56,4.8 9.06,8.11 15.46,8.67 6.4,0.56 12.39,-1.73 16.73,-5.83 -3.56,-4.8 -9.07,-8.11 -15.47,-8.67l0 -0.01z"/>
   <path class="fil2" d="M438.83 460.89c-1.66,6.24 -0.45,12.56 2.82,17.57 5.32,-2.69 9.52,-7.57 11.18,-13.8 1.66,-6.24 0.45,-12.57 -2.82,-17.57 -5.31,2.69 -9.51,7.56 -11.18,13.8l0 0z"/>
   <path class="fil2" d="M459.16 475.69c-6.2,-1.67 -12.5,-0.45 -17.47,2.83 2.67,5.35 7.52,9.57 13.73,11.24 6.2,1.67 12.5,0.45 17.48,-2.83 -2.68,-5.35 -7.53,-9.57 -13.74,-11.24z"/>
   <path class="fil2" d="M414.91 471.13c-2.71,5.85 -2.61,12.3 -0.26,17.8 5.71,-1.73 10.68,-5.79 13.4,-11.64 2.71,-5.85 2.61,-12.3 0.26,-17.8 -5.7,1.73 -10.68,5.79 -13.4,11.64l0 0z"/>
   <path class="fil2" d="M432.38 489.26c-5.82,-2.73 -12.23,-2.63 -17.7,-0.26 1.72,5.73 5.76,10.73 11.58,13.46 5.82,2.73 12.23,2.63 17.7,0.26 -1.71,-5.73 -5.75,-10.73 -11.58,-13.46z"/>
   <path class="fil2" d="M393.76 168.85c6.04,2.21 12.42,1.54 17.66,-1.29 -2.2,-5.56 -6.66,-10.19 -12.7,-12.4 -6.04,-2.21 -12.42,-1.54 -17.66,1.29 2.2,5.56 6.66,10.19 12.7,12.4l0 0z"/>
   <path class="fil2" d="M337.88 538.44l-10.55 -1.88c29.95,-29.79 66.46,-41.49 86.98,-48.47 1.94,-0.67 3.75,-1.28 5.4,-1.86 67.95,-23.91 113.61,-87.11 113.61,-157.26 0,-78.95 -57.75,-147.82 -137.33,-163.77l0.5 -2.58c80.81,16.19 139.46,86.15 139.46,166.35 0,71.28 -46.37,135.47 -115.38,159.75 -1.65,0.58 -3.46,1.2 -5.42,1.86 -20.3,6.92 -47.74,18.5 -77.27,47.86z"/>
  </g>
  <rect class="fil1" x="1498.51" y="77.66" width="499.94" height="499.94"/>
  <path class="fil2" d="M1644.61 334.49l2.63 8.03 4.17 0 -8.44 -24.29 -4.98 0 -8.68 24.29 4.09 0 2.63 -8.03 8.58 0 0 0zm-7.57 -3.06l3.37 -10 3.19 10 -6.55 0 -0.01 0zm22.85 -8.1c-4.14,0 -6.87,2.11 -6.87,5.6 0,3.27 2.52,4.72 5.92,5.6 3.15,0.84 4.41,1.72 4.41,3.34 0,1.62 -1.43,2.4 -3.22,2.4 -1.93,0 -3.5,-0.95 -3.96,-3.35l-3.89 0c0.53,4.23 3.58,6.09 7.71,6.09 4.07,0 7.25,-1.79 7.25,-5.42 0,-3.31 -2.13,-4.93 -6.2,-5.98 -2.77,-0.74 -4.13,-1.45 -4.13,-3.14 0,-1.41 0.87,-2.43 2.69,-2.43 1.9,0 3.05,1.16 3.44,3.14l3.92 0c-0.42,-3.42 -2.8,-5.85 -7.07,-5.85l0 0 0 0zm12.61 -6.02c-1.3,0 -2.24,0.95 -2.24,2.22 0,1.3 0.94,2.25 2.24,2.25 1.29,0 2.27,-0.95 2.27,-2.25 0,-1.27 -0.98,-2.22 -2.27,-2.22zm1.92 25.21l0 -18.7 -3.85 0 0 18.7 3.85 0zm15.66 0l3.82 0c-0.28,-2.08 -0.35,-3.34 -0.35,-4.75l0 -6.59c0,-0.88 -0.03,-1.86 -0.1,-2.64 -0.32,-3.17 -2.21,-5.21 -7.01,-5.21 -4.24,0 -7.29,2.33 -7.53,6.41l3.85 0c0.21,-2.33 1.37,-3.59 3.61,-3.59 2.21,0 3.15,1.05 3.26,2.57 0.07,0.7 0.07,1.33 0.07,2.04l0 0.46 -1.19 0c-7.04,0 -10.34,2.25 -10.34,6.41 0,3.48 2.7,5.38 5.99,5.38 1.75,0 3.37,-0.31 4.63,-1.19l0.94 -2.01 0.35 2.71zm-4.52 -2.32c-2.03,0 -3.33,-0.92 -3.33,-2.89 0,-2.85 2.95,-3.88 7.47,-3.52l0 1.72c0,3.03 -1.72,4.69 -4.14,4.69zm17.87 -23.21l0 -0.35 -3.92 0 -2.74 9.19 3.23 0 3.43 -8.84 0 0zm10.34 6.34c-4.14,0 -6.87,2.11 -6.87,5.6 0,3.27 2.52,4.72 5.92,5.6 3.15,0.84 4.41,1.72 4.41,3.34 0,1.62 -1.43,2.4 -3.22,2.4 -1.93,0 -3.5,-0.95 -3.96,-3.35l-3.89 0c0.53,4.23 3.57,6.09 7.71,6.09 4.06,0 7.25,-1.79 7.25,-5.42 0,-3.31 -2.14,-4.93 -6.2,-5.98 -2.77,-0.74 -4.13,-1.45 -4.13,-3.14 0,-1.41 0.87,-2.43 2.69,-2.43 1.9,0 3.05,1.16 3.44,3.14l3.92 0c-0.42,-3.42 -2.8,-5.85 -7.07,-5.85l0 0 0 0zm-57.42 48.45c2.48,-0.85 3.96,-2.43 3.96,-5.18 0,-3.37 -2.18,-5.45 -6.03,-5.98 -1.19,-0.14 -1.96,-0.14 -3.15,-0.14l-7.82 0 0 24.29 8.24 0c1.22,0 2.03,0 3.22,-0.17 3.19,-0.46 6.41,-2.57 6.41,-7.01 0,-3.24 -1.68,-5.03 -4.83,-5.81l0 0zm-9.18 -8.24l3.96 0c0.56,0 1.26,0.04 1.82,0.11 1.93,0.21 3.29,1.23 3.29,3.38 0,1.97 -0.91,3.2 -3.04,3.55 -0.64,0.11 -1.23,0.14 -1.83,0.14l-4.2 0 0 -7.18 0 0zm6.41 18.1c-0.46,0.04 -1.09,0.04 -1.65,0.04l-4.76 0 0 -7.96 4.55 0c0.57,0 1.12,0 1.83,0.1 2.06,0.25 3.57,1.31 3.57,3.95 0,2.35 -1.54,3.69 -3.54,3.87l0 0zm27.29 -6.69c0,-5.28 -2.91,-9.37 -8.3,-9.37 -5.36,0 -9.11,3.98 -9.11,9.9 0,6.62 3.74,9.79 8.72,9.79 4.06,0 7.61,-2.12 8.41,-6.55l-3.89 0c-0.39,2.36 -2.14,3.73 -4.38,3.73 -2.52,0 -4.55,-1.48 -4.87,-5.95l13.35 0c0.07,-0.67 0.07,-1.2 0.07,-1.55l0 0zm-8.44 -6.55c2.69,0 4.2,1.94 4.48,5.39l-9.42 0c0.42,-3.59 2.31,-5.39 4.94,-5.39zm18.11 -2.82c-4.14,0 -6.87,2.11 -6.87,5.6 0,3.28 2.52,4.72 5.92,5.6 3.16,0.85 4.42,1.73 4.42,3.34 0,1.63 -1.44,2.4 -3.23,2.4 -1.92,0 -3.5,-0.95 -3.95,-3.35l-3.89 0c0.52,4.23 3.57,6.1 7.7,6.1 4.07,0 7.26,-1.8 7.26,-5.43 0,-3.31 -2.14,-4.93 -6.2,-5.98 -2.77,-0.74 -4.14,-1.45 -4.14,-3.14 0,-1.41 0.88,-2.43 2.7,-2.43 1.89,0 3.05,1.17 3.43,3.14l3.93 0c-0.43,-3.42 -2.81,-5.85 -7.08,-5.85l0 0 0 0zm15.27 3.35l3.65 0 0 -2.71 -3.65 0 0 -4.47 -3.82 0 0 4.47 -2.62 0 0 2.71 2.62 0 0 10.14c0,1.05 0,1.87 0.04,2.5 0.17,2.46 1.43,3.56 4.34,3.56 0.95,0 1.86,-0.08 2.84,-0.22l0 -2.67c-2.52,0.25 -3.23,-0.14 -3.36,-1.98 -0.04,-0.49 -0.04,-0.91 -0.04,-1.54l0 -9.79zm-71.11 45.1c2.48,-0.84 3.96,-2.43 3.96,-5.17 0,-3.38 -2.18,-5.46 -6.03,-5.99 -1.19,-0.14 -1.96,-0.14 -3.15,-0.14l-7.82 0 0 24.3 8.24 0c1.22,0 2.03,0 3.22,-0.18 3.19,-0.46 6.41,-2.57 6.41,-7.01 0,-3.24 -1.68,-5.03 -4.83,-5.81l0 0zm-9.18 -8.23l3.96 0c0.56,0 1.26,0.03 1.82,0.1 1.93,0.21 3.29,1.23 3.29,3.38 0,1.97 -0.91,3.2 -3.05,3.55 -0.63,0.11 -1.22,0.15 -1.82,0.15l-4.2 0 0 -7.18 0 0zm6.41 18.09c-0.46,0.04 -1.09,0.04 -1.65,0.04l-4.76 0 0 -7.96 4.55 0c0.57,0 1.13,0 1.83,0.1 2.06,0.25 3.57,1.31 3.57,3.95 0,2.36 -1.54,3.7 -3.54,3.87zm19.58 -16.02c-0.94,0 -2.03,0.39 -2.87,1.06l-1.58 2.57 0 -3.17 -3.85 0 0 18.7 3.85 0 0 -9.72c0,-4.62 2.21,-6.45 5.75,-6.2l0 -3.03c-0.39,-0.14 -0.78,-0.21 -1.3,-0.21l0 0zm14.79 19.16l3.81 0c-0.28,-2.08 -0.34,-3.35 -0.34,-4.76l0 -6.58c0,-0.88 -0.04,-1.87 -0.11,-2.64 -0.32,-3.17 -2.21,-5.22 -7.01,-5.22 -4.24,0 -7.28,2.33 -7.53,6.41l3.85 0c0.21,-2.32 1.37,-3.59 3.61,-3.59 2.21,0 3.16,1.06 3.26,2.57 0.07,0.71 0.07,1.34 0.07,2.05l0 0.45 -1.19 0c-7.04,0 -10.33,2.25 -10.33,6.41 0,3.49 2.69,5.39 5.99,5.39 1.75,0 3.36,-0.32 4.62,-1.2l0.94 -2.01 0.36 2.72zm-4.53 -2.33c-2.03,0 -3.32,-0.91 -3.32,-2.89 0,-2.85 2.94,-3.87 7.46,-3.52l0 1.73c0,3.03 -1.71,4.68 -4.13,4.68l-0.01 0zm29.33 -11.51c-0.35,-3.28 -2.63,-5.35 -6.62,-5.35 -1.86,0 -3.23,0.31 -4.7,1.44l-1.26 2.15 0 -3.1 -3.85 0 0 18.7 3.85 0 0 -8.38c0,-5.85 2.17,-7.96 4.84,-7.96 2.62,0 3.75,1.48 3.92,3.59 0.07,0.95 0.07,1.76 0.07,2.64l0 10.11 3.85 0 0 -10.53c0,-1.52 -0.03,-2.36 -0.1,-3.31l0 0zm21.89 -12.04l-3.85 0 0 9.71 -1.22 -1.86c-0.95,-0.74 -2.88,-1.16 -4.42,-1.16 -4.8,0 -9,3.31 -9,10.14 0,5.49 3.05,9.54 8.37,9.54 1.89,0 3.82,-0.56 4.87,-1.41l1.4 -2.04 0 2.96 3.85 0 0 -25.88 0 0zm-9.25 23.55c-3.32,0 -5.18,-2.99 -5.18,-7.04 0,-4.65 2.31,-7.01 5.36,-7.01 2.49,0 5.22,1.69 5.22,6.23l0 0.99c0,5 -2.49,6.83 -5.4,6.83zm20.18 -16.86c-4.13,0 -6.86,2.11 -6.86,5.59 0,3.28 2.52,4.72 5.92,5.6 3.15,0.85 4.41,1.73 4.41,3.35 0,1.62 -1.44,2.39 -3.22,2.39 -1.93,0 -3.51,-0.95 -3.96,-3.34l-3.89 0c0.53,4.22 3.58,6.09 7.71,6.09 4.06,0 7.25,-1.8 7.25,-5.42 0,-3.31 -2.14,-4.93 -6.2,-5.99 -2.77,-0.74 -4.13,-1.44 -4.13,-3.13 0,-1.41 0.87,-2.43 2.69,-2.43 1.9,0 3.05,1.16 3.44,3.13l3.92 0c-0.42,-3.41 -2.8,-5.84 -7.08,-5.84l0 0 0 0z"/>
  <path class="fil2" d="M1642.02 268l5.33 -5.28c4.23,-4.15 5.91,-6.41 5.91,-9.61 0,-3.84 -2.59,-6.83 -7.7,-6.83 -5.12,0 -8.23,2.78 -8.73,7.92l-0.03 0.35 3.85 0 0.04 -0.35c0.31,-3.21 1.68,-4.96 4.45,-4.96 2.62,0 3.95,1.86 3.95,4.22 0,2.33 -1.32,4.08 -4.37,7.12l-8.45 8.55 0 1.97 16.85 0 0 -3.1 -11.1 0zm23.71 -21.69c-6.72,0 -9.03,5.28 -9.03,12.64 0,7.29 2.31,12.64 9.03,12.64 6.77,0 9.04,-5.35 9.04,-12.64 0,-7.36 -2.27,-12.64 -9.04,-12.64zm0 22.33c-3.43,0 -4.86,-3.46 -4.86,-9.69 0,-6.3 1.43,-9.68 4.86,-9.68 3.47,0 4.88,3.38 4.88,9.68 0,6.24 -1.41,9.69 -4.88,9.69zm25.68 -21.83l-2.14 0c-1.08,0 -2.1,0.24 -3.22,0.91l-5.32 3.28 0 3.8 6.83 -3.94 0 20.24 3.85 0 0 -24.29 0 0zm20.74 11.44c2.21,-0.78 4,-2.57 4,-5.32 0,-4.01 -3.05,-6.61 -8.06,-6.61 -4.98,0 -8.06,2.6 -8.06,6.61 0,2.72 1.54,4.51 3.68,5.32 -2.56,0.81 -4.77,2.99 -4.77,6.02 0,5.32 3.96,7.36 8.9,7.36 4.59,0 8.93,-2.04 8.93,-7.36 0,-3.03 -2.1,-5.21 -4.62,-6.02l0 0zm-4.06 -8.98c2.66,0 4.03,1.66 4.03,3.81 0,2.28 -1.44,3.9 -4.07,3.9 -2.62,0 -3.99,-1.62 -3.99,-3.9 0,-2.15 1.4,-3.81 4.03,-3.81l0 0zm-0.18 19.4c-3.18,0 -4.83,-1.79 -4.83,-4.36 0,-2.4 1.54,-4.37 4.8,-4.37 3.33,0 4.73,2.01 4.73,4.37 0,2.57 -1.47,4.36 -4.7,4.36z"/>
  <g id="_1128814561072_1">
   <path class="fil2" d="M1608.12 214.1c-5.82,-2.73 -9.87,-7.74 -11.58,-13.46 5.47,-2.37 11.89,-2.48 17.71,0.26 5.82,2.73 9.87,7.73 11.58,13.46 -5.47,2.37 -11.89,2.47 -17.71,-0.26l0 0z"/>
   <path class="fil2" d="M1609.91 188.93c-2.72,5.85 -7.69,9.91 -13.39,11.64 -2.35,-5.5 -2.46,-11.95 0.26,-17.8 2.71,-5.85 7.69,-9.91 13.4,-11.64 2.35,5.5 2.44,11.95 -0.27,17.8z"/>
   <path class="fil2" d="M1585.06 225.87c-6.21,-1.67 -11.05,-5.89 -13.73,-11.24 4.97,-3.28 11.27,-4.5 17.48,-2.83 6.2,1.68 11.05,5.9 13.73,11.24 -4.98,3.28 -11.28,4.5 -17.48,2.83z"/>
   <path class="fil2" d="M1582.47 200.77c-1.66,6.24 -5.86,11.11 -11.18,13.81 -3.27,-5.01 -4.48,-11.34 -2.82,-17.58 1.67,-6.23 5.86,-11.11 11.18,-13.8 3.27,5.01 4.48,11.34 2.82,17.57z"/>
   <path class="fil2" d="M1564.36 241.52c-6.4,-0.56 -11.9,-3.87 -15.46,-8.67 4.34,-4.1 10.33,-6.4 16.73,-5.83 6.39,0.56 11.9,3.87 15.46,8.67 -4.34,4.1 -10.33,6.4 -16.73,5.84l0 -0.01z"/>
   <path class="fil2" d="M1557.48 217.26c-0.56,6.43 -3.86,11.96 -8.63,15.54 -4.08,-4.36 -6.37,-10.38 -5.81,-16.81 0.56,-6.43 3.85,-11.97 8.63,-15.54 4.08,4.35 6.36,10.37 5.81,16.81l0 0z"/>
   <path class="fil2" d="M1546.66 260.58c-6.39,0.56 -12.38,-1.73 -16.72,-5.84 3.56,-4.79 9.06,-8.1 15.46,-8.67 6.4,-0.56 12.39,1.74 16.73,5.85 -3.56,4.79 -9.07,8.1 -15.47,8.66l0 0z"/>
   <path class="fil2" d="M1535.69 237.89c0.56,6.43 -1.72,12.45 -5.81,16.81 -4.77,-3.58 -8.06,-9.11 -8.62,-15.55 -0.56,-6.43 1.73,-12.45 5.81,-16.81 4.77,3.58 8.06,9.11 8.62,15.55l0 0z"/>
   <path class="fil2" d="M1532.5 282.46c-6.2,1.67 -12.5,0.45 -17.48,-2.83 2.68,-5.35 7.53,-9.57 13.73,-11.24 6.21,-1.67 12.51,-0.45 17.49,2.83 -2.68,5.35 -7.53,9.57 -13.74,11.24z"/>
   <path class="fil2" d="M1517.78 262.02c1.66,6.24 0.45,12.57 -2.82,17.58 -5.32,-2.7 -9.51,-7.57 -11.18,-13.81 -1.66,-6.23 -0.45,-12.56 2.82,-17.57 5.32,2.7 9.52,7.57 11.18,13.8z"/>
   <path class="fil2" d="M1522.31 306.5c-5.82,2.73 -12.23,2.63 -17.7,0.26 1.71,-5.73 5.76,-10.73 11.58,-13.46 5.82,-2.73 12.23,-2.63 17.7,-0.26 -1.71,5.73 -5.76,10.73 -11.58,13.46l0 0z"/>
   <path class="fil2" d="M1504.28 288.94c2.71,5.85 2.62,12.3 0.26,17.8 -5.7,-1.72 -10.68,-5.79 -13.39,-11.64 -2.72,-5.86 -2.62,-12.3 -0.27,-17.79 5.71,1.72 10.68,5.78 13.4,11.63z"/>
   <path class="fil2" d="M1516.4 331.97c-5.27,3.7 -11.6,4.72 -17.39,3.34 0.7,-5.94 3.81,-11.57 9.08,-15.27 5.26,-3.71 11.59,-4.73 17.39,-3.35 -0.7,5.94 -3.82,11.57 -9.08,15.28l0 0z"/>
   <path class="fil2" d="M1495.61 317.82c3.68,5.29 4.69,11.66 3.33,17.48 -5.92,-0.7 -11.52,-3.83 -15.21,-9.12 -3.68,-5.29 -4.69,-11.65 -3.33,-17.48 5.92,0.7 11.52,3.84 15.21,9.12z"/>
   <path class="fil2" d="M1514.94 358.09c-4.55,4.56 -10.6,6.67 -16.55,6.33 -0.34,-5.98 1.76,-12.07 6.3,-16.63 4.55,-4.57 10.6,-6.67 16.55,-6.34 0.34,5.98 -1.76,12.07 -6.3,16.64z"/>
   <path class="fil2" d="M1492.02 347.79c4.54,4.57 6.64,10.65 6.3,16.63 -5.94,0.34 -12,-1.77 -16.55,-6.33 -4.19,-4.21 -6.3,-9.71 -6.33,-15.24l0 -0.32c0,-0.36 0.01,-0.72 0.03,-1.08 5.95,-0.33 12.01,1.77 16.55,6.34l0 0z"/>
   <path class="fil2" d="M1518 383.87c-3.69,5.29 -9.29,8.42 -15.21,9.13 -1.36,-5.83 -0.35,-12.2 3.34,-17.48 3.68,-5.29 9.28,-8.43 15.2,-9.13 1.37,5.83 0.35,12.19 -3.33,17.48z"/>
   <path class="fil2" d="M1493.65 377.73c5.26,3.7 8.38,9.34 9.08,15.28 -5.8,1.37 -12.13,0.35 -17.4,-3.35 -5.26,-3.7 -8.38,-9.34 -9.07,-15.28 5.79,-1.38 12.12,-0.35 17.39,3.35z"/>
   <path class="fil2" d="M1525.5 408.73c-2.72,5.85 -7.69,9.92 -13.4,11.64 -2.35,-5.5 -2.45,-11.94 0.27,-17.79 2.71,-5.86 7.69,-9.92 13.39,-11.64 2.35,5.5 2.45,11.94 -0.26,17.79z"/>
   <path class="fil2" d="M1500.46 406.93c5.82,2.73 9.86,7.73 11.58,13.47 -5.47,2.36 -11.88,2.46 -17.71,-0.27 -5.82,-2.73 -9.86,-7.73 -11.58,-13.46 5.47,-2.36 11.88,-2.47 17.71,0.26z"/>
   <path class="fil2" d="M1537.22 431.92c-1.67,6.23 -5.87,11.1 -11.19,13.8 -3.26,-5.01 -4.47,-11.34 -2.81,-17.58 1.66,-6.23 5.86,-11.1 11.18,-13.8 3.27,5.01 4.48,11.34 2.82,17.58l0 0z"/>
   <path class="fil2" d="M1512.24 434.52c6.21,1.66 11.05,5.89 13.73,11.23 -4.98,3.29 -11.27,4.5 -17.48,2.83 -6.2,-1.67 -11.05,-5.89 -13.73,-11.23 4.98,-3.29 11.28,-4.51 17.48,-2.83z"/>
   <path class="fil2" d="M1552.79 452.71c-0.56,6.44 -3.85,11.97 -8.63,15.55 -4.08,-4.36 -6.37,-10.38 -5.81,-16.81 0.56,-6.44 3.86,-11.97 8.63,-15.55 4.08,4.36 6.37,10.38 5.81,16.81z"/>
   <path class="fil2" d="M1528.64 459.63c6.4,0.57 11.91,3.88 15.47,8.67 -4.34,4.11 -10.33,6.41 -16.73,5.84 -6.4,-0.56 -11.9,-3.87 -15.46,-8.67 4.33,-4.1 10.32,-6.4 16.72,-5.83l0 -0.01z"/>
   <path class="fil2" d="M1571.75 470.5c0.56,6.43 -1.73,12.45 -5.81,16.81 -4.77,-3.58 -8.07,-9.11 -8.63,-15.54 -0.56,-6.43 1.73,-12.45 5.81,-16.81 4.77,3.58 8.07,9.11 8.63,15.54l0 0z"/>
   <path class="fil2" d="M1549.17 481.53c6.4,-0.56 12.39,1.74 16.72,5.84 -3.56,4.8 -9.06,8.1 -15.46,8.67 -6.4,0.56 -12.39,-1.74 -16.73,-5.84 3.56,-4.79 9.07,-8.11 15.47,-8.67l0 0z"/>
   <path class="fil2" d="M1593.52 484.73c1.66,6.24 0.45,12.57 -2.82,17.58 -5.32,-2.7 -9.52,-7.57 -11.18,-13.81 -1.66,-6.23 -0.45,-12.56 2.81,-17.57 5.32,2.69 9.52,7.57 11.19,13.81l0 -0.01z"/>
   <path class="fil2" d="M1573.18 499.54c6.21,-1.68 12.5,-0.46 17.48,2.83 -2.68,5.34 -7.52,9.56 -13.73,11.23 -6.2,1.67 -12.5,0.46 -17.48,-2.83 2.68,-5.34 7.53,-9.57 13.73,-11.23z"/>
   <path class="fil2" d="M1617.43 494.98c2.72,5.85 2.62,12.29 0.26,17.8 -5.7,-1.73 -10.68,-5.79 -13.39,-11.65 -2.72,-5.85 -2.61,-12.29 -0.26,-17.79 5.7,1.72 10.68,5.79 13.39,11.64l0 0z"/>
   <path class="fil2" d="M1599.97 513.1c5.82,-2.73 12.23,-2.62 17.7,-0.26 -1.71,5.73 -5.76,10.73 -11.58,13.47 -5.82,2.72 -12.23,2.62 -17.7,0.26 1.71,-5.74 5.75,-10.73 11.58,-13.47l0 0z"/>
   <path class="fil2" d="M1638.59 192.69c-6.04,2.21 -12.42,1.55 -17.66,-1.29 2.2,-5.55 6.66,-10.19 12.7,-12.39 6.04,-2.21 12.42,-1.55 17.66,1.29 -2.2,5.56 -6.67,10.19 -12.7,12.39z"/>
   <path class="fil2" d="M1694.46 562.28c-29.52,-29.36 -56.96,-40.93 -77.26,-47.85 -1.96,-0.67 -3.78,-1.29 -5.43,-1.86 -69,-24.28 -115.37,-88.48 -115.37,-159.75 0,-80.21 58.65,-150.17 139.45,-166.36l0.52 2.59c-79.59,15.94 -137.35,84.81 -137.35,163.77 0,70.15 45.66,133.35 113.62,157.25 1.65,0.58 3.45,1.2 5.4,1.86 20.51,6.99 57.03,18.69 86.98,48.48l-10.56 1.87z"/>
   <path class="fil2" d="M1732.58 214.1c5.82,-2.73 9.87,-7.74 11.58,-13.46 -5.47,-2.37 -11.88,-2.48 -17.7,0.26 -5.82,2.73 -9.87,7.73 -11.58,13.46 5.47,2.37 11.88,2.47 17.7,-0.26l0 0z"/>
   <path class="fil2" d="M1730.79 188.93c2.72,5.85 7.69,9.91 13.4,11.64 2.35,-5.5 2.45,-11.95 -0.27,-17.8 -2.71,-5.85 -7.68,-9.91 -13.39,-11.64 -2.35,5.5 -2.45,11.95 0.26,17.8z"/>
   <path class="fil2" d="M1755.65 225.87c6.2,-1.67 11.05,-5.89 13.73,-11.24 -4.98,-3.28 -11.28,-4.5 -17.49,-2.83 -6.2,1.68 -11.04,5.9 -13.72,11.24 4.98,3.28 11.27,4.5 17.48,2.83z"/>
   <path class="fil2" d="M1758.23 200.77c1.67,6.24 5.87,11.11 11.19,13.81 3.26,-5.01 4.47,-11.34 2.81,-17.58 -1.66,-6.23 -5.86,-11.11 -11.18,-13.8 -3.26,5.01 -4.48,11.34 -2.82,17.57z"/>
   <path class="fil2" d="M1776.34 241.52c6.4,-0.56 11.91,-3.87 15.47,-8.67 -4.34,-4.1 -10.33,-6.4 -16.73,-5.83 -6.4,0.56 -11.9,3.87 -15.46,8.67 4.33,4.1 10.32,6.4 16.72,5.84l0 -0.01z"/>
   <path class="fil2" d="M1783.23 217.26c0.56,6.43 3.85,11.96 8.62,15.54 4.08,-4.36 6.37,-10.38 5.81,-16.81 -0.56,-6.43 -3.85,-11.97 -8.62,-15.54 -4.09,4.35 -6.37,10.37 -5.81,16.81l0 0z"/>
   <path class="fil2" d="M1794.04 260.58c6.4,0.56 12.39,-1.73 16.72,-5.84 -3.56,-4.79 -9.06,-8.1 -15.46,-8.67 -6.4,-0.56 -12.39,1.74 -16.72,5.85 3.56,4.79 9.06,8.1 15.46,8.66l0 0z"/>
   <path class="fil2" d="M1805.01 237.89c-0.56,6.43 1.73,12.45 5.81,16.81 4.77,-3.58 8.07,-9.11 8.63,-15.55 0.56,-6.43 -1.73,-12.45 -5.81,-16.81 -4.77,3.58 -8.07,9.11 -8.63,15.55l0 0z"/>
   <path class="fil2" d="M1808.2 282.46c6.21,1.67 12.5,0.45 17.48,-2.83 -2.68,-5.35 -7.53,-9.57 -13.73,-11.24 -6.21,-1.67 -12.5,-0.45 -17.48,2.83 2.68,5.35 7.52,9.57 13.73,11.24z"/>
   <path class="fil2" d="M1822.93 262.02c-1.67,6.24 -0.45,12.57 2.81,17.58 5.32,-2.7 9.52,-7.57 11.18,-13.81 1.67,-6.23 0.45,-12.56 -2.81,-17.57 -5.32,2.7 -9.52,7.57 -11.18,13.8z"/>
   <path class="fil2" d="M1818.39 306.5c5.82,2.73 12.23,2.63 17.7,0.26 -1.71,-5.73 -5.75,-10.73 -11.57,-13.46 -5.82,-2.73 -12.24,-2.63 -17.71,-0.26 1.72,5.73 5.76,10.73 11.58,13.46l0 0z"/>
   <path class="fil2" d="M1836.42 288.94c-2.71,5.85 -2.61,12.3 -0.26,17.8 5.71,-1.72 10.68,-5.79 13.4,-11.64 2.71,-5.86 2.61,-12.3 0.26,-17.79 -5.7,1.72 -10.68,5.78 -13.4,11.63z"/>
   <path class="fil2" d="M1824.3 331.97c5.27,3.7 11.6,4.72 17.4,3.34 -0.7,-5.94 -3.82,-11.57 -9.08,-15.27 -5.26,-3.71 -11.6,-4.73 -17.39,-3.35 0.7,5.94 3.82,11.57 9.07,15.28l0 0z"/>
   <path class="fil2" d="M1845.1 317.82c-3.68,5.29 -4.7,11.66 -3.33,17.48 5.91,-0.7 11.52,-3.83 15.2,-9.12 3.69,-5.29 4.7,-11.65 3.33,-17.48 -5.91,0.7 -11.51,3.84 -15.2,9.12z"/>
   <path class="fil2" d="M1825.77 358.09c4.54,4.56 10.6,6.67 16.54,6.33 0.34,-5.98 -1.76,-12.07 -6.3,-16.63 -4.54,-4.57 -10.6,-6.67 -16.55,-6.34 -0.34,5.98 1.76,12.07 6.31,16.64z"/>
   <path class="fil2" d="M1848.69 347.79c-4.55,4.57 -6.64,10.65 -6.31,16.63 5.95,0.34 12.01,-1.77 16.55,-6.33 4.54,-4.57 6.64,-10.66 6.3,-16.64 -5.94,-0.33 -12,1.77 -16.54,6.34z"/>
   <path class="fil2" d="M1822.7 383.87c3.69,5.29 9.29,8.42 15.21,9.13 1.37,-5.83 0.35,-12.2 -3.33,-17.48 -3.69,-5.29 -9.29,-8.43 -15.21,-9.13 -1.36,5.83 -0.35,12.19 3.33,17.48z"/>
   <path class="fil2" d="M1847.06 377.73c-5.26,3.7 -8.38,9.34 -9.08,15.28 5.79,1.37 12.13,0.35 17.39,-3.35 5.26,-3.7 8.38,-9.34 9.08,-15.28 -5.8,-1.38 -12.13,-0.35 -17.39,3.35z"/>
   <path class="fil2" d="M1815.21 408.73c2.71,5.85 7.69,9.92 13.39,11.64 2.35,-5.5 2.45,-11.94 -0.26,-17.79 -2.72,-5.86 -7.69,-9.92 -13.4,-11.64 -2.35,5.5 -2.45,11.94 0.27,17.79z"/>
   <path class="fil2" d="M1840.25 406.93c-5.82,2.73 -9.87,7.73 -11.58,13.47 5.47,2.36 11.88,2.46 17.7,-0.27 5.82,-2.73 9.87,-7.73 11.58,-13.46 -5.47,-2.36 -11.88,-2.47 -17.7,0.26z"/>
   <path class="fil2" d="M1803.49 431.92c1.66,6.23 5.86,11.1 11.18,13.8 3.27,-5.01 4.48,-11.34 2.82,-17.58 -1.67,-6.23 -5.87,-11.1 -11.18,-13.8 -3.27,5.01 -4.48,11.34 -2.82,17.58l0 0z"/>
   <path class="fil2" d="M1828.46 434.52c-6.2,1.66 -11.05,5.89 -13.73,11.23 4.98,3.29 11.28,4.5 17.48,2.83 6.21,-1.67 11.05,-5.89 13.74,-11.23 -4.98,-3.29 -11.28,-4.51 -17.49,-2.83z"/>
   <path class="fil2" d="M1787.92 452.71c0.56,6.44 3.85,11.97 8.62,15.55 4.08,-4.36 6.37,-10.38 5.81,-16.81 -0.56,-6.44 -3.85,-11.97 -8.63,-15.55 -4.08,4.36 -6.36,10.38 -5.8,16.81z"/>
   <path class="fil2" d="M1812.06 459.63c-6.4,0.57 -11.9,3.88 -15.46,8.67 4.33,4.11 10.32,6.41 16.72,5.84 6.4,-0.56 11.9,-3.87 15.47,-8.67 -4.34,-4.1 -10.33,-6.4 -16.73,-5.83l0 -0.01z"/>
   <path class="fil2" d="M1768.96 470.5c-0.56,6.43 1.72,12.45 5.81,16.81 4.77,-3.58 8.06,-9.11 8.62,-15.54 0.56,-6.43 -1.73,-12.45 -5.81,-16.81 -4.77,3.58 -8.06,9.11 -8.62,15.54l0 0z"/>
   <path class="fil2" d="M1791.54 481.53c-6.4,-0.56 -12.39,1.74 -16.73,5.84 3.56,4.8 9.06,8.1 15.46,8.67 6.4,0.56 12.4,-1.74 16.73,-5.84 -3.56,-4.79 -9.06,-8.11 -15.46,-8.67l0 0z"/>
   <path class="fil2" d="M1747.19 484.73c-1.66,6.24 -0.45,12.57 2.81,17.58 5.32,-2.7 9.52,-7.57 11.18,-13.81 1.67,-6.23 0.45,-12.56 -2.81,-17.57 -5.32,2.69 -9.52,7.57 -11.18,13.81l0 -0.01z"/>
   <path class="fil2" d="M1767.52 499.54c-6.21,-1.68 -12.5,-0.46 -17.48,2.83 2.68,5.34 7.53,9.56 13.73,11.23 6.21,1.67 12.5,0.46 17.48,-2.83 -2.68,-5.34 -7.52,-9.57 -13.73,-11.23z"/>
   <path class="fil2" d="M1723.27 494.98c-2.71,5.85 -2.61,12.29 -0.26,17.8 5.7,-1.73 10.68,-5.79 13.4,-11.65 2.71,-5.85 2.61,-12.29 0.26,-17.79 -5.71,1.72 -10.68,5.79 -13.4,11.64l0 0z"/>
   <path class="fil2" d="M1740.74 513.1c-5.82,-2.73 -12.23,-2.62 -17.7,-0.26 1.71,5.73 5.75,10.73 11.57,13.47 5.83,2.72 12.24,2.62 17.71,0.26 -1.72,-5.74 -5.76,-10.73 -11.58,-13.47z"/>
   <path class="fil2" d="M1702.12 192.69c6.04,2.21 12.41,1.55 17.66,-1.29 -2.21,-5.55 -6.67,-10.19 -12.71,-12.39 -6.03,-2.21 -12.41,-1.55 -17.66,1.29 2.21,5.56 6.67,10.19 12.71,12.39l0 0z"/>
   <path class="fil2" d="M1646.24 562.28l-10.56 -1.87c29.96,-29.79 66.47,-41.49 86.98,-48.48 1.95,-0.66 3.75,-1.28 5.4,-1.86 67.96,-23.9 113.62,-87.1 113.62,-157.25 0,-78.95 -57.76,-147.83 -137.34,-163.77l0.51 -2.59c80.81,16.19 139.45,86.15 139.45,166.36 0,71.27 -46.36,135.47 -115.37,159.75 -1.65,0.57 -3.47,1.19 -5.43,1.86 -20.3,6.92 -47.74,18.49 -77.26,47.85z"/>
  </g>
  <rect class="fil1" x="1890.32" y="138.5" width="453.07" height="437.45"/>
  <path class="fil2" d="M2088.53 258.52l5.32 -5.28c4.24,-4.15 5.92,-6.4 5.92,-9.61 0,-3.84 -2.59,-6.83 -7.71,-6.83 -5.11,0 -8.23,2.78 -8.72,7.92l-0.03 0.36 3.85 0 0.04 -0.36c0.31,-3.2 1.68,-4.96 4.44,-4.96 2.63,0 3.96,1.86 3.96,4.22 0,2.33 -1.33,4.09 -4.37,7.12l-8.45 8.55 0 1.97 16.85 0 0 -3.1 -11.1 0 0 0zm23.71 -21.68c-6.72,0 -9.03,5.28 -9.03,12.64 0,7.29 2.31,12.63 9.03,12.63 6.77,0 9.04,-5.35 9.04,-12.63 0,-7.36 -2.28,-12.64 -9.04,-12.64zm0 22.32c-3.43,0 -4.86,-3.45 -4.86,-9.68 0,-6.31 1.43,-9.69 4.86,-9.69 3.47,0 4.87,3.38 4.87,9.69 0,6.23 -1.4,9.68 -4.87,9.68zm25.68 -21.83l-2.14 0c-1.08,0 -2.1,0.24 -3.22,0.91l-5.32 3.28 0 3.8 6.83 -3.94 0 20.24 3.85 0 0 -24.29 0 0z"/>
  <g id="_1128814561072_2">
   <path class="fil2" d="M2054.63 204.62c-5.82,-2.73 -9.87,-7.73 -11.58,-13.46 5.47,-2.37 11.89,-2.47 17.71,0.26 5.82,2.73 9.86,7.73 11.58,13.46 -5.48,2.37 -11.89,2.47 -17.71,-0.26l0 0z"/>
   <path class="fil2" d="M2056.42 179.45c-2.72,5.85 -7.69,9.91 -13.39,11.64 -2.36,-5.5 -2.46,-11.95 0.26,-17.8 2.71,-5.85 7.69,-9.91 13.39,-11.64 2.35,5.5 2.45,11.95 -0.26,17.8z"/>
   <path class="fil2" d="M2031.57 216.4c-6.21,-1.68 -11.06,-5.89 -13.73,-11.24 4.97,-3.28 11.27,-4.51 17.47,-2.83 6.21,1.67 11.06,5.89 13.74,11.23 -4.98,3.29 -11.28,4.5 -17.48,2.84z"/>
   <path class="fil2" d="M2028.98 191.29c-1.67,6.24 -5.86,11.11 -11.18,13.81 -3.27,-5.01 -4.48,-11.34 -2.82,-17.58 1.67,-6.23 5.86,-11.1 11.18,-13.8 3.27,5.01 4.48,11.34 2.82,17.57z"/>
   <path class="fil2" d="M2010.87 232.05c-6.4,-0.57 -11.9,-3.87 -15.47,-8.67 4.34,-4.11 10.33,-6.4 16.73,-5.84 6.4,0.56 11.91,3.87 15.47,8.67 -4.34,4.1 -10.33,6.4 -16.73,5.84l0 0z"/>
   <path class="fil2" d="M2003.98 207.78c-0.55,6.43 -3.85,11.96 -8.62,15.54 -4.08,-4.36 -6.37,-10.38 -5.81,-16.81 0.56,-6.43 3.85,-11.97 8.62,-15.54 4.09,4.36 6.37,10.38 5.81,16.81l0 0z"/>
   <path class="fil2" d="M1993.17 251.1c-6.4,0.56 -12.39,-1.73 -16.73,-5.84 3.57,-4.79 9.07,-8.1 15.47,-8.67 6.4,-0.56 12.39,1.74 16.73,5.85 -3.56,4.79 -9.07,8.1 -15.47,8.66l0 0z"/>
   <path class="fil2" d="M1982.2 228.41c0.56,6.43 -1.73,12.45 -5.81,16.81 -4.77,-3.58 -8.06,-9.11 -8.62,-15.54 -0.56,-6.44 1.72,-12.46 5.81,-16.82 4.77,3.58 8.06,9.11 8.62,15.55l0 0z"/>
   <path class="fil2" d="M1979.01 272.98c-6.2,1.67 -12.5,0.46 -17.48,-2.83 2.68,-5.35 7.53,-9.56 13.73,-11.23 6.21,-1.68 12.5,-0.46 17.48,2.83 -2.68,5.34 -7.52,9.56 -13.73,11.23z"/>
   <path class="fil2" d="M1964.29 252.54c1.66,6.24 0.45,12.57 -2.82,17.58 -5.32,-2.7 -9.52,-7.57 -11.18,-13.8 -1.66,-6.24 -0.45,-12.57 2.82,-17.58 5.32,2.7 9.51,7.57 11.18,13.8z"/>
   <path class="fil2" d="M1968.82 297.02c-5.82,2.73 -12.23,2.63 -17.7,0.26 1.71,-5.73 5.75,-10.73 11.58,-13.46 5.82,-2.73 12.23,-2.63 17.7,-0.26 -1.71,5.73 -5.76,10.73 -11.58,13.46l0 0z"/>
   <path class="fil2" d="M1950.79 279.47c2.71,5.85 2.61,12.29 0.26,17.79 -5.7,-1.72 -10.68,-5.79 -13.4,-11.64 -2.71,-5.85 -2.61,-12.3 -0.26,-17.79 5.71,1.72 10.68,5.78 13.4,11.64z"/>
   <path class="fil2" d="M1962.91 322.49c-5.27,3.7 -11.6,4.72 -17.39,3.35 0.69,-5.95 3.81,-11.58 9.07,-15.28 5.27,-3.71 11.6,-4.73 17.4,-3.35 -0.7,5.94 -3.82,11.57 -9.08,15.28l0 0z"/>
   <path class="fil2" d="M1942.11 308.35c3.69,5.28 4.7,11.65 3.33,17.48 -5.91,-0.71 -11.51,-3.84 -15.2,-9.13 -3.68,-5.29 -4.7,-11.65 -3.33,-17.48 5.91,0.7 11.52,3.84 15.2,9.13z"/>
   <path class="fil2" d="M1961.45 348.61c-4.55,4.56 -10.61,6.67 -16.55,6.33 -0.34,-5.98 1.76,-12.06 6.3,-16.63 4.54,-4.57 10.6,-6.67 16.55,-6.33 0.34,5.97 -1.76,12.06 -6.3,16.63z"/>
   <path class="fil2" d="M1938.53 338.31c4.54,4.57 6.64,10.65 6.3,16.63 -5.95,0.34 -12,-1.77 -16.55,-6.33 -4.19,-4.21 -6.3,-9.71 -6.33,-15.23l0 -0.33c0,-0.36 0.01,-0.72 0.03,-1.07 5.95,-0.34 12,1.77 16.55,6.33l0 0z"/>
   <path class="fil2" d="M1964.51 374.39c-3.69,5.29 -9.29,8.43 -15.21,9.13 -1.36,-5.83 -0.35,-12.19 3.34,-17.48 3.68,-5.29 9.28,-8.43 15.2,-9.13 1.36,5.83 0.35,12.19 -3.33,17.48z"/>
   <path class="fil2" d="M1940.15 368.25c5.27,3.7 8.38,9.34 9.09,15.28 -5.8,1.38 -12.13,0.35 -17.4,-3.35 -5.26,-3.7 -8.38,-9.33 -9.07,-15.28 5.79,-1.37 12.12,-0.35 17.38,3.35z"/>
   <path class="fil2" d="M1972.01 399.25c-2.72,5.85 -7.69,9.92 -13.4,11.64 -2.35,-5.5 -2.45,-11.94 0.26,-17.79 2.72,-5.85 7.7,-9.92 13.4,-11.64 2.35,5.5 2.45,11.94 -0.26,17.79z"/>
   <path class="fil2" d="M1946.96 397.45c5.83,2.73 9.87,7.73 11.59,13.47 -5.47,2.36 -11.89,2.46 -17.71,-0.26 -5.82,-2.73 -9.86,-7.73 -11.58,-13.47 5.47,-2.36 11.88,-2.46 17.7,0.26z"/>
   <path class="fil2" d="M1983.72 422.44c-1.66,6.24 -5.86,11.1 -11.18,13.8 -3.26,-5.01 -4.47,-11.34 -2.81,-17.57 1.66,-6.24 5.86,-11.11 11.18,-13.81 3.27,5.01 4.48,11.34 2.82,17.58l-0.01 0z"/>
   <path class="fil2" d="M1958.75 425.04c6.21,1.67 11.05,5.89 13.73,11.23 -4.98,3.29 -11.27,4.5 -17.48,2.83 -6.21,-1.67 -11.05,-5.89 -13.73,-11.23 4.98,-3.29 11.28,-4.5 17.48,-2.83z"/>
   <path class="fil2" d="M1999.3 443.24c-0.56,6.43 -3.85,11.96 -8.63,15.54 -4.08,-4.36 -6.37,-10.38 -5.81,-16.81 0.56,-6.43 3.85,-11.96 8.63,-15.54 4.08,4.35 6.37,10.37 5.81,16.81z"/>
   <path class="fil2" d="M1975.15 450.16c6.4,0.56 11.91,3.87 15.47,8.66 -4.34,4.11 -10.33,6.41 -16.73,5.84 -6.4,-0.56 -11.9,-3.87 -15.46,-8.67 4.33,-4.1 10.32,-6.4 16.72,-5.83l0 0z"/>
   <path class="fil2" d="M2018.26 461.02c0.56,6.43 -1.73,12.46 -5.81,16.81 -4.77,-3.58 -8.07,-9.1 -8.63,-15.54 -0.56,-6.43 1.73,-12.45 5.81,-16.81 4.77,3.58 8.07,9.11 8.63,15.54l0 0z"/>
   <path class="fil2" d="M1995.68 472.05c6.4,-0.56 12.39,1.74 16.72,5.84 -3.56,4.8 -9.06,8.11 -15.46,8.67 -6.4,0.56 -12.39,-1.73 -16.73,-5.84 3.56,-4.79 9.06,-8.11 15.47,-8.67l0 0z"/>
   <path class="fil2" d="M2040.03 475.26c1.66,6.23 0.45,12.56 -2.82,17.57 -5.32,-2.7 -9.52,-7.57 -11.18,-13.81 -1.67,-6.23 -0.45,-12.56 2.81,-17.56 5.32,2.69 9.52,7.56 11.19,13.8l0 0z"/>
   <path class="fil2" d="M2019.69 490.06c6.21,-1.68 12.5,-0.46 17.48,2.83 -2.68,5.34 -7.52,9.56 -13.73,11.23 -6.2,1.68 -12.5,0.46 -17.48,-2.83 2.68,-5.34 7.53,-9.57 13.73,-11.23z"/>
   <path class="fil2" d="M2063.94 485.5c2.71,5.85 2.61,12.29 0.26,17.8 -5.7,-1.73 -10.68,-5.79 -13.39,-11.64 -2.72,-5.86 -2.62,-12.3 -0.26,-17.8 5.7,1.73 10.67,5.79 13.39,11.64l0 0z"/>
   <path class="fil2" d="M2046.48 503.63c5.82,-2.73 12.23,-2.63 17.7,-0.27 -1.72,5.73 -5.76,10.74 -11.58,13.47 -5.82,2.73 -12.23,2.62 -17.71,0.26 1.72,-5.73 5.76,-10.73 11.59,-13.46l0 0z"/>
   <path class="fil2" d="M2085.1 183.21c-6.04,2.21 -12.42,1.55 -17.66,-1.28 2.2,-5.56 6.66,-10.19 12.7,-12.4 6.03,-2.21 12.42,-1.55 17.66,1.29 -2.2,5.56 -6.67,10.19 -12.7,12.39z"/>
   <path class="fil2" d="M2140.97 552.8c-29.52,-29.36 -56.96,-40.93 -77.27,-47.85 -1.95,-0.67 -3.77,-1.28 -5.42,-1.86 -69,-24.28 -115.37,-88.48 -115.37,-159.75 0,-80.2 58.65,-150.17 139.45,-166.36l0.51 2.59c-79.58,15.95 -137.34,84.82 -137.34,163.77 0,70.15 45.66,133.35 113.62,157.26 1.64,0.57 3.45,1.19 5.4,1.85 20.51,6.99 57.03,18.69 86.98,48.48l-10.56 1.87z"/>
   <path class="fil2" d="M2179.09 204.62c5.82,-2.73 9.87,-7.73 11.58,-13.46 -5.47,-2.37 -11.88,-2.47 -17.7,0.26 -5.82,2.73 -9.87,7.73 -11.58,13.46 5.47,2.37 11.88,2.47 17.7,-0.26l0 0z"/>
   <path class="fil2" d="M2177.3 179.45c2.72,5.85 7.69,9.91 13.4,11.64 2.35,-5.5 2.45,-11.95 -0.27,-17.8 -2.71,-5.85 -7.69,-9.91 -13.39,-11.64 -2.36,5.5 -2.45,11.95 0.26,17.8z"/>
   <path class="fil2" d="M2202.16 216.4c6.2,-1.68 11.05,-5.89 13.73,-11.24 -4.99,-3.28 -11.28,-4.51 -17.49,-2.83 -6.2,1.67 -11.05,5.89 -13.72,11.23 4.97,3.29 11.27,4.5 17.48,2.84z"/>
   <path class="fil2" d="M2204.74 191.29c1.67,6.24 5.87,11.11 11.18,13.81 3.27,-5.01 4.48,-11.34 2.82,-17.58 -1.66,-6.23 -5.86,-11.1 -11.18,-13.8 -3.27,5.01 -4.48,11.34 -2.82,17.57z"/>
   <path class="fil2" d="M2222.85 232.05c6.4,-0.57 11.91,-3.87 15.47,-8.67 -4.34,-4.11 -10.33,-6.4 -16.73,-5.84 -6.4,0.56 -11.9,3.87 -15.47,8.67 4.34,4.1 10.33,6.4 16.73,5.84l0 0z"/>
   <path class="fil2" d="M2229.73 207.78c0.57,6.43 3.86,11.96 8.63,15.54 4.08,-4.36 6.37,-10.38 5.81,-16.81 -0.56,-6.43 -3.85,-11.97 -8.62,-15.54 -4.09,4.36 -6.37,10.38 -5.82,16.81l0 0z"/>
   <path class="fil2" d="M2240.55 251.1c6.4,0.56 12.39,-1.73 16.72,-5.84 -3.56,-4.79 -9.06,-8.1 -15.46,-8.67 -6.4,-0.56 -12.39,1.74 -16.73,5.85 3.57,4.79 9.07,8.1 15.47,8.66l0 0z"/>
   <path class="fil2" d="M2251.52 228.41c-0.56,6.43 1.73,12.45 5.81,16.81 4.77,-3.58 8.07,-9.11 8.63,-15.54 0.56,-6.44 -1.73,-12.46 -5.81,-16.82 -4.77,3.58 -8.07,9.11 -8.63,15.55l0 0z"/>
   <path class="fil2" d="M2254.71 272.98c6.2,1.67 12.5,0.46 17.48,-2.83 -2.68,-5.35 -7.53,-9.56 -13.73,-11.23 -6.21,-1.68 -12.51,-0.46 -17.48,2.83 2.68,5.34 7.52,9.56 13.73,11.23z"/>
   <path class="fil2" d="M2269.44 252.54c-1.67,6.24 -0.45,12.57 2.81,17.58 5.32,-2.7 9.52,-7.57 11.18,-13.8 1.67,-6.24 0.45,-12.57 -2.81,-17.58 -5.33,2.7 -9.52,7.57 -11.18,13.8z"/>
   <path class="fil2" d="M2264.9 297.02c5.82,2.73 12.23,2.63 17.7,0.26 -1.71,-5.73 -5.75,-10.73 -11.57,-13.46 -5.83,-2.73 -12.24,-2.63 -17.71,-0.26 1.71,5.73 5.76,10.73 11.58,13.46l0 0z"/>
   <path class="fil2" d="M2282.93 279.47c-2.71,5.85 -2.61,12.29 -0.26,17.79 5.7,-1.72 10.68,-5.79 13.4,-11.64 2.71,-5.85 2.61,-12.3 0.26,-17.79 -5.7,1.72 -10.68,5.78 -13.4,11.64z"/>
   <path class="fil2" d="M2270.81 322.49c5.27,3.7 11.6,4.72 17.4,3.35 -0.7,-5.95 -3.82,-11.58 -9.09,-15.28 -5.25,-3.71 -11.59,-4.73 -17.38,-3.35 0.7,5.94 3.81,11.57 9.07,15.28l0 0z"/>
   <path class="fil2" d="M2291.61 308.35c-3.69,5.28 -4.7,11.65 -3.33,17.48 5.91,-0.71 11.51,-3.84 15.2,-9.13 3.69,-5.29 4.7,-11.65 3.33,-17.48 -5.91,0.7 -11.52,3.84 -15.2,9.13z"/>
   <path class="fil2" d="M2272.28 348.61c4.53,4.56 10.6,6.67 16.54,6.33 0.34,-5.98 -1.76,-12.06 -6.3,-16.63 -4.54,-4.57 -10.6,-6.67 -16.55,-6.33 -0.34,5.97 1.76,12.06 6.31,16.63z"/>
   <path class="fil2" d="M2295.19 338.31c-4.54,4.57 -6.64,10.65 -6.3,16.63 5.95,0.34 12.01,-1.77 16.55,-6.33 4.54,-4.57 6.64,-10.66 6.3,-16.63 -5.94,-0.34 -12,1.76 -16.55,6.33z"/>
   <path class="fil2" d="M2269.21 374.39c3.69,5.29 9.29,8.43 15.2,9.13 1.38,-5.83 0.36,-12.19 -3.33,-17.48 -3.68,-5.29 -9.28,-8.43 -15.2,-9.13 -1.36,5.83 -0.35,12.19 3.33,17.48z"/>
   <path class="fil2" d="M2293.57 368.25c-5.27,3.7 -8.38,9.34 -9.08,15.28 5.79,1.38 12.13,0.35 17.39,-3.35 5.26,-3.7 8.38,-9.33 9.08,-15.28 -5.8,-1.37 -12.13,-0.35 -17.39,3.35z"/>
   <path class="fil2" d="M2261.71 399.25c2.72,5.85 7.7,9.92 13.4,11.64 2.35,-5.5 2.45,-11.94 -0.26,-17.79 -2.72,-5.85 -7.69,-9.92 -13.4,-11.64 -2.35,5.5 -2.45,11.94 0.26,17.79z"/>
   <path class="fil2" d="M2286.75 397.45c-5.82,2.73 -9.86,7.73 -11.57,13.47 5.47,2.36 11.88,2.46 17.7,-0.26 5.82,-2.73 9.87,-7.73 11.58,-13.47 -5.47,-2.36 -11.88,-2.46 -17.71,0.26z"/>
   <path class="fil2" d="M2250 422.44c1.66,6.24 5.86,11.1 11.18,13.8 3.26,-5.01 4.48,-11.34 2.81,-17.57 -1.66,-6.24 -5.86,-11.11 -11.18,-13.81 -3.26,5.01 -4.48,11.34 -2.81,17.58l0 0z"/>
   <path class="fil2" d="M2274.97 425.04c-6.2,1.67 -11.05,5.89 -13.73,11.23 4.98,3.29 11.28,4.5 17.48,2.83 6.21,-1.67 11.05,-5.89 13.73,-11.23 -4.98,-3.29 -11.28,-4.5 -17.48,-2.83z"/>
   <path class="fil2" d="M2234.42 443.24c0.57,6.43 3.86,11.96 8.63,15.54 4.08,-4.36 6.37,-10.38 5.81,-16.81 -0.56,-6.43 -3.86,-11.96 -8.63,-15.54 -4.08,4.35 -6.36,10.37 -5.81,16.81z"/>
   <path class="fil2" d="M2258.57 450.16c-6.4,0.56 -11.9,3.87 -15.47,8.66 4.34,4.11 10.33,6.41 16.73,5.84 6.4,-0.56 11.9,-3.87 15.46,-8.67 -4.33,-4.1 -10.32,-6.4 -16.72,-5.83l0 0z"/>
   <path class="fil2" d="M2215.47 461.02c-0.57,6.43 1.72,12.46 5.81,16.81 4.77,-3.58 8.06,-9.1 8.62,-15.54 0.56,-6.43 -1.73,-12.45 -5.81,-16.81 -4.77,3.58 -8.06,9.11 -8.62,15.54l0 0z"/>
   <path class="fil2" d="M2238.05 472.05c-6.4,-0.56 -12.39,1.74 -16.73,5.84 3.56,4.8 9.06,8.11 15.46,8.67 6.4,0.56 12.39,-1.73 16.73,-5.84 -3.56,-4.79 -9.07,-8.11 -15.46,-8.67l0 0z"/>
   <path class="fil2" d="M2193.69 475.26c-1.65,6.23 -0.45,12.56 2.82,17.57 5.32,-2.7 9.52,-7.57 11.18,-13.81 1.67,-6.23 0.45,-12.56 -2.81,-17.56 -5.32,2.69 -9.52,7.56 -11.18,13.8l-0.01 0z"/>
   <path class="fil2" d="M2214.03 490.06c-6.21,-1.68 -12.5,-0.46 -17.48,2.83 2.68,5.34 7.52,9.56 13.73,11.23 6.21,1.68 12.5,0.46 17.48,-2.83 -2.68,-5.34 -7.53,-9.57 -13.73,-11.23z"/>
   <path class="fil2" d="M2169.78 485.5c-2.71,5.85 -2.61,12.29 -0.26,17.8 5.7,-1.73 10.68,-5.79 13.39,-11.64 2.72,-5.86 2.62,-12.3 0.26,-17.8 -5.7,1.73 -10.67,5.79 -13.39,11.64l0 0z"/>
   <path class="fil2" d="M2187.25 503.63c-5.83,-2.73 -12.23,-2.63 -17.71,-0.27 1.72,5.73 5.76,10.74 11.58,13.47 5.83,2.73 12.24,2.62 17.71,0.26 -1.72,-5.73 -5.76,-10.73 -11.58,-13.46z"/>
   <path class="fil2" d="M2148.63 183.21c6.04,2.21 12.41,1.55 17.66,-1.28 -2.21,-5.56 -6.67,-10.19 -12.71,-12.4 -6.04,-2.21 -12.41,-1.55 -17.66,1.29 2.21,5.56 6.67,10.19 12.71,12.39l0 0z"/>
   <path class="fil2" d="M2092.75 552.8l-10.56 -1.87c29.96,-29.79 66.47,-41.49 86.98,-48.48 1.95,-0.66 3.75,-1.28 5.4,-1.85 67.96,-23.91 113.62,-87.11 113.62,-157.26 0,-78.95 -57.76,-147.82 -137.34,-163.77l0.51 -2.59c80.8,16.19 139.45,86.16 139.45,166.36 0,71.27 -46.37,135.47 -115.37,159.75 -1.66,0.57 -3.47,1.19 -5.43,1.86 -20.3,6.92 -47.74,18.49 -77.26,47.85z"/>
  </g>
  <path class="fil2" d="M2156.98 250.45c-0.5,3.12 -2.33,7.7 -7.74,8.43 -1.03,0.13 -1.72,0.2 -2.46,0.13l0 3.1c0.7,0.03 1.7,0 2.73,-0.17 7.4,-0.8 11.36,-7.07 11.36,-15.09 0,-6.15 -2.86,-10.51 -7.98,-10.51 -4.94,0 -8.1,4.15 -8.1,8.82 0,4.49 2.86,7.62 6.91,7.62 2.22,0 3.98,-0.9 5.18,-2.33l0.1 0zm-4.29 -11.29c2.83,0 4.26,2.93 4.26,7.06 0,0.7 -0.1,1.14 -0.27,1.47 -0.73,1.3 -2.16,2.36 -3.99,2.36 -2.52,0 -4.05,-2.16 -4.05,-5.13 0,-3.36 1.66,-5.76 4.05,-5.76z"/>
  <path class="fil2" d="M2086.11 331.54l0 -24.04 9.02 0c1.84,0 3.31,0.24 4.42,0.73 1.11,0.49 1.97,1.23 2.6,2.25 0.64,1 0.95,2.06 0.95,3.17 0,1.02 -0.28,1.99 -0.83,2.9 -0.56,0.9 -1.4,1.64 -2.52,2.2 1.45,0.42 2.57,1.15 3.35,2.18 0.78,1.02 1.17,2.24 1.17,3.64 0,1.13 -0.24,2.17 -0.72,3.14 -0.47,0.97 -1.06,1.71 -1.76,2.24 -0.69,0.52 -1.57,0.92 -2.62,1.19 -1.06,0.26 -2.36,0.4 -3.89,0.4l-9.17 0 0 0zm3.19 -13.93l5.2 0c1.41,0 2.42,-0.1 3.03,-0.28 0.81,-0.25 1.42,-0.65 1.83,-1.21 0.41,-0.56 0.62,-1.25 0.62,-2.1 0,-0.8 -0.19,-1.5 -0.58,-2.11 -0.38,-0.61 -0.93,-1.03 -1.64,-1.25 -0.71,-0.23 -1.93,-0.34 -3.65,-0.34l-4.81 0 0 7.28 0 0.01zm0 11.11l5.99 0c1.03,0 1.75,-0.04 2.17,-0.12 0.73,-0.13 1.34,-0.35 1.84,-0.66 0.49,-0.3 0.89,-0.75 1.21,-1.34 0.32,-0.59 0.48,-1.26 0.48,-2.03 0,-0.9 -0.24,-1.68 -0.7,-2.34 -0.46,-0.67 -1.09,-1.13 -1.91,-1.4 -0.81,-0.27 -1.99,-0.4 -3.51,-0.4l-5.57 0 0 8.29 0 0zm30.85 -2.82l3.06 0.4c-0.48,1.78 -1.37,3.16 -2.66,4.14 -1.3,0.98 -2.96,1.47 -4.98,1.47 -2.54,0 -4.56,-0.78 -6.04,-2.35 -1.49,-1.56 -2.24,-3.76 -2.24,-6.59 0,-2.92 0.76,-5.19 2.26,-6.8 1.51,-1.62 3.46,-2.42 5.86,-2.42 2.32,0 4.22,0.78 5.69,2.37 1.47,1.58 2.21,3.81 2.21,6.68 0,0.17 -0.01,0.43 -0.02,0.78l-12.97 0c0.11,1.91 0.64,3.38 1.62,4.39 0.97,1.01 2.18,1.52 3.63,1.52 1.08,0 2,-0.28 2.76,-0.85 0.77,-0.58 1.37,-1.49 1.82,-2.74l0 0zm-9.67 -4.74l9.71 0c-0.13,-1.46 -0.51,-2.56 -1.12,-3.29 -0.93,-1.14 -2.15,-1.71 -3.65,-1.71 -1.35,0 -2.48,0.45 -3.41,1.36 -0.92,0.91 -1.43,2.12 -1.53,3.64zm15.29 5.17l2.92 -0.47c0.16,1.17 0.62,2.07 1.37,2.7 0.75,0.62 1.8,0.93 3.14,0.93 1.36,0 2.37,-0.27 3.03,-0.83 0.65,-0.55 0.98,-1.2 0.98,-1.94 0,-0.67 -0.3,-1.19 -0.88,-1.57 -0.42,-0.27 -1.42,-0.59 -3.02,-1.01 -2.16,-0.54 -3.66,-1.01 -4.5,-1.4 -0.83,-0.4 -1.46,-0.95 -1.89,-1.66 -0.43,-0.7 -0.65,-1.48 -0.65,-2.33 0,-0.77 0.18,-1.49 0.53,-2.15 0.36,-0.66 0.84,-1.21 1.45,-1.65 0.46,-0.33 1.08,-0.62 1.88,-0.85 0.79,-0.24 1.64,-0.35 2.54,-0.35 1.37,0 2.56,0.19 3.59,0.59 1.04,0.39 1.8,0.93 2.29,1.6 0.49,0.68 0.83,1.58 1.01,2.71l-2.88 0.4c-0.14,-0.91 -0.51,-1.62 -1.14,-2.12 -0.63,-0.51 -1.51,-0.77 -2.66,-0.77 -1.35,0 -2.32,0.23 -2.89,0.67 -0.58,0.45 -0.87,0.98 -0.87,1.58 0,0.38 0.12,0.72 0.36,1.03 0.24,0.32 0.62,0.58 1.13,0.79 0.3,0.11 1.16,0.36 2.6,0.75 2.08,0.55 3.54,1.01 4.37,1.37 0.82,0.35 1.47,0.87 1.94,1.54 0.48,0.68 0.71,1.52 0.71,2.52 0,0.98 -0.28,1.91 -0.86,2.77 -0.58,0.87 -1.4,1.54 -2.48,2.02 -1.09,0.47 -2.31,0.71 -3.68,0.71 -2.26,0 -3.99,-0.47 -5.17,-1.41 -1.19,-0.94 -1.95,-2.32 -2.28,-4.16l0.01 -0.01zm24.37 2.57l0.4 2.61c-0.83,0.17 -1.57,0.26 -2.22,0.26 -1.07,0 -1.9,-0.17 -2.49,-0.51 -0.59,-0.34 -1,-0.78 -1.24,-1.33 -0.24,-0.56 -0.36,-1.72 -0.36,-3.49l0 -10.04 -2.18 0 0 -2.28 2.18 0 0 -4.31 2.96 -1.78 0 6.08 2.95 0 0 2.29 -2.95 0 0 10.2c0,0.85 0.04,1.39 0.15,1.63 0.1,0.24 0.27,0.43 0.5,0.58 0.24,0.14 0.58,0.21 1.01,0.21 0.33,0 0.76,-0.04 1.29,-0.12zm-90.62 31.71l3.19 0.81c-0.67,2.61 -1.86,4.6 -3.59,5.97 -1.73,1.37 -3.85,2.06 -6.35,2.06 -2.58,0 -4.69,-0.53 -6.31,-1.58 -1.62,-1.06 -2.85,-2.58 -3.7,-4.58 -0.84,-2 -1.27,-4.15 -1.27,-6.44 0,-2.5 0.48,-4.69 1.44,-6.55 0.95,-1.86 2.31,-3.27 4.08,-4.24 1.76,-0.97 3.7,-1.45 5.81,-1.45 2.41,0 4.43,0.6 6.06,1.83 1.64,1.22 2.78,2.94 3.43,5.16l-3.12 0.73c-0.56,-1.74 -1.37,-3.01 -2.43,-3.81 -1.05,-0.8 -2.38,-1.2 -3.99,-1.2 -1.84,0 -3.39,0.45 -4.62,1.33 -1.24,0.88 -2.11,2.08 -2.61,3.56 -0.5,1.5 -0.75,3.04 -0.75,4.62 0,2.04 0.29,3.83 0.88,5.35 0.6,1.53 1.52,2.66 2.77,3.42 1.26,0.75 2.61,1.13 4.07,1.13 1.78,0 3.28,-0.52 4.51,-1.54 1.23,-1.03 2.06,-2.55 2.5,-4.58l0 0zm5.65 -0.28c0,-3.21 0.89,-5.6 2.69,-7.15 1.49,-1.29 3.32,-1.93 5.48,-1.93 2.38,0 4.34,0.78 5.87,2.35 1.51,1.56 2.27,3.73 2.27,6.49 0,2.23 -0.33,3.99 -1,5.28 -0.67,1.28 -1.66,2.27 -2.94,2.98 -1.28,0.71 -2.69,1.06 -4.2,1.06 -2.44,0 -4.41,-0.77 -5.92,-2.33 -1.5,-1.56 -2.25,-3.81 -2.25,-6.75l0 0zm3.02 0.01c0,2.23 0.49,3.89 1.46,5 0.98,1.1 2.2,1.66 3.69,1.66 1.46,0 2.68,-0.56 3.66,-1.67 0.98,-1.11 1.46,-2.81 1.46,-5.09 0,-2.14 -0.49,-3.77 -1.47,-4.88 -0.97,-1.1 -2.2,-1.66 -3.65,-1.66 -1.48,0 -2.71,0.55 -3.69,1.65 -0.97,1.1 -1.46,2.77 -1.46,4.99l0 0zm16.76 8.71l0 -17.43 2.65 0 0 2.47c1.28,-1.89 3.12,-2.84 5.53,-2.84 1.06,0 2.02,0.19 2.9,0.57 0.87,0.37 1.54,0.87 1.97,1.48 0.44,0.61 0.75,1.34 0.92,2.18 0.11,0.55 0.16,1.5 0.16,2.87l0 10.7 -2.95 0 0 -10.59c0,-1.2 -0.11,-2.1 -0.34,-2.7 -0.23,-0.59 -0.64,-1.06 -1.22,-1.42 -0.58,-0.36 -1.27,-0.54 -2.05,-0.54 -1.26,0 -2.34,0.4 -3.25,1.2 -0.91,0.79 -1.37,2.31 -1.37,4.54l0 9.51 -2.95 0 0 0zm17.49 -5.21l2.93 -0.47c0.16,1.17 0.62,2.07 1.37,2.69 0.75,0.62 1.8,0.94 3.14,0.94 1.36,0 2.37,-0.28 3.03,-0.83 0.65,-0.55 0.98,-1.2 0.98,-1.94 0,-0.67 -0.29,-1.2 -0.88,-1.57 -0.41,-0.27 -1.42,-0.6 -3.02,-1.01 -2.16,-0.54 -3.66,-1.01 -4.5,-1.41 -0.83,-0.4 -1.46,-0.95 -1.89,-1.65 -0.43,-0.7 -0.65,-1.48 -0.65,-2.33 0,-0.78 0.18,-1.49 0.53,-2.15 0.36,-0.67 0.84,-1.21 1.45,-1.65 0.46,-0.34 1.08,-0.62 1.87,-0.86 0.8,-0.23 1.64,-0.35 2.55,-0.35 1.36,0 2.56,0.2 3.59,0.6 1.04,0.39 1.8,0.92 2.29,1.6 0.49,0.67 0.83,1.57 1.01,2.71l-2.89 0.4c-0.12,-0.91 -0.5,-1.62 -1.13,-2.13 -0.63,-0.51 -1.51,-0.76 -2.66,-0.76 -1.35,0 -2.31,0.22 -2.89,0.67 -0.58,0.45 -0.87,0.98 -0.87,1.57 0,0.39 0.12,0.73 0.36,1.04 0.24,0.31 0.61,0.57 1.13,0.78 0.3,0.12 1.16,0.37 2.6,0.76 2.08,0.55 3.54,1.01 4.36,1.36 0.84,0.35 1.48,0.88 1.95,1.55 0.48,0.68 0.71,1.51 0.71,2.52 0,0.98 -0.28,1.9 -0.86,2.77 -0.57,0.87 -1.4,1.54 -2.48,2.02 -1.09,0.47 -2.31,0.71 -3.68,0.71 -2.26,0 -3.99,-0.48 -5.18,-1.41 -1.18,-0.94 -1.94,-2.32 -2.27,-4.17l0 0zm29.35 5.21l0 -2.59c-1.36,1.97 -3.19,2.95 -5.51,2.95 -1.03,0 -1.99,-0.19 -2.88,-0.58 -0.88,-0.4 -1.55,-0.89 -1.97,-1.49 -0.44,-0.59 -0.74,-1.32 -0.91,-2.18 -0.12,-0.58 -0.18,-1.5 -0.18,-2.76l0 -10.78 2.95 0 0 9.64c0,1.54 0.06,2.58 0.18,3.11 0.18,0.78 0.58,1.39 1.18,1.83 0.6,0.44 1.34,0.66 2.22,0.66 0.88,0 1.72,-0.22 2.49,-0.68 0.77,-0.45 1.32,-1.07 1.64,-1.85 0.32,-0.77 0.48,-1.91 0.48,-3.39l0 -9.32 2.96 0 0 17.43 -2.66 0 0.01 0zm7.29 0l0 -17.43 2.65 0 0 2.46c0.54,-0.85 1.27,-1.54 2.18,-2.05 0.9,-0.52 1.93,-0.78 3.09,-0.78 1.29,0 2.34,0.27 3.17,0.8 0.82,0.54 1.4,1.28 1.74,2.25 1.39,-2.04 3.18,-3.05 5.4,-3.05 1.73,0 3.07,0.47 4,1.43 0.93,0.96 1.4,2.43 1.4,4.42l0 11.94 -2.95 0 0 -10.96c0,-1.18 -0.1,-2.03 -0.29,-2.55 -0.19,-0.52 -0.54,-0.93 -1.05,-1.25 -0.5,-0.32 -1.09,-0.48 -1.77,-0.48 -1.23,0 -2.25,0.41 -3.06,1.22 -0.81,0.82 -1.22,2.12 -1.22,3.91l0 10.12 -2.95 0 0 -11.31c0,-1.31 -0.24,-2.3 -0.72,-2.95 -0.48,-0.66 -1.27,-0.99 -2.36,-0.99 -0.83,0 -1.59,0.22 -2.3,0.66 -0.71,0.44 -1.22,1.07 -1.53,1.92 -0.32,0.84 -0.47,2.05 -0.47,3.64l0 9.03 -2.96 0 0 0zm39.85 -5.64l3.05 0.4c-0.47,1.77 -1.36,3.15 -2.66,4.13 -1.3,0.98 -2.95,1.47 -4.97,1.47 -2.54,0 -4.56,-0.78 -6.04,-2.35 -1.5,-1.56 -2.24,-3.76 -2.24,-6.58 0,-2.92 0.75,-5.2 2.26,-6.81 1.5,-1.62 3.46,-2.42 5.86,-2.42 2.32,0 4.21,0.79 5.69,2.37 1.47,1.59 2.21,3.81 2.21,6.68 0,0.18 -0.01,0.44 -0.02,0.79l-12.98 0c0.11,1.91 0.65,3.37 1.63,4.38 0.97,1.01 2.18,1.53 3.63,1.53 1.08,0 2,-0.29 2.76,-0.86 0.77,-0.57 1.37,-1.48 1.82,-2.73zm-9.67 -4.74l9.7 0c-0.13,-1.46 -0.5,-2.56 -1.11,-3.29 -0.93,-1.14 -2.16,-1.71 -3.65,-1.71 -1.35,0 -2.49,0.45 -3.41,1.36 -0.92,0.9 -1.43,2.12 -1.53,3.64zm16.42 10.38l0 -17.43 2.66 0 0 2.67c0.67,-1.24 1.3,-2.06 1.88,-2.45 0.57,-0.39 1.2,-0.59 1.89,-0.59 1,0 2.01,0.31 3.04,0.94l-1.05 2.72c-0.72,-0.4 -1.43,-0.6 -2.15,-0.6 -0.64,0 -1.22,0.19 -1.73,0.58 -0.51,0.38 -0.87,0.92 -1.09,1.61 -0.33,1.05 -0.49,2.19 -0.49,3.44l0 9.1 -2.96 0 0 0.01zm-153.66 29.78l2.99 -0.27c0.14,1.21 0.46,2.2 0.99,2.98 0.51,0.77 1.32,1.4 2.41,1.88 1.09,0.47 2.32,0.71 3.69,0.71 1.21,0 2.28,-0.17 3.21,-0.54 0.93,-0.36 1.62,-0.86 2.07,-1.49 0.46,-0.63 0.69,-1.32 0.69,-2.06 0,-0.75 -0.23,-1.41 -0.66,-1.97 -0.44,-0.56 -1.16,-1.03 -2.17,-1.42 -0.64,-0.24 -2.07,-0.64 -4.28,-1.17 -2.21,-0.53 -3.75,-1.03 -4.63,-1.5 -1.15,-0.6 -2,-1.35 -2.56,-2.24 -0.57,-0.89 -0.85,-1.89 -0.85,-3 0,-1.22 0.35,-2.35 1.04,-3.41 0.69,-1.05 1.69,-1.85 3.01,-2.4 1.33,-0.55 2.8,-0.82 4.41,-0.82 1.78,0 3.36,0.28 4.71,0.86 1.36,0.57 2.41,1.41 3.14,2.53 0.74,1.12 1.13,2.38 1.18,3.79l-3.05 0.24c-0.16,-1.52 -0.72,-2.67 -1.66,-3.44 -0.95,-0.78 -2.35,-1.16 -4.19,-1.16 -1.93,0 -3.33,0.35 -4.21,1.05 -0.88,0.71 -1.32,1.56 -1.32,2.56 0,0.86 0.31,1.57 0.93,2.13 0.62,0.55 2.21,1.13 4.8,1.71 2.58,0.59 4.35,1.1 5.32,1.53 1.39,0.65 2.43,1.46 3.09,2.45 0.67,0.98 1,2.12 1,3.41 0,1.28 -0.37,2.47 -1.1,3.6 -0.73,1.14 -1.78,2.01 -3.15,2.64 -1.37,0.63 -2.91,0.94 -4.63,0.94 -2.17,0 -3.99,-0.32 -5.45,-0.95 -1.47,-0.63 -2.62,-1.58 -3.46,-2.86 -0.83,-1.27 -1.27,-2.71 -1.31,-4.31l0 0zm34.44 5.54c-1.1,0.93 -2.15,1.59 -3.17,1.97 -1.01,0.39 -2.09,0.58 -3.26,0.58 -1.91,0 -3.38,-0.46 -4.41,-1.4 -1.03,-0.93 -1.55,-2.12 -1.55,-3.57 0,-0.85 0.2,-1.63 0.58,-2.33 0.4,-0.71 0.91,-1.27 1.53,-1.69 0.64,-0.43 1.34,-0.75 2.13,-0.97 0.58,-0.15 1.46,-0.3 2.63,-0.44 2.38,-0.28 4.15,-0.62 5.27,-1.02 0.01,-0.4 0.02,-0.65 0.02,-0.76 0,-1.2 -0.28,-2.04 -0.84,-2.54 -0.76,-0.66 -1.88,-0.99 -3.37,-0.99 -1.39,0 -2.42,0.25 -3.08,0.73 -0.67,0.49 -1.16,1.35 -1.47,2.59l-2.89 -0.4c0.26,-1.24 0.69,-2.24 1.3,-3 0.6,-0.76 1.47,-1.34 2.61,-1.76 1.14,-0.41 2.47,-0.61 3.97,-0.61 1.48,0 2.7,0.17 3.63,0.52 0.93,0.36 1.62,0.79 2.06,1.33 0.43,0.53 0.74,1.2 0.92,2.01 0.09,0.5 0.14,1.41 0.14,2.71l0 3.92c0,2.74 0.07,4.47 0.19,5.2 0.12,0.73 0.36,1.43 0.72,2.1l-3.09 0c-0.29,-0.62 -0.48,-1.35 -0.57,-2.18l0 0zm-0.23 -6.55c-1.08,0.44 -2.69,0.81 -4.84,1.11 -1.22,0.17 -2.08,0.37 -2.58,0.59 -0.51,0.22 -0.89,0.53 -1.17,0.95 -0.27,0.42 -0.41,0.88 -0.41,1.4 0,0.77 0.29,1.43 0.89,1.95 0.6,0.52 1.48,0.78 2.62,0.78 1.14,0 2.15,-0.24 3.04,-0.74 0.88,-0.49 1.54,-1.17 1.95,-2.03 0.32,-0.66 0.48,-1.64 0.48,-2.93l0.02 -1.08 0 0zm13.93 6.1l0.41 2.6c-0.83,0.18 -1.58,0.26 -2.22,0.26 -1.07,0 -1.9,-0.16 -2.49,-0.51 -0.59,-0.34 -1.01,-0.78 -1.24,-1.33 -0.25,-0.56 -0.36,-1.72 -0.36,-3.49l0 -10.04 -2.19 0 0 -2.28 2.19 0 0 -4.31 2.95 -1.78 0 6.09 2.95 0 0 2.28 -2.95 0 0 10.2c0,0.85 0.05,1.39 0.16,1.63 0.1,0.24 0.26,0.43 0.5,0.58 0.24,0.14 0.57,0.21 1.01,0.21 0.32,0 0.75,-0.04 1.28,-0.12l0 0.01zm2.92 -18.05l0 -3.36 2.95 0 0 3.36 -2.95 0zm0 20.68l0 -17.42 2.95 0 0 17.42 -2.95 0zm6.28 -5.2l2.93 -0.47c0.16,1.17 0.62,2.06 1.36,2.69 0.75,0.62 1.81,0.93 3.15,0.93 1.36,0 2.37,-0.27 3.03,-0.82 0.65,-0.55 0.98,-1.2 0.98,-1.94 0,-0.67 -0.29,-1.2 -0.88,-1.58 -0.42,-0.26 -1.42,-0.59 -3.02,-1 -2.17,-0.54 -3.66,-1.02 -4.5,-1.41 -0.83,-0.4 -1.46,-0.95 -1.89,-1.66 -0.44,-0.7 -0.65,-1.47 -0.65,-2.33 0,-0.77 0.17,-1.49 0.53,-2.15 0.36,-0.66 0.84,-1.21 1.45,-1.64 0.46,-0.34 1.09,-0.63 1.87,-0.86 0.8,-0.23 1.64,-0.35 2.55,-0.35 1.36,0 2.56,0.19 3.59,0.59 1.04,0.39 1.8,0.93 2.29,1.6 0.49,0.68 0.83,1.58 1.01,2.71l-2.89 0.4c-0.13,-0.9 -0.5,-1.62 -1.13,-2.13 -0.63,-0.5 -1.51,-0.76 -2.66,-0.76 -1.35,0 -2.32,0.23 -2.89,0.67 -0.58,0.45 -0.87,0.98 -0.87,1.58 0,0.38 0.12,0.72 0.36,1.03 0.24,0.32 0.61,0.58 1.13,0.79 0.3,0.11 1.15,0.36 2.6,0.75 2.08,0.55 3.54,1.02 4.36,1.37 0.83,0.35 1.48,0.87 1.95,1.54 0.48,0.68 0.71,1.52 0.71,2.52 0,0.98 -0.28,1.91 -0.86,2.77 -0.58,0.87 -1.4,1.54 -2.48,2.02 -1.09,0.48 -2.32,0.71 -3.68,0.71 -2.26,0 -3.99,-0.47 -5.18,-1.41 -1.18,-0.93 -1.94,-2.32 -2.27,-4.17l0 0.01zm18.67 5.2l0 -15.14 -2.62 0 0 -2.28 2.62 0 0 -1.85c0,-1.17 0.1,-2.04 0.31,-2.6 0.28,-0.76 0.77,-1.38 1.49,-1.86 0.71,-0.47 1.71,-0.71 3,-0.71 0.83,0 1.75,0.1 2.76,0.3l-0.44 2.58c-0.62,-0.1 -1.2,-0.16 -1.74,-0.16 -0.9,0 -1.53,0.19 -1.9,0.57 -0.37,0.38 -0.56,1.09 -0.56,2.13l0 1.6 3.39 0 0 2.28 -3.36 0 0 15.14 -2.95 0 0 0zm20 -2.18c-1.09,0.93 -2.15,1.59 -3.16,1.97 -1.02,0.39 -2.1,0.58 -3.27,0.58 -1.91,0 -3.38,-0.46 -4.41,-1.4 -1.03,-0.93 -1.54,-2.12 -1.54,-3.57 0,-0.85 0.19,-1.63 0.58,-2.33 0.39,-0.71 0.9,-1.27 1.52,-1.69 0.64,-0.43 1.34,-0.75 2.13,-0.97 0.58,-0.15 1.46,-0.3 2.63,-0.44 2.38,-0.28 4.15,-0.62 5.27,-1.02 0.01,-0.4 0.02,-0.65 0.02,-0.76 0,-1.2 -0.28,-2.04 -0.84,-2.54 -0.76,-0.66 -1.88,-0.99 -3.37,-0.99 -1.39,0 -2.42,0.25 -3.08,0.73 -0.67,0.49 -1.16,1.35 -1.47,2.59l-2.89 -0.4c0.26,-1.24 0.69,-2.24 1.3,-3 0.6,-0.76 1.47,-1.34 2.62,-1.76 1.13,-0.41 2.46,-0.61 3.96,-0.61 1.49,0 2.7,0.17 3.63,0.52 0.93,0.36 1.62,0.79 2.06,1.33 0.44,0.53 0.74,1.2 0.92,2.01 0.1,0.5 0.15,1.41 0.15,2.71l0 3.92c0,2.74 0.06,4.47 0.18,5.2 0.12,0.73 0.37,1.43 0.72,2.1l-3.08 0c-0.3,-0.62 -0.49,-1.35 -0.58,-2.18l0 0zm-0.23 -6.55c-1.07,0.44 -2.69,0.81 -4.84,1.11 -1.21,0.17 -2.08,0.37 -2.58,0.59 -0.5,0.22 -0.89,0.53 -1.16,0.95 -0.28,0.42 -0.42,0.88 -0.42,1.4 0,0.77 0.3,1.43 0.9,1.95 0.6,0.52 1.47,0.78 2.62,0.78 1.13,0 2.14,-0.24 3.04,-0.74 0.88,-0.49 1.54,-1.17 1.95,-2.03 0.32,-0.66 0.47,-1.64 0.47,-2.93l0.02 -1.08 0 0zm18.91 2.35l2.88 0.41c-0.32,1.98 -1.12,3.53 -2.43,4.65 -1.3,1.13 -2.9,1.69 -4.8,1.69 -2.38,0 -4.29,-0.78 -5.73,-2.33 -1.46,-1.56 -2.18,-3.79 -2.18,-6.68 0,-1.88 0.32,-3.52 0.94,-4.93 0.62,-1.41 1.56,-2.47 2.84,-3.17 1.27,-0.7 2.65,-1.05 4.15,-1.05 1.89,0 3.44,0.47 4.63,1.43 1.21,0.96 1.98,2.32 2.32,4.07l-2.86 0.44c-0.27,-1.17 -0.75,-2.05 -1.45,-2.64 -0.7,-0.59 -1.54,-0.89 -2.52,-0.89 -1.49,0 -2.7,0.54 -3.63,1.6 -0.93,1.07 -1.39,2.75 -1.39,5.05 0,2.34 0.44,4.04 1.34,5.09 0.9,1.06 2.07,1.59 3.51,1.59 1.16,0 2.13,-0.35 2.9,-1.06 0.78,-0.71 1.27,-1.8 1.48,-3.27l0 0zm11.81 3.75l0.41 2.6c-0.83,0.18 -1.58,0.26 -2.22,0.26 -1.07,0 -1.9,-0.16 -2.49,-0.51 -0.59,-0.34 -1.01,-0.78 -1.25,-1.33 -0.24,-0.56 -0.35,-1.72 -0.35,-3.49l0 -10.04 -2.19 0 0 -2.28 2.19 0 0 -4.31 2.95 -1.78 0 6.09 2.95 0 0 2.28 -2.95 0 0 10.2c0,0.85 0.05,1.39 0.16,1.63 0.09,0.24 0.26,0.43 0.5,0.58 0.23,0.14 0.57,0.21 1.01,0.21 0.32,0 0.75,-0.04 1.28,-0.12l0 0.01zm2.92 -18.05l0 -3.36 2.95 0 0 3.36 -2.95 0zm0 20.68l0 -17.42 2.95 0 0 17.42 -2.95 0zm6.35 -8.71c0,-3.22 0.9,-5.6 2.69,-7.15 1.5,-1.29 3.33,-1.93 5.48,-1.93 2.39,0 4.35,0.78 5.87,2.35 1.51,1.56 2.28,3.72 2.28,6.48 0,2.24 -0.34,4 -1.01,5.28 -0.67,1.28 -1.65,2.28 -2.94,2.99 -1.28,0.71 -2.68,1.06 -4.2,1.06 -2.44,0 -4.41,-0.78 -5.92,-2.34 -1.5,-1.56 -2.25,-3.81 -2.25,-6.74zm3.02 0.01c0,2.22 0.49,3.89 1.46,4.99 0.98,1.11 2.21,1.66 3.69,1.66 1.47,0 2.68,-0.55 3.67,-1.66 0.97,-1.12 1.46,-2.81 1.46,-5.09 0,-2.15 -0.5,-3.77 -1.48,-4.88 -0.97,-1.1 -2.2,-1.66 -3.65,-1.66 -1.48,0 -2.71,0.55 -3.69,1.65 -0.97,1.1 -1.46,2.76 -1.46,4.99l0 0zm16.76 8.7l0 -17.42 2.65 0 0 2.47c1.28,-1.89 3.13,-2.84 5.53,-2.84 1.06,0 2.02,0.19 2.9,0.56 0.88,0.38 1.54,0.88 1.97,1.49 0.44,0.61 0.75,1.33 0.92,2.17 0.11,0.55 0.16,1.51 0.16,2.87l0 10.7 -2.95 0 0 -10.59c0,-1.2 -0.11,-2.1 -0.34,-2.69 -0.23,-0.6 -0.64,-1.07 -1.22,-1.43 -0.58,-0.35 -1.27,-0.53 -2.05,-0.53 -1.26,0 -2.34,0.4 -3.25,1.2 -0.91,0.79 -1.37,2.31 -1.37,4.54l0 9.5 -2.95 0 0 0z"/>
 </g>
</svg>
