<?xml version="1.0" encoding="UTF-8"?>
<!DOCTYPE svg PUBLIC "-//W3C//DTD SVG 1.1//EN" "http://www.w3.org/Graphics/SVG/1.1/DTD/svg11.dtd">
<!-- Creator: CorelDRAW 2019 (64-Bit) -->
<svg xmlns="http://www.w3.org/2000/svg" xml:space="preserve" width="500px" height="500px" version="1.1" style="shape-rendering:geometricPrecision; text-rendering:geometricPrecision; image-rendering:optimizeQuality; fill-rule:evenodd; clip-rule:evenodd"
viewBox="0 0 500 500"
 xmlns:xlink="http://www.w3.org/1999/xlink"
 xmlns:xodm="http://www.corel.com/coreldraw/odm/2003">
 <defs>
  <style type="text/css">
   <![CDATA[
    .fil0 {fill:none}
    .fil1 {fill:white;fill-rule:nonzero}
   ]]>
  </style>
 </defs>
 <g id="Layer_x0020_1">
  <metadata id="CorelCorpID_0Corel-Layer"/>
  <rect class="fil0" x="23.27" y="31.18" width="453.13" height="437.5"/>
  <path class="fil1" d="M221.49 151.22l5.33 -5.28c4.24,-4.16 5.92,-6.41 5.92,-9.62 0,-3.84 -2.59,-6.83 -7.71,-6.83 -5.11,0 -8.23,2.78 -8.72,7.92l-0.04 0.36 3.86 0 0.04 -0.36c0.31,-3.2 1.68,-4.96 4.44,-4.96 2.63,0 3.96,1.87 3.96,4.22 0,2.33 -1.33,4.09 -4.38,7.12l-8.44 8.55 0 1.98 16.85 0 0 -3.1 -11.11 0 0 0zm23.72 -21.69c-6.72,0 -9.03,5.28 -9.03,12.64 0,7.29 2.31,12.64 9.03,12.64 6.77,0 9.04,-5.35 9.04,-12.64 0,-7.36 -2.28,-12.64 -9.04,-12.64zm0 22.32c-3.43,0 -4.87,-3.45 -4.87,-9.68 0,-6.31 1.44,-9.69 4.87,-9.69 3.47,0 4.88,3.39 4.88,9.69 0,6.23 -1.41,9.68 -4.88,9.68zm25.68 -21.83l-2.13 0c-1.09,0 -2.1,0.25 -3.23,0.91l-5.32 3.28 0 3.8 6.83 -3.94 0 20.25 3.85 0 0 -24.3 0 0z"/>
  <g id="_1128814561072">
   <path class="fil1" d="M187.59 97.31c-5.82,-2.74 -9.87,-7.74 -11.58,-13.47 5.47,-2.36 11.89,-2.47 17.71,0.26 5.82,2.73 9.87,7.73 11.58,13.47 -5.47,2.36 -11.88,2.46 -17.71,-0.26l0 0z"/>
   <path class="fil1" d="M189.38 72.13c-2.71,5.85 -7.69,9.92 -13.39,11.64 -2.36,-5.5 -2.46,-11.94 0.26,-17.8 2.71,-5.85 7.69,-9.91 13.4,-11.64 2.35,5.5 2.45,11.95 -0.27,17.8z"/>
   <path class="fil1" d="M164.52 109.08c-6.2,-1.67 -11.05,-5.89 -13.73,-11.24 4.98,-3.28 11.28,-4.5 17.48,-2.83 6.21,1.67 11.06,5.9 13.74,11.24 -4.98,3.28 -11.28,4.5 -17.49,2.83z"/>
   <path class="fil1" d="M161.94 83.98c-1.67,6.24 -5.87,11.11 -11.18,13.8 -3.27,-5.01 -4.49,-11.33 -2.82,-17.57 1.66,-6.24 5.86,-11.11 11.18,-13.8 3.27,5 4.48,11.33 2.82,17.57z"/>
   <path class="fil1" d="M143.83 124.74c-6.4,-0.57 -11.91,-3.88 -15.47,-8.68 4.34,-4.1 10.33,-6.4 16.73,-5.83 6.4,0.56 11.9,3.87 15.47,8.67 -4.34,4.1 -10.33,6.4 -16.73,5.84l0 0z"/>
   <path class="fil1" d="M136.94 100.47c-0.56,6.43 -3.85,11.96 -8.63,15.54 -4.08,-4.36 -6.36,-10.38 -5.81,-16.81 0.56,-6.44 3.86,-11.97 8.63,-15.55 4.08,4.36 6.37,10.38 5.81,16.82l0 0z"/>
   <path class="fil1" d="M126.13 143.79c-6.4,0.57 -12.39,-1.73 -16.73,-5.83 3.56,-4.8 9.06,-8.11 15.47,-8.67 6.4,-0.57 12.39,1.73 16.72,5.84 -3.56,4.79 -9.06,8.1 -15.46,8.66l0 0z"/>
   <path class="fil1" d="M115.15 121.1c0.57,6.43 -1.72,12.45 -5.81,16.81 -4.77,-3.58 -8.06,-9.11 -8.62,-15.54 -0.56,-6.44 1.73,-12.46 5.81,-16.82 4.77,3.58 8.06,9.11 8.62,15.55l0 0z"/>
   <path class="fil1" d="M111.97 165.68c-6.21,1.67 -12.51,0.45 -17.49,-2.83 2.68,-5.35 7.53,-9.57 13.74,-11.24 6.2,-1.67 12.5,-0.45 17.48,2.83 -2.68,5.35 -7.53,9.57 -13.73,11.24z"/>
   <path class="fil1" d="M97.24 145.24c1.66,6.23 0.45,12.57 -2.82,17.57 -5.32,-2.69 -9.52,-7.56 -11.18,-13.8 -1.66,-6.24 -0.45,-12.57 2.82,-17.58 5.32,2.7 9.52,7.57 11.18,13.81z"/>
   <path class="fil1" d="M101.77 189.72c-5.82,2.73 -12.23,2.63 -17.7,0.26 1.71,-5.73 5.75,-10.73 11.58,-13.46 5.82,-2.73 12.23,-2.63 17.71,-0.26 -1.72,5.73 -5.77,10.73 -11.59,13.46l0 0z"/>
   <path class="fil1" d="M83.74 172.16c2.71,5.85 2.61,12.3 0.26,17.8 -5.71,-1.72 -10.68,-5.79 -13.4,-11.64 -2.71,-5.86 -2.61,-12.3 -0.26,-17.8 5.7,1.72 10.68,5.79 13.4,11.64z"/>
   <path class="fil1" d="M95.86 215.19c-5.27,3.7 -11.6,4.72 -17.39,3.35 0.69,-5.95 3.81,-11.58 9.07,-15.28 5.27,-3.71 11.6,-4.73 17.4,-3.35 -0.7,5.94 -3.82,11.58 -9.08,15.28l0 0z"/>
   <path class="fil1" d="M75.06 201.05c3.69,5.28 4.7,11.65 3.33,17.48 -5.91,-0.7 -11.52,-3.84 -15.2,-9.13 -3.69,-5.29 -4.7,-11.65 -3.34,-17.48 5.92,0.7 11.52,3.84 15.21,9.13z"/>
   <path class="fil1" d="M94.4 241.31c-4.55,4.57 -10.61,6.68 -16.55,6.34 -0.34,-5.98 1.76,-12.07 6.3,-16.63 4.54,-4.57 10.6,-6.68 16.55,-6.34 0.34,5.98 -1.76,12.07 -6.3,16.63z"/>
   <path class="fil1" d="M71.47 231.02c4.54,4.56 6.64,10.65 6.31,16.63 -5.95,0.34 -12.01,-1.77 -16.55,-6.34 -4.19,-4.21 -6.3,-9.71 -6.34,-15.23l0 -0.33c0,-0.35 0.01,-0.72 0.03,-1.07 5.95,-0.34 12.01,1.77 16.55,6.34l0 0z"/>
   <path class="fil1" d="M97.46 267.1c-3.69,5.29 -9.29,8.42 -15.21,9.13 -1.36,-5.83 -0.35,-12.2 3.34,-17.48 3.68,-5.29 9.28,-8.43 15.2,-9.13 1.37,5.83 0.35,12.19 -3.33,17.48z"/>
   <path class="fil1" d="M73.1 260.96c5.27,3.7 8.38,9.34 9.08,15.28 -5.79,1.38 -12.13,0.35 -17.39,-3.35 -5.26,-3.7 -8.38,-9.34 -9.08,-15.28 5.8,-1.38 12.13,-0.35 17.39,3.35z"/>
   <path class="fil1" d="M104.96 291.97c-2.72,5.85 -7.69,9.91 -13.4,11.64 -2.35,-5.5 -2.45,-11.95 0.26,-17.8 2.72,-5.85 7.7,-9.92 13.4,-11.64 2.35,5.5 2.45,11.94 -0.26,17.8z"/>
   <path class="fil1" d="M79.91 290.17c5.83,2.72 9.87,7.73 11.59,13.46 -5.48,2.36 -11.89,2.47 -17.71,-0.26 -5.82,-2.73 -9.87,-7.73 -11.58,-13.47 5.47,-2.36 11.88,-2.46 17.7,0.27z"/>
   <path class="fil1" d="M116.68 315.15c-1.67,6.24 -5.87,11.11 -11.19,13.8 -3.26,-5 -4.47,-11.33 -2.81,-17.57 1.66,-6.24 5.86,-11.11 11.18,-13.8 3.27,5 4.48,11.33 2.82,17.57l0 0z"/>
   <path class="fil1" d="M91.7 317.75c6.21,1.67 11.05,5.89 13.73,11.24 -4.98,3.28 -11.27,4.5 -17.48,2.83 -6.21,-1.67 -11.05,-5.89 -13.73,-11.24 4.98,-3.28 11.28,-4.5 17.48,-2.83z"/>
   <path class="fil1" d="M132.25 335.95c-0.56,6.44 -3.85,11.97 -8.62,15.55 -4.09,-4.36 -6.37,-10.38 -5.81,-16.82 0.56,-6.43 3.85,-11.96 8.62,-15.54 4.09,4.36 6.37,10.38 5.81,16.81z"/>
   <path class="fil1" d="M108.1 342.88c6.41,0.56 11.91,3.87 15.47,8.66 -4.33,4.11 -10.33,6.41 -16.73,5.84 -6.4,-0.56 -11.9,-3.87 -15.46,-8.67 4.33,-4.1 10.32,-6.4 16.72,-5.83l0 0z"/>
   <path class="fil1" d="M151.22 353.74c0.56,6.43 -1.74,12.46 -5.82,16.82 -4.77,-3.58 -8.06,-9.11 -8.62,-15.55 -0.56,-6.43 1.73,-12.45 5.81,-16.81 4.77,3.58 8.06,9.11 8.63,15.54l0 0z"/>
   <path class="fil1" d="M128.63 364.77c6.4,-0.56 12.39,1.74 16.73,5.84 -3.56,4.8 -9.07,8.11 -15.47,8.67 -6.4,0.56 -12.39,-1.73 -16.73,-5.83 3.56,-4.8 9.07,-8.11 15.47,-8.68l0 0z"/>
   <path class="fil1" d="M172.99 367.98c1.66,6.24 0.45,12.56 -2.82,17.57 -5.32,-2.69 -9.52,-7.57 -11.18,-13.81 -1.67,-6.23 -0.45,-12.56 2.81,-17.56 5.32,2.69 9.52,7.56 11.19,13.8l0 0z"/>
   <path class="fil1" d="M152.65 382.78c6.21,-1.67 12.5,-0.45 17.48,2.83 -2.68,5.35 -7.52,9.57 -13.73,11.24 -6.21,1.67 -12.5,0.45 -17.48,-2.83 2.68,-5.35 7.52,-9.57 13.73,-11.24z"/>
   <path class="fil1" d="M196.91 378.22c2.71,5.86 2.61,12.3 0.26,17.8 -5.71,-1.72 -10.69,-5.79 -13.4,-11.64 -2.72,-5.85 -2.61,-12.3 -0.26,-17.8 5.7,1.73 10.68,5.79 13.4,11.64l0 0z"/>
   <path class="fil1" d="M179.44 396.35c5.82,-2.73 12.23,-2.63 17.7,-0.26 -1.71,5.73 -5.76,10.73 -11.58,13.46 -5.82,2.73 -12.23,2.63 -17.71,0.27 1.72,-5.74 5.76,-10.74 11.59,-13.47l0 0z"/>
   <path class="fil1" d="M218.06 75.9c-6.03,2.21 -12.41,1.54 -17.66,-1.29 2.2,-5.56 6.67,-10.19 12.71,-12.4 6.03,-2.21 12.41,-1.54 17.66,1.29 -2.21,5.56 -6.67,10.19 -12.71,12.4z"/>
   <path class="fil1" d="M273.94 445.53c-29.52,-29.36 -56.97,-40.94 -77.27,-47.86 -1.96,-0.66 -3.77,-1.28 -5.42,-1.86 -69.02,-24.28 -115.39,-88.48 -115.39,-159.77 0,-80.21 58.65,-150.18 139.47,-166.37l0.51 2.58c-79.59,15.95 -137.36,84.83 -137.36,163.79 0,70.17 45.67,133.37 113.63,157.28 1.65,0.58 3.45,1.2 5.4,1.86 20.52,6.99 57.04,18.69 86.99,48.48l-10.56 1.87z"/>
   <path class="fil1" d="M312.07 97.31c5.82,-2.74 9.87,-7.74 11.58,-13.47 -5.47,-2.36 -11.88,-2.47 -17.71,0.26 -5.82,2.73 -9.87,7.73 -11.58,13.47 5.48,2.36 11.89,2.46 17.71,-0.26l0 0z"/>
   <path class="fil1" d="M310.28 72.13c2.72,5.85 7.69,9.92 13.4,11.64 2.35,-5.5 2.45,-11.94 -0.27,-17.8 -2.71,-5.85 -7.69,-9.91 -13.39,-11.64 -2.36,5.5 -2.45,11.95 0.26,17.8z"/>
   <path class="fil1" d="M335.14 109.08c6.2,-1.67 11.05,-5.89 13.73,-11.24 -4.98,-3.28 -11.28,-4.5 -17.49,-2.83 -6.2,1.67 -11.05,5.9 -13.72,11.24 4.97,3.28 11.27,4.5 17.48,2.83z"/>
   <path class="fil1" d="M337.73 83.98c1.66,6.24 5.86,11.11 11.18,13.8 3.26,-5.01 4.47,-11.33 2.81,-17.57 -1.66,-6.24 -5.86,-11.11 -11.18,-13.8 -3.26,5 -4.48,11.33 -2.81,17.57z"/>
   <path class="fil1" d="M355.83 124.74c6.41,-0.57 11.91,-3.88 15.47,-8.68 -4.33,-4.1 -10.32,-6.4 -16.73,-5.83 -6.4,0.56 -11.9,3.87 -15.46,8.67 4.33,4.1 10.32,6.4 16.72,5.84l0 0z"/>
   <path class="fil1" d="M362.72 100.47c0.56,6.43 3.86,11.96 8.63,15.54 4.08,-4.36 6.37,-10.38 5.81,-16.81 -0.56,-6.44 -3.86,-11.97 -8.63,-15.55 -4.08,4.36 -6.37,10.38 -5.81,16.82l0 0z"/>
   <path class="fil1" d="M373.53 143.79c6.4,0.57 12.4,-1.73 16.73,-5.83 -3.56,-4.8 -9.06,-8.11 -15.46,-8.67 -6.41,-0.57 -12.4,1.73 -16.73,5.84 3.56,4.79 9.07,8.1 15.46,8.66l0 0z"/>
   <path class="fil1" d="M384.51 121.1c-0.56,6.43 1.73,12.45 5.81,16.81 4.77,-3.58 8.07,-9.11 8.63,-15.54 0.56,-6.44 -1.73,-12.46 -5.81,-16.82 -4.78,3.58 -8.07,9.11 -8.63,15.55l0 0z"/>
   <path class="fil1" d="M387.69 165.68c6.21,1.67 12.51,0.45 17.49,-2.83 -2.68,-5.35 -7.53,-9.57 -13.74,-11.24 -6.2,-1.67 -12.5,-0.45 -17.48,2.83 2.68,5.35 7.53,9.57 13.73,11.24z"/>
   <path class="fil1" d="M402.43 145.24c-1.67,6.23 -0.45,12.57 2.81,17.57 5.32,-2.69 9.52,-7.56 11.18,-13.8 1.67,-6.24 0.45,-12.57 -2.81,-17.58 -5.33,2.7 -9.52,7.57 -11.18,13.81z"/>
   <path class="fil1" d="M397.89 189.72c5.82,2.73 12.23,2.63 17.7,0.26 -1.71,-5.73 -5.75,-10.73 -11.57,-13.46 -5.83,-2.73 -12.24,-2.63 -17.71,-0.26 1.71,5.73 5.76,10.73 11.58,13.46l0 0z"/>
   <path class="fil1" d="M415.93 172.16c-2.72,5.85 -2.62,12.3 -0.27,17.8 5.71,-1.72 10.68,-5.79 13.4,-11.64 2.72,-5.86 2.62,-12.3 0.26,-17.8 -5.7,1.72 -10.68,5.79 -13.39,11.64z"/>
   <path class="fil1" d="M403.8 215.19c5.27,3.7 11.6,4.72 17.4,3.35 -0.7,-5.95 -3.82,-11.58 -9.08,-15.28 -5.26,-3.71 -11.6,-4.73 -17.39,-3.35 0.7,5.94 3.81,11.58 9.07,15.28l0 0z"/>
   <path class="fil1" d="M424.6 201.05c-3.68,5.28 -4.7,11.65 -3.33,17.48 5.92,-0.7 11.52,-3.84 15.2,-9.13 3.69,-5.29 4.7,-11.65 3.34,-17.48 -5.92,0.7 -11.52,3.84 -15.21,9.13z"/>
   <path class="fil1" d="M405.27 241.31c4.54,4.57 10.6,6.68 16.55,6.34 0.33,-5.98 -1.76,-12.07 -6.31,-16.63 -4.54,-4.57 -10.6,-6.68 -16.55,-6.34 -0.34,5.98 1.76,12.07 6.31,16.63z"/>
   <path class="fil1" d="M428.19 231.02c-4.55,4.56 -6.64,10.65 -6.31,16.63 5.95,0.34 12.01,-1.77 16.55,-6.34 4.55,-4.56 6.65,-10.65 6.31,-16.63 -5.95,-0.34 -12.01,1.77 -16.55,6.34z"/>
   <path class="fil1" d="M402.2 267.1c3.69,5.29 9.29,8.42 15.21,9.13 1.37,-5.83 0.35,-12.2 -3.33,-17.48 -3.69,-5.29 -9.29,-8.43 -15.21,-9.13 -1.36,5.83 -0.35,12.19 3.33,17.48z"/>
   <path class="fil1" d="M426.56 260.96c-5.26,3.7 -8.38,9.34 -9.08,15.28 5.8,1.38 12.13,0.35 17.39,-3.35 5.27,-3.7 8.38,-9.34 9.08,-15.28 -5.8,-1.38 -12.13,-0.35 -17.39,3.35z"/>
   <path class="fil1" d="M394.7 291.97c2.72,5.85 7.7,9.91 13.4,11.64 2.35,-5.5 2.45,-11.95 -0.26,-17.8 -2.72,-5.85 -7.69,-9.92 -13.4,-11.64 -2.35,5.5 -2.45,11.94 0.26,17.8z"/>
   <path class="fil1" d="M419.75 290.17c-5.82,2.72 -9.87,7.73 -11.58,13.46 5.47,2.36 11.88,2.47 17.7,-0.26 5.82,-2.73 9.87,-7.73 11.59,-13.47 -5.48,-2.36 -11.88,-2.46 -17.71,0.27z"/>
   <path class="fil1" d="M382.98 315.15c1.67,6.24 5.87,11.11 11.19,13.8 3.26,-5 4.48,-11.33 2.81,-17.57 -1.66,-6.24 -5.86,-11.11 -11.18,-13.8 -3.26,5 -4.48,11.33 -2.82,17.57l0 0z"/>
   <path class="fil1" d="M407.96 317.75c-6.2,1.67 -11.05,5.89 -13.73,11.24 4.98,3.28 11.28,4.5 17.48,2.83 6.21,-1.67 11.06,-5.89 13.74,-11.24 -4.98,-3.28 -11.28,-4.5 -17.49,-2.83z"/>
   <path class="fil1" d="M367.41 335.95c0.56,6.44 3.86,11.97 8.63,15.55 4.08,-4.36 6.37,-10.38 5.81,-16.82 -0.56,-6.43 -3.86,-11.96 -8.63,-15.54 -4.08,4.36 -6.37,10.38 -5.81,16.81z"/>
   <path class="fil1" d="M391.56 342.88c-6.4,0.56 -11.91,3.87 -15.47,8.66 4.34,4.11 10.33,6.41 16.73,5.84 6.4,-0.56 11.9,-3.87 15.46,-8.67 -4.33,-4.1 -10.32,-6.4 -16.72,-5.83l0 0z"/>
   <path class="fil1" d="M348.45 353.74c-0.56,6.43 1.73,12.46 5.81,16.82 4.77,-3.58 8.07,-9.11 8.63,-15.55 0.56,-6.43 -1.73,-12.45 -5.81,-16.81 -4.78,3.58 -8.07,9.11 -8.63,15.54l0 0z"/>
   <path class="fil1" d="M371.03 364.77c-6.4,-0.56 -12.39,1.74 -16.72,5.84 3.56,4.8 9.06,8.11 15.46,8.67 6.4,0.56 12.39,-1.73 16.73,-5.83 -3.56,-4.8 -9.07,-8.11 -15.47,-8.68l0 0z"/>
   <path class="fil1" d="M326.68 367.98c-1.66,6.24 -0.45,12.56 2.81,17.57 5.32,-2.69 9.52,-7.57 11.19,-13.81 1.66,-6.23 0.45,-12.56 -2.82,-17.56 -5.32,2.69 -9.52,7.56 -11.18,13.8l0 0z"/>
   <path class="fil1" d="M347.01 382.78c-6.2,-1.67 -12.5,-0.45 -17.48,2.83 2.68,5.35 7.53,9.57 13.73,11.24 6.21,1.67 12.51,0.45 17.49,-2.83 -2.68,-5.35 -7.53,-9.57 -13.74,-11.24z"/>
   <path class="fil1" d="M302.76 378.22c-2.72,5.86 -2.62,12.3 -0.26,17.8 5.7,-1.72 10.68,-5.79 13.39,-11.64 2.72,-5.85 2.62,-12.3 0.26,-17.8 -5.7,1.73 -10.68,5.79 -13.39,11.64l0 0z"/>
   <path class="fil1" d="M320.23 396.35c-5.83,-2.73 -12.24,-2.63 -17.71,-0.26 1.72,5.73 5.76,10.73 11.58,13.46 5.83,2.73 12.24,2.63 17.71,0.27 -1.72,-5.74 -5.76,-10.74 -11.58,-13.47z"/>
   <path class="fil1" d="M281.6 75.9c6.04,2.21 12.42,1.54 17.66,-1.29 -2.2,-5.56 -6.66,-10.19 -12.7,-12.4 -6.04,-2.21 -12.42,-1.54 -17.67,1.29 2.21,5.56 6.67,10.19 12.71,12.4l0 0z"/>
   <path class="fil1" d="M225.72 445.53l-10.56 -1.87c29.95,-29.79 66.47,-41.49 86.99,-48.48 1.94,-0.66 3.75,-1.28 5.4,-1.86 67.96,-23.91 113.63,-87.11 113.63,-157.28 0,-78.96 -57.76,-147.84 -137.36,-163.79l0.51 -2.58c80.82,16.19 139.47,86.16 139.47,166.37 0,71.29 -46.37,135.49 -115.38,159.77 -1.66,0.58 -3.47,1.2 -5.43,1.86 -20.3,6.92 -47.75,18.5 -77.27,47.86z"/>
  </g>
  <path class="fil1" d="M289.96 143.14c-0.5,3.12 -2.33,7.71 -7.74,8.44 -1.03,0.13 -1.73,0.2 -2.46,0.13l0 3.09c0.7,0.03 1.69,0 2.72,-0.17 7.41,-0.79 11.36,-7.07 11.36,-15.08 0,-6.16 -2.86,-10.52 -7.97,-10.52 -4.95,0 -8.1,4.15 -8.1,8.82 0,4.5 2.85,7.62 6.9,7.62 2.23,0 3.99,-0.9 5.19,-2.33l0.1 0zm-4.29 -11.29c2.82,0 4.25,2.93 4.25,7.07 0,0.69 -0.1,1.13 -0.26,1.46 -0.73,1.3 -2.16,2.36 -3.99,2.36 -2.52,0 -4.05,-2.16 -4.05,-5.12 0,-3.37 1.66,-5.77 4.05,-5.77z"/>
  <path class="fil1" d="M219.08 224.24l0 -24.04 9.02 0c1.83,0 3.31,0.24 4.42,0.73 1.11,0.49 1.97,1.23 2.6,2.25 0.64,1 0.95,2.06 0.95,3.17 0,1.03 -0.28,1.99 -0.84,2.9 -0.55,0.91 -1.39,1.64 -2.52,2.2 1.46,0.43 2.58,1.15 3.35,2.18 0.79,1.03 1.18,2.24 1.18,3.64 0,1.13 -0.24,2.17 -0.72,3.14 -0.47,0.97 -1.06,1.72 -1.76,2.24 -0.7,0.52 -1.58,0.92 -2.63,1.19 -1.06,0.27 -2.35,0.4 -3.88,0.4l-9.17 0 0 0zm3.19 -13.93l5.2 0c1.41,0 2.42,-0.1 3.03,-0.28 0.81,-0.24 1.42,-0.64 1.83,-1.2 0.41,-0.56 0.61,-1.26 0.61,-2.11 0,-0.8 -0.19,-1.5 -0.57,-2.11 -0.38,-0.61 -0.93,-1.03 -1.64,-1.25 -0.71,-0.23 -1.93,-0.34 -3.66,-0.34l-4.8 0 0 7.29 0 0zm0 11.11l5.98 0c1.03,0 1.76,-0.04 2.18,-0.12 0.72,-0.12 1.34,-0.34 1.83,-0.65 0.49,-0.31 0.9,-0.76 1.22,-1.35 0.32,-0.58 0.47,-1.26 0.47,-2.03 0,-0.9 -0.23,-1.68 -0.69,-2.34 -0.46,-0.67 -1.1,-1.13 -1.91,-1.4 -0.82,-0.27 -1.99,-0.4 -3.52,-0.4l-5.56 0 0 8.29 0 0zm30.85 -2.82l3.06 0.4c-0.48,1.78 -1.37,3.16 -2.66,4.14 -1.3,0.98 -2.96,1.47 -4.98,1.47 -2.54,0 -4.56,-0.78 -6.04,-2.35 -1.49,-1.56 -2.24,-3.76 -2.24,-6.59 0,-2.92 0.76,-5.19 2.26,-6.8 1.5,-1.62 3.46,-2.42 5.86,-2.42 2.32,0 4.22,0.78 5.69,2.37 1.47,1.58 2.21,3.81 2.21,6.68 0,0.17 0,0.44 -0.02,0.78l-12.97 0c0.11,1.91 0.64,3.38 1.62,4.39 0.97,1.01 2.18,1.52 3.63,1.52 1.08,0 2,-0.28 2.77,-0.85 0.76,-0.57 1.36,-1.49 1.81,-2.74l0 0zm-9.67 -4.73l9.71 0c-0.13,-1.47 -0.51,-2.57 -1.12,-3.3 -0.93,-1.14 -2.15,-1.71 -3.65,-1.71 -1.35,0 -2.48,0.46 -3.41,1.36 -0.92,0.91 -1.43,2.12 -1.53,3.65zm15.29 5.17l2.92 -0.48c0.16,1.18 0.62,2.07 1.37,2.7 0.75,0.62 1.8,0.93 3.15,0.93 1.35,0 2.36,-0.27 3.02,-0.82 0.66,-0.56 0.98,-1.2 0.98,-1.95 0,-0.66 -0.29,-1.19 -0.88,-1.57 -0.41,-0.26 -1.42,-0.59 -3.02,-1 -2.16,-0.54 -3.66,-1.02 -4.49,-1.41 -0.84,-0.4 -1.47,-0.95 -1.9,-1.66 -0.43,-0.7 -0.65,-1.47 -0.65,-2.33 0,-0.77 0.18,-1.49 0.53,-2.15 0.36,-0.66 0.84,-1.21 1.45,-1.65 0.46,-0.33 1.09,-0.62 1.88,-0.85 0.79,-0.24 1.64,-0.35 2.54,-0.35 1.37,0 2.57,0.19 3.59,0.59 1.04,0.39 1.8,0.93 2.29,1.6 0.49,0.68 0.83,1.58 1.02,2.71l-2.89 0.4c-0.13,-0.9 -0.51,-1.62 -1.14,-2.12 -0.62,-0.51 -1.51,-0.77 -2.66,-0.77 -1.34,0 -2.31,0.23 -2.89,0.68 -0.58,0.45 -0.87,0.97 -0.87,1.57 0,0.38 0.12,0.72 0.36,1.03 0.24,0.32 0.62,0.58 1.13,0.79 0.3,0.11 1.16,0.36 2.6,0.75 2.08,0.55 3.54,1.01 4.37,1.37 0.83,0.35 1.48,0.87 1.95,1.54 0.47,0.68 0.71,1.52 0.71,2.53 0,0.97 -0.29,1.9 -0.86,2.76 -0.58,0.87 -1.41,1.55 -2.49,2.02 -1.09,0.48 -2.31,0.71 -3.68,0.71 -2.26,0 -3.99,-0.47 -5.17,-1.4 -1.19,-0.94 -1.95,-2.33 -2.27,-4.17l0 0zm24.37 2.57l0.41 2.6c-0.83,0.18 -1.58,0.27 -2.23,0.27 -1.07,0 -1.89,-0.17 -2.49,-0.51 -0.58,-0.34 -1,-0.78 -1.24,-1.34 -0.24,-0.55 -0.36,-1.72 -0.36,-3.49l0 -10.04 -2.18 0 0 -2.28 2.18 0 0 -4.31 2.96 -1.78 0 6.09 2.95 0 0 2.28 -2.95 0 0 10.2c0,0.85 0.05,1.39 0.16,1.63 0.1,0.25 0.26,0.44 0.5,0.58 0.23,0.14 0.57,0.21 1,0.21 0.33,0 0.76,-0.04 1.29,-0.11zm-90.63 31.71l3.19 0.81c-0.66,2.61 -1.86,4.6 -3.59,5.97 -1.73,1.37 -3.84,2.06 -6.34,2.06 -2.59,0 -4.69,-0.53 -6.32,-1.59 -1.62,-1.05 -2.85,-2.58 -3.7,-4.57 -0.84,-2.01 -1.26,-4.15 -1.26,-6.45 0,-2.5 0.47,-4.68 1.43,-6.54 0.95,-1.86 2.31,-3.28 4.08,-4.25 1.76,-0.97 3.7,-1.45 5.82,-1.45 2.4,0 4.42,0.61 6.06,1.83 1.64,1.23 2.78,2.95 3.42,5.16l-3.12 0.74c-0.55,-1.74 -1.37,-3.02 -2.43,-3.82 -1.05,-0.8 -2.38,-1.19 -3.99,-1.19 -1.84,0 -3.39,0.44 -4.62,1.32 -1.24,0.89 -2.11,2.08 -2.61,3.57 -0.5,1.49 -0.75,3.03 -0.75,4.61 0,2.05 0.29,3.84 0.88,5.36 0.6,1.52 1.52,2.66 2.78,3.42 1.25,0.75 2.6,1.13 4.06,1.13 1.78,0 3.28,-0.52 4.51,-1.54 1.24,-1.03 2.07,-2.56 2.5,-4.58l0 0zm5.65 -0.28c0,-3.22 0.9,-5.6 2.69,-7.15 1.5,-1.29 3.33,-1.93 5.48,-1.93 2.39,0 4.35,0.78 5.87,2.35 1.52,1.56 2.28,3.72 2.28,6.48 0,2.24 -0.33,4 -1.01,5.28 -0.67,1.28 -1.65,2.28 -2.93,2.99 -1.29,0.71 -2.69,1.06 -4.21,1.06 -2.44,0 -4.41,-0.78 -5.91,-2.33 -1.51,-1.57 -2.26,-3.82 -2.26,-6.75l0 0zm3.02 0.01c0,2.22 0.49,3.89 1.46,4.99 0.98,1.11 2.21,1.66 3.69,1.66 1.47,0 2.69,-0.55 3.67,-1.66 0.97,-1.12 1.46,-2.81 1.46,-5.09 0,-2.15 -0.49,-3.78 -1.47,-4.88 -0.98,-1.11 -2.2,-1.66 -3.66,-1.66 -1.48,0 -2.7,0.55 -3.69,1.65 -0.97,1.1 -1.46,2.77 -1.46,4.99l0 0zm16.77 8.7l0 -17.43 2.65 0 0 2.48c1.27,-1.9 3.12,-2.84 5.53,-2.84 1.05,0 2.02,0.19 2.89,0.56 0.88,0.38 1.54,0.87 1.98,1.49 0.44,0.61 0.75,1.33 0.92,2.17 0.1,0.55 0.16,1.51 0.16,2.87l0 10.7 -2.96 0 0 -10.58c0,-1.21 -0.11,-2.11 -0.34,-2.7 -0.22,-0.59 -0.63,-1.07 -1.21,-1.43 -0.59,-0.35 -1.28,-0.53 -2.06,-0.53 -1.25,0 -2.33,0.4 -3.24,1.2 -0.92,0.79 -1.37,2.31 -1.37,4.53l0 9.51 -2.95 0 0 0zm17.49 -5.2l2.92 -0.47c0.17,1.17 0.63,2.06 1.38,2.69 0.75,0.62 1.8,0.93 3.14,0.93 1.36,0 2.37,-0.27 3.03,-0.83 0.65,-0.54 0.98,-1.19 0.98,-1.94 0,-0.66 -0.29,-1.19 -0.88,-1.57 -0.41,-0.26 -1.42,-0.59 -3.02,-1 -2.16,-0.54 -3.66,-1.01 -4.5,-1.41 -0.83,-0.4 -1.46,-0.95 -1.9,-1.66 -0.43,-0.7 -0.64,-1.47 -0.64,-2.32 0,-0.78 0.18,-1.5 0.53,-2.16 0.36,-0.66 0.84,-1.21 1.45,-1.64 0.46,-0.34 1.08,-0.62 1.87,-0.86 0.8,-0.23 1.64,-0.35 2.55,-0.35 1.36,0 2.56,0.19 3.59,0.59 1.04,0.39 1.8,0.93 2.29,1.6 0.49,0.68 0.83,1.58 1.01,2.71l-2.89 0.4c-0.12,-0.9 -0.5,-1.62 -1.13,-2.12 -0.63,-0.51 -1.51,-0.76 -2.66,-0.76 -1.35,0 -2.32,0.22 -2.89,0.67 -0.58,0.44 -0.87,0.97 -0.87,1.57 0,0.38 0.12,0.73 0.36,1.04 0.24,0.31 0.61,0.57 1.13,0.78 0.29,0.11 1.16,0.36 2.6,0.76 2.08,0.55 3.54,1.01 4.36,1.36 0.84,0.35 1.48,0.87 1.95,1.54 0.48,0.68 0.71,1.52 0.71,2.53 0,0.98 -0.28,1.9 -0.86,2.77 -0.57,0.86 -1.4,1.54 -2.48,2.01 -1.09,0.48 -2.31,0.71 -3.68,0.71 -2.26,0 -3.99,-0.47 -5.18,-1.4 -1.18,-0.94 -1.94,-2.33 -2.27,-4.17l0 0zm29.35 5.2l0 -2.59c-1.35,1.98 -3.19,2.96 -5.51,2.96 -1.02,0 -1.98,-0.19 -2.88,-0.58 -0.88,-0.4 -1.55,-0.89 -1.97,-1.49 -0.44,-0.6 -0.74,-1.32 -0.91,-2.18 -0.12,-0.59 -0.18,-1.51 -0.18,-2.76l0 -10.78 2.95 0 0 9.64c0,1.54 0.06,2.58 0.18,3.11 0.19,0.78 0.58,1.38 1.18,1.83 0.6,0.44 1.34,0.66 2.22,0.66 0.89,0 1.72,-0.22 2.49,-0.68 0.77,-0.45 1.32,-1.07 1.64,-1.85 0.32,-0.78 0.48,-1.91 0.48,-3.4l0 -9.31 2.96 0 0 17.42 -2.65 0 0 0zm7.29 0l0 -17.43 2.65 0 0 2.47c0.55,-0.85 1.27,-1.54 2.18,-2.06 0.91,-0.51 1.94,-0.77 3.1,-0.77 1.28,0 2.34,0.27 3.16,0.8 0.83,0.53 1.41,1.28 1.75,2.24 1.38,-2.03 3.18,-3.04 5.4,-3.04 1.73,0 3.07,0.47 4,1.43 0.93,0.96 1.4,2.43 1.4,4.42l0 11.94 -2.95 0 0 -10.97c0,-1.17 -0.1,-2.02 -0.29,-2.54 -0.19,-0.52 -0.54,-0.94 -1.05,-1.26 -0.5,-0.32 -1.1,-0.47 -1.78,-0.47 -1.23,0 -2.25,0.4 -3.06,1.22 -0.81,0.82 -1.21,2.12 -1.21,3.91l0 10.11 -2.95 0 0 -11.31c0,-1.31 -0.24,-2.29 -0.73,-2.95 -0.48,-0.65 -1.27,-0.98 -2.36,-0.98 -0.83,0 -1.59,0.22 -2.3,0.66 -0.7,0.43 -1.21,1.07 -1.53,1.92 -0.31,0.83 -0.47,2.05 -0.47,3.63l0 9.03 -2.95 0 -0.01 0zm39.86 -5.64l3.05 0.4c-0.47,1.78 -1.36,3.16 -2.66,4.14 -1.3,0.98 -2.96,1.47 -4.97,1.47 -2.54,0 -4.56,-0.78 -6.05,-2.35 -1.49,-1.56 -2.23,-3.76 -2.23,-6.59 0,-2.92 0.75,-5.19 2.25,-6.8 1.51,-1.62 3.46,-2.42 5.86,-2.42 2.33,0 4.22,0.79 5.69,2.37 1.48,1.58 2.22,3.81 2.22,6.68 0,0.17 -0.01,0.44 -0.02,0.78l-12.98 0c0.11,1.91 0.65,3.38 1.62,4.39 0.97,1.01 2.19,1.52 3.63,1.52 1.08,0 2.01,-0.28 2.77,-0.85 0.77,-0.57 1.37,-1.48 1.82,-2.74zm-9.67 -4.73l9.7 0c-0.13,-1.47 -0.5,-2.57 -1.11,-3.3 -0.94,-1.14 -2.16,-1.7 -3.65,-1.7 -1.36,0 -2.49,0.45 -3.41,1.35 -0.92,0.91 -1.43,2.13 -1.53,3.65zm16.42 10.37l0 -17.43 2.66 0 0 2.68c0.67,-1.24 1.3,-2.06 1.88,-2.45 0.57,-0.4 1.2,-0.59 1.89,-0.59 1,0 2.01,0.31 3.04,0.93l-1.05 2.73c-0.72,-0.41 -1.43,-0.61 -2.15,-0.61 -0.64,0 -1.22,0.2 -1.73,0.58 -0.51,0.39 -0.87,0.93 -1.09,1.62 -0.33,1.04 -0.49,2.19 -0.49,3.44l0 9.1 -2.96 0 0 0zm-153.68 29.79l2.99 -0.27c0.14,1.21 0.46,2.2 0.99,2.98 0.51,0.77 1.32,1.4 2.41,1.88 1.09,0.48 2.32,0.72 3.69,0.72 1.21,0 2.28,-0.18 3.21,-0.55 0.93,-0.36 1.62,-0.86 2.07,-1.49 0.46,-0.63 0.69,-1.32 0.69,-2.06 0,-0.75 -0.22,-1.41 -0.66,-1.97 -0.44,-0.56 -1.16,-1.03 -2.16,-1.42 -0.65,-0.24 -2.08,-0.64 -4.29,-1.17 -2.21,-0.53 -3.75,-1.03 -4.63,-1.5 -1.15,-0.6 -2,-1.35 -2.56,-2.24 -0.57,-0.89 -0.85,-1.89 -0.85,-3 0,-1.21 0.35,-2.35 1.04,-3.41 0.69,-1.05 1.69,-1.85 3.01,-2.4 1.33,-0.55 2.8,-0.82 4.41,-0.82 1.78,0 3.36,0.28 4.72,0.86 1.36,0.57 2.4,1.41 3.13,2.53 0.74,1.12 1.13,2.38 1.18,3.79l-3.05 0.24c-0.16,-1.52 -0.72,-2.67 -1.66,-3.44 -0.95,-0.78 -2.35,-1.16 -4.19,-1.16 -1.93,0 -3.33,0.35 -4.21,1.05 -0.88,0.71 -1.32,1.56 -1.32,2.56 0,0.86 0.31,1.57 0.93,2.13 0.62,0.55 2.21,1.13 4.8,1.71 2.58,0.59 4.36,1.1 5.32,1.53 1.39,0.65 2.43,1.46 3.1,2.45 0.66,0.98 0.99,2.12 0.99,3.41 0,1.28 -0.36,2.48 -1.1,3.61 -0.73,1.13 -1.78,2.01 -3.15,2.63 -1.37,0.63 -2.91,0.94 -4.63,0.94 -2.17,0 -3.99,-0.32 -5.45,-0.95 -1.47,-0.63 -2.62,-1.58 -3.46,-2.86 -0.83,-1.27 -1.27,-2.71 -1.32,-4.31l0.01 0zm34.45 5.54c-1.1,0.94 -2.16,1.59 -3.17,1.98 -1.02,0.38 -2.1,0.57 -3.27,0.57 -1.91,0 -3.38,-0.46 -4.41,-1.4 -1.03,-0.92 -1.55,-2.12 -1.55,-3.57 0,-0.84 0.2,-1.63 0.59,-2.33 0.39,-0.71 0.9,-1.27 1.52,-1.69 0.64,-0.42 1.34,-0.75 2.13,-0.97 0.58,-0.15 1.46,-0.29 2.63,-0.44 2.38,-0.28 4.15,-0.62 5.28,-1.01 0.01,-0.4 0.01,-0.66 0.01,-0.77 0,-1.2 -0.28,-2.04 -0.84,-2.53 -0.75,-0.67 -1.88,-1 -3.37,-1 -1.39,0 -2.42,0.25 -3.08,0.73 -0.67,0.49 -1.16,1.35 -1.47,2.59l-2.89 -0.4c0.26,-1.24 0.69,-2.24 1.3,-3 0.6,-0.76 1.48,-1.34 2.62,-1.76 1.13,-0.41 2.46,-0.61 3.96,-0.61 1.49,0 2.7,0.17 3.64,0.52 0.92,0.36 1.62,0.8 2.05,1.33 0.44,0.53 0.75,1.2 0.92,2.01 0.1,0.5 0.15,1.41 0.15,2.71l0 3.92c0,2.74 0.06,4.47 0.19,5.2 0.11,0.74 0.36,1.43 0.72,2.1l-3.09 0c-0.3,-0.62 -0.49,-1.34 -0.57,-2.18l0 0zm-0.24 -6.55c-1.07,0.44 -2.68,0.81 -4.83,1.11 -1.23,0.18 -2.09,0.37 -2.59,0.59 -0.51,0.22 -0.89,0.54 -1.16,0.95 -0.28,0.42 -0.42,0.89 -0.42,1.4 0,0.78 0.3,1.43 0.9,1.95 0.6,0.52 1.47,0.79 2.61,0.79 1.14,0 2.15,-0.25 3.04,-0.75 0.89,-0.49 1.54,-1.17 1.96,-2.02 0.32,-0.67 0.47,-1.65 0.47,-2.94l0.02 -1.08 0 0zm13.94 6.1l0.4 2.61c-0.83,0.17 -1.57,0.26 -2.22,0.26 -1.07,0 -1.9,-0.17 -2.49,-0.51 -0.59,-0.34 -1,-0.78 -1.24,-1.34 -0.24,-0.55 -0.36,-1.72 -0.36,-3.49l0 -10.04 -2.18 0 0 -2.28 2.18 0 0 -4.31 2.95 -1.78 0 6.09 2.96 0 0 2.28 -2.96 0 0 10.21c0,0.84 0.05,1.38 0.16,1.62 0.1,0.25 0.27,0.44 0.51,0.58 0.23,0.14 0.57,0.21 1,0.21 0.33,0 0.76,-0.04 1.29,-0.11l0 0zm2.92 -18.05l0 -3.36 2.95 0 0 3.36 -2.95 0zm0 20.68l0 -17.42 2.95 0 0 17.42 -2.95 0zm6.28 -5.2l2.92 -0.47c0.17,1.17 0.62,2.06 1.37,2.69 0.75,0.62 1.81,0.94 3.15,0.94 1.36,0 2.36,-0.28 3.02,-0.83 0.66,-0.55 0.99,-1.2 0.99,-1.94 0,-0.67 -0.3,-1.2 -0.88,-1.58 -0.42,-0.26 -1.43,-0.59 -3.03,-1 -2.16,-0.54 -3.65,-1.01 -4.49,-1.41 -0.83,-0.4 -1.47,-0.95 -1.9,-1.65 -0.43,-0.71 -0.65,-1.48 -0.65,-2.34 0,-0.77 0.18,-1.49 0.53,-2.15 0.36,-0.66 0.85,-1.21 1.46,-1.64 0.45,-0.34 1.08,-0.63 1.87,-0.86 0.79,-0.23 1.64,-0.35 2.55,-0.35 1.36,0 2.56,0.19 3.59,0.59 1.03,0.39 1.79,0.93 2.29,1.6 0.49,0.68 0.83,1.58 1.01,2.71l-2.89 0.4c-0.13,-0.9 -0.51,-1.62 -1.13,-2.12 -0.63,-0.51 -1.51,-0.77 -2.66,-0.77 -1.35,0 -2.32,0.23 -2.89,0.67 -0.58,0.45 -0.87,0.98 -0.87,1.58 0,0.38 0.12,0.72 0.35,1.03 0.25,0.32 0.62,0.58 1.14,0.79 0.29,0.11 1.15,0.36 2.6,0.75 2.08,0.55 3.53,1.02 4.36,1.37 0.83,0.35 1.48,0.87 1.95,1.54 0.47,0.68 0.71,1.52 0.71,2.53 0,0.97 -0.29,1.9 -0.86,2.76 -0.58,0.87 -1.4,1.54 -2.48,2.02 -1.09,0.48 -2.32,0.71 -3.68,0.71 -2.26,0 -3.99,-0.47 -5.18,-1.4 -1.19,-0.94 -1.94,-2.33 -2.27,-4.17l0 0zm18.67 5.2l0 -15.14 -2.62 0 0 -2.28 2.62 0 0 -1.85c0,-1.17 0.1,-2.04 0.31,-2.6 0.28,-0.76 0.77,-1.38 1.49,-1.86 0.71,-0.47 1.71,-0.71 3,-0.71 0.83,0 1.75,0.1 2.76,0.3l-0.44 2.58c-0.62,-0.1 -1.2,-0.16 -1.74,-0.16 -0.9,0 -1.53,0.19 -1.91,0.57 -0.36,0.38 -0.55,1.09 -0.55,2.13l0 1.6 3.39 0 0 2.28 -3.36 0 0 15.14 -2.95 0 0 0zm20.01 -2.18c-1.1,0.94 -2.16,1.59 -3.17,1.98 -1.01,0.38 -2.1,0.57 -3.26,0.57 -1.92,0 -3.39,-0.46 -4.42,-1.4 -1.03,-0.92 -1.54,-2.12 -1.54,-3.57 0,-0.84 0.19,-1.63 0.58,-2.33 0.39,-0.71 0.9,-1.27 1.53,-1.69 0.63,-0.42 1.33,-0.75 2.12,-0.97 0.58,-0.15 1.46,-0.29 2.63,-0.44 2.38,-0.28 4.15,-0.62 5.27,-1.01 0.02,-0.4 0.02,-0.66 0.02,-0.77 0,-1.2 -0.28,-2.04 -0.84,-2.53 -0.76,-0.67 -1.88,-1 -3.37,-1 -1.39,0 -2.42,0.25 -3.08,0.73 -0.67,0.49 -1.15,1.35 -1.47,2.59l-2.89 -0.4c0.26,-1.24 0.69,-2.24 1.3,-3 0.6,-0.76 1.47,-1.34 2.62,-1.76 1.13,-0.41 2.46,-0.61 3.96,-0.61 1.49,0 2.7,0.17 3.63,0.52 0.94,0.36 1.62,0.8 2.06,1.33 0.44,0.53 0.75,1.2 0.93,2.01 0.09,0.5 0.14,1.41 0.14,2.71l0 3.92c0,2.74 0.06,4.47 0.18,5.2 0.12,0.74 0.37,1.43 0.73,2.1l-3.09 0c-0.3,-0.62 -0.49,-1.34 -0.57,-2.18l0 0zm-0.24 -6.55c-1.07,0.44 -2.69,0.81 -4.83,1.11 -1.22,0.18 -2.09,0.37 -2.59,0.59 -0.5,0.22 -0.89,0.54 -1.16,0.95 -0.28,0.42 -0.42,0.89 -0.42,1.4 0,0.78 0.3,1.43 0.9,1.95 0.6,0.52 1.47,0.79 2.62,0.79 1.13,0 2.15,-0.25 3.04,-0.75 0.88,-0.49 1.54,-1.17 1.95,-2.02 0.32,-0.67 0.48,-1.65 0.48,-2.94l0.01 -1.08 0 0zm18.91 2.35l2.89 0.41c-0.32,1.99 -1.13,3.53 -2.43,4.66 -1.3,1.12 -2.91,1.68 -4.81,1.68 -2.38,0 -4.29,-0.77 -5.73,-2.33 -1.45,-1.56 -2.17,-3.78 -2.17,-6.68 0,-1.88 0.31,-3.52 0.93,-4.93 0.62,-1.41 1.57,-2.46 2.84,-3.16 1.27,-0.71 2.66,-1.06 4.16,-1.06 1.88,0 3.43,0.47 4.63,1.43 1.2,0.96 1.97,2.32 2.31,4.08l-2.86 0.43c-0.27,-1.17 -0.75,-2.05 -1.45,-2.64 -0.69,-0.59 -1.53,-0.89 -2.52,-0.89 -1.48,0 -2.69,0.54 -3.63,1.6 -0.93,1.07 -1.39,2.75 -1.39,5.05 0,2.34 0.44,4.04 1.34,5.09 0.9,1.06 2.07,1.6 3.51,1.6 1.17,0 2.13,-0.36 2.91,-1.07 0.77,-0.7 1.26,-1.79 1.47,-3.27l0 0zm11.82 3.75l0.4 2.61c-0.83,0.17 -1.57,0.26 -2.22,0.26 -1.07,0 -1.9,-0.17 -2.49,-0.51 -0.59,-0.34 -1,-0.78 -1.24,-1.34 -0.24,-0.55 -0.36,-1.72 -0.36,-3.49l0 -10.04 -2.18 0 0 -2.28 2.18 0 0 -4.31 2.95 -1.78 0 6.09 2.96 0 0 2.28 -2.96 0 0 10.21c0,0.84 0.05,1.38 0.16,1.62 0.1,0.25 0.27,0.44 0.51,0.58 0.23,0.14 0.56,0.21 1,0.21 0.33,0 0.76,-0.04 1.29,-0.11l0 0zm2.92 -18.05l0 -3.36 2.95 0 0 3.36 -2.95 0zm0 20.68l0 -17.42 2.95 0 0 17.42 -2.95 0zm6.35 -8.71c0,-3.22 0.89,-5.6 2.69,-7.15 1.49,-1.29 3.32,-1.93 5.48,-1.93 2.39,0 4.34,0.78 5.87,2.35 1.51,1.56 2.28,3.73 2.28,6.48 0,2.24 -0.34,4 -1.01,5.28 -0.67,1.28 -1.65,2.28 -2.94,2.99 -1.28,0.71 -2.69,1.06 -4.2,1.06 -2.44,0 -4.41,-0.77 -5.92,-2.34 -1.5,-1.56 -2.25,-3.81 -2.25,-6.74zm3.02 0.01c0,2.22 0.49,3.89 1.46,4.99 0.98,1.11 2.2,1.67 3.69,1.67 1.46,0 2.68,-0.56 3.66,-1.67 0.98,-1.11 1.46,-2.81 1.46,-5.09 0,-2.15 -0.49,-3.77 -1.47,-4.88 -0.98,-1.1 -2.2,-1.66 -3.65,-1.66 -1.49,0 -2.71,0.55 -3.69,1.65 -0.97,1.1 -1.46,2.77 -1.46,4.99l0 0zm16.76 8.7l0 -17.42 2.65 0 0 2.47c1.28,-1.89 3.13,-2.84 5.53,-2.84 1.06,0 2.02,0.19 2.9,0.56 0.88,0.38 1.54,0.88 1.97,1.49 0.44,0.61 0.75,1.33 0.92,2.17 0.11,0.55 0.17,1.51 0.17,2.87l0 10.7 -2.96 0 0 -10.58c0,-1.21 -0.11,-2.11 -0.34,-2.7 -0.23,-0.6 -0.64,-1.07 -1.22,-1.43 -0.58,-0.35 -1.27,-0.53 -2.05,-0.53 -1.26,0 -2.34,0.4 -3.25,1.2 -0.91,0.79 -1.37,2.31 -1.37,4.54l0 9.5 -2.95 0 0 0z"/>
 </g>
 <g id="Layer_x0020_1_0">
  <metadata id="CorelCorpID_1Corel-Layer"/>
 </g>
</svg>
