<?xml version="1.0" encoding="UTF-8"?>
<!DOCTYPE svg PUBLIC "-//W3C//DTD SVG 1.1//EN" "http://www.w3.org/Graphics/SVG/1.1/DTD/svg11.dtd">
<!-- Creator: CorelDRAW 2019 (64-Bit) -->
<svg xmlns="http://www.w3.org/2000/svg" xml:space="preserve" width="42.3332mm" height="42.3332mm" version="1.1" style="shape-rendering:geometricPrecision; text-rendering:geometricPrecision; image-rendering:optimizeQuality; fill-rule:evenodd; clip-rule:evenodd"
viewBox="0 0 4233.32 4233.32"
 xmlns:xlink="http://www.w3.org/1999/xlink">
 <defs>
  <style type="text/css">
   <![CDATA[
    .fil0 {fill:none}
    .fil1 {fill:#030129;fill-rule:nonzero}
    .fil2 {fill:#AE904E;fill-rule:nonzero}
   ]]>
  </style>
 </defs>
 <g id="Layer_x0020_1">
  <metadata id="CorelCorpID_0Corel-Layer"/>
  <rect class="fil0" x="1.2" y="0.09" width="4233.33" height="4233.33"/>
  <path class="fil1" d="M1897.27 1843.32l22.25 68 35.3 0 -71.49 -205.74 -42.12 0 -73.55 205.74 34.69 0 22.25 -68 72.68 0 -0.01 0zm-64.08 -25.93l28.5 -84.69 26.99 84.69 -55.48 0 -0.01 0zm193.43 -68.58c-35.03,0 -58.16,17.89 -58.16,47.41 0,27.73 21.35,39.95 50.14,47.39 26.67,7.17 37.36,14.63 37.36,28.34 0,13.71 -12.14,20.27 -27.28,20.27 -16.32,0 -29.66,-8.04 -33.52,-28.31l-32.94 0c4.47,35.77 30.27,51.57 65.27,51.57 34.42,0 61.41,-15.19 61.41,-45.91 0,-28.02 -18.1,-41.75 -52.52,-50.69 -23.44,-6.24 -35,-12.22 -35,-26.54 0,-11.93 7.41,-20.56 22.83,-20.56 16.03,0 25.82,9.82 29.08,26.54l33.23 0c-3.55,-28.92 -23.73,-49.5 -59.9,-49.5l0 0 0 -0.01zm106.76 -50.99c-10.98,0 -18.97,8.04 -18.97,18.79 0,11.03 7.99,19.08 18.97,19.08 10.98,0 19.29,-8.04 19.29,-19.08 0,-10.74 -8.31,-18.79 -19.29,-18.79zm16.33 213.5l0 -158.35 -32.65 0 0 158.35 32.65 0zm132.58 0l32.36 0c-2.38,-17.59 -2.96,-28.34 -2.96,-40.27l0 -55.75c0,-7.46 -0.32,-15.8 -0.9,-22.36 -2.67,-26.83 -18.68,-44.13 -59.32,-44.13 -35.9,0 -61.7,19.69 -63.79,54.27l32.62 0c1.77,-19.69 11.59,-30.4 30.56,-30.4 18.71,0 26.72,8.92 27.6,21.75 0.58,5.98 0.58,11.32 0.58,17.3l0 3.86 -10.08 0c-59.61,0 -87.5,19.08 -87.5,54.27 0,29.53 22.83,45.61 50.72,45.61 14.82,0 28.47,-2.67 39.16,-10.13l7.99 -16.99 2.96 22.97zm-38.26 -19.69c-17.2,0 -28.18,-7.75 -28.18,-24.45 0,-24.16 24.92,-32.81 63.18,-29.82l0 14.61c0,25.64 -14.53,39.66 -35,39.66zm151.32 -196.5l0 -2.96 -33.23 0 -23.15 77.81 27.31 0 29.08 -74.85 -0.01 0zm87.49 53.68c-35,0 -58.16,17.89 -58.16,47.41 0,27.73 21.35,39.95 50.14,47.39 26.7,7.17 37.39,14.63 37.39,28.34 0,13.71 -12.17,20.27 -27.31,20.27 -16.3,0 -29.66,-8.04 -33.52,-28.31l-32.91 0c4.45,35.77 30.24,51.57 65.27,51.57 34.4,0 61.38,-15.19 61.38,-45.91 0,-28.02 -18.1,-41.75 -52.49,-50.69 -23.44,-6.24 -35,-12.22 -35,-26.54 0,-11.93 7.41,-20.56 22.83,-20.56 16.03,0 25.8,9.82 29.08,26.54l33.21 0c-3.55,-28.92 -23.71,-49.5 -59.9,-49.5l0 0 -0.01 -0.01zm-486.2 410.26c21.06,-7.17 33.52,-20.58 33.52,-43.84 0,-28.6 -18.39,-46.2 -51.01,-50.67 -10.11,-1.19 -16.62,-1.19 -26.72,-1.19l-66.15 0 0 205.71 69.72 0c10.37,0 17.2,0 27.28,-1.48 27.01,-3.89 54.29,-21.78 54.29,-59.35 0,-27.41 -14.23,-42.62 -40.93,-49.19l0 0.01zm-77.7 -69.77l33.5 0c4.76,0 10.69,0.29 15.45,0.9 16.3,1.8 27.86,10.42 27.86,28.63 0,16.67 -7.7,27.12 -25.8,30.11 -5.34,0.87 -10.37,1.19 -15.43,1.19l-35.59 0 0 -60.83 0.01 0zm54.26 153.25c-3.86,0.32 -9.18,0.32 -13.94,0.32l-40.32 0 0 -67.39 38.55 0c4.76,0 9.47,0 15.43,0.9 17.49,2.06 30.27,11.03 30.27,33.39 0,19.95 -13.07,31.3 -29.98,32.78l-0.01 0zm231.09 -56.65c0,-44.71 -24.63,-79.32 -70.3,-79.32 -45.4,0 -77.13,33.71 -77.13,83.79 0,56.07 31.72,82.89 73.85,82.89 34.42,0 64.4,-17.89 71.2,-55.46l-32.91 0c-3.28,19.98 -18.1,31.62 -37.09,31.62 -21.35,0 -38.55,-12.54 -41.22,-50.4l113.03 0c0.58,-5.66 0.58,-10.13 0.58,-13.12l-0.01 0zm-71.49 -55.46c22.83,0 35.59,16.4 37.97,45.61l-79.8 0c3.57,-30.4 19.58,-45.61 41.83,-45.61zm153.35 -23.86c-35,0 -58.13,17.89 -58.13,47.44 0,27.7 21.35,39.95 50.11,47.39 26.72,7.17 37.39,14.63 37.39,28.31 0,13.73 -12.14,20.29 -27.28,20.29 -16.32,0 -29.66,-8.04 -33.52,-28.34l-32.94 0c4.47,35.8 30.27,51.59 65.27,51.59 34.4,0 61.41,-15.21 61.41,-45.91 0,-28.05 -18.1,-41.75 -52.49,-50.69 -23.44,-6.27 -35.03,-12.22 -35.03,-26.54 0,-11.93 7.43,-20.58 22.86,-20.58 16.01,0 25.8,9.84 29.08,26.54l33.21 0c-3.57,-28.92 -23.73,-49.5 -59.93,-49.5l0 0 -0.01 0zm129.33 28.34l30.88 0 0 -22.97 -30.88 0 0 -37.84 -32.33 0 0 37.84 -22.23 0 0 22.97 22.23 0 0 85.88c0,8.92 0,15.8 0.32,21.17 1.48,20.85 12.14,30.11 36.78,30.11 8.02,0 15.72,-0.61 24.02,-1.8l0 -22.65c-21.35,2.09 -27.31,-1.19 -28.47,-16.72 -0.32,-4.15 -0.32,-7.75 -0.32,-13.1l0 -82.89zm-602.16 381.92c21.06,-7.14 33.52,-20.56 33.52,-43.82 0,-28.63 -18.39,-46.22 -51.01,-50.69 -10.08,-1.19 -16.62,-1.19 -26.72,-1.19l-66.15 0 0 205.74 69.72 0c10.37,0 17.2,0 27.31,-1.51 26.99,-3.86 54.27,-21.75 54.27,-59.32 0,-27.44 -14.23,-42.65 -40.93,-49.21l-0.01 0zm-77.71 -69.74l33.5 0c4.76,0 10.69,0.29 15.45,0.87 16.3,1.8 27.86,10.45 27.86,28.63 0,16.7 -7.7,27.12 -25.8,30.11 -5.34,0.9 -10.37,1.22 -15.43,1.22l-35.59 0 0 -60.83 0.01 0zm54.26 153.24c-3.86,0.29 -9.18,0.29 -13.94,0.29l-40.32 0 0 -67.36 38.55 0c4.76,0 9.5,0 15.45,0.87 17.49,2.09 30.24,11.03 30.24,33.39 0,19.98 -13.04,31.33 -29.98,32.81zm165.84 -135.65c-8.02,0 -17.22,3.28 -24.34,8.92l-13.34 21.78 0 -26.83 -32.65 0 0 158.33 32.65 0 0 -82.29c0,-39.08 18.68,-54.58 48.63,-52.49l0 -25.64c-3.25,-1.19 -6.54,-1.77 -10.95,-1.77l0 -0.01zm125.18 162.19l32.33 0c-2.38,-17.59 -2.96,-28.34 -2.96,-40.27l0 -55.75c0,-7.46 -0.29,-15.8 -0.9,-22.36 -2.67,-26.83 -18.68,-44.13 -59.32,-44.13 -35.9,0 -61.7,19.69 -63.79,54.27l32.62 0c1.8,-19.69 11.59,-30.4 30.56,-30.4 18.71,0 26.72,8.94 27.6,21.75 0.58,5.98 0.58,11.35 0.58,17.3l0 3.86 -10.08 0c-59.61,0 -87.5,19.08 -87.5,54.27 0,29.53 22.83,45.61 50.72,45.61 14.84,0 28.5,-2.67 39.16,-10.13l7.99 -16.99 2.99 22.97zm-38.29 -19.68c-17.2,0 -28.15,-7.75 -28.15,-24.45 0,-24.16 24.9,-32.81 63.16,-29.82l0 14.61c0,25.64 -14.5,39.66 -35,39.66l-0.01 0zm248.31 -97.5c-2.96,-27.73 -22.25,-45.32 -56.07,-45.32 -15.74,0 -27.31,2.67 -39.74,12.22l-10.69 18.2 0 -26.25 -32.62 0 0 158.33 32.62 0 0 -70.96c0,-49.5 18.39,-67.39 40.93,-67.39 22.25,0 31.75,12.51 33.23,30.4 0.58,8.07 0.58,14.92 0.58,22.38l0 85.57 32.65 0 0 -89.16c0,-12.81 -0.32,-19.98 -0.9,-28.02l0.01 0zm185.4 -101.97l-32.62 0 0 82.29 -10.37 -15.8c-8.02,-6.24 -24.34,-9.84 -37.39,-9.84 -40.67,0 -76.25,28.05 -76.25,85.86 0,46.54 25.82,80.8 70.91,80.8 16.01,0 32.33,-4.76 41.22,-11.91l11.88 -17.3 0 25.06 32.62 0 0 -219.15 0 -0.01zm-78.32 199.47c-28.18,0 -43.92,-25.35 -43.92,-59.64 0,-39.34 19.61,-59.32 45.4,-59.32 21.06,0 44.21,14.31 44.21,52.76l0 8.36c0,42.33 -21.06,57.84 -45.69,57.84zm170.87 -142.82c-35,0 -58.13,17.91 -58.13,47.41 0,27.73 21.33,39.95 50.11,47.41 26.72,7.14 37.39,14.61 37.39,28.31 0,13.71 -12.17,20.27 -27.28,20.27 -16.32,0 -29.69,-8.04 -33.55,-28.31l-32.91 0c4.45,35.77 30.27,51.57 65.27,51.57 34.4,0 61.38,-15.19 61.38,-45.91 0,-28.02 -18.1,-41.75 -52.49,-50.69 -23.44,-6.24 -35,-12.22 -35,-26.51 0,-11.96 7.43,-20.58 22.83,-20.58 16.03,0 25.82,9.84 29.08,26.54l33.23 0c-3.57,-28.92 -23.73,-49.5 -59.93,-49.5l0 0 0 -0.01z"/>
  <path class="fil1" d="M1875.31 1280.31l45.11 -44.71c35.88,-35.19 50.11,-54.27 50.11,-81.39 0,-32.52 -21.96,-57.84 -65.27,-57.84 -43.31,0 -69.69,23.55 -73.85,67.07l-0.29 2.99 32.62 0 0.29 -2.99c2.67,-27.15 14.26,-42.04 37.68,-42.04 22.25,0 33.5,15.8 33.5,35.77 0,19.69 -11.24,34.58 -37.04,60.25l-71.52 72.42 0 16.72 142.69 0 0 -26.25 -94.03 0zm200.82 -183.65c-56.94,0 -76.52,44.71 -76.52,107.02 0,61.73 19.58,107.02 76.52,107.02 57.26,0 76.54,-45.3 76.54,-107.02 0,-62.31 -19.29,-107.02 -76.54,-107.02zm0 189.02c-29.05,0 -41.22,-29.24 -41.22,-81.99 0,-53.37 12.17,-81.99 41.22,-81.99 29.37,0 41.25,28.63 41.25,81.99 0,52.76 -11.88,81.99 -41.25,81.99zm217.43 -184.86l-18.1 0c-9.18,0 -17.78,2.09 -27.28,7.75l-45.09 27.73 0 32.2 57.84 -33.39 0 171.45 32.62 0 0 -205.74 0.01 0zm175.63 96.92c18.68,-6.59 33.81,-21.78 33.81,-45.03 0,-33.97 -25.82,-56.04 -68.24,-56.04 -42.12,0 -68.24,22.07 -68.24,56.04 0,22.97 13.07,38.15 31.17,45.03 -21.67,6.85 -40.35,25.32 -40.35,50.96 0,45.03 33.52,62.34 75.35,62.34 38.84,0 75.62,-17.3 75.62,-62.34 0,-25.64 -17.78,-44.11 -39.13,-50.96l0.01 0zm-34.42 -76.05c22.54,0 34.1,14.02 34.1,32.23 0,19.37 -12.14,33.07 -34.4,33.07 -22.25,0 -33.81,-13.71 -33.81,-33.07 0,-18.2 11.85,-32.23 34.1,-32.23l0.01 0zm-1.48 164.31c-26.99,0 -40.93,-15.21 -40.93,-36.99 0,-20.27 13.04,-36.99 40.64,-36.99 28.18,0 40.03,17.01 40.03,36.99 0,21.78 -12.44,36.99 -39.74,36.99z"/>
  <g id="_1128814561072">
   <path class="fil2" d="M1588.29 823.85c-49.29,-23.12 -83.56,-65.48 -98.08,-113.98 46.33,-20.03 100.65,-20.93 149.94,2.2 49.29,23.12 83.56,65.46 98.05,114.01 -46.33,20.03 -100.62,20.88 -149.91,-2.22l0 -0.01z"/>
   <path class="fil2" d="M1603.45 610.73c-23.02,49.53 -65.14,83.95 -113.43,98.56 -19.92,-46.57 -20.77,-101.15 2.22,-150.71 22.97,-49.53 65.11,-83.95 113.43,-98.56 19.9,46.57 20.74,101.15 -2.22,150.71z"/>
   <path class="fil2" d="M1392.97 923.57c-52.55,-14.16 -93.58,-49.87 -116.26,-95.17 42.15,-27.78 95.46,-38.13 148.01,-23.97 52.57,14.16 93.58,49.9 116.28,95.17 -42.17,27.78 -95.49,38.1 -148.03,23.97z"/>
   <path class="fil2" d="M1371.06 711.01c-14.08,52.81 -49.64,94.06 -94.67,116.89 -27.68,-42.41 -37.94,-95.99 -23.84,-148.8 14.08,-52.81 49.61,-94.06 94.67,-116.87 27.65,42.39 37.91,95.99 23.84,148.78z"/>
   <path class="fil2" d="M1217.74 1056.1c-54.21,-4.76 -100.78,-32.78 -130.97,-73.42 36.75,-34.74 87.47,-54.19 141.66,-49.42 54.19,4.76 100.78,32.78 130.94,73.4 -36.72,34.74 -87.44,54.21 -141.63,49.45l0 -0.01z"/>
   <path class="fil2" d="M1159.42 850.63c-4.71,54.45 -32.62,101.28 -73.03,131.6 -34.55,-36.91 -53.92,-87.89 -49.19,-142.35 4.74,-54.48 32.62,-101.34 73.03,-131.63 34.58,36.91 53.92,87.89 49.19,142.37l0 0.01z"/>
   <path class="fil2" d="M1067.88 1217.45c-54.19,4.76 -104.91,-14.68 -141.66,-49.42 30.19,-40.61 76.78,-68.63 130.97,-73.42 54.21,-4.76 104.91,14.71 141.63,49.48 -30.16,40.59 -76.76,68.61 -130.94,73.37l0 -0.01z"/>
   <path class="fil2" d="M974.96 1025.28c4.76,54.45 -14.61,105.44 -49.19,142.35 -40.4,-30.32 -68.29,-77.13 -73.03,-131.6 -4.74,-54.48 14.63,-105.46 49.19,-142.37 40.43,30.32 68.29,77.15 73.03,131.63l0 -0.01z"/>
   <path class="fil2" d="M947.97 1402.73c-52.55,14.16 -105.86,3.84 -148.01,-23.97 22.67,-45.27 63.71,-80.99 116.26,-95.14 52.55,-14.16 105.86,-3.84 148.03,23.97 -22.7,45.27 -63.71,80.99 -116.28,95.14z"/>
   <path class="fil2" d="M823.27 1229.67c14.08,52.81 3.81,106.42 -23.84,148.8 -45.03,-22.83 -80.59,-64.06 -94.67,-116.87 -14.08,-52.81 -3.81,-106.42 23.87,-148.8 45.03,22.83 80.57,64.06 94.64,116.87z"/>
   <path class="fil2" d="M861.66 1606.28c-49.29,23.1 -103.58,22.25 -149.91,2.22 14.53,-48.5 48.76,-90.86 98.08,-114.01 49.29,-23.07 103.58,-22.23 149.91,-2.2 -14.53,48.52 -48.79,90.88 -98.08,113.98l0 0.01z"/>
   <path class="fil2" d="M708.97 1457.64c22.97,49.53 22.15,104.11 2.22,150.65 -48.31,-14.55 -90.43,-49 -113.43,-98.53 -22.99,-49.58 -22.12,-104.14 -2.22,-150.68 48.29,14.58 90.43,49 113.43,98.56z"/>
   <path class="fil2" d="M811.58 1821.94c-44.56,31.35 -98.19,39.98 -147.24,28.34 5.9,-50.32 32.31,-98 76.86,-129.35 44.56,-31.38 98.19,-40.01 147.27,-28.39 -5.93,50.35 -32.33,98.03 -76.89,129.41l0 -0.01z"/>
   <path class="fil2" d="M635.52 1702.19c31.19,44.77 39.77,98.66 28.2,148.01 -50.09,-5.95 -97.53,-32.49 -128.72,-77.28 -31.22,-44.79 -39.79,-98.66 -28.23,-148.01 50.09,5.95 97.53,32.49 128.75,77.28z"/>
   <path class="fil2" d="M799.22 2043.11c-38.47,38.66 -89.77,56.52 -140.12,53.63 -2.86,-50.61 14.9,-102.16 53.37,-140.81 38.47,-38.68 89.77,-56.52 140.12,-53.66 2.86,50.61 -14.9,102.18 -53.37,140.84z"/>
   <path class="fil2" d="M605.15 1955.93c38.44,38.66 56.22,90.2 53.37,140.81 -50.35,2.88 -101.65,-14.98 -140.12,-53.63 -35.48,-35.64 -53.34,-82.23 -53.66,-128.98l0 -2.75c0,-3.04 0.11,-6.09 0.26,-9.1 50.38,-2.86 101.68,14.98 140.15,53.66l0 -0.01z"/>
   <path class="fil2" d="M825.15 2261.44c-31.22,44.79 -78.66,71.33 -128.75,77.28 -11.56,-49.34 -2.99,-103.24 28.23,-148.01 31.19,-44.79 78.63,-71.33 128.72,-77.28 11.56,49.34 2.99,103.24 -28.2,148.01z"/>
   <path class="fil2" d="M618.93 2209.42c44.56,31.38 70.96,79.08 76.89,129.41 -49.08,11.64 -102.71,2.99 -147.27,-28.36 -44.56,-31.35 -70.96,-79.06 -76.86,-129.41 49.08,-11.62 102.68,-2.96 147.24,28.36z"/>
   <path class="fil2" d="M888.65 2471.97c-22.99,49.53 -65.11,83.95 -113.43,98.56 -19.92,-46.57 -20.77,-101.15 2.22,-150.68 22.99,-49.56 65.14,-83.98 113.43,-98.56 19.9,46.57 20.77,101.12 -2.22,150.68z"/>
   <path class="fil2" d="M676.59 2456.73c49.32,23.1 83.56,65.46 98.08,114.01 -46.33,20 -100.62,20.88 -149.91,-2.22 -49.32,-23.12 -83.56,-65.46 -98.08,-114.01 46.33,-20 100.62,-20.88 149.91,2.22z"/>
   <path class="fil2" d="M987.87 2668.29c-14.1,52.81 -49.64,94.03 -94.69,116.84 -27.65,-42.39 -37.91,-95.96 -23.84,-148.78 14.08,-52.81 49.64,-94.06 94.67,-116.87 27.68,42.39 37.94,95.96 23.87,148.8l-0.01 0.01z"/>
   <path class="fil2" d="M776.39 2690.3c52.55,14.13 93.58,49.87 116.28,95.14 -42.17,27.81 -95.49,38.1 -148.03,23.97 -52.55,-14.18 -93.58,-49.9 -116.26,-95.14 42.15,-27.83 95.49,-38.13 148.01,-23.97z"/>
   <path class="fil2" d="M1119.74 2844.4c-4.76,54.48 -32.62,101.31 -73.05,131.6 -34.55,-36.88 -53.92,-87.87 -49.19,-142.35 4.74,-54.45 32.62,-101.28 73.03,-131.6 34.58,36.91 53.95,87.89 49.21,142.35z"/>
   <path class="fil2" d="M915.27 2903c54.21,4.76 100.81,32.78 130.97,73.4 -36.72,34.77 -87.44,54.21 -141.63,49.45 -54.21,-4.76 -100.81,-32.81 -130.94,-73.42 36.7,-34.71 87.42,-54.19 141.61,-49.42l-0.01 -0.01z"/>
   <path class="fil2" d="M1280.29 2995.02c4.74,54.45 -14.66,105.44 -49.21,142.35 -40.4,-30.32 -68.29,-77.13 -73.03,-131.6 -4.76,-54.45 14.63,-105.46 49.19,-142.37 40.4,30.32 68.29,77.18 73.05,131.63l0 -0.01z"/>
   <path class="fil2" d="M1089.07 3088.4c54.19,-4.76 104.91,14.71 141.61,49.45 -30.14,40.61 -76.73,68.63 -130.92,73.4 -54.21,4.76 -104.91,-14.68 -141.66,-49.42 30.16,-40.61 76.76,-68.66 130.97,-73.42l0 -0.01z"/>
   <path class="fil2" d="M1464.62 3115.54c14.08,52.81 3.81,106.39 -23.87,148.78 -45.03,-22.81 -80.59,-64.06 -94.67,-116.89 -14.08,-52.78 -3.81,-106.39 23.84,-148.75 45.03,22.78 80.59,64.03 94.69,116.87l0.01 -0.01z"/>
   <path class="fil2" d="M1292.43 3240.87c52.55,-14.18 105.86,-3.84 148.03,23.97 -22.7,45.27 -63.74,80.99 -116.28,95.14 -52.55,14.16 -105.86,3.84 -148.03,-23.97 22.7,-45.27 63.74,-81.02 116.28,-95.14z"/>
   <path class="fil2" d="M1667.13 3202.27c22.97,49.56 22.12,104.11 2.2,150.71 -48.29,-14.61 -90.43,-49.03 -113.4,-98.58 -23.02,-49.56 -22.15,-104.11 -2.22,-150.68 48.29,14.61 90.41,49.03 113.43,98.56l-0.01 -0.01z"/>
   <path class="fil2" d="M1519.23 3355.76c49.29,-23.12 103.56,-22.25 149.89,-2.22 -14.5,48.52 -48.76,90.88 -98.05,114.01 -49.29,23.1 -103.58,22.25 -149.91,2.22 14.53,-48.55 48.76,-90.88 98.08,-114.01l-0.01 0z"/>
   <path class="fil2" d="M1846.26 642.59c-51.12,18.73 -105.12,13.1 -149.54,-10.9 18.65,-47.07 56.44,-86.28 107.58,-104.96 51.09,-18.73 105.12,-13.1 149.54,10.9 -18.68,47.1 -56.46,86.28 -107.58,104.96z"/>
   <path class="fil2" d="M2319.38 3772.18c-249.98,-248.6 -482.36,-346.63 -654.26,-405.21 -16.54,-5.64 -31.94,-10.87 -45.91,-15.77 -584.33,-205.58 -976.95,-749.17 -976.95,-1352.71 0,-679.13 496.6,-1271.56 1180.84,-1408.64l4.34 21.88c-673.89,135.04 -1162.98,718.21 -1162.98,1386.76 0,594.04 386.64,1129.19 962.05,1331.62 13.97,4.89 29.26,10.11 45.75,15.72 173.7,59.19 482.89,158.25 736.52,410.47l-89.4 15.88z"/>
   <path class="fil2" d="M2642.18 823.85c49.29,-23.12 83.56,-65.48 98.05,-113.98 -46.33,-20.03 -100.62,-20.93 -149.91,2.2 -49.29,23.12 -83.56,65.46 -98.05,114.01 46.33,20.03 100.62,20.88 149.91,-2.22l0 -0.01z"/>
   <path class="fil2" d="M2627.01 610.73c23.02,49.53 65.14,83.95 113.43,98.56 19.92,-46.57 20.8,-101.15 -2.22,-150.71 -22.99,-49.53 -65.11,-83.95 -113.43,-98.56 -19.92,46.57 -20.74,101.15 2.22,150.71z"/>
   <path class="fil2" d="M2837.49 923.57c52.52,-14.16 93.58,-49.87 116.28,-95.17 -42.2,-27.78 -95.51,-38.13 -148.06,-23.97 -52.55,14.16 -93.56,49.9 -116.23,95.17 42.15,27.78 95.46,38.1 148.01,23.97z"/>
   <path class="fil2" d="M2859.4 711.01c14.08,52.81 49.64,94.06 94.67,116.89 27.65,-42.41 37.91,-95.99 23.84,-148.8 -14.08,-52.81 -49.61,-94.06 -94.67,-116.87 -27.65,42.39 -37.94,95.99 -23.84,148.78z"/>
   <path class="fil2" d="M3012.72 1056.1c54.21,-4.76 100.81,-32.78 130.97,-73.42 -36.72,-34.74 -87.44,-54.19 -141.66,-49.42 -54.19,4.76 -100.78,32.78 -130.94,73.4 36.72,34.74 87.44,54.21 141.63,49.45l0 -0.01z"/>
   <path class="fil2" d="M3071.01 850.63c4.76,54.45 32.65,101.28 73.05,131.6 34.55,-36.91 53.92,-87.89 49.19,-142.35 -4.74,-54.48 -32.62,-101.34 -73.03,-131.63 -34.58,36.91 -53.92,87.89 -49.21,142.37l0 0.01z"/>
   <path class="fil2" d="M3162.58 1217.45c54.19,4.76 104.91,-14.68 141.63,-49.42 -30.16,-40.61 -76.76,-68.63 -130.94,-73.42 -54.21,-4.76 -104.93,14.71 -141.63,49.48 30.16,40.59 76.76,68.61 130.94,73.37l0 -0.01z"/>
   <path class="fil2" d="M3255.51 1025.28c-4.74,54.45 14.61,105.44 49.19,142.35 40.4,-30.32 68.29,-77.13 73.03,-131.6 4.74,-54.48 -14.63,-105.46 -49.19,-142.37 -40.4,30.32 -68.32,77.15 -73.03,131.63l0 -0.01z"/>
   <path class="fil2" d="M3282.47 1402.73c52.57,14.16 105.86,3.84 148.03,-23.97 -22.67,-45.27 -63.74,-80.99 -116.28,-95.14 -52.55,-14.16 -105.86,-3.84 -148.01,23.97 22.7,45.27 63.71,80.99 116.26,95.14z"/>
   <path class="fil2" d="M3407.19 1229.67c-14.08,52.81 -3.81,106.42 23.84,148.8 45.03,-22.83 80.59,-64.06 94.67,-116.87 14.1,-52.81 3.81,-106.42 -23.84,-148.8 -45.06,22.83 -80.59,64.06 -94.67,116.87z"/>
   <path class="fil2" d="M3368.8 1606.28c49.29,23.1 103.58,22.25 149.89,2.22 -14.5,-48.5 -48.74,-90.86 -98.03,-114.01 -49.29,-23.07 -103.61,-22.23 -149.94,-2.2 14.53,48.52 48.76,90.88 98.08,113.98l0 0.01z"/>
   <path class="fil2" d="M3521.49 1457.64c-22.99,49.53 -22.12,104.11 -2.22,150.65 48.29,-14.55 90.43,-49 113.43,-98.53 22.99,-49.58 22.15,-104.14 2.22,-150.68 -48.29,14.58 -90.43,49 -113.43,98.56z"/>
   <path class="fil2" d="M3418.86 1821.94c44.58,31.35 98.19,39.98 147.27,28.34 -5.9,-50.32 -32.31,-98 -76.89,-129.35 -44.53,-31.38 -98.16,-40.01 -147.24,-28.39 5.93,50.35 32.33,98.03 76.86,129.41l0 -0.01z"/>
   <path class="fil2" d="M3594.94 1702.19c-31.19,44.77 -39.77,98.66 -28.2,148.01 50.09,-5.95 97.53,-32.49 128.72,-77.28 31.22,-44.79 39.79,-98.66 28.23,-148.01 -50.09,5.95 -97.53,32.49 -128.75,77.28z"/>
   <path class="fil2" d="M3431.24 2043.11c38.44,38.66 89.77,56.52 140.12,53.63 2.86,-50.61 -14.9,-102.16 -53.37,-140.81 -38.47,-38.68 -89.77,-56.52 -140.12,-53.66 -2.88,50.61 14.9,102.18 53.37,140.84z"/>
   <path class="fil2" d="M3625.31 1955.93c-38.47,38.66 -56.22,90.2 -53.37,140.81 50.35,2.88 101.65,-14.98 140.12,-53.63 38.47,-38.66 56.25,-90.22 53.37,-140.84 -50.35,-2.86 -101.65,14.98 -140.12,53.66z"/>
   <path class="fil2" d="M3405.31 2261.44c31.22,44.79 78.66,71.33 128.72,77.28 11.62,-49.34 3.02,-103.24 -28.2,-148.01 -31.19,-44.79 -78.63,-71.33 -128.72,-77.28 -11.56,49.34 -2.96,103.24 28.2,148.01z"/>
   <path class="fil2" d="M3611.53 2209.42c-44.56,31.38 -70.96,79.08 -76.89,129.41 49.08,11.64 102.71,2.99 147.27,-28.36 44.56,-31.35 70.96,-79.06 76.89,-129.41 -49.11,-11.62 -102.71,-2.96 -147.27,28.36z"/>
   <path class="fil2" d="M3341.81 2471.97c22.99,49.53 65.14,83.95 113.43,98.56 19.92,-46.57 20.74,-101.15 -2.22,-150.68 -23.02,-49.56 -65.11,-83.98 -113.43,-98.56 -19.9,46.57 -20.77,101.12 2.22,150.68z"/>
   <path class="fil2" d="M3553.85 2456.73c-49.29,23.1 -83.56,65.46 -98.05,114.01 46.33,20 100.62,20.88 149.91,-2.22 49.29,-23.12 83.56,-65.46 98.08,-114.01 -46.33,-20 -100.59,-20.88 -149.94,2.22z"/>
   <path class="fil2" d="M3242.59 2668.29c14.1,52.81 49.64,94.03 94.69,116.84 27.65,-42.39 37.91,-95.96 23.84,-148.78 -14.08,-52.81 -49.64,-94.06 -94.67,-116.87 -27.65,42.39 -37.94,95.96 -23.87,148.8l0.01 0.01z"/>
   <path class="fil2" d="M3454.05 2690.3c-52.52,14.13 -93.56,49.87 -116.23,95.14 42.15,27.81 95.46,38.1 148.01,23.97 52.55,-14.18 93.58,-49.9 116.28,-95.14 -42.17,-27.83 -95.51,-38.13 -148.06,-23.97z"/>
   <path class="fil2" d="M3110.73 2844.4c4.76,54.48 32.65,101.31 73.05,131.6 34.55,-36.88 53.92,-87.87 49.19,-142.35 -4.76,-54.45 -32.65,-101.28 -73.05,-131.6 -34.55,36.91 -53.92,87.89 -49.19,142.35z"/>
   <path class="fil2" d="M3315.17 2903c-54.19,4.76 -100.78,32.78 -130.94,73.4 36.72,34.77 87.44,54.21 141.63,49.45 54.19,-4.76 100.78,-32.81 130.94,-73.42 -36.72,-34.71 -87.42,-54.19 -141.63,-49.42l0 -0.01z"/>
   <path class="fil2" d="M2950.2 2995.02c-4.76,54.45 14.61,105.44 49.19,142.35 40.4,-30.32 68.29,-77.13 73.03,-131.6 4.76,-54.45 -14.63,-105.46 -49.19,-142.37 -40.4,30.32 -68.29,77.18 -73.03,131.63l0 -0.01z"/>
   <path class="fil2" d="M3141.39 3088.4c-54.19,-4.76 -104.91,14.71 -141.61,49.45 30.14,40.61 76.73,68.63 130.92,73.4 54.19,4.76 104.93,-14.68 141.66,-49.42 -30.16,-40.61 -76.78,-68.66 -130.97,-73.42l0 -0.01z"/>
   <path class="fil2" d="M2765.84 3115.54c-14.05,52.81 -3.81,106.39 23.87,148.78 45.03,-22.81 80.59,-64.06 94.67,-116.89 14.08,-52.78 3.81,-106.39 -23.84,-148.75 -45.03,22.78 -80.59,64.03 -94.69,116.87l-0.01 -0.01z"/>
   <path class="fil2" d="M2938.03 3240.87c-52.55,-14.18 -105.86,-3.84 -148.01,23.97 22.67,45.27 63.71,80.99 116.26,95.14 52.55,14.16 105.86,3.84 148.03,-23.97 -22.7,-45.27 -63.74,-81.02 -116.28,-95.14z"/>
   <path class="fil2" d="M2563.33 3202.27c-22.97,49.56 -22.12,104.11 -2.2,150.71 48.29,-14.61 90.41,-49.03 113.43,-98.58 22.97,-49.56 22.12,-104.11 2.2,-150.68 -48.29,14.61 -90.43,49.03 -113.43,98.56l0 -0.01z"/>
   <path class="fil2" d="M2711.23 3355.76c-49.29,-23.12 -103.56,-22.25 -149.89,-2.22 14.53,48.52 48.74,90.88 98.03,114.01 49.32,23.1 103.61,22.25 149.94,2.22 -14.53,-48.55 -48.76,-90.88 -98.08,-114.01z"/>
   <path class="fil2" d="M2384.23 642.59c51.12,18.73 105.12,13.1 149.52,-10.9 -18.65,-47.07 -56.44,-86.28 -107.58,-104.96 -51.12,-18.73 -105.12,-13.1 -149.54,10.9 18.68,47.1 56.46,86.28 107.61,104.96l-0.01 0z"/>
   <path class="fil2" d="M1911.05 3772.18l-89.38 -15.88c253.63,-252.23 562.8,-351.29 736.52,-410.47 16.46,-5.61 31.75,-10.82 45.72,-15.72 575.44,-202.43 962.08,-737.58 962.08,-1331.62 0,-668.52 -489.08,-1251.72 -1162.95,-1386.76l4.31 -21.88c684.24,137.08 1180.84,729.51 1180.84,1408.64 0,603.54 -392.62,1147.13 -976.95,1352.71 -14,4.89 -29.34,10.13 -45.93,15.77 -171.9,58.58 -404.26,156.61 -654.26,405.21z"/>
  </g>
 </g>
</svg>
