<?xml version="1.0" encoding="UTF-8"?>
<!DOCTYPE svg PUBLIC "-//W3C//DTD SVG 1.1//EN" "http://www.w3.org/Graphics/SVG/1.1/DTD/svg11.dtd">
<!-- Creator: CorelDRAW 2019 (64-Bit) -->
<svg xmlns="http://www.w3.org/2000/svg" xml:space="preserve" width="42.3332mm" height="42.3332mm" version="1.1" style="shape-rendering:geometricPrecision; text-rendering:geometricPrecision; image-rendering:optimizeQuality; fill-rule:evenodd; clip-rule:evenodd"
viewBox="0 0 4233.32 4233.32"
 xmlns:xlink="http://www.w3.org/1999/xlink">
 <defs>
  <style type="text/css">
   <![CDATA[
    .fil0 {fill:none}
    .fil1 {fill:#030129;fill-rule:nonzero}
    .fil2 {fill:#AE904E;fill-rule:nonzero}
   ]]>
  </style>
 </defs>
 <g id="Layer_x0020_1">
  <metadata id="CorelCorpID_0Corel-Layer"/>
  <rect class="fil0" x="1.2" y="0.09" width="4233.33" height="4233.33"/>
  <path class="fil1" d="M1705.42 1903.51l-106.81 0 0 -178.57 -32.01 0 0 205.69 138.83 0 0 -27.12 -0.01 0zm40.74 -186.32c-10.77,0 -18.63,8.04 -18.63,18.79 0,11.03 7.86,19.08 18.63,19.08 10.8,0 18.94,-8.04 18.94,-19.08 0,-10.74 -8.15,-18.79 -18.94,-18.79zm16.04 213.44l0 -158.27 -32.01 0 0 158.27 32.01 0zm76.25 -184.25c1.75,-13.18 14.55,-17.94 33.47,-14.37l0 -24.34c-5.24,-1.19 -11.35,-1.8 -17.75,-1.8 -29.13,0 -45.11,14.26 -47.73,38.71 -0.58,5.37 -0.58,13.18 -0.58,18.81l0 10.16 -16.59 0 0 22.94 16.59 0 0 134.14 31.72 0 0 -134.14 31.72 0 0 -22.94 -31.72 0 0 -11.93c0,-4.47 0.29,-11.09 0.87,-15.24zm188.6 101.09c0,-44.71 -24.16,-79.32 -68.98,-79.32 -44.53,0 -75.67,33.71 -75.67,83.79 0,56.04 31.14,82.87 72.47,82.87 33.79,0 63.16,-17.89 69.85,-55.46l-32.31 0c-3.2,19.98 -17.75,31.62 -36.38,31.62 -20.96,0 -37.84,-12.51 -40.45,-50.38l110.89 0c0.58,-5.69 0.58,-10.16 0.58,-13.12zm-70.15 -55.45c22.41,0 34.93,16.4 37.25,45.61l-78.29 0c3.47,-30.4 19.21,-45.61 41.04,-45.61zm138.86 4.47l30.27 0 0 -22.94 -30.27 0 0 -37.86 -31.75 0 0 37.86 -21.83 0 0 22.94 21.83 0 0 85.86c0,8.94 0,15.8 0.29,21.17 1.48,20.88 11.93,30.11 36.09,30.11 7.86,0 15.45,-0.61 23.57,-1.77l0 -22.67c-20.96,2.09 -26.78,-1.19 -27.94,-16.7 -0.26,-4.18 -0.26,-7.75 -0.26,-13.12l0 -82.87 0 -0.01zm75.35 -79.3c-10.77,0 -18.6,8.04 -18.6,18.79 0,11.03 7.83,19.08 18.6,19.08 10.8,0 18.94,-8.04 18.94,-19.08 0,-10.74 -8.15,-18.79 -18.94,-18.79zm16.01 213.44l0 -158.27 -32.01 0 0 158.27 32.01 0zm257.6 -123.69c-3.49,-21.78 -19.79,-38.79 -48.31,-38.79 -13.68,0 -24.45,2.7 -32.89,9.26l-14.26 20.88c-5.82,-17.59 -21.25,-30.14 -45.69,-30.14 -13.97,0 -24.74,2.7 -32.89,9.26l-10.48 18.49 0 -23.55 -32.04 0 0 158.27 32.04 0 0 -79.59c0,-42.92 12.22,-58.74 31.14,-58.74 16.56,0 26.48,8.94 28.81,25.96 0.87,8.04 1.14,16.67 1.14,28.6l0 83.77 31.75 0 0 -79.59c0,-42.92 12.51,-58.74 31.14,-58.74 16.59,0 26.78,8.94 28.81,25.96 0.87,8.04 1.16,16.67 1.16,28.6l0 83.77 32.01 0 0 -95.7c0,-12.81 -0.29,-19.95 -1.46,-27.99l0.02 0.01zm173.46 40.53c0,-44.71 -24.16,-79.32 -68.98,-79.32 -44.53,0 -75.67,33.71 -75.67,83.79 0,56.04 31.14,82.87 72.47,82.87 33.76,0 63.16,-17.89 69.85,-55.46l-32.31 0c-3.2,19.98 -17.75,31.62 -36.38,31.62 -20.96,0 -37.84,-12.51 -40.45,-50.38l110.89 0c0.58,-5.69 0.58,-10.16 0.58,-13.12zm-70.14 -55.45c22.41,0 34.93,16.4 37.25,45.61l-78.29 0c3.49,-30.4 19.21,-45.61 41.04,-45.61zm-1186.5 428.38l21.83 67.95 34.66 0 -70.14 -205.69 -41.35 0 -72.18 205.69 34.05 0 21.83 -67.95 71.31 0 -0.01 0zm-62.87 -25.95l27.94 -84.67 26.48 84.67 -54.42 0zm202.3 -68.56c-40.45,0 -74.8,30.11 -74.8,84.06 0,56.33 30.53,82.58 71.01,82.58 36.38,0 63.16,-18.79 70.43,-56.65l-32.6 0c-4.66,21.48 -17.75,32.81 -36.09,32.81 -21.54,0 -39.03,-18.18 -39.03,-61.12 0,-39.63 17.75,-57.84 40.19,-57.84 18.92,0 31.43,11.03 36.09,35.19l32.31 0c-3.78,-34.87 -28.52,-59.03 -67.52,-59.03l0.01 0zm231.67 45.33c-2.91,-27.73 -21.8,-45.32 -55.01,-45.32 -15.43,0 -26.8,2.67 -39,12.22l-10.48 18.18 0 -88.53 -32.01 0 0 220.58 32.01 0 0 -70.93c0,-49.48 18.04,-66.78 40.16,-67.36 21.83,-0.32 31.14,12.51 32.6,30.4 0.58,8.04 0.58,14.9 0.58,22.36l0 85.54 32.01 0 0 -89.11c0,-12.83 -0.29,-19.98 -0.87,-28.02l0.01 -0.01zm55.88 -96.31c-10.77,0 -18.63,8.04 -18.63,18.79 0,11.03 7.86,19.08 18.63,19.08 10.77,0 18.94,-8.04 18.94,-19.08 0,-10.74 -8.18,-18.79 -18.94,-18.79zm16.01 213.44l0 -158.27 -32.01 0 0 158.27 32.01 0zm174.04 -83.16c0,-44.71 -24.13,-79.3 -68.95,-79.3 -44.56,0 -75.67,33.68 -75.67,83.77 0,56.04 31.12,82.87 72.47,82.87 33.76,0 63.16,-17.89 69.82,-55.43l-32.28 0c-3.2,19.95 -17.78,31.59 -36.41,31.59 -20.96,0 -37.84,-12.51 -40.45,-50.38l110.89 0c0.58,-5.69 0.58,-10.16 0.58,-13.12zm-70.14 -55.46c22.44,0 34.95,16.4 37.28,45.61l-78.32 0c3.49,-30.4 19.21,-45.61 41.04,-45.61zm236.36 -19.66l-34.05 0 -42.78 134.14 -43.37 -134.14 -35.24 0 59.11 158.27 37.25 0 59.08 -158.27zm150.17 75.12c0,-44.71 -24.16,-79.3 -68.98,-79.3 -44.53,0 -75.7,33.68 -75.7,83.77 0,56.04 31.17,82.87 72.5,82.87 33.76,0 63.16,-17.89 69.85,-55.43l-32.31 0c-3.2,19.95 -17.75,31.59 -36.38,31.59 -20.96,0 -37.84,-12.51 -40.45,-50.38l110.89 0c0.58,-5.69 0.58,-10.16 0.58,-13.12zm-70.14 -55.46c22.41,0 34.93,16.4 37.25,45.61l-78.29 0c3.49,-30.4 19.21,-45.61 41.04,-45.61zm317.24 14.93c-3.47,-21.78 -19.79,-38.76 -48.31,-38.76 -13.65,0 -24.45,2.67 -32.89,9.23l-14.23 20.88c-5.85,-17.59 -21.25,-30.11 -45.72,-30.11 -13.97,0 -24.71,2.67 -32.89,9.23l-10.48 18.49 0 -23.55 -32.01 0 0 158.27 32.01 0 0 -79.56c0,-42.94 12.22,-58.74 31.17,-58.74 16.56,0 26.46,8.92 28.81,25.93 0.85,8.04 1.14,16.7 1.14,28.6l0 83.77 31.72 0 0 -79.56c0,-42.94 12.54,-58.74 31.14,-58.74 16.59,0 26.8,8.92 28.84,25.93 0.87,8.04 1.14,16.7 1.14,28.6l0 83.77 32.01 0 0 -95.67c0,-12.83 -0.26,-19.98 -1.46,-28.02l0.01 0.01zm173.48 40.53c0,-44.71 -24.16,-79.3 -69,-79.3 -44.53,0 -75.67,33.68 -75.67,83.77 0,56.04 31.14,82.87 72.47,82.87 33.79,0 63.18,-17.89 69.88,-55.43l-32.31 0c-3.23,19.95 -17.75,31.59 -36.38,31.59 -20.96,0 -37.86,-12.51 -40.45,-50.38l110.89 0c0.58,-5.69 0.58,-10.16 0.58,-13.12l-0.01 0zm-70.14 -55.46c22.41,0 34.93,16.4 37.25,45.61l-78.32 0c3.49,-30.4 19.24,-45.61 41.06,-45.61l0.01 0zm237.2 21.49c-2.91,-27.73 -21.83,-45.32 -55.01,-45.32 -15.43,0 -26.78,2.67 -39,12.22l-10.48 18.18 0 -26.22 -32.01 0 0 158.27 32.01 0 0 -70.93c0,-49.48 18.04,-67.36 40.16,-67.36 21.83,0 31.14,12.51 32.6,30.4 0.58,8.04 0.58,14.9 0.58,22.36l0 85.54 32.01 0 0 -89.11c0,-12.83 -0.29,-19.98 -0.87,-28.02l0.01 -0.01zm78 -17.02l30.29 0 0 -22.94 -30.29 0 0 -37.86 -31.72 0 0 37.86 -21.83 0 0 22.94 21.83 0 0 85.86c0,8.94 0,15.8 0.29,21.17 1.46,20.88 11.93,30.11 36.09,30.11 7.86,0 15.43,-0.58 23.57,-1.77l0 -22.67c-20.96,2.09 -26.78,-1.19 -27.94,-16.7 -0.29,-4.18 -0.29,-7.75 -0.29,-13.1l0 -82.89 0 -0.01zm-1173.95 423.92l21.8 67.95 34.66 0 -70.14 -205.69 -41.33 0 -72.2 205.69 34.05 0 21.85 -67.95 71.31 0zm-62.87 -25.96l27.91 -84.67 26.48 84.67 -54.4 0 0.01 0zm348.38 -64.37l-34.05 0 -31.72 129.38 -30.85 -129.09 -39 0 -29.98 128.8 -31.75 -129.09 -36.06 0 49.16 158.27 36.99 0 30.85 -127.87 30.56 127.87 36.67 0 49.19 -158.27 -0.01 0zm110.01 158.27l31.72 0c-2.33,-17.57 -2.91,-28.31 -2.91,-40.24l0 -55.72c0,-7.46 -0.29,-15.8 -0.87,-22.38 -2.62,-26.8 -18.34,-44.11 -58.21,-44.11 -35.22,0 -60.54,19.69 -62.57,54.27l32.01 0c1.75,-19.69 11.35,-30.4 29.98,-30.4 18.34,0 26.19,8.92 27.07,21.75 0.58,5.95 0.58,11.32 0.58,17.28l0 3.89 -9.9 0c-58.5,0 -85.86,19.08 -85.86,54.24 0,29.53 22.41,45.61 49.77,45.61 14.55,0 27.94,-2.7 38.42,-10.13l7.86 -16.99 2.91 22.94 0 -0.01zm-37.54 -19.65c-16.88,0 -27.65,-7.75 -27.65,-24.45 0,-24.16 24.45,-32.78 61.99,-29.82l0 14.63c0,25.64 -14.23,39.63 -34.34,39.63l0 0.01zm176.1 -142.48c-7.86,0 -16.91,3.28 -23.89,8.92l-13.1 21.78 0 -26.83 -32.01 0 0 158.27 32.01 0 0 -82.26c0,-39.05 18.36,-54.56 47.76,-52.47l0 -25.64c-3.23,-1.19 -6.43,-1.77 -10.77,-1.77zm173.17 -56.94l-32.01 0 0 82.26 -10.19 -15.8c-7.86,-6.24 -23.87,-9.84 -36.67,-9.84 -39.87,0 -74.8,28.02 -74.8,85.86 0,46.49 25.32,80.78 69.56,80.78 15.72,0 31.72,-4.76 40.45,-11.93l11.64 -17.28 0 25.03 32.01 0 0 -219.08 0.01 0zm-76.83 199.42c-27.65,0 -43.07,-25.35 -43.07,-59.64 0,-39.34 19.21,-59.29 44.53,-59.29 20.66,0 43.37,14.29 43.37,52.76l0 8.33c0,42.33 -20.66,57.84 -44.82,57.84l-0.01 0z"/>
  <path class="fil1" d="M1781.35 1280.68l45.19 -44.71c35.96,-35.16 50.24,-54.24 50.24,-81.36 0,-32.52 -22.01,-57.84 -65.41,-57.84 -43.39,0 -69.88,23.55 -74.03,67.07l-0.29 2.96 32.7 0 0.29 -2.96c2.67,-27.15 14.26,-42.04 37.76,-42.04 22.3,0 33.58,15.8 33.58,35.77 0,19.69 -11.27,34.58 -37.15,60.22l-71.62 72.44 0 16.7 142.95 0 0 -26.25 -94.22 0 0.01 0zm201.25 -183.62c-57.07,0 -76.68,44.71 -76.68,107.02 0,61.7 19.61,107.02 76.68,107.02 57.39,0 76.7,-45.32 76.7,-107.02 0,-62.31 -19.31,-107.02 -76.7,-107.02zm0 188.99c-29.13,0 -41.3,-29.21 -41.3,-81.97 0,-53.37 12.17,-81.99 41.3,-81.99 29.45,0 41.33,28.63 41.33,81.99 0,52.76 -11.88,81.97 -41.33,81.97zm217.91 -184.81l-18.15 0c-9.21,0 -17.83,2.06 -27.33,7.75l-45.19 27.7 0 32.2 57.97 -33.36 0 171.4 32.7 0 0 -205.69zm146.84 68.85c-12.2,0 -22.6,2.7 -32.09,8.36l-11.62 14 8.33 -65.27 95.12 0 0 -25.93 -121.58 0 -14.55 120.41 30.61 0c8.92,-19.08 21.09,-26.54 38.66,-26.54 25.27,0 40.11,18.2 40.11,45.93 0,28.02 -15.74,45.01 -41.01,45.01 -22.89,0 -34.48,-13.41 -38.63,-34.58l-0.32 -2.96 -32.7 0 0.32 2.96c4.15,39.95 29.1,59.64 72.23,59.64 39.24,0 75.49,-25.66 75.49,-71.57 0,-40.53 -23.79,-69.45 -68.37,-69.45l0 -0.01z"/>
  <g id="_1128814561072">
   <path class="fil2" d="M1588.29 823.85c-49.29,-23.12 -83.56,-65.48 -98.08,-113.98 46.33,-20.03 100.65,-20.93 149.94,2.2 49.29,23.12 83.56,65.46 98.05,114.01 -46.33,20.03 -100.62,20.88 -149.91,-2.22l0 -0.01z"/>
   <path class="fil2" d="M1603.45 610.73c-23.02,49.53 -65.14,83.95 -113.43,98.56 -19.92,-46.57 -20.77,-101.15 2.22,-150.71 22.97,-49.53 65.11,-83.95 113.43,-98.56 19.9,46.57 20.74,101.15 -2.22,150.71z"/>
   <path class="fil2" d="M1392.97 923.57c-52.55,-14.16 -93.58,-49.87 -116.26,-95.17 42.15,-27.78 95.46,-38.13 148.01,-23.97 52.57,14.16 93.58,49.9 116.28,95.17 -42.17,27.78 -95.49,38.1 -148.03,23.97z"/>
   <path class="fil2" d="M1371.06 711.01c-14.08,52.81 -49.64,94.06 -94.67,116.89 -27.68,-42.41 -37.94,-95.99 -23.84,-148.8 14.08,-52.81 49.61,-94.06 94.67,-116.87 27.65,42.39 37.91,95.99 23.84,148.78z"/>
   <path class="fil2" d="M1217.74 1056.1c-54.21,-4.76 -100.78,-32.78 -130.97,-73.42 36.75,-34.74 87.47,-54.19 141.66,-49.42 54.19,4.76 100.78,32.78 130.94,73.4 -36.72,34.74 -87.44,54.21 -141.63,49.45l0 -0.01z"/>
   <path class="fil2" d="M1159.42 850.63c-4.71,54.45 -32.62,101.28 -73.03,131.6 -34.55,-36.91 -53.92,-87.89 -49.19,-142.35 4.74,-54.48 32.62,-101.34 73.03,-131.63 34.58,36.91 53.92,87.89 49.19,142.37l0 0.01z"/>
   <path class="fil2" d="M1067.88 1217.45c-54.19,4.76 -104.91,-14.68 -141.66,-49.42 30.19,-40.61 76.78,-68.63 130.97,-73.42 54.21,-4.76 104.91,14.71 141.63,49.48 -30.16,40.59 -76.76,68.61 -130.94,73.37l0 -0.01z"/>
   <path class="fil2" d="M974.96 1025.28c4.76,54.45 -14.61,105.44 -49.19,142.35 -40.4,-30.32 -68.29,-77.13 -73.03,-131.6 -4.74,-54.48 14.63,-105.46 49.19,-142.37 40.43,30.32 68.29,77.15 73.03,131.63l0 -0.01z"/>
   <path class="fil2" d="M947.97 1402.73c-52.55,14.16 -105.86,3.84 -148.01,-23.97 22.67,-45.27 63.71,-80.99 116.26,-95.14 52.55,-14.16 105.86,-3.84 148.03,23.97 -22.7,45.27 -63.71,80.99 -116.28,95.14z"/>
   <path class="fil2" d="M823.27 1229.67c14.08,52.81 3.81,106.42 -23.84,148.8 -45.03,-22.83 -80.59,-64.06 -94.67,-116.87 -14.08,-52.81 -3.81,-106.42 23.87,-148.8 45.03,22.83 80.57,64.06 94.64,116.87z"/>
   <path class="fil2" d="M861.66 1606.28c-49.29,23.1 -103.58,22.25 -149.91,2.22 14.53,-48.5 48.76,-90.86 98.08,-114.01 49.29,-23.07 103.58,-22.23 149.91,-2.2 -14.53,48.52 -48.79,90.88 -98.08,113.98l0 0.01z"/>
   <path class="fil2" d="M708.97 1457.64c22.97,49.53 22.15,104.11 2.22,150.65 -48.31,-14.55 -90.43,-49 -113.43,-98.53 -22.99,-49.58 -22.12,-104.14 -2.22,-150.68 48.29,14.58 90.43,49 113.43,98.56z"/>
   <path class="fil2" d="M811.58 1821.94c-44.56,31.35 -98.19,39.98 -147.24,28.34 5.9,-50.32 32.31,-98 76.86,-129.35 44.56,-31.38 98.19,-40.01 147.27,-28.39 -5.93,50.35 -32.33,98.03 -76.89,129.41l0 -0.01z"/>
   <path class="fil2" d="M635.52 1702.19c31.19,44.77 39.77,98.66 28.2,148.01 -50.09,-5.95 -97.53,-32.49 -128.72,-77.28 -31.22,-44.79 -39.79,-98.66 -28.23,-148.01 50.09,5.95 97.53,32.49 128.75,77.28z"/>
   <path class="fil2" d="M799.22 2043.11c-38.47,38.66 -89.77,56.52 -140.12,53.63 -2.86,-50.61 14.9,-102.16 53.37,-140.81 38.47,-38.68 89.77,-56.52 140.12,-53.66 2.86,50.61 -14.9,102.18 -53.37,140.84z"/>
   <path class="fil2" d="M605.15 1955.93c38.44,38.66 56.22,90.2 53.37,140.81 -50.35,2.88 -101.65,-14.98 -140.12,-53.63 -35.48,-35.64 -53.34,-82.23 -53.66,-128.98l0 -2.75c0,-3.04 0.11,-6.09 0.26,-9.1 50.38,-2.86 101.68,14.98 140.15,53.66l0 -0.01z"/>
   <path class="fil2" d="M825.15 2261.44c-31.22,44.79 -78.66,71.33 -128.75,77.28 -11.56,-49.34 -2.99,-103.24 28.23,-148.01 31.19,-44.79 78.63,-71.33 128.72,-77.28 11.56,49.34 2.99,103.24 -28.2,148.01z"/>
   <path class="fil2" d="M618.93 2209.42c44.56,31.38 70.96,79.08 76.89,129.41 -49.08,11.64 -102.71,2.99 -147.27,-28.36 -44.56,-31.35 -70.96,-79.06 -76.86,-129.41 49.08,-11.62 102.68,-2.96 147.24,28.36z"/>
   <path class="fil2" d="M888.65 2471.97c-22.99,49.53 -65.11,83.95 -113.43,98.56 -19.92,-46.57 -20.77,-101.15 2.22,-150.68 22.99,-49.56 65.14,-83.98 113.43,-98.56 19.9,46.57 20.77,101.12 -2.22,150.68z"/>
   <path class="fil2" d="M676.59 2456.73c49.32,23.1 83.56,65.46 98.08,114.01 -46.33,20 -100.62,20.88 -149.91,-2.22 -49.32,-23.12 -83.56,-65.46 -98.08,-114.01 46.33,-20 100.62,-20.88 149.91,2.22z"/>
   <path class="fil2" d="M987.87 2668.29c-14.1,52.81 -49.64,94.03 -94.69,116.84 -27.65,-42.39 -37.91,-95.96 -23.84,-148.78 14.08,-52.81 49.64,-94.06 94.67,-116.87 27.68,42.39 37.94,95.96 23.87,148.8l-0.01 0.01z"/>
   <path class="fil2" d="M776.39 2690.3c52.55,14.13 93.58,49.87 116.28,95.14 -42.17,27.81 -95.49,38.1 -148.03,23.97 -52.55,-14.18 -93.58,-49.9 -116.26,-95.14 42.15,-27.83 95.49,-38.13 148.01,-23.97z"/>
   <path class="fil2" d="M1119.74 2844.4c-4.76,54.48 -32.62,101.31 -73.05,131.6 -34.55,-36.88 -53.92,-87.87 -49.19,-142.35 4.74,-54.45 32.62,-101.28 73.03,-131.6 34.58,36.91 53.95,87.89 49.21,142.35z"/>
   <path class="fil2" d="M915.27 2903c54.21,4.76 100.81,32.78 130.97,73.4 -36.72,34.77 -87.44,54.21 -141.63,49.45 -54.21,-4.76 -100.81,-32.81 -130.94,-73.42 36.7,-34.71 87.42,-54.19 141.61,-49.42l-0.01 -0.01z"/>
   <path class="fil2" d="M1280.29 2995.02c4.74,54.45 -14.66,105.44 -49.21,142.35 -40.4,-30.32 -68.29,-77.13 -73.03,-131.6 -4.76,-54.45 14.63,-105.46 49.19,-142.37 40.4,30.32 68.29,77.18 73.05,131.63l0 -0.01z"/>
   <path class="fil2" d="M1089.07 3088.4c54.19,-4.76 104.91,14.71 141.61,49.45 -30.14,40.61 -76.73,68.63 -130.92,73.4 -54.21,4.76 -104.91,-14.68 -141.66,-49.42 30.16,-40.61 76.76,-68.66 130.97,-73.42l0 -0.01z"/>
   <path class="fil2" d="M1464.62 3115.54c14.08,52.81 3.81,106.39 -23.87,148.78 -45.03,-22.81 -80.59,-64.06 -94.67,-116.89 -14.08,-52.78 -3.81,-106.39 23.84,-148.75 45.03,22.78 80.59,64.03 94.69,116.87l0.01 -0.01z"/>
   <path class="fil2" d="M1292.43 3240.87c52.55,-14.18 105.86,-3.84 148.03,23.97 -22.7,45.27 -63.74,80.99 -116.28,95.14 -52.55,14.16 -105.86,3.84 -148.03,-23.97 22.7,-45.27 63.74,-81.02 116.28,-95.14z"/>
   <path class="fil2" d="M1667.13 3202.27c22.97,49.56 22.12,104.11 2.2,150.71 -48.29,-14.61 -90.43,-49.03 -113.4,-98.58 -23.02,-49.56 -22.15,-104.11 -2.22,-150.68 48.29,14.61 90.41,49.03 113.43,98.56l-0.01 -0.01z"/>
   <path class="fil2" d="M1519.23 3355.76c49.29,-23.12 103.56,-22.25 149.89,-2.22 -14.5,48.52 -48.76,90.88 -98.05,114.01 -49.29,23.1 -103.58,22.25 -149.91,2.22 14.53,-48.55 48.76,-90.88 98.08,-114.01l-0.01 0z"/>
   <path class="fil2" d="M1846.26 642.59c-51.12,18.73 -105.12,13.1 -149.54,-10.9 18.65,-47.07 56.44,-86.28 107.58,-104.96 51.09,-18.73 105.12,-13.1 149.54,10.9 -18.68,47.1 -56.46,86.28 -107.58,104.96z"/>
   <path class="fil2" d="M2319.38 3772.18c-249.98,-248.6 -482.36,-346.63 -654.26,-405.21 -16.54,-5.64 -31.94,-10.87 -45.91,-15.77 -584.33,-205.58 -976.95,-749.17 -976.95,-1352.71 0,-679.13 496.6,-1271.56 1180.84,-1408.64l4.34 21.88c-673.89,135.04 -1162.98,718.21 -1162.98,1386.76 0,594.04 386.64,1129.19 962.05,1331.62 13.97,4.89 29.26,10.11 45.75,15.72 173.7,59.19 482.89,158.25 736.52,410.47l-89.4 15.88z"/>
   <path class="fil2" d="M2642.18 823.85c49.29,-23.12 83.56,-65.48 98.05,-113.98 -46.33,-20.03 -100.62,-20.93 -149.91,2.2 -49.29,23.12 -83.56,65.46 -98.05,114.01 46.33,20.03 100.62,20.88 149.91,-2.22l0 -0.01z"/>
   <path class="fil2" d="M2627.01 610.73c23.02,49.53 65.14,83.95 113.43,98.56 19.92,-46.57 20.8,-101.15 -2.22,-150.71 -22.99,-49.53 -65.11,-83.95 -113.43,-98.56 -19.92,46.57 -20.74,101.15 2.22,150.71z"/>
   <path class="fil2" d="M2837.49 923.57c52.52,-14.16 93.58,-49.87 116.28,-95.17 -42.2,-27.78 -95.51,-38.13 -148.06,-23.97 -52.55,14.16 -93.56,49.9 -116.23,95.17 42.15,27.78 95.46,38.1 148.01,23.97z"/>
   <path class="fil2" d="M2859.4 711.01c14.08,52.81 49.64,94.06 94.67,116.89 27.65,-42.41 37.91,-95.99 23.84,-148.8 -14.08,-52.81 -49.61,-94.06 -94.67,-116.87 -27.65,42.39 -37.94,95.99 -23.84,148.78z"/>
   <path class="fil2" d="M3012.72 1056.1c54.21,-4.76 100.81,-32.78 130.97,-73.42 -36.72,-34.74 -87.44,-54.19 -141.66,-49.42 -54.19,4.76 -100.78,32.78 -130.94,73.4 36.72,34.74 87.44,54.21 141.63,49.45l0 -0.01z"/>
   <path class="fil2" d="M3071.01 850.63c4.76,54.45 32.65,101.28 73.05,131.6 34.55,-36.91 53.92,-87.89 49.19,-142.35 -4.74,-54.48 -32.62,-101.34 -73.03,-131.63 -34.58,36.91 -53.92,87.89 -49.21,142.37l0 0.01z"/>
   <path class="fil2" d="M3162.58 1217.45c54.19,4.76 104.91,-14.68 141.63,-49.42 -30.16,-40.61 -76.76,-68.63 -130.94,-73.42 -54.21,-4.76 -104.93,14.71 -141.63,49.48 30.16,40.59 76.76,68.61 130.94,73.37l0 -0.01z"/>
   <path class="fil2" d="M3255.51 1025.28c-4.74,54.45 14.61,105.44 49.19,142.35 40.4,-30.32 68.29,-77.13 73.03,-131.6 4.74,-54.48 -14.63,-105.46 -49.19,-142.37 -40.4,30.32 -68.32,77.15 -73.03,131.63l0 -0.01z"/>
   <path class="fil2" d="M3282.47 1402.73c52.57,14.16 105.86,3.84 148.03,-23.97 -22.67,-45.27 -63.74,-80.99 -116.28,-95.14 -52.55,-14.16 -105.86,-3.84 -148.01,23.97 22.7,45.27 63.71,80.99 116.26,95.14z"/>
   <path class="fil2" d="M3407.19 1229.67c-14.08,52.81 -3.81,106.42 23.84,148.8 45.03,-22.83 80.59,-64.06 94.67,-116.87 14.1,-52.81 3.81,-106.42 -23.84,-148.8 -45.06,22.83 -80.59,64.06 -94.67,116.87z"/>
   <path class="fil2" d="M3368.8 1606.28c49.29,23.1 103.58,22.25 149.89,2.22 -14.5,-48.5 -48.74,-90.86 -98.03,-114.01 -49.29,-23.07 -103.61,-22.23 -149.94,-2.2 14.53,48.52 48.76,90.88 98.08,113.98l0 0.01z"/>
   <path class="fil2" d="M3521.49 1457.64c-22.99,49.53 -22.12,104.11 -2.22,150.65 48.29,-14.55 90.43,-49 113.43,-98.53 22.99,-49.58 22.15,-104.14 2.22,-150.68 -48.29,14.58 -90.43,49 -113.43,98.56z"/>
   <path class="fil2" d="M3418.86 1821.94c44.58,31.35 98.19,39.98 147.27,28.34 -5.9,-50.32 -32.31,-98 -76.89,-129.35 -44.53,-31.38 -98.16,-40.01 -147.24,-28.39 5.93,50.35 32.33,98.03 76.86,129.41l0 -0.01z"/>
   <path class="fil2" d="M3594.94 1702.19c-31.19,44.77 -39.77,98.66 -28.2,148.01 50.09,-5.95 97.53,-32.49 128.72,-77.28 31.22,-44.79 39.79,-98.66 28.23,-148.01 -50.09,5.95 -97.53,32.49 -128.75,77.28z"/>
   <path class="fil2" d="M3431.24 2043.11c38.44,38.66 89.77,56.52 140.12,53.63 2.86,-50.61 -14.9,-102.16 -53.37,-140.81 -38.47,-38.68 -89.77,-56.52 -140.12,-53.66 -2.88,50.61 14.9,102.18 53.37,140.84z"/>
   <path class="fil2" d="M3625.31 1955.93c-38.47,38.66 -56.22,90.2 -53.37,140.81 50.35,2.88 101.65,-14.98 140.12,-53.63 38.47,-38.66 56.25,-90.22 53.37,-140.84 -50.35,-2.86 -101.65,14.98 -140.12,53.66z"/>
   <path class="fil2" d="M3405.31 2261.44c31.22,44.79 78.66,71.33 128.72,77.28 11.62,-49.34 3.02,-103.24 -28.2,-148.01 -31.19,-44.79 -78.63,-71.33 -128.72,-77.28 -11.56,49.34 -2.96,103.24 28.2,148.01z"/>
   <path class="fil2" d="M3611.53 2209.42c-44.56,31.38 -70.96,79.08 -76.89,129.41 49.08,11.64 102.71,2.99 147.27,-28.36 44.56,-31.35 70.96,-79.06 76.89,-129.41 -49.11,-11.62 -102.71,-2.96 -147.27,28.36z"/>
   <path class="fil2" d="M3341.81 2471.97c22.99,49.53 65.14,83.95 113.43,98.56 19.92,-46.57 20.74,-101.15 -2.22,-150.68 -23.02,-49.56 -65.11,-83.98 -113.43,-98.56 -19.9,46.57 -20.77,101.12 2.22,150.68z"/>
   <path class="fil2" d="M3553.85 2456.73c-49.29,23.1 -83.56,65.46 -98.05,114.01 46.33,20 100.62,20.88 149.91,-2.22 49.29,-23.12 83.56,-65.46 98.08,-114.01 -46.33,-20 -100.59,-20.88 -149.94,2.22z"/>
   <path class="fil2" d="M3242.59 2668.29c14.1,52.81 49.64,94.03 94.69,116.84 27.65,-42.39 37.91,-95.96 23.84,-148.78 -14.08,-52.81 -49.64,-94.06 -94.67,-116.87 -27.65,42.39 -37.94,95.96 -23.87,148.8l0.01 0.01z"/>
   <path class="fil2" d="M3454.05 2690.3c-52.52,14.13 -93.56,49.87 -116.23,95.14 42.15,27.81 95.46,38.1 148.01,23.97 52.55,-14.18 93.58,-49.9 116.28,-95.14 -42.17,-27.83 -95.51,-38.13 -148.06,-23.97z"/>
   <path class="fil2" d="M3110.73 2844.4c4.76,54.48 32.65,101.31 73.05,131.6 34.55,-36.88 53.92,-87.87 49.19,-142.35 -4.76,-54.45 -32.65,-101.28 -73.05,-131.6 -34.55,36.91 -53.92,87.89 -49.19,142.35z"/>
   <path class="fil2" d="M3315.17 2903c-54.19,4.76 -100.78,32.78 -130.94,73.4 36.72,34.77 87.44,54.21 141.63,49.45 54.19,-4.76 100.78,-32.81 130.94,-73.42 -36.72,-34.71 -87.42,-54.19 -141.63,-49.42l0 -0.01z"/>
   <path class="fil2" d="M2950.2 2995.02c-4.76,54.45 14.61,105.44 49.19,142.35 40.4,-30.32 68.29,-77.13 73.03,-131.6 4.76,-54.45 -14.63,-105.46 -49.19,-142.37 -40.4,30.32 -68.29,77.18 -73.03,131.63l0 -0.01z"/>
   <path class="fil2" d="M3141.39 3088.4c-54.19,-4.76 -104.91,14.71 -141.61,49.45 30.14,40.61 76.73,68.63 130.92,73.4 54.19,4.76 104.93,-14.68 141.66,-49.42 -30.16,-40.61 -76.78,-68.66 -130.97,-73.42l0 -0.01z"/>
   <path class="fil2" d="M2765.84 3115.54c-14.05,52.81 -3.81,106.39 23.87,148.78 45.03,-22.81 80.59,-64.06 94.67,-116.89 14.08,-52.78 3.81,-106.39 -23.84,-148.75 -45.03,22.78 -80.59,64.03 -94.69,116.87l-0.01 -0.01z"/>
   <path class="fil2" d="M2938.03 3240.87c-52.55,-14.18 -105.86,-3.84 -148.01,23.97 22.67,45.27 63.71,80.99 116.26,95.14 52.55,14.16 105.86,3.84 148.03,-23.97 -22.7,-45.27 -63.74,-81.02 -116.28,-95.14z"/>
   <path class="fil2" d="M2563.33 3202.27c-22.97,49.56 -22.12,104.11 -2.2,150.71 48.29,-14.61 90.41,-49.03 113.43,-98.58 22.97,-49.56 22.12,-104.11 2.2,-150.68 -48.29,14.61 -90.43,49.03 -113.43,98.56l0 -0.01z"/>
   <path class="fil2" d="M2711.23 3355.76c-49.29,-23.12 -103.56,-22.25 -149.89,-2.22 14.53,48.52 48.74,90.88 98.03,114.01 49.32,23.1 103.61,22.25 149.94,2.22 -14.53,-48.55 -48.76,-90.88 -98.08,-114.01z"/>
   <path class="fil2" d="M2384.23 642.59c51.12,18.73 105.12,13.1 149.52,-10.9 -18.65,-47.07 -56.44,-86.28 -107.58,-104.96 -51.12,-18.73 -105.12,-13.1 -149.54,10.9 18.68,47.1 56.46,86.28 107.61,104.96l-0.01 0z"/>
   <path class="fil2" d="M1911.05 3772.18l-89.38 -15.88c253.63,-252.23 562.8,-351.29 736.52,-410.47 16.46,-5.61 31.75,-10.82 45.72,-15.72 575.44,-202.43 962.08,-737.58 962.08,-1331.62 0,-668.52 -489.08,-1251.72 -1162.95,-1386.76l4.31 -21.88c684.24,137.08 1180.84,729.51 1180.84,1408.64 0,603.54 -392.62,1147.13 -976.95,1352.71 -14,4.89 -29.34,10.13 -45.93,15.77 -171.9,58.58 -404.26,156.61 -654.26,405.21z"/>
  </g>
 </g>
</svg>
