<?xml version="1.0" encoding="UTF-8"?>
<!DOCTYPE svg PUBLIC "-//W3C//DTD SVG 1.1//EN" "http://www.w3.org/Graphics/SVG/1.1/DTD/svg11.dtd">
<!-- Creator: CorelDRAW 2018 (64-Bit) -->
<svg xmlns="http://www.w3.org/2000/svg" xml:space="preserve" width="145px" height="140px" version="1.1" style="shape-rendering:geometricPrecision; text-rendering:geometricPrecision; image-rendering:optimizeQuality; fill-rule:evenodd; clip-rule:evenodd"
viewBox="0 0 145 140"
 xmlns:xlink="http://www.w3.org/1999/xlink">
 <defs>
  <style type="text/css">
   <![CDATA[
    .fil0 {fill:none}
    .fil2 {fill:#DEA239;fill-rule:nonzero}
    .fil1 {fill:gray;fill-rule:nonzero}
    .fil3 {fill:gray;fill-rule:nonzero}
   ]]>
  </style>
 </defs>
 <g id="Layer_x0020_1">
  <metadata id="CorelCorpID_0Corel-Layer"/>
  <rect class="fil0" x="-0.055" y="-0.022" width="145.001" height="140.001"/>
  <path class="fil1" d="M63.378 38.39l1.705 -1.69c1.356,-1.33 1.894,-2.051 1.894,-3.076 0,-1.229 -0.83,-2.186 -2.467,-2.186 -1.636,0 -2.634,0.89 -2.791,2.535l-0.011 0.113 1.233 0 0.012 -0.113c0.1,-1.026 0.538,-1.589 1.423,-1.589 0.841,0 1.267,0.597 1.267,1.352 0,0.744 -0.426,1.307 -1.401,2.277l-2.703 2.737 0 0.632 5.393 0 0 -0.992 -3.554 0zm7.59 -6.941c-2.152,0 -2.892,1.69 -2.892,4.045 0,2.333 0.74,4.045 2.892,4.045 2.164,0 2.893,-1.712 2.893,-4.045 0,-2.355 -0.729,-4.045 -2.893,-4.045zm0 7.144c-1.098,0 -1.558,-1.105 -1.558,-3.099 0,-2.017 0.46,-3.099 1.558,-3.099 1.11,0 1.559,1.082 1.559,3.099 0,1.994 -0.449,3.099 -1.559,3.099zm8.218 -6.987l-0.684 0c-0.347,0 -0.672,0.079 -1.031,0.293l-1.704 1.048 0 1.217 2.186 -1.262 0 6.48 1.233 0 0 -7.776z"/>
  <g id="_1128814561072">
   <path class="fil2" d="M52.53 21.138c-1.863,-0.874 -3.158,-2.475 -3.707,-4.308 1.751,-0.757 3.804,-0.791 5.667,0.083 1.863,0.874 3.158,2.474 3.706,4.309 -1.751,0.757 -3.803,0.789 -5.666,-0.084z"/>
   <path class="fil2" d="M53.103 13.083c-0.87,1.872 -2.462,3.173 -4.287,3.725 -0.753,-1.76 -0.785,-3.823 0.084,-5.696 0.868,-1.872 2.461,-3.173 4.287,-3.725 0.752,1.76 0.784,3.823 -0.084,5.696z"/>
   <path class="fil2" d="M45.148 24.907c-1.986,-0.535 -3.537,-1.885 -4.394,-3.597 1.593,-1.05 3.608,-1.441 5.594,-0.906 1.987,0.535 3.537,1.886 4.395,3.597 -1.594,1.05 -3.609,1.44 -5.595,0.906z"/>
   <path class="fil2" d="M44.32 16.873c-0.532,1.996 -1.876,3.555 -3.578,4.418 -1.046,-1.603 -1.434,-3.628 -0.901,-5.624 0.532,-1.996 1.875,-3.555 3.578,-4.417 1.045,1.602 1.433,3.628 0.901,5.623z"/>
   <path class="fil2" d="M38.525 29.916c-2.049,-0.18 -3.809,-1.239 -4.95,-2.775 1.389,-1.313 3.306,-2.048 5.354,-1.868 2.048,0.18 3.809,1.239 4.949,2.774 -1.388,1.313 -3.305,2.049 -5.353,1.869z"/>
   <path class="fil2" d="M36.321 22.15c-0.178,2.058 -1.233,3.828 -2.76,4.974 -1.306,-1.395 -2.038,-3.322 -1.859,-5.38 0.179,-2.059 1.233,-3.83 2.76,-4.975 1.307,1.395 2.038,3.322 1.859,5.381z"/>
   <path class="fil2" d="M32.861 36.014c-2.048,0.18 -3.965,-0.555 -5.354,-1.868 1.141,-1.535 2.902,-2.594 4.95,-2.775 2.049,-0.18 3.965,0.556 5.353,1.87 -1.14,1.534 -2.901,2.593 -4.949,2.773z"/>
   <path class="fil2" d="M29.349 28.751c0.18,2.058 -0.552,3.985 -1.859,5.38 -1.527,-1.146 -2.581,-2.915 -2.76,-4.974 -0.179,-2.059 0.553,-3.986 1.859,-5.381 1.528,1.146 2.581,2.916 2.76,4.975z"/>
   <path class="fil2" d="M28.329 43.017c-1.986,0.535 -4.001,0.145 -5.594,-0.906 0.857,-1.711 2.408,-3.061 4.394,-3.596 1.986,-0.535 4.001,-0.145 5.595,0.906 -0.858,1.711 -2.408,3.061 -4.395,3.596z"/>
   <path class="fil2" d="M23.616 36.476c0.532,1.996 0.144,4.022 -0.901,5.624 -1.702,-0.863 -3.046,-2.421 -3.578,-4.417 -0.532,-1.996 -0.144,-4.022 0.902,-5.624 1.702,0.863 3.045,2.421 3.577,4.417z"/>
   <path class="fil2" d="M25.067 50.71c-1.863,0.873 -3.915,0.841 -5.666,0.084 0.549,-1.833 1.843,-3.434 3.707,-4.309 1.863,-0.872 3.915,-0.84 5.666,-0.083 -0.549,1.834 -1.844,3.435 -3.707,4.308z"/>
   <path class="fil2" d="M19.296 45.092c0.868,1.872 0.837,3.935 0.084,5.694 -1.826,-0.55 -3.418,-1.852 -4.287,-3.724 -0.869,-1.874 -0.836,-3.936 -0.084,-5.695 1.825,0.551 3.418,1.852 4.287,3.725z"/>
   <path class="fil2" d="M23.174 58.861c-1.684,1.185 -3.711,1.511 -5.565,1.071 0.223,-1.902 1.221,-3.704 2.905,-4.889 1.684,-1.186 3.711,-1.512 5.566,-1.073 -0.224,1.903 -1.222,3.705 -2.906,4.891z"/>
   <path class="fil2" d="M16.52 54.335c1.179,1.692 1.503,3.729 1.066,5.594 -1.893,-0.225 -3.686,-1.228 -4.865,-2.921 -1.18,-1.693 -1.504,-3.729 -1.067,-5.594 1.893,0.225 3.686,1.228 4.866,2.921z"/>
   <path class="fil2" d="M22.707 67.22c-1.454,1.461 -3.393,2.136 -5.296,2.027 -0.108,-1.913 0.563,-3.861 2.017,-5.322 1.454,-1.462 3.393,-2.136 5.296,-2.028 0.108,1.913 -0.563,3.862 -2.017,5.323z"/>
   <path class="fil2" d="M15.372 63.925c1.453,1.461 2.125,3.409 2.017,5.322 -1.903,0.109 -3.842,-0.566 -5.296,-2.027 -1.341,-1.347 -2.016,-3.108 -2.028,-4.875l0 -0.104c0,-0.115 0.004,-0.23 0.01,-0.344 1.904,-0.108 3.843,0.566 5.297,2.028z"/>
   <path class="fil2" d="M23.687 75.472c-1.18,1.693 -2.973,2.696 -4.866,2.921 -0.437,-1.865 -0.113,-3.902 1.067,-5.594 1.179,-1.693 2.972,-2.696 4.865,-2.921 0.437,1.865 0.113,3.902 -1.066,5.594z"/>
   <path class="fil2" d="M15.893 73.506c1.684,1.186 2.682,2.989 2.906,4.891 -1.855,0.44 -3.882,0.113 -5.566,-1.072 -1.684,-1.185 -2.682,-2.988 -2.905,-4.891 1.855,-0.439 3.881,-0.112 5.565,1.072z"/>
   <path class="fil2" d="M26.087 83.429c-0.869,1.872 -2.461,3.173 -4.287,3.725 -0.753,-1.76 -0.785,-3.823 0.084,-5.695 0.869,-1.873 2.462,-3.174 4.287,-3.725 0.752,1.76 0.785,3.822 -0.084,5.695z"/>
   <path class="fil2" d="M18.072 82.853c1.864,0.873 3.158,2.474 3.707,4.309 -1.751,0.756 -3.803,0.789 -5.666,-0.084 -1.864,-0.874 -3.158,-2.474 -3.707,-4.309 1.751,-0.756 3.803,-0.789 5.666,0.084z"/>
   <path class="fil2" d="M29.837 90.849c-0.533,1.996 -1.876,3.554 -3.579,4.416 -1.045,-1.602 -1.433,-3.627 -0.901,-5.623 0.532,-1.996 1.876,-3.555 3.578,-4.417 1.046,1.602 1.434,3.627 0.902,5.624z"/>
   <path class="fil2" d="M21.844 91.681c1.986,0.534 3.537,1.885 4.395,3.596 -1.594,1.051 -3.609,1.44 -5.595,0.906 -1.986,-0.536 -3.537,-1.886 -4.394,-3.596 1.593,-1.052 3.609,-1.441 5.594,-0.906z"/>
   <path class="fil2" d="M34.821 97.505c-0.18,2.059 -1.233,3.829 -2.761,4.974 -1.306,-1.394 -2.038,-3.321 -1.859,-5.38 0.179,-2.058 1.233,-3.828 2.76,-4.974 1.307,1.395 2.039,3.322 1.86,5.38z"/>
   <path class="fil2" d="M27.093 99.72c2.049,0.18 3.81,1.239 4.95,2.774 -1.388,1.314 -3.305,2.049 -5.353,1.869 -2.049,-0.18 -3.81,-1.24 -4.949,-2.775 1.387,-1.312 3.304,-2.048 5.352,-1.868z"/>
   <path class="fil2" d="M40.889 103.198c0.179,2.058 -0.554,3.985 -1.86,5.38 -1.527,-1.146 -2.581,-2.915 -2.76,-4.974 -0.18,-2.058 0.553,-3.986 1.859,-5.381 1.527,1.146 2.581,2.917 2.761,4.975z"/>
   <path class="fil2" d="M33.662 106.727c2.048,-0.18 3.965,0.556 5.352,1.869 -1.139,1.535 -2.9,2.594 -4.948,2.774 -2.049,0.18 -3.965,-0.555 -5.354,-1.868 1.14,-1.535 2.901,-2.595 4.95,-2.775z"/>
   <path class="fil2" d="M47.856 107.753c0.532,1.996 0.144,4.021 -0.902,5.623 -1.702,-0.862 -3.046,-2.421 -3.578,-4.418 -0.532,-1.995 -0.144,-4.021 0.901,-5.622 1.702,0.861 3.046,2.42 3.579,4.417z"/>
   <path class="fil2" d="M41.348 112.49c1.986,-0.536 4.001,-0.145 5.595,0.906 -0.858,1.711 -2.409,3.061 -4.395,3.596 -1.986,0.535 -4.001,0.145 -5.595,-0.906 0.858,-1.711 2.409,-3.062 4.395,-3.596z"/>
   <path class="fil2" d="M55.51 111.031c0.868,1.873 0.836,3.935 0.083,5.696 -1.825,-0.552 -3.418,-1.853 -4.286,-3.726 -0.87,-1.873 -0.837,-3.935 -0.084,-5.695 1.825,0.552 3.417,1.853 4.287,3.725z"/>
   <path class="fil2" d="M49.92 116.832c1.863,-0.874 3.914,-0.841 5.665,-0.084 -0.548,1.834 -1.843,3.435 -3.706,4.309 -1.863,0.873 -3.915,0.841 -5.666,0.084 0.549,-1.835 1.843,-3.435 3.707,-4.309z"/>
   <path class="fil2" d="M62.28 14.287c-1.932,0.708 -3.973,0.495 -5.652,-0.412 0.705,-1.779 2.133,-3.261 4.066,-3.967 1.931,-0.708 3.973,-0.495 5.652,0.412 -0.706,1.78 -2.134,3.261 -4.066,3.967z"/>
   <path class="fil2" d="M80.162 132.571c-9.448,-9.396 -18.231,-13.101 -24.728,-15.315 -0.625,-0.213 -1.207,-0.411 -1.735,-0.596 -22.085,-7.77 -36.924,-28.315 -36.924,-51.126 0,-25.668 18.769,-48.059 44.63,-53.24l0.164 0.827c-25.47,5.104 -43.955,27.145 -43.955,52.413 0,22.452 14.613,42.678 36.361,50.329 0.528,0.185 1.106,0.382 1.729,0.594 6.565,2.237 18.251,5.981 27.837,15.514l-3.379 0.6z"/>
   <path class="fil2" d="M92.362 21.138c1.863,-0.874 3.158,-2.475 3.706,-4.308 -1.751,-0.757 -3.803,-0.791 -5.666,0.083 -1.863,0.874 -3.158,2.474 -3.706,4.309 1.751,0.757 3.803,0.789 5.666,-0.084z"/>
   <path class="fil2" d="M91.789 13.083c0.87,1.872 2.462,3.173 4.287,3.725 0.753,-1.76 0.786,-3.823 -0.084,-5.696 -0.869,-1.872 -2.461,-3.173 -4.287,-3.725 -0.753,1.76 -0.784,3.823 0.084,5.696z"/>
   <path class="fil2" d="M99.744 24.907c1.985,-0.535 3.537,-1.885 4.395,-3.597 -1.595,-1.05 -3.61,-1.441 -5.596,-0.906 -1.986,0.535 -3.536,1.886 -4.393,3.597 1.593,1.05 3.608,1.44 5.594,0.906z"/>
   <path class="fil2" d="M100.572 16.873c0.532,1.996 1.876,3.555 3.578,4.418 1.045,-1.603 1.433,-3.628 0.901,-5.624 -0.532,-1.996 -1.875,-3.555 -3.578,-4.417 -1.045,1.602 -1.434,3.628 -0.901,5.623z"/>
   <path class="fil2" d="M106.367 29.916c2.049,-0.18 3.81,-1.239 4.95,-2.775 -1.388,-1.313 -3.305,-2.048 -5.354,-1.868 -2.048,0.18 -3.809,1.239 -4.949,2.774 1.388,1.313 3.305,2.049 5.353,1.869z"/>
   <path class="fil2" d="M108.57 22.15c0.18,2.058 1.234,3.828 2.761,4.974 1.306,-1.395 2.038,-3.322 1.859,-5.38 -0.179,-2.059 -1.233,-3.83 -2.76,-4.975 -1.307,1.395 -2.038,3.322 -1.86,5.381z"/>
   <path class="fil2" d="M112.031 36.014c2.048,0.18 3.965,-0.555 5.353,-1.868 -1.14,-1.535 -2.901,-2.594 -4.949,-2.775 -2.049,-0.18 -3.966,0.556 -5.353,1.87 1.14,1.534 2.901,2.593 4.949,2.773z"/>
   <path class="fil2" d="M115.543 28.751c-0.179,2.058 0.552,3.985 1.859,5.38 1.527,-1.146 2.581,-2.915 2.76,-4.974 0.179,-2.059 -0.553,-3.986 -1.859,-5.381 -1.527,1.146 -2.582,2.916 -2.76,4.975z"/>
   <path class="fil2" d="M116.562 43.017c1.987,0.535 4.001,0.145 5.595,-0.906 -0.857,-1.711 -2.409,-3.061 -4.395,-3.596 -1.986,-0.535 -4.001,-0.145 -5.594,0.906 0.858,1.711 2.408,3.061 4.394,3.596z"/>
   <path class="fil2" d="M121.276 36.476c-0.532,1.996 -0.144,4.022 0.901,5.624 1.702,-0.863 3.046,-2.421 3.578,-4.417 0.533,-1.996 0.144,-4.022 -0.901,-5.624 -1.703,0.863 -3.046,2.421 -3.578,4.417z"/>
   <path class="fil2" d="M119.825 50.71c1.863,0.873 3.915,0.841 5.665,0.084 -0.548,-1.833 -1.842,-3.434 -3.705,-4.309 -1.863,-0.872 -3.916,-0.84 -5.667,-0.083 0.549,1.834 1.843,3.435 3.707,4.308z"/>
   <path class="fil2" d="M125.596 45.092c-0.869,1.872 -0.836,3.935 -0.084,5.694 1.825,-0.55 3.418,-1.852 4.287,-3.724 0.869,-1.874 0.837,-3.936 0.084,-5.695 -1.825,0.551 -3.418,1.852 -4.287,3.725z"/>
   <path class="fil2" d="M121.717 58.861c1.685,1.185 3.711,1.511 5.566,1.071 -0.223,-1.902 -1.221,-3.704 -2.906,-4.889 -1.683,-1.186 -3.71,-1.512 -5.565,-1.073 0.224,1.903 1.222,3.705 2.905,4.891z"/>
   <path class="fil2" d="M128.372 54.335c-1.179,1.692 -1.503,3.729 -1.066,5.594 1.893,-0.225 3.686,-1.228 4.865,-2.921 1.18,-1.693 1.504,-3.729 1.067,-5.594 -1.893,0.225 -3.686,1.228 -4.866,2.921z"/>
   <path class="fil2" d="M122.185 67.22c1.453,1.461 3.393,2.136 5.296,2.027 0.108,-1.913 -0.563,-3.861 -2.017,-5.322 -1.454,-1.462 -3.393,-2.136 -5.296,-2.028 -0.109,1.913 0.563,3.862 2.017,5.323z"/>
   <path class="fil2" d="M129.52 63.925c-1.454,1.461 -2.125,3.409 -2.017,5.322 1.903,0.109 3.842,-0.566 5.296,-2.027 1.454,-1.461 2.126,-3.41 2.017,-5.323 -1.903,-0.108 -3.842,0.566 -5.296,2.028z"/>
   <path class="fil2" d="M121.205 75.472c1.18,1.693 2.973,2.696 4.865,2.921 0.439,-1.865 0.114,-3.902 -1.066,-5.594 -1.179,-1.693 -2.972,-2.696 -4.865,-2.921 -0.437,1.865 -0.112,3.902 1.066,5.594z"/>
   <path class="fil2" d="M128.999 73.506c-1.684,1.186 -2.682,2.989 -2.906,4.891 1.855,0.44 3.882,0.113 5.566,-1.072 1.684,-1.185 2.682,-2.988 2.906,-4.891 -1.856,-0.439 -3.882,-0.112 -5.566,1.072z"/>
   <path class="fil2" d="M118.805 83.429c0.869,1.872 2.462,3.173 4.287,3.725 0.753,-1.76 0.784,-3.823 -0.084,-5.695 -0.87,-1.873 -2.461,-3.174 -4.287,-3.725 -0.752,1.76 -0.785,3.822 0.084,5.695z"/>
   <path class="fil2" d="M126.819 82.853c-1.863,0.873 -3.158,2.474 -3.706,4.309 1.751,0.756 3.803,0.789 5.666,-0.084 1.863,-0.874 3.158,-2.474 3.707,-4.309 -1.751,-0.756 -3.802,-0.789 -5.667,0.084z"/>
   <path class="fil2" d="M115.055 90.849c0.533,1.996 1.876,3.554 3.579,4.416 1.045,-1.602 1.433,-3.627 0.901,-5.623 -0.532,-1.996 -1.876,-3.555 -3.578,-4.417 -1.045,1.602 -1.434,3.627 -0.902,5.624z"/>
   <path class="fil2" d="M123.047 91.681c-1.985,0.534 -3.536,1.885 -4.393,3.596 1.593,1.051 3.608,1.44 5.594,0.906 1.986,-0.536 3.537,-1.886 4.395,-3.596 -1.594,-1.052 -3.61,-1.441 -5.596,-0.906z"/>
   <path class="fil2" d="M110.071 97.505c0.18,2.059 1.234,3.829 2.761,4.974 1.306,-1.394 2.038,-3.321 1.859,-5.38 -0.18,-2.058 -1.234,-3.828 -2.761,-4.974 -1.306,1.395 -2.038,3.322 -1.859,5.38z"/>
   <path class="fil2" d="M117.798 99.72c-2.048,0.18 -3.809,1.239 -4.949,2.774 1.388,1.314 3.305,2.049 5.353,1.869 2.048,-0.18 3.809,-1.24 4.949,-2.775 -1.388,-1.312 -3.304,-2.048 -5.353,-1.868z"/>
   <path class="fil2" d="M104.004 103.198c-0.18,2.058 0.552,3.985 1.859,5.38 1.527,-1.146 2.581,-2.915 2.76,-4.974 0.18,-2.058 -0.553,-3.986 -1.859,-5.381 -1.527,1.146 -2.581,2.917 -2.76,4.975z"/>
   <path class="fil2" d="M111.23 106.727c-2.048,-0.18 -3.965,0.556 -5.352,1.869 1.139,1.535 2.9,2.594 4.948,2.774 2.048,0.18 3.966,-0.555 5.354,-1.868 -1.14,-1.535 -2.902,-2.595 -4.95,-2.775z"/>
   <path class="fil2" d="M97.036 107.753c-0.531,1.996 -0.144,4.021 0.902,5.623 1.702,-0.862 3.046,-2.421 3.578,-4.418 0.532,-1.995 0.144,-4.021 -0.901,-5.622 -1.702,0.861 -3.046,2.42 -3.579,4.417z"/>
   <path class="fil2" d="M103.544 112.49c-1.986,-0.536 -4.001,-0.145 -5.594,0.906 0.857,1.711 2.408,3.061 4.394,3.596 1.986,0.535 4.001,0.145 5.595,-0.906 -0.858,-1.711 -2.409,-3.062 -4.395,-3.596z"/>
   <path class="fil2" d="M89.382 111.031c-0.868,1.873 -0.836,3.935 -0.083,5.696 1.825,-0.552 3.417,-1.853 4.287,-3.726 0.868,-1.873 0.836,-3.935 0.083,-5.695 -1.825,0.552 -3.418,1.853 -4.287,3.725z"/>
   <path class="fil2" d="M94.972 116.832c-1.863,-0.874 -3.914,-0.841 -5.665,-0.084 0.549,1.834 1.842,3.435 3.705,4.309 1.864,0.873 3.916,0.841 5.667,0.084 -0.549,-1.835 -1.843,-3.435 -3.707,-4.309z"/>
   <path class="fil2" d="M82.613 14.287c1.932,0.708 3.973,0.495 5.651,-0.412 -0.705,-1.779 -2.133,-3.261 -4.066,-3.967 -1.932,-0.708 -3.973,-0.495 -5.652,0.412 0.706,1.78 2.134,3.261 4.067,3.967z"/>
   <path class="fil2" d="M64.729 132.571l-3.378 -0.6c9.586,-9.533 21.271,-13.277 27.837,-15.514 0.622,-0.212 1.2,-0.409 1.728,-0.594 21.749,-7.651 36.362,-27.877 36.362,-50.329 0,-25.267 -18.485,-47.309 -43.954,-52.413l0.163 -0.827c25.861,5.181 44.63,27.572 44.63,53.24 0,22.811 -14.839,43.356 -36.924,51.126 -0.529,0.185 -1.109,0.383 -1.736,0.596 -6.497,2.214 -15.279,5.919 -24.728,15.315z"/>
  </g>
  <path class="fil1" d="M85.286 35.806c-0.16,0.999 -0.745,2.465 -2.477,2.699 -0.329,0.042 -0.552,0.064 -0.786,0.042l0 0.989c0.223,0.01 0.542,0 0.871,-0.053 2.37,-0.255 3.635,-2.264 3.635,-4.828 0,-1.971 -0.915,-3.365 -2.551,-3.365 -1.583,0 -2.593,1.328 -2.593,2.821 0,1.44 0.914,2.439 2.211,2.439 0.712,0 1.275,-0.287 1.658,-0.744l0.032 0zm-1.372 -3.613c0.904,0 1.361,0.937 1.361,2.26 0,0.223 -0.032,0.363 -0.085,0.469 -0.234,0.416 -0.691,0.756 -1.276,0.756 -0.807,0 -1.296,-0.692 -1.296,-1.641 0,-1.077 0.531,-1.844 1.296,-1.844z"/>
  <path class="fil3" d="M62.605 61.757l0 -7.693 2.886 0c0.588,0 1.059,0.077 1.415,0.233 0.355,0.156 0.632,0.395 0.833,0.72 0.203,0.322 0.302,0.66 0.302,1.015 0,0.328 -0.089,0.638 -0.266,0.928 -0.178,0.29 -0.446,0.525 -0.806,0.704 0.465,0.136 0.824,0.369 1.072,0.698 0.251,0.328 0.376,0.716 0.376,1.164 0,0.362 -0.076,0.696 -0.229,1.006 -0.152,0.31 -0.34,0.548 -0.564,0.717 -0.223,0.166 -0.505,0.293 -0.841,0.379 -0.339,0.086 -0.753,0.129 -1.243,0.129l-2.935 0zm1.021 -4.459l1.663 0c0.452,0 0.776,-0.03 0.971,-0.089 0.259,-0.078 0.454,-0.206 0.585,-0.385 0.131,-0.179 0.197,-0.403 0.197,-0.673 0,-0.257 -0.061,-0.482 -0.184,-0.676 -0.122,-0.195 -0.297,-0.329 -0.525,-0.401 -0.228,-0.072 -0.618,-0.108 -1.169,-0.108l-1.538 0 0 2.332zm0 3.557l1.915 0c0.33,0 0.561,-0.013 0.696,-0.038 0.232,-0.041 0.429,-0.111 0.587,-0.21 0.157,-0.098 0.287,-0.241 0.388,-0.43 0.102,-0.187 0.153,-0.404 0.153,-0.649 0,-0.288 -0.074,-0.538 -0.223,-0.751 -0.147,-0.213 -0.35,-0.361 -0.612,-0.447 -0.26,-0.086 -0.635,-0.129 -1.124,-0.129l-1.78 0 0 2.654zm9.873 -0.903l0.978 0.129c-0.152,0.568 -0.437,1.01 -0.852,1.324 -0.416,0.313 -0.945,0.47 -1.592,0.47 -0.813,0 -1.458,-0.25 -1.934,-0.751 -0.477,-0.5 -0.715,-1.204 -0.715,-2.109 0,-0.934 0.241,-1.662 0.722,-2.177 0.482,-0.517 1.107,-0.775 1.875,-0.775 0.743,0 1.35,0.252 1.821,0.759 0.471,0.507 0.708,1.219 0.708,2.138 0,0.055 -0.002,0.14 -0.006,0.251l-4.152 0c0.035,0.61 0.207,1.08 0.519,1.404 0.31,0.324 0.698,0.487 1.162,0.487 0.345,0 0.641,-0.091 0.885,-0.274 0.245,-0.183 0.438,-0.475 0.581,-0.876zm-3.094 -1.515l3.105 0c-0.041,-0.469 -0.161,-0.82 -0.356,-1.055 -0.299,-0.363 -0.689,-0.546 -1.168,-0.546 -0.433,0 -0.796,0.145 -1.092,0.435 -0.294,0.29 -0.457,0.679 -0.489,1.166zm4.891 1.655l0.935 -0.151c0.052,0.375 0.198,0.661 0.438,0.862 0.24,0.198 0.577,0.299 1.007,0.299 0.435,0 0.757,-0.088 0.968,-0.265 0.21,-0.176 0.315,-0.384 0.315,-0.622 0,-0.213 -0.095,-0.381 -0.282,-0.503 -0.133,-0.084 -0.455,-0.189 -0.967,-0.321 -0.692,-0.173 -1.17,-0.324 -1.438,-0.451 -0.267,-0.128 -0.47,-0.304 -0.607,-0.529 -0.138,-0.224 -0.208,-0.473 -0.208,-0.746 0,-0.248 0.057,-0.478 0.17,-0.689 0.115,-0.211 0.269,-0.387 0.464,-0.527 0.147,-0.107 0.347,-0.198 0.6,-0.274 0.254,-0.075 0.525,-0.112 0.815,-0.112 0.437,0 0.82,0.062 1.149,0.19 0.332,0.125 0.575,0.297 0.733,0.512 0.156,0.216 0.265,0.505 0.324,0.867l-0.924 0.128c-0.042,-0.29 -0.163,-0.518 -0.364,-0.68 -0.2,-0.163 -0.483,-0.244 -0.851,-0.244 -0.431,0 -0.741,0.072 -0.926,0.215 -0.184,0.144 -0.277,0.312 -0.277,0.503 0,0.122 0.038,0.233 0.114,0.332 0.078,0.1 0.198,0.184 0.362,0.251 0.096,0.035 0.371,0.116 0.833,0.241 0.666,0.177 1.132,0.324 1.397,0.437 0.265,0.113 0.473,0.279 0.623,0.494 0.152,0.217 0.228,0.486 0.228,0.808 0,0.313 -0.092,0.609 -0.276,0.886 -0.185,0.278 -0.449,0.493 -0.795,0.645 -0.348,0.152 -0.74,0.227 -1.177,0.227 -0.723,0 -1.277,-0.15 -1.656,-0.449 -0.38,-0.301 -0.622,-0.745 -0.727,-1.334zm7.8 0.822l0.129 0.834c-0.265,0.056 -0.503,0.084 -0.711,0.084 -0.342,0 -0.607,-0.054 -0.797,-0.163 -0.187,-0.109 -0.32,-0.25 -0.397,-0.427 -0.077,-0.178 -0.115,-0.55 -0.115,-1.118l0 -3.212 -0.698 0 0 -0.731 0.698 0 0 -1.379 0.946 -0.568 0 1.947 0.945 0 0 0.731 -0.945 0 0 3.265c0,0.271 0.016,0.445 0.05,0.522 0.032,0.077 0.086,0.138 0.161,0.184 0.075,0.045 0.183,0.068 0.322,0.068 0.104,0 0.242,-0.012 0.412,-0.037zm-29.001 10.148l1.021 0.258c-0.213,0.836 -0.596,1.472 -1.149,1.911 -0.554,0.438 -1.231,0.659 -2.031,0.659 -0.828,0 -1.501,-0.169 -2.021,-0.507 -0.519,-0.337 -0.913,-0.826 -1.183,-1.465 -0.271,-0.641 -0.406,-1.327 -0.406,-2.061 0,-0.801 0.151,-1.499 0.458,-2.095 0.306,-0.596 0.741,-1.049 1.306,-1.359 0.564,-0.31 1.185,-0.464 1.862,-0.464 0.77,0 1.416,0.195 1.939,0.587 0.525,0.392 0.89,0.942 1.096,1.651l-0.999 0.236c-0.177,-0.558 -0.437,-0.966 -0.776,-1.221 -0.338,-0.256 -0.764,-0.383 -1.278,-0.383 -0.589,0 -1.084,0.142 -1.479,0.424 -0.396,0.283 -0.675,0.665 -0.835,1.141 -0.161,0.478 -0.241,0.971 -0.241,1.477 0,0.654 0.094,1.226 0.284,1.712 0.19,0.489 0.486,0.853 0.887,1.095 0.401,0.241 0.834,0.362 1.301,0.362 0.57,0 1.05,-0.165 1.444,-0.493 0.394,-0.329 0.66,-0.817 0.8,-1.465zm1.807 -0.089c0,-1.03 0.287,-1.793 0.861,-2.289 0.479,-0.412 1.064,-0.618 1.754,-0.618 0.764,0 1.391,0.251 1.878,0.752 0.485,0.5 0.729,1.193 0.729,2.076 0,0.716 -0.107,1.278 -0.322,1.689 -0.215,0.41 -0.529,0.728 -0.94,0.956 -0.411,0.227 -0.86,0.34 -1.345,0.34 -0.781,0 -1.412,-0.249 -1.893,-0.748 -0.482,-0.5 -0.722,-1.22 -0.722,-2.158zm0.967 0.002c0,0.712 0.156,1.246 0.467,1.599 0.314,0.354 0.706,0.531 1.181,0.531 0.469,0 0.859,-0.177 1.173,-0.533 0.311,-0.357 0.467,-0.899 0.467,-1.628 0,-0.688 -0.158,-1.209 -0.471,-1.562 -0.313,-0.354 -0.704,-0.532 -1.169,-0.532 -0.475,0 -0.867,0.176 -1.181,0.529 -0.311,0.352 -0.467,0.885 -0.467,1.596zm5.364 2.786l0 -5.577 0.848 0 0 0.792c0.409,-0.607 0.999,-0.91 1.771,-0.91 0.337,0 0.645,0.061 0.926,0.181 0.281,0.12 0.493,0.279 0.632,0.475 0.14,0.195 0.239,0.428 0.294,0.696 0.034,0.176 0.052,0.482 0.052,0.919l0 3.424 -0.946 0 0 -3.388c0,-0.385 -0.035,-0.673 -0.109,-0.864 -0.073,-0.189 -0.204,-0.341 -0.39,-0.456 -0.186,-0.113 -0.407,-0.17 -0.657,-0.17 -0.402,0 -0.747,0.127 -1.039,0.383 -0.292,0.254 -0.437,0.739 -0.437,1.452l0 3.043 -0.945 0zm5.599 -1.666l0.935 -0.15c0.052,0.374 0.199,0.661 0.439,0.861 0.24,0.199 0.576,0.299 1.006,0.299 0.435,0 0.758,-0.087 0.969,-0.265 0.209,-0.175 0.315,-0.383 0.315,-0.621 0,-0.213 -0.095,-0.382 -0.283,-0.503 -0.132,-0.084 -0.455,-0.19 -0.967,-0.321 -0.691,-0.174 -1.169,-0.324 -1.438,-0.451 -0.266,-0.129 -0.469,-0.304 -0.607,-0.53 -0.138,-0.224 -0.208,-0.473 -0.208,-0.745 0,-0.249 0.058,-0.478 0.171,-0.689 0.114,-0.212 0.268,-0.387 0.463,-0.527 0.147,-0.108 0.348,-0.198 0.6,-0.274 0.255,-0.075 0.525,-0.113 0.815,-0.113 0.437,0 0.82,0.063 1.15,0.19 0.331,0.125 0.575,0.297 0.732,0.512 0.156,0.217 0.265,0.505 0.324,0.867l-0.924 0.129c-0.041,-0.29 -0.163,-0.518 -0.363,-0.68 -0.201,-0.163 -0.484,-0.244 -0.851,-0.244 -0.432,0 -0.741,0.071 -0.926,0.215 -0.184,0.143 -0.278,0.312 -0.278,0.503 0,0.122 0.038,0.233 0.115,0.331 0.077,0.101 0.197,0.184 0.362,0.251 0.095,0.036 0.371,0.116 0.833,0.242 0.666,0.177 1.131,0.324 1.396,0.437 0.266,0.112 0.473,0.279 0.624,0.494 0.152,0.217 0.227,0.485 0.227,0.807 0,0.314 -0.091,0.609 -0.275,0.887 -0.185,0.277 -0.45,0.492 -0.796,0.645 -0.347,0.152 -0.739,0.227 -1.176,0.227 -0.724,0 -1.277,-0.151 -1.657,-0.449 -0.379,-0.301 -0.621,-0.745 -0.727,-1.335zm9.391 1.666l0 -0.829c-0.433,0.632 -1.021,0.947 -1.764,0.947 -0.327,0 -0.634,-0.063 -0.919,-0.188 -0.284,-0.127 -0.496,-0.284 -0.633,-0.475 -0.138,-0.191 -0.235,-0.424 -0.291,-0.699 -0.037,-0.187 -0.057,-0.481 -0.057,-0.882l0 -3.451 0.945 0 0 3.086c0,0.492 0.02,0.825 0.058,0.996 0.059,0.248 0.184,0.442 0.378,0.584 0.192,0.141 0.428,0.212 0.711,0.212 0.282,0 0.548,-0.071 0.795,-0.217 0.247,-0.144 0.422,-0.343 0.526,-0.592 0.102,-0.249 0.154,-0.612 0.154,-1.087l0 -2.982 0.946 0 0 5.577 -0.849 0zm2.334 0l0 -5.577 0.848 0 0 0.789c0.174,-0.273 0.406,-0.493 0.697,-0.658 0.29,-0.166 0.62,-0.249 0.99,-0.249 0.412,0 0.75,0.086 1.014,0.256 0.263,0.172 0.449,0.41 0.557,0.719 0.444,-0.651 1.018,-0.975 1.728,-0.975 0.555,0 0.983,0.152 1.28,0.458 0.299,0.307 0.449,0.778 0.449,1.414l0 3.823 -0.945 0 0 -3.51c0,-0.376 -0.032,-0.648 -0.093,-0.815 -0.061,-0.166 -0.172,-0.299 -0.335,-0.401 -0.161,-0.102 -0.351,-0.152 -0.568,-0.152 -0.394,0 -0.72,0.13 -0.979,0.39 -0.26,0.262 -0.389,0.679 -0.389,1.252l0 3.236 -0.945 0 0 -3.619c0,-0.419 -0.077,-0.735 -0.231,-0.944 -0.154,-0.209 -0.407,-0.315 -0.756,-0.315 -0.265,0 -0.51,0.07 -0.736,0.21 -0.226,0.139 -0.389,0.343 -0.49,0.614 -0.101,0.268 -0.151,0.657 -0.151,1.164l0 2.89 -0.945 0zm12.753 -1.805l0.978 0.129c-0.152,0.567 -0.437,1.01 -0.852,1.323 -0.416,0.313 -0.946,0.471 -1.592,0.471 -0.813,0 -1.458,-0.25 -1.934,-0.752 -0.477,-0.499 -0.715,-1.203 -0.715,-2.108 0,-0.934 0.241,-1.662 0.722,-2.177 0.482,-0.518 1.107,-0.776 1.875,-0.776 0.743,0 1.35,0.253 1.821,0.76 0.471,0.506 0.708,1.219 0.708,2.137 0,0.056 -0.002,0.14 -0.006,0.251l-4.153 0c0.036,0.611 0.208,1.08 0.52,1.404 0.31,0.324 0.698,0.487 1.162,0.487 0.345,0 0.641,-0.091 0.884,-0.274 0.246,-0.182 0.439,-0.474 0.582,-0.875zm-3.094 -1.515l3.105 0c-0.041,-0.469 -0.161,-0.821 -0.356,-1.055 -0.299,-0.364 -0.69,-0.546 -1.168,-0.546 -0.433,0 -0.797,0.145 -1.092,0.435 -0.294,0.29 -0.457,0.679 -0.489,1.166zm5.256 3.32l0 -5.577 0.849 0 0 0.855c0.217,-0.396 0.417,-0.658 0.602,-0.783 0.184,-0.127 0.386,-0.19 0.607,-0.19 0.319,0 0.642,0.101 0.972,0.3l-0.337 0.871c-0.229,-0.129 -0.458,-0.193 -0.687,-0.193 -0.206,0 -0.391,0.063 -0.554,0.186 -0.163,0.124 -0.279,0.296 -0.349,0.516 -0.105,0.335 -0.157,0.702 -0.157,1.101l0 2.914 -0.946 0zm-49.179 9.532l0.956 -0.086c0.045,0.387 0.15,0.704 0.317,0.953 0.166,0.247 0.424,0.448 0.773,0.602 0.349,0.152 0.743,0.229 1.18,0.229 0.389,0 0.731,-0.057 1.029,-0.174 0.297,-0.116 0.517,-0.276 0.662,-0.478 0.145,-0.202 0.219,-0.422 0.219,-0.659 0,-0.24 -0.071,-0.45 -0.21,-0.63 -0.14,-0.179 -0.371,-0.33 -0.693,-0.453 -0.206,-0.079 -0.663,-0.205 -1.37,-0.375 -0.707,-0.17 -1.202,-0.329 -1.484,-0.48 -0.368,-0.193 -0.64,-0.433 -0.819,-0.718 -0.181,-0.285 -0.27,-0.605 -0.27,-0.958 0,-0.39 0.111,-0.753 0.331,-1.091 0.22,-0.338 0.541,-0.594 0.965,-0.769 0.423,-0.176 0.894,-0.263 1.411,-0.263 0.57,0 1.073,0.09 1.508,0.275 0.435,0.183 0.77,0.453 1.004,0.811 0.235,0.357 0.361,0.761 0.378,1.213l-0.977 0.075c-0.052,-0.485 -0.23,-0.853 -0.532,-1.099 -0.302,-0.25 -0.751,-0.373 -1.341,-0.373 -0.616,0 -1.066,0.113 -1.347,0.338 -0.281,0.226 -0.423,0.498 -0.423,0.817 0,0.276 0.101,0.503 0.299,0.682 0.198,0.177 0.708,0.362 1.535,0.548 0.828,0.189 1.395,0.351 1.703,0.491 0.446,0.206 0.777,0.465 0.991,0.782 0.212,0.316 0.318,0.679 0.318,1.091 0,0.41 -0.116,0.793 -0.351,1.155 -0.234,0.362 -0.569,0.643 -1.008,0.844 -0.439,0.2 -0.931,0.3 -1.481,0.3 -0.695,0 -1.277,-0.102 -1.746,-0.304 -0.471,-0.203 -0.838,-0.507 -1.105,-0.915 -0.268,-0.407 -0.408,-0.867 -0.422,-1.381zm11.023 1.773c-0.351,0.299 -0.689,0.509 -1.014,0.632 -0.324,0.124 -0.671,0.185 -1.044,0.185 -0.612,0 -1.083,-0.149 -1.412,-0.448 -0.33,-0.297 -0.495,-0.679 -0.495,-1.143 0,-0.271 0.063,-0.521 0.186,-0.746 0.126,-0.226 0.289,-0.405 0.489,-0.541 0.203,-0.136 0.429,-0.24 0.681,-0.31 0.186,-0.048 0.468,-0.095 0.842,-0.141 0.762,-0.09 1.327,-0.199 1.687,-0.325 0.003,-0.128 0.005,-0.211 0.005,-0.245 0,-0.383 -0.089,-0.653 -0.269,-0.811 -0.241,-0.213 -0.602,-0.319 -1.078,-0.319 -0.445,0 -0.775,0.079 -0.986,0.235 -0.214,0.155 -0.37,0.431 -0.471,0.829l-0.924 -0.129c0.084,-0.396 0.222,-0.717 0.415,-0.96 0.194,-0.244 0.473,-0.43 0.838,-0.562 0.364,-0.131 0.788,-0.197 1.268,-0.197 0.476,0 0.865,0.055 1.164,0.168 0.297,0.113 0.518,0.253 0.657,0.423 0.14,0.17 0.239,0.385 0.296,0.644 0.03,0.161 0.046,0.452 0.046,0.869l0 1.254c0,0.875 0.02,1.429 0.06,1.663 0.037,0.235 0.116,0.458 0.231,0.673l-0.989 0c-0.095,-0.199 -0.156,-0.431 -0.183,-0.698zm-0.075 -2.095c-0.344,0.139 -0.859,0.258 -1.547,0.354 -0.391,0.056 -0.667,0.119 -0.828,0.188 -0.161,0.071 -0.284,0.172 -0.372,0.305 -0.088,0.134 -0.133,0.283 -0.133,0.448 0,0.248 0.095,0.458 0.287,0.624 0.192,0.167 0.471,0.251 0.838,0.251 0.364,0 0.688,-0.079 0.972,-0.238 0.283,-0.157 0.493,-0.374 0.625,-0.648 0.102,-0.213 0.153,-0.527 0.153,-0.94l0.005 -0.344zm4.461 1.95l0.129 0.835c-0.266,0.055 -0.504,0.083 -0.711,0.083 -0.342,0 -0.607,-0.053 -0.797,-0.163 -0.188,-0.109 -0.321,-0.25 -0.397,-0.427 -0.078,-0.178 -0.115,-0.55 -0.115,-1.117l0 -3.213 -0.699 0 0 -0.731 0.699 0 0 -1.379 0.945 -0.568 0 1.947 0.946 0 0 0.731 -0.946 0 0 3.266c0,0.27 0.016,0.444 0.051,0.521 0.032,0.077 0.085,0.138 0.161,0.184 0.075,0.045 0.182,0.068 0.322,0.068 0.104,0 0.242,-0.012 0.412,-0.037zm0.933 -5.775l0 -1.075 0.945 0 0 1.075 -0.945 0zm0 6.618l0 -5.576 0.945 0 0 5.576 -0.945 0zm2.011 -1.665l0.935 -0.151c0.052,0.375 0.198,0.661 0.438,0.862 0.24,0.199 0.577,0.299 1.007,0.299 0.435,0 0.757,-0.087 0.968,-0.265 0.21,-0.176 0.316,-0.384 0.316,-0.621 0,-0.214 -0.095,-0.382 -0.283,-0.504 -0.133,-0.084 -0.455,-0.189 -0.967,-0.32 -0.692,-0.174 -1.17,-0.325 -1.438,-0.452 -0.267,-0.128 -0.469,-0.304 -0.607,-0.529 -0.138,-0.224 -0.208,-0.473 -0.208,-0.746 0,-0.248 0.057,-0.478 0.17,-0.689 0.115,-0.211 0.269,-0.386 0.464,-0.526 0.147,-0.108 0.348,-0.199 0.6,-0.274 0.254,-0.075 0.525,-0.113 0.815,-0.113 0.437,0 0.82,0.062 1.149,0.19 0.332,0.125 0.575,0.297 0.733,0.512 0.156,0.217 0.265,0.505 0.324,0.867l-0.924 0.129c-0.042,-0.29 -0.163,-0.518 -0.363,-0.681 -0.201,-0.163 -0.484,-0.244 -0.851,-0.244 -0.432,0 -0.742,0.072 -0.926,0.215 -0.185,0.144 -0.278,0.312 -0.278,0.503 0,0.122 0.038,0.233 0.115,0.332 0.077,0.1 0.197,0.184 0.362,0.251 0.095,0.035 0.37,0.116 0.832,0.241 0.666,0.177 1.132,0.325 1.397,0.437 0.265,0.113 0.473,0.28 0.624,0.495 0.151,0.216 0.227,0.485 0.227,0.807 0,0.313 -0.092,0.609 -0.276,0.886 -0.185,0.278 -0.449,0.493 -0.795,0.645 -0.348,0.153 -0.74,0.228 -1.177,0.228 -0.723,0 -1.276,-0.151 -1.656,-0.45 -0.38,-0.3 -0.621,-0.745 -0.727,-1.334zm5.974 1.665l0 -4.845 -0.838 0 0 -0.731 0.838 0 0 -0.591c0,-0.374 0.032,-0.652 0.098,-0.832 0.091,-0.244 0.249,-0.443 0.478,-0.595 0.228,-0.152 0.548,-0.227 0.96,-0.227 0.267,0 0.561,0.031 0.883,0.094l-0.141 0.827c-0.198,-0.033 -0.382,-0.052 -0.557,-0.052 -0.287,0 -0.489,0.062 -0.609,0.184 -0.118,0.121 -0.177,0.349 -0.177,0.682l0 0.51 1.085 0 0 0.731 -1.075 0 0 4.845 -0.945 0zm6.402 -0.698c-0.351,0.299 -0.69,0.509 -1.014,0.632 -0.324,0.124 -0.671,0.185 -1.044,0.185 -0.612,0 -1.083,-0.149 -1.413,-0.448 -0.329,-0.297 -0.494,-0.679 -0.494,-1.143 0,-0.271 0.063,-0.521 0.186,-0.746 0.126,-0.226 0.289,-0.405 0.489,-0.541 0.203,-0.136 0.428,-0.24 0.68,-0.31 0.187,-0.048 0.468,-0.095 0.843,-0.141 0.762,-0.09 1.327,-0.199 1.686,-0.325 0.004,-0.128 0.005,-0.211 0.005,-0.245 0,-0.383 -0.089,-0.653 -0.268,-0.811 -0.242,-0.213 -0.602,-0.319 -1.078,-0.319 -0.446,0 -0.775,0.079 -0.987,0.235 -0.213,0.155 -0.369,0.431 -0.47,0.829l-0.925 -0.129c0.084,-0.396 0.222,-0.717 0.415,-0.96 0.194,-0.244 0.473,-0.43 0.839,-0.562 0.363,-0.131 0.788,-0.197 1.267,-0.197 0.477,0 0.866,0.055 1.164,0.168 0.298,0.113 0.518,0.253 0.658,0.423 0.14,0.17 0.238,0.385 0.296,0.644 0.03,0.161 0.046,0.452 0.046,0.869l0 1.254c0,0.875 0.02,1.429 0.059,1.663 0.037,0.235 0.117,0.458 0.231,0.673l-0.988 0c-0.096,-0.199 -0.156,-0.431 -0.183,-0.698zm-0.076 -2.095c-0.343,0.139 -0.859,0.258 -1.547,0.354 -0.39,0.056 -0.666,0.119 -0.827,0.188 -0.161,0.071 -0.285,0.172 -0.372,0.305 -0.088,0.134 -0.133,0.283 -0.133,0.448 0,0.248 0.095,0.458 0.286,0.624 0.192,0.167 0.472,0.251 0.839,0.251 0.363,0 0.687,-0.079 0.972,-0.238 0.283,-0.157 0.493,-0.374 0.625,-0.648 0.102,-0.213 0.152,-0.527 0.152,-0.94l0.005 -0.344zm6.052 0.752l0.924 0.129c-0.103,0.636 -0.36,1.132 -0.778,1.491 -0.417,0.361 -0.931,0.54 -1.538,0.54 -0.761,0 -1.373,-0.249 -1.835,-0.747 -0.464,-0.498 -0.695,-1.211 -0.695,-2.138 0,-0.602 0.1,-1.126 0.299,-1.578 0.199,-0.45 0.501,-0.788 0.91,-1.012 0.406,-0.225 0.849,-0.338 1.329,-0.338 0.603,0 1.099,0.152 1.482,0.458 0.385,0.306 0.632,0.742 0.74,1.304l-0.914 0.14c-0.087,-0.375 -0.241,-0.656 -0.465,-0.846 -0.222,-0.188 -0.491,-0.283 -0.806,-0.283 -0.476,0 -0.863,0.17 -1.162,0.511 -0.297,0.342 -0.446,0.879 -0.446,1.617 0,0.748 0.143,1.291 0.43,1.629 0.288,0.339 0.662,0.509 1.122,0.509 0.373,0 0.683,-0.113 0.93,-0.34 0.249,-0.226 0.406,-0.575 0.473,-1.046zm3.782 1.198l0.129 0.835c-0.266,0.055 -0.504,0.083 -0.711,0.083 -0.342,0 -0.608,-0.053 -0.797,-0.163 -0.188,-0.109 -0.321,-0.25 -0.398,-0.427 -0.077,-0.178 -0.114,-0.55 -0.114,-1.117l0 -3.213 -0.699 0 0 -0.731 0.699 0 0 -1.379 0.945 -0.568 0 1.947 0.946 0 0 0.731 -0.946 0 0 3.266c0,0.27 0.016,0.444 0.051,0.521 0.031,0.077 0.085,0.138 0.161,0.184 0.075,0.045 0.182,0.068 0.322,0.068 0.104,0 0.242,-0.012 0.412,-0.037zm0.933 -5.775l0 -1.075 0.945 0 0 1.075 -0.945 0zm0 6.618l0 -5.576 0.945 0 0 5.576 -0.945 0zm2.032 -2.788c0,-1.029 0.287,-1.792 0.862,-2.289 0.478,-0.411 1.063,-0.617 1.753,-0.617 0.764,0 1.391,0.251 1.878,0.752 0.485,0.5 0.729,1.192 0.729,2.075 0,0.717 -0.107,1.279 -0.322,1.689 -0.215,0.41 -0.529,0.729 -0.94,0.956 -0.411,0.228 -0.86,0.341 -1.345,0.341 -0.781,0 -1.411,-0.249 -1.893,-0.749 -0.482,-0.499 -0.722,-1.219 -0.722,-2.158zm0.967 0.002c0,0.713 0.156,1.246 0.467,1.599 0.314,0.355 0.706,0.532 1.181,0.532 0.469,0 0.859,-0.177 1.173,-0.533 0.311,-0.357 0.467,-0.9 0.467,-1.629 0,-0.687 -0.158,-1.208 -0.471,-1.561 -0.313,-0.354 -0.704,-0.532 -1.169,-0.532 -0.475,0 -0.867,0.176 -1.181,0.529 -0.311,0.352 -0.467,0.884 -0.467,1.595zm5.364 2.786l0 -5.576 0.848 0 0 0.792c0.409,-0.607 1,-0.91 1.771,-0.91 0.337,0 0.645,0.061 0.926,0.18 0.282,0.121 0.493,0.28 0.632,0.475 0.14,0.196 0.239,0.428 0.294,0.697 0.034,0.175 0.052,0.481 0.052,0.918l0 3.424 -0.946 0 0 -3.388c0,-0.385 -0.035,-0.673 -0.109,-0.863 -0.073,-0.19 -0.204,-0.342 -0.39,-0.456 -0.186,-0.113 -0.407,-0.171 -0.657,-0.171 -0.402,0 -0.747,0.127 -1.039,0.384 -0.292,0.254 -0.437,0.739 -0.437,1.452l0 3.042 -0.945 0z"/>
 </g>
</svg>
